<?xml version="1.0" encoding="utf-8"?>
<!-- Generator: Adobe Illustrator 19.0.0, SVG Export Plug-In . SVG Version: 6.00 Build 0)  -->
<svg version="1.1" xmlns="http://www.w3.org/2000/svg" xmlns:xlink="http://www.w3.org/1999/xlink" x="0px" y="0px"
	 viewBox="0 0 400 50" style="enable-background:new 0 0 400 50;" xml:space="preserve">
<style type="text/css">
	.st0{fill:#666666;}
	.st1{fill:#91BAB1;}
</style>
<g id="fixed_icon">
	<g id="XMLID_38_">
		<g id="XMLID_39_">
			<path id="XMLID_120_" class="st0" d="M38.6,40.5c-9.9,0.1-19.9-0.2-29.8,0.2c-1.2,0-1.1,1.9,0.1,1.9c9.9-0.4,19.9-0.1,29.8-0.2
				C39.8,42.4,39.7,40.5,38.6,40.5z"/>
			<path id="XMLID_119_" class="st0" d="M8.8,30.8c-1.2,0-1.1,1.9,0.1,1.9c9.9-0.4,19.9-0.1,29.8-0.2c1.2,0,1.1-1.9-0.1-1.9
				C28.6,30.7,18.7,30.4,8.8,30.8z"/>
			<path id="XMLID_118_" class="st0" d="M38.5,23.1c-9.9,0.1-19.9-0.2-29.8,0.2c-1.2,0-1.1,1.9,0.1,1.9c9.9-0.4,19.9-0.1,29.8-0.2
				C39.7,24.9,39.7,23,38.5,23.1z"/>
			<path id="XMLID_117_" class="st0" d="M38.5,26.9c-9.9,0.2-19.8,0-29.8,0.4c-1.2,0-1.1,1.4,0,1.3c9.9-0.4,19.8-0.2,29.8-0.4
				C39.7,28.2,39.7,26.9,38.5,26.9z"/>
			<path id="XMLID_116_" class="st0" d="M8.7,7.7c-1.2,0-1.1,1.9,0.1,1.9c9.9-0.4,19.9-0.1,29.8-0.2c1.2,0,1.1-1.9-0.1-1.9
				C28.6,7.6,18.6,7.3,8.7,7.7z"/>
			<path id="XMLID_115_" class="st0" d="M8.8,13.1c9.9-0.4,19.8-0.2,29.8-0.4c1.2,0,1.1-1.4,0-1.3c-9.9,0.2-19.8,0-29.8,0.4
				C7.6,11.8,7.6,13.1,8.8,13.1z"/>
			<path id="XMLID_114_" class="st0" d="M38.5,34.4c-9.9,0.1-19.9-0.2-29.8,0.2c-1.2,0-1.1,4.3,0.1,4.2c9.9-0.4,19.9-0.1,29.8-0.2
				C39.8,38.6,39.7,34.4,38.5,34.4z"/>
			<path id="XMLID_113_" class="st0" d="M38.5,15c-9.9,0.1-19.9-0.2-29.8,0.2c-1.2,0-1.1,6.2,0.1,6.1c9.9-0.4,19.9-0.1,29.8-0.2
				C39.7,21.2,39.7,15,38.5,15z"/>
			<path id="XMLID_91_" class="st0" d="M40.7,39.9c-0.8,1.4,4.2,3.3,3.9,0c-0.1-0.9-0.7-1.3-1.4-1.4c-0.1,0-0.3,0-0.4,0
				C41.8,38.6,41.1,39,40.7,39.9z M43.2,39.9C43.2,40,43.3,40,43.2,39.9C43.3,40,43.3,40,43.2,39.9C43.3,40,43.3,40,43.2,39.9
				c0,0.1,0,0.1,0,0.1c0,0.1,0,0.1-0.1,0.2c-0.4,0.2-0.8,0.1-1.1-0.1C42.4,40,42.8,39.9,43.2,39.9C43.2,39.9,43.2,40,43.2,39.9z"/>
			<path id="XMLID_87_" class="st0" d="M40.7,33.8c-0.8,1.4,4.2,3.3,3.9,0c-0.1-0.9-0.7-1.3-1.4-1.4c-0.1,0-0.3,0-0.4,0
				C41.8,32.5,41.1,32.9,40.7,33.8z M43.2,33.9C43.2,33.9,43.3,33.9,43.2,33.9C43.3,33.9,43.3,33.9,43.2,33.9
				C43.3,33.9,43.3,33.9,43.2,33.9c0,0.1,0,0.1,0,0.1c0,0.1,0,0.1-0.1,0.2c-0.4,0.2-0.8,0.1-1.1-0.1C42.4,33.9,42.8,33.8,43.2,33.9
				C43.2,33.8,43.2,33.9,43.2,33.9z"/>
			<path id="XMLID_74_" class="st0" d="M40.7,27.7c-0.8,1.4,4.2,3.3,3.9,0c-0.1-0.9-0.7-1.3-1.4-1.4c-0.1,0-0.3,0-0.4,0
				C41.8,26.4,41.1,26.8,40.7,27.7z M43.2,27.8C43.2,27.8,43.3,27.8,43.2,27.8C43.3,27.8,43.3,27.8,43.2,27.8
				C43.3,27.8,43.3,27.8,43.2,27.8c0,0.1,0,0.1,0,0.1c0,0.1,0,0.1-0.1,0.2c-0.4,0.2-0.8,0.1-1.1-0.1C42.4,27.8,42.8,27.7,43.2,27.8
				C43.2,27.7,43.2,27.8,43.2,27.8z"/>
			<path id="XMLID_51_" class="st0" d="M40.7,21.6c-0.8,1.4,4.2,3.3,3.9,0c-0.1-0.9-0.7-1.3-1.4-1.4c-0.1,0-0.3,0-0.4,0
				C41.8,20.3,41.1,20.8,40.7,21.6z M43.2,21.7C43.2,21.7,43.3,21.7,43.2,21.7C43.3,21.7,43.3,21.7,43.2,21.7
				C43.3,21.7,43.3,21.8,43.2,21.7c0,0.1,0,0.1,0,0.1c0,0.1,0,0.1-0.1,0.2c-0.4,0.2-0.8,0.1-1.1-0.1C42.4,21.7,42.8,21.6,43.2,21.7
				C43.2,21.7,43.2,21.7,43.2,21.7z"/>
			<path id="XMLID_46_" class="st0" d="M40.7,15.6c-0.8,1.4,4.2,3.3,3.9,0c-0.1-0.9-0.7-1.3-1.4-1.4c-0.1,0-0.3,0-0.4,0
				C41.8,14.2,41.1,14.7,40.7,15.6z M43.2,15.6C43.2,15.6,43.3,15.6,43.2,15.6C43.3,15.7,43.3,15.7,43.2,15.6
				C43.3,15.6,43.3,15.7,43.2,15.6c0,0.1,0,0.1,0,0.1c0,0.1,0,0.1-0.1,0.2c-0.4,0.2-0.8,0.1-1.1-0.1C42.4,15.6,42.8,15.5,43.2,15.6
				C43.2,15.6,43.2,15.6,43.2,15.6z"/>
			<path id="XMLID_40_" class="st0" d="M40.7,9.5c-0.8,1.4,4.2,3.3,3.9,0c-0.1-0.9-0.7-1.3-1.4-1.4c-0.1,0-0.3,0-0.4,0
				C41.8,8.1,41.1,8.6,40.7,9.5z M43.2,9.5C43.2,9.5,43.3,9.5,43.2,9.5C43.3,9.6,43.3,9.6,43.2,9.5C43.3,9.6,43.3,9.6,43.2,9.5
				c0,0.1,0,0.1,0,0.1c0,0.1,0,0.1-0.1,0.2c-0.4,0.2-0.8,0.1-1.1-0.1C42.4,9.5,42.8,9.4,43.2,9.5C43.2,9.5,43.2,9.5,43.2,9.5z"/>
		</g>
	</g>
	<g id="XMLID_42_">
		<path id="XMLID_137_" class="st0" d="M125.4,15.8c-0.3-0.3-0.6-0.4-0.9-0.4c-0.3,0-0.7,0.1-0.9,0.4l-8.6,7.7
			c-0.5,0.5-0.5,1.3,0,1.8c0.5,0.5,1.3,0.5,1.8,0l7.7-6.9l7.7,6.9c0.5,0.5,1.3,0.5,1.8,0c0.5-0.5,0.5-1.3,0-1.8L125.4,15.8z"/>
		<path id="XMLID_17_" class="st0" d="M125.4,24.2c-0.3-0.3-0.6-0.4-0.9-0.4c-0.3,0-0.7,0.1-0.9,0.4l-8.6,7.6
			c-0.5,0.5-0.5,1.3,0,1.8c0.5,0.5,1.3,0.5,1.8,0l7.7-6.8l7.7,6.8c0.5,0.5,1.3,0.5,1.8,0c0.5-0.5,0.5-1.3,0-1.8L125.4,24.2z"/>
		<path id="XMLID_140_" class="st0" d="M135.3,11.5c-2.3-2-5.2-2.8-8.2-3.2c-8-2.5-15,2.7-18.1,10c-3.3,7.8-1.8,16.6,5.5,21.5
			c7.4,5,17.5,2.9,23.2-3.6C143.9,29,142.4,17.6,135.3,11.5z M121.7,40c-4.2-0.6-8.3-3.2-10.4-6.9c-1.9-3.3-1.9-7.4-1-11
			c1.3-5.5,5.3-10.5,10.4-11.7c0,0,0,0,0,0c1.9,0.1,3.8,0.1,5.8,0.3c0.2,0.1,0.4,0.1,0.5,0.2c0.3,0.1,0.6,0.1,0.8,0
			c2.1,0.3,4.1,1,5.7,2.3c3.7,2.9,5.7,8.2,5.6,12.9C139,34.9,130,41.2,121.7,40z"/>
	</g>
	<g id="XMLID_148_">
		<path id="XMLID_274_" class="st0" d="M224.1,16L224.1,16L224.1,16c0.3,1.4,1.4,2.5,2.7,3.2c1.4,0.7,3,1,4.3,0.7l0,0l0,0
			c1.1-0.3,2.5-0.9,3.3-2c0.6-0.8,1.1-1.8,1-3.1h0l0,0c-0.2-2-0.8-3.3-2-4.2c-1.2-0.9-2.8-1.2-4.9-1l0,0v0c-0.3,0-0.6,0.1-0.9,0.1
			c-1.3,0.3-2.3,1.1-2.9,2.1c-0.6,1-0.9,2.2-0.8,3.4C224,15.4,224,15.6,224.1,16L224.1,16L224.1,16L224.1,16L224.1,16z M222.3,16.3
			L222.3,16.3L222.3,16.3c-0.1-0.4-0.1-0.7-0.2-1.1c-0.1-1.5,0.2-3.1,1.1-4.5c0.8-1.3,2.2-2.4,4-2.8c0.4-0.1,0.8-0.1,1.2-0.2v0l0,0
			l0,0c2.5-0.2,4.6,0.3,6.1,1.4c1.6,1.2,2.5,3,2.7,5.5l0,0h0l0,0c0.1,1.8-0.4,3.3-1.4,4.4c-1.2,1.4-2.9,2.3-4.3,2.6l0,0
			c-1.8,0.4-3.8,0.1-5.6-0.8C224.2,19.8,222.8,18.3,222.3,16.3C222.3,16.4,222.3,16.3,222.3,16.3L222.3,16.3z"/>
		<path id="XMLID_153_" class="st0" d="M241.7,34.7c0,0.2,0,0.3,0,0.7h0l0,0c0,0.5-0.4,0.9-0.9,0.9c-0.9,0-2,0.1-3.4,0.2
			c-5.2,0.3-13.1,0.9-19.1-0.1c-0.4-0.1-0.7-0.4-0.8-0.8c-0.1-1.4,0-2.8,0.2-4.1c0.2-1.6,0.6-3,1-3.9c0.8-1.8,1.6-3.5,2.9-4.8
			c1.4-1.3,3.2-2.3,6-2.4c3.4-0.2,5.9,0.3,8,1.4c2,1.2,3.5,3,4.7,5.4C241.4,29.1,241.6,31.9,241.7,34.7L241.7,34.7z M239.9,34.6
			c-0.2-2.5-0.4-5-1.2-6.7c-1-2.1-2.3-3.6-4-4.6c-1.7-1-4-1.4-7-1.2c-2.3,0.2-3.8,0.9-4.9,1.9c-1.1,1.1-1.9,2.6-2.5,4.2
			c-0.3,0.8-0.7,2-0.9,3.4c-0.1,1-0.2,2-0.2,3.1c5.7,0.8,13.1,0.3,18,0C238.4,34.7,239.2,34.6,239.9,34.6L239.9,34.6z"/>
		<path id="XMLID_152_" class="st0" d="M218.3,26.1c-1.8-0.9-3.2-2.5-3.6-4.4l0,0c-0.1-0.4-0.1-0.7-0.2-1.1
			c-0.1-1.5,0.2-3.1,1.1-4.5c0.8-1.3,2.2-2.4,4-2.8c0.4-0.1,0.8-0.1,1.2-0.2l0,0v0l0,0c2.5-0.2,4.5,0.2,6,1.3c0,0,0,0,0.1,0
			c1.6,1.2,2.5,3,2.7,5.5l0,0h0l0,0c0.1,1.8-0.4,3.3-1.4,4.4c-1.2,1.4-2.9,2.3-4.3,2.6l0,0C222.1,27.4,220,27,218.3,26.1L218.3,26.1
			z"/>
		<path id="XMLID_151_" class="st0" d="M216.4,21.3c0.3,1.4,1.4,2.5,2.7,3.2c1.4,0.7,3,1,4.3,0.7l0,0c1.1-0.3,2.5-0.9,3.3-2
			c0.6-0.8,1.1-1.8,1-3.1h0l0,0c-0.2-2-0.8-3.3-2-4.2c0,0,0,0-0.1,0c-1.2-0.8-2.8-1.2-4.9-1v0l0,0c-0.3,0-0.6,0.1-0.9,0.1
			c-1.3,0.3-2.3,1.1-2.9,2.1c-0.6,1-0.9,2.2-0.8,3.4C216.3,20.7,216.3,21,216.4,21.3L216.4,21.3L216.4,21.3z"/>
		<path id="XMLID_150_" class="st0" d="M234,40c0,0.2,0,0.3,0,0.7l0,0l0,0c0,0.5-0.4,0.9-0.9,0.9c-0.9,0-2,0.1-3.4,0.2
			c-5.2,0.3-13.1,0.9-19.1-0.1c-0.4-0.1-0.7-0.4-0.8-0.8c-0.1-1.4,0-2.8,0.2-4.1c0.2-1.6,0.6-3,1-3.9c0.8-1.8,1.6-3.5,2.9-4.8
			c1.4-1.3,3.2-2.3,6-2.4c3.4-0.2,5.9,0.3,8,1.4c2,1.2,3.5,3,4.7,5.4C233.7,34.5,233.9,37.3,234,40L234,40z"/>
		<path id="XMLID_149_" class="st0" d="M232.3,39.9c-0.2-2.5-0.4-5-1.2-6.7c-1-2.1-2.3-3.6-4-4.6c-1.7-1-4-1.4-7-1.2
			c-2.3,0.2-3.8,0.9-4.9,1.9c-1.1,1.1-1.9,2.6-2.5,4.2c-0.3,0.8-0.7,2-0.9,3.4c-0.1,1-0.2,2-0.2,3.1c5.7,0.8,13.1,0.3,18,0
			C230.7,40,231.5,40,232.3,39.9L232.3,39.9z"/>
	</g>
	<g id="XMLID_19_">
		<path id="XMLID_29_" class="st0" d="M316.9,31.9c0.3,1.1,0.5,1.9,0.7,2.7c0.4,0,0.7,0.1,1.1,0.1c3.4,0,6.8,0.1,10.2,0.1
			c2.3,0,4.7-0.1,7-0.1c1.1,0,3.2,1.3,3.6,2.3c0.6,1.3,0.3,3-0.7,4.1c-1.2,1.2-3.6,1.4-4.8,0.3c-1.2-1.1-1.3-3.1-0.2-4.5
			c0.1-0.2,0.3-0.4,0.6-0.7c-3.6-0.1-6.9-0.1-10.4-0.2c0.2,0.5,0.5,0.8,0.6,1.2c0.9,2.1-0.2,4.5-2.5,5c-2.1,0.5-4.1-1-4.1-3.2
			c0-1,0.3-1.9,0.5-2.9c-0.1,0-0.1-0.1-0.2-0.1c-1.9-0.1-1.8-0.1-2.4-1.9c-1.2-4.2-2.5-8.3-3.6-12.5c-0.8-2.8-1.4-5.7-2.1-8.5
			c-0.2-0.8-0.4-1.7-0.7-2.5c-0.2-0.7-0.6-1.3-1.5-1.5c0,0.2-0.1,0.3-0.1,0.4c-0.1,1.5-1.1,2.5-2.6,2.4c-0.8,0-1.2-0.6-1.5-1.3
			c-0.3-0.7,0-1.3,0.4-1.9c0.8-0.9,1.8-1.1,2.9-1.1c2.4,0.1,3,0.6,3.7,2.9c0,0.1,0.1,0.2,0.1,0.3c0.6,2,0.6,2,2.6,2
			c4.1,0,8.1,0.1,12.2,0.1c2.9,0,5.7-0.1,8.6,0c3.1,0,6.1,0.1,9.2,0.2c0.1,0,0.3,0,0.4,0c1,0.1,1.2,0.4,1.1,1.4c-0.4,3-1,6-1.9,9
			c-0.6,2.2-1.1,4.5-1.6,6.8c-0.1,0.5-0.3,0.9-0.4,1.5C333.3,32.2,325.2,31.3,316.9,31.9z M311.9,14.3c0.2,0.9,0.2,1.5,0.4,2.1
			c1.3,4.3,2.6,8.7,3.9,13c0.3,1,0.5,1.2,1.6,1.2c1.6,0,3.1-0.2,4.7-0.2c3.2,0.1,6.4,0.3,9.6,0.4c2.3,0.1,4.7,0,7-0.1
			c1.2,0,1.2-0.1,1.4-1.2c0.2-1,0.4-2,0.7-3c1.2-3.8,2.1-7.8,2.9-12C333.3,14.1,322.7,13.9,311.9,14.3z M320.4,36.5
			c-0.8,1-1.3,2-0.6,3.2c0.6,1.1,1.4,1.6,2.5,1.2c1.1-0.4,1.7-1.4,1.4-2.5C323.3,37.2,322.5,36.1,320.4,36.5z M338.4,38.7
			c0-1.3-0.6-2-1.8-2c-1.1,0-2.2,1.1-2.2,2.3c0,1.1,0.9,2,1.9,2C337.7,40.9,338.4,40.1,338.4,38.7z M305,9.8c0.6,0.9,1.2,1.2,2,0.4
			c-0.3-0.4-0.5-0.9-0.9-1C305.9,9.2,305.4,9.6,305,9.8z"/>
		<path id="XMLID_25_" class="st0" d="M314.4,17.1c0.4-0.1,0.6-0.2,0.9-0.2c5.1,0.1,10.2,0.2,15.3,0.3c2.3,0,4.7,0.1,7,0.1
			c0.3,0,0.7-0.1,1,0c0.5,0,0.8,0.4,0.8,0.9c0,0.2-0.4,0.4-0.7,0.5c-0.3,0.1-0.7,0-1,0c-3.5-0.1-7-0.3-10.5-0.4
			c-2.7-0.1-5.3-0.1-8-0.1c-1.2,0-2.5,0-3.7,0.1C314.7,18.4,314.5,17.9,314.4,17.1z"/>
		<path id="XMLID_24_" class="st0" d="M339,23.3c-7.8-0.1-15.4-0.2-23.2-0.3c-0.1-0.1-0.2-0.5-0.4-0.9c1.1-0.5,2.2-0.3,3.2-0.3
			c2.5-0.1,5.1-0.1,7.6,0c3,0,6,0.2,9,0.2c0.9,0,1.7,0,2.6-0.1C338.8,21.9,339.1,22.4,339,23.3z"/>
		<path id="XMLID_22_" class="st0" d="M316.9,26.1c0.8,0,1.4,0.1,2,0.1c5.6,0,11.2,0,16.8,0.1c0.8,0,1.6,0,2.5,0.1
			c0.5,0,0.8,0.4,0.7,0.9c-0.1,0.5-0.5,0.4-0.9,0.4c-5.2-0.1-10.3-0.2-15.5-0.2c-1.4,0-2.8,0-4.2,0
			C317.5,27.5,317.1,27.1,316.9,26.1z"/>
		<path id="XMLID_21_" class="st0" d="M320.2,38.9c0.3-0.7,0.6-1.4,1.3-1.2c0.4,0.1,0.8,0.8,0.9,1.3c0.1,0.2-0.4,0.8-0.8,0.9
			C320.9,40.2,320.4,39.7,320.2,38.9z"/>
		<path id="XMLID_20_" class="st0" d="M337.2,38.8c0,0.7-0.5,1.2-1.1,1.2c-0.5,0-0.8-0.3-0.8-0.8c0-0.6,0.5-1.2,1-1.1
			C336.7,38.2,337,38.6,337.2,38.8z"/>
	</g>
</g>
<g id="icon_hover">
	<g id="XMLID_196_">
		<path id="XMLID_201_" class="st1" d="M175.3,15.8c-0.3-0.3-0.6-0.4-0.9-0.4c-0.3,0-0.7,0.1-0.9,0.4l-8.6,7.7
			c-0.5,0.5-0.5,1.3,0,1.8c0.5,0.5,1.3,0.5,1.8,0l7.7-6.9l7.7,6.9c0.5,0.5,1.3,0.5,1.8,0c0.5-0.5,0.5-1.3,0-1.8L175.3,15.8z"/>
		<path id="XMLID_200_" class="st1" d="M175.3,24.2c-0.3-0.3-0.6-0.4-0.9-0.4c-0.3,0-0.7,0.1-0.9,0.4l-8.6,7.6
			c-0.5,0.5-0.5,1.3,0,1.8c0.5,0.5,1.3,0.5,1.8,0l7.7-6.8l7.7,6.8c0.5,0.5,1.3,0.5,1.8,0c0.5-0.5,0.5-1.3,0-1.8L175.3,24.2z"/>
		<path id="XMLID_197_" class="st1" d="M185.2,11.5c-2.3-2-5.2-2.8-8.2-3.2c-8-2.5-15,2.7-18.1,10c-3.3,7.8-1.8,16.6,5.5,21.5
			c7.4,5,17.5,2.9,23.2-3.6C193.8,29,192.2,17.6,185.2,11.5z M171.6,40c-4.2-0.6-8.3-3.2-10.4-6.9c-1.9-3.3-1.9-7.4-1-11
			c1.3-5.5,5.3-10.5,10.4-11.7c0,0,0,0,0,0c1.9,0.1,3.8,0.1,5.8,0.3c0.2,0.1,0.4,0.1,0.5,0.2c0.3,0.1,0.6,0.1,0.8,0
			c2.1,0.3,4.1,1,5.7,2.3c3.7,2.9,5.7,8.2,5.6,12.9C188.9,34.9,179.9,41.2,171.6,40z"/>
	</g>
	<g id="XMLID_185_">
		<path id="XMLID_193_" class="st1" d="M273.7,16L273.7,16L273.7,16c0.3,1.4,1.4,2.5,2.7,3.2c1.4,0.7,3,1,4.3,0.7l0,0l0,0
			c1.1-0.3,2.5-0.9,3.3-2c0.6-0.8,1.1-1.8,1-3.1h0l0,0c-0.2-2-0.8-3.3-2-4.2c-1.2-0.9-2.8-1.2-4.9-1l0,0v0c-0.3,0-0.6,0.1-0.9,0.1
			c-1.3,0.3-2.3,1.1-2.9,2.1c-0.6,1-0.9,2.2-0.8,3.4C273.6,15.4,273.6,15.6,273.7,16L273.7,16L273.7,16L273.7,16L273.7,16z
			 M271.9,16.3L271.9,16.3L271.9,16.3c-0.1-0.4-0.1-0.7-0.2-1.1c-0.1-1.5,0.2-3.1,1.1-4.5c0.8-1.3,2.2-2.4,4-2.8
			c0.4-0.1,0.8-0.1,1.2-0.2v0l0,0l0,0c2.5-0.2,4.6,0.3,6.1,1.4c1.6,1.2,2.5,3,2.7,5.5l0,0h0l0,0c0.1,1.8-0.4,3.3-1.4,4.4
			c-1.2,1.4-2.9,2.3-4.3,2.6l0,0c-1.8,0.4-3.8,0.1-5.6-0.8C273.8,19.8,272.4,18.3,271.9,16.3C271.9,16.4,271.9,16.3,271.9,16.3
			L271.9,16.3z"/>
		<path id="XMLID_190_" class="st1" d="M291.3,34.7c0,0.2,0,0.3,0,0.7h0l0,0c0,0.5-0.4,0.9-0.9,0.9c-0.9,0-2,0.1-3.4,0.2
			c-5.2,0.3-13.1,0.9-19.1-0.1c-0.4-0.1-0.7-0.4-0.8-0.8c-0.1-1.4,0-2.8,0.2-4.1c0.2-1.6,0.6-3,1-3.9c0.8-1.8,1.6-3.5,2.9-4.8
			c1.4-1.3,3.2-2.3,6-2.4c3.4-0.2,5.9,0.3,8,1.4c2,1.2,3.5,3,4.7,5.4C290.9,29.1,291.1,31.9,291.3,34.7L291.3,34.7z M289.5,34.6
			c-0.2-2.5-0.4-5-1.2-6.7c-1-2.1-2.3-3.6-4-4.6c-1.7-1-4-1.4-7-1.2c-2.3,0.2-3.8,0.9-4.9,1.9c-1.1,1.1-1.9,2.6-2.5,4.2
			c-0.3,0.8-0.7,2-0.9,3.4c-0.1,1-0.2,2-0.2,3.1c5.7,0.8,13.1,0.3,18,0C287.9,34.7,288.8,34.6,289.5,34.6L289.5,34.6z"/>
		<path id="XMLID_189_" class="st1" d="M267.9,26.1c-1.8-0.9-3.2-2.5-3.6-4.4l0,0c-0.1-0.4-0.1-0.7-0.2-1.1
			c-0.1-1.5,0.2-3.1,1.1-4.5c0.8-1.3,2.2-2.4,4-2.8c0.4-0.1,0.8-0.1,1.2-0.2l0,0v0l0,0c2.5-0.2,4.5,0.2,6,1.3c0,0,0,0,0.1,0
			c1.6,1.2,2.5,3,2.7,5.5l0,0h0l0,0c0.1,1.8-0.4,3.3-1.4,4.4c-1.2,1.4-2.9,2.3-4.3,2.6l0,0C271.7,27.4,269.6,27,267.9,26.1
			L267.9,26.1z"/>
		<path id="XMLID_188_" class="st1" d="M266,21.3c0.3,1.4,1.4,2.5,2.7,3.2c1.4,0.7,3,1,4.3,0.7l0,0c1.1-0.3,2.5-0.9,3.3-2
			c0.6-0.8,1.1-1.8,1-3.1h0l0,0c-0.2-2-0.8-3.3-2-4.2c0,0,0,0-0.1,0c-1.2-0.8-2.8-1.2-4.9-1v0l0,0c-0.3,0-0.6,0.1-0.9,0.1
			c-1.3,0.3-2.3,1.1-2.9,2.1c-0.6,1-0.9,2.2-0.8,3.4C265.9,20.7,265.9,21,266,21.3L266,21.3L266,21.3z"/>
		<path id="XMLID_187_" class="st1" d="M283.6,40c0,0.2,0,0.3,0,0.7l0,0l0,0c0,0.5-0.4,0.9-0.9,0.9c-0.9,0-2,0.1-3.4,0.2
			c-5.2,0.3-13.1,0.9-19.1-0.1c-0.4-0.1-0.7-0.4-0.8-0.8c-0.1-1.4,0-2.8,0.2-4.1c0.2-1.6,0.6-3,1-3.9c0.8-1.8,1.6-3.5,2.9-4.8
			c1.4-1.3,3.2-2.3,6-2.4c3.4-0.2,5.9,0.3,8,1.4c2,1.2,3.5,3,4.7,5.4C283.3,34.5,283.4,37.3,283.6,40L283.6,40z"/>
		<path id="XMLID_186_" class="st1" d="M281.8,39.9c-0.2-2.5-0.4-5-1.2-6.7c-1-2.1-2.3-3.6-4-4.6c-1.7-1-4-1.4-7-1.2
			c-2.3,0.2-3.8,0.9-4.9,1.9c-1.1,1.1-1.9,2.6-2.5,4.2c-0.3,0.8-0.7,2-0.9,3.4c-0.1,1-0.2,2-0.2,3.1c5.7,0.8,13.1,0.3,18,0
			C280.3,40,281.1,40,281.8,39.9L281.8,39.9z"/>
	</g>
	<g id="XMLID_173_">
		<path id="XMLID_179_" class="st1" d="M366.6,31.9c0.3,1.1,0.5,1.9,0.7,2.7c0.4,0,0.7,0.1,1.1,0.1c3.4,0,6.8,0.1,10.2,0.1
			c2.3,0,4.7-0.1,7-0.1c1.1,0,3.2,1.3,3.6,2.3c0.6,1.3,0.3,3-0.7,4.1c-1.2,1.2-3.6,1.4-4.8,0.3c-1.2-1.1-1.3-3.1-0.2-4.5
			c0.1-0.2,0.3-0.4,0.6-0.7c-3.6-0.1-6.9-0.1-10.4-0.2c0.2,0.5,0.5,0.8,0.6,1.2c0.9,2.1-0.2,4.5-2.5,5c-2.1,0.5-4.1-1-4.1-3.2
			c0-1,0.3-1.9,0.5-2.9c-0.1,0-0.1-0.1-0.2-0.1c-1.9-0.1-1.8-0.1-2.4-1.9c-1.2-4.2-2.5-8.3-3.6-12.5c-0.8-2.8-1.4-5.7-2.1-8.5
			c-0.2-0.8-0.4-1.7-0.7-2.5c-0.2-0.7-0.6-1.3-1.5-1.5c0,0.2-0.1,0.3-0.1,0.4c-0.1,1.5-1.1,2.5-2.6,2.4c-0.8,0-1.2-0.6-1.5-1.3
			c-0.3-0.7,0-1.3,0.4-1.9c0.8-0.9,1.8-1.1,2.9-1.1c2.4,0.1,3,0.6,3.7,2.9c0,0.1,0.1,0.2,0.1,0.3c0.6,2,0.6,2,2.6,2
			c4.1,0,8.1,0.1,12.2,0.1c2.9,0,5.7-0.1,8.6,0c3.1,0,6.1,0.1,9.2,0.2c0.1,0,0.3,0,0.4,0c1,0.1,1.2,0.4,1.1,1.4c-0.4,3-1,6-1.9,9
			c-0.6,2.2-1.1,4.5-1.6,6.8c-0.1,0.5-0.3,0.9-0.4,1.5C383,32.2,374.9,31.3,366.6,31.9z M361.6,14.3c0.2,0.9,0.2,1.5,0.4,2.1
			c1.3,4.3,2.6,8.7,3.9,13c0.3,1,0.5,1.2,1.6,1.2c1.6,0,3.1-0.2,4.7-0.2c3.2,0.1,6.4,0.3,9.6,0.4c2.3,0.1,4.7,0,7-0.1
			c1.2,0,1.2-0.1,1.4-1.2c0.2-1,0.4-2,0.7-3c1.2-3.8,2.1-7.8,2.9-12C383.1,14.1,372.5,13.9,361.6,14.3z M370.2,36.5
			c-0.8,1-1.3,2-0.6,3.2c0.6,1.1,1.4,1.6,2.5,1.2c1.1-0.4,1.7-1.4,1.4-2.5C373.1,37.2,372.3,36.1,370.2,36.5z M388.2,38.7
			c0-1.3-0.6-2-1.8-2c-1.1,0-2.2,1.1-2.2,2.3c0,1.1,0.9,2,1.9,2C387.5,40.9,388.2,40.1,388.2,38.7z M354.8,9.8
			c0.6,0.9,1.2,1.2,2,0.4c-0.3-0.4-0.5-0.9-0.9-1C355.6,9.2,355.2,9.6,354.8,9.8z"/>
		<path id="XMLID_178_" class="st1" d="M364.2,17.1c0.4-0.1,0.6-0.2,0.9-0.2c5.1,0.1,10.2,0.2,15.3,0.3c2.3,0,4.7,0.1,7,0.1
			c0.3,0,0.7-0.1,1,0c0.5,0,0.8,0.4,0.8,0.9c0,0.2-0.4,0.4-0.7,0.5c-0.3,0.1-0.7,0-1,0c-3.5-0.1-7-0.3-10.5-0.4
			c-2.7-0.1-5.3-0.1-8-0.1c-1.2,0-2.5,0-3.7,0.1C364.5,18.4,364.3,17.9,364.2,17.1z"/>
		<path id="XMLID_177_" class="st1" d="M388.8,23.3c-7.8-0.1-15.4-0.2-23.2-0.3c-0.1-0.1-0.2-0.5-0.4-0.9c1.1-0.5,2.2-0.3,3.2-0.3
			c2.5-0.1,5.1-0.1,7.6,0c3,0,6,0.2,9,0.2c0.9,0,1.7,0,2.6-0.1C388.5,21.9,388.8,22.4,388.8,23.3z"/>
		<path id="XMLID_176_" class="st1" d="M366.7,26.1c0.8,0,1.4,0.1,2,0.1c5.6,0,11.2,0,16.8,0.1c0.8,0,1.6,0,2.5,0.1
			c0.5,0,0.8,0.4,0.7,0.9c-0.1,0.5-0.5,0.4-0.9,0.4c-5.2-0.1-10.3-0.2-15.5-0.2c-1.4,0-2.8,0-4.2,0
			C367.3,27.5,366.9,27.1,366.7,26.1z"/>
		<path id="XMLID_175_" class="st1" d="M370,38.9c0.3-0.7,0.6-1.4,1.3-1.2c0.4,0.1,0.8,0.8,0.9,1.3c0.1,0.2-0.4,0.8-0.8,0.9
			C370.7,40.2,370.2,39.7,370,38.9z"/>
		<path id="XMLID_174_" class="st1" d="M387,38.8c0,0.7-0.5,1.2-1.1,1.2c-0.5,0-0.8-0.3-0.8-0.8c0-0.6,0.5-1.2,1-1.1
			C386.4,38.2,386.8,38.6,387,38.8z"/>
	</g>
</g>
</svg>
