<?xml version="1.0" encoding="utf-8"?>
<!-- Generator: Adobe Illustrator 19.0.0, SVG Export Plug-In . SVG Version: 6.00 Build 0)  -->
<svg version="1.1" id="Layer_1" xmlns="http://www.w3.org/2000/svg" xmlns:xlink="http://www.w3.org/1999/xlink" x="0px" y="0px"
	 viewBox="50 151 400 100" style="enable-background:new 50 151 400 100;" xml:space="preserve">
<style type="text/css">
	.st0{display:none;fill:#6C979E;}
	.st1{enable-background:new    ;}
	.st2{fill:#FFFFFF;stroke:#FFFFFF;stroke-miterlimit:10;}
</style>
<rect id="XMLID_2_" x="-73" y="77" class="st0" width="1024" height="717.8"/>
<g class="st1">
	<path class="st2" d="M55.4,198.3c0-6,0-7.1-0.1-8.3c-0.1-1.3-0.4-2-1.9-2.2c-0.3-0.1-1.1-0.1-1.7-0.1c-0.5,0-0.7-0.1-0.7-0.4
		c0-0.3,0.3-0.4,1-0.4c2.3,0,5,0.1,6.2,0.1c1.8,0,4.3-0.1,6.3-0.1c5.4,0,7.4,1.7,8,2.2c1,0.8,2.2,2.6,2.2,4.7
		c0,5.6-4.5,9.5-10.6,9.5c-0.2,0-0.7,0-0.9,0c-0.2,0-0.5-0.1-0.5-0.4c0-0.3,0.3-0.4,1.2-0.4c2.4,0,5.8-2.5,5.8-6.5
		c0-1.3-0.1-3.9-2.6-5.9c-1.6-1.3-3.3-1.5-4.3-1.5c-0.6,0-1.3,0-1.7,0.2c-0.2,0.1-0.3,0.3-0.3,0.7v15.7c0,3.6,0,6.7,0.2,8.4
		c0.1,1.1,0.4,2,1.7,2.1c0.6,0.1,1.6,0.2,2.2,0.2c0.5,0,0.7,0.1,0.7,0.3c0,0.3-0.3,0.4-0.8,0.4c-2.9,0-5.6-0.1-6.7-0.1
		c-1,0-3.7,0.1-5.5,0.1c-0.6,0-0.9-0.1-0.9-0.4c0-0.2,0.2-0.3,0.7-0.3c0.6,0,1.2-0.1,1.6-0.2c0.9-0.2,1.1-1,1.3-2.2
		c0.2-1.7,0.2-4.8,0.2-8.4V198.3z"/>
	<path class="st2" d="M83.3,206.4c-0.2,0-0.3,0.1-0.4,0.3l-2.3,5.6c-0.4,1-0.6,1.9-0.6,2.4c0,0.7,0.4,1.2,1.7,1.2h0.6
		c0.5,0,0.6,0.1,0.6,0.3c0,0.3-0.3,0.4-0.7,0.4c-1.4,0-3.2-0.1-4.6-0.1c-0.5,0-2.9,0.1-5.1,0.1c-0.6,0-0.8-0.1-0.8-0.4
		c0-0.2,0.2-0.3,0.5-0.3c0.4,0,1,0,1.3-0.1c2-0.2,2.8-1.6,3.7-3.5l10.9-24.7c0.5-1.1,0.8-1.6,1.2-1.6c0.4,0,0.6,0.4,1.1,1.3
		c1,2.2,8,18.2,10.7,24.2c1.6,3.5,2.9,4.1,3.8,4.3c0.6,0.1,1.3,0.2,1.8,0.2c0.3,0,0.6,0,0.6,0.3c0,0.3-0.4,0.4-2,0.4
		c-1.6,0-4.7,0-8.2-0.1c-0.8,0-1.3,0-1.3-0.3c0-0.2,0.2-0.3,0.6-0.4c0.3-0.1,0.6-0.4,0.4-0.9l-3.5-8.3c-0.1-0.2-0.2-0.3-0.4-0.3
		H83.3z M92.1,204.4c0.2,0,0.3-0.1,0.2-0.2l-3.9-9.7c0-0.2-0.1-0.4-0.2-0.4c-0.1,0-0.2,0.2-0.3,0.4l-4,9.7c0,0.2,0,0.3,0.2,0.3H92.1
		z"/>
	<path class="st2" d="M106.1,190.7c-0.5-1.5-1-2.4-1.6-2.8c-0.5-0.3-1.3-0.4-1.7-0.4c-0.4,0-0.7,0-0.7-0.4c0-0.3,0.3-0.4,1-0.4
		c2.3,0,4.6,0.1,5,0.1c0.4,0,2.3-0.1,4.8-0.1c0.6,0,0.9,0.1,0.9,0.4c0,0.3-0.3,0.4-0.8,0.4c-0.3,0-0.8,0-1.1,0.2
		c-0.4,0.2-0.5,0.4-0.5,0.9c0,0.5,0.4,1.8,1,3.6c0.7,2.6,4.8,14.5,5.5,16.7h0.1l8.4-20.5c0.4-1.1,0.7-1.4,1.1-1.4
		c0.5,0,0.7,0.6,1.3,1.8l9,19.8h0.1c0.8-2.6,4.2-13,5.8-17.6c0.3-0.9,0.4-1.7,0.4-2.3c0-0.6-0.4-1.2-2.1-1.2c-0.4,0-0.7-0.1-0.7-0.4
		c0-0.3,0.3-0.4,1-0.4c2.3,0,4.1,0.1,4.5,0.1c0.3,0,2.2-0.1,3.6-0.1c0.5,0,0.8,0.1,0.8,0.3c0,0.3-0.2,0.4-0.6,0.4
		c-0.4,0-1,0-1.5,0.2c-1,0.4-1.5,1.9-2.4,4.2c-2,5-6.5,17.5-8.7,23.4c-0.5,1.4-0.7,1.8-1.3,1.8c-0.4,0-0.7-0.5-1.3-1.9l-9-19.7h-0.1
		c-0.8,2-6.6,15.9-8.4,19.6c-0.8,1.6-1,2.1-1.6,2.1c-0.4,0-0.6-0.4-1-1.5L106.1,190.7z"/>
	<path class="st2" d="M156.9,198.3c0-6,0-7.1-0.1-8.3c-0.1-1.3-0.4-2-1.9-2.2c-0.3-0.1-1.1-0.1-1.7-0.1c-0.5,0-0.7-0.1-0.7-0.4
		c0-0.3,0.3-0.4,1-0.4c1.2,0,2.4,0,3.5,0c1.1,0,2.1,0.1,2.7,0.1c1.4,0,10,0,10.8,0c0.8-0.1,1.5-0.2,1.9-0.2c0.2,0,0.5-0.2,0.7-0.2
		s0.3,0.2,0.3,0.4c0,0.3-0.2,0.7-0.3,2.6c0,0.4-0.1,2.1-0.2,2.6c0,0.2-0.1,0.4-0.4,0.4s-0.4-0.2-0.4-0.6c0-0.3,0-0.9-0.3-1.4
		c-0.3-0.7-0.7-1.2-2.9-1.4c-0.7-0.1-5.3-0.2-6.1-0.2c-0.2,0-0.3,0.1-0.3,0.4v10c0,0.3,0,0.4,0.3,0.4c1,0,5.9,0,6.9-0.1
		c1-0.1,1.7-0.2,2.1-0.6c0.3-0.3,0.5-0.5,0.7-0.5c0.2,0,0.3,0.1,0.3,0.3s-0.2,0.9-0.3,2.9c0,0.8-0.2,2.4-0.2,2.6
		c0,0.3,0,0.7-0.4,0.7c-0.3,0-0.4-0.2-0.4-0.4c0-0.4,0-0.9-0.2-1.4c-0.2-0.8-0.8-1.4-2.4-1.5c-0.8-0.1-5.1-0.1-6.1-0.1
		c-0.2,0-0.3,0.2-0.3,0.4v3.1c0,1.3,0,5,0,6.1c0.1,2.7,0.8,3.3,5.2,3.3c1.1,0,2.9,0,4.1-0.5c1.1-0.5,1.6-1.3,1.9-2.9
		c0.1-0.4,0.2-0.6,0.5-0.6c0.3,0,0.3,0.3,0.3,0.7c0,0.9-0.3,3.6-0.6,4.4c-0.3,1-0.7,1-2.3,1c-3.2,0-5.6-0.1-7.5-0.1
		c-1.9-0.1-3.2-0.1-4.5-0.1c-0.5,0-1.4,0-2.5,0c-1,0-2.1,0.1-3,0.1c-0.6,0-0.9-0.1-0.9-0.4c0-0.2,0.2-0.3,0.7-0.3
		c0.6,0,1.2-0.1,1.6-0.2c0.9-0.2,1.1-1,1.3-2.2c0.2-1.7,0.2-4.8,0.2-8.4V198.3z"/>
	<path class="st2" d="M184.2,198.3c0-6,0-7.1-0.1-8.3c-0.1-1.3-0.4-2-1.9-2.2c-0.3-0.1-1.1-0.1-1.7-0.1c-0.5,0-0.7-0.1-0.7-0.4
		c0-0.3,0.3-0.4,1-0.4c1.2,0,2.4,0,3.5,0c1.1,0,2.1,0.1,2.7,0.1c1.4,0,10,0,10.8,0c0.8-0.1,1.5-0.2,1.9-0.2c0.2,0,0.5-0.2,0.7-0.2
		c0.2,0,0.3,0.2,0.3,0.4c0,0.3-0.2,0.7-0.3,2.6c0,0.4-0.1,2.1-0.2,2.6c0,0.2-0.1,0.4-0.4,0.4c-0.3,0-0.4-0.2-0.4-0.6
		c0-0.3,0-0.9-0.3-1.4c-0.3-0.7-0.7-1.2-2.9-1.4c-0.7-0.1-5.3-0.2-6.1-0.2c-0.2,0-0.3,0.1-0.3,0.4v10c0,0.3,0,0.4,0.3,0.4
		c1,0,5.9,0,6.9-0.1c1-0.1,1.7-0.2,2.1-0.6c0.3-0.3,0.5-0.5,0.7-0.5c0.2,0,0.3,0.1,0.3,0.3s-0.2,0.9-0.3,2.9c0,0.8-0.2,2.4-0.2,2.6
		c0,0.3,0,0.7-0.4,0.7c-0.3,0-0.4-0.2-0.4-0.4c0-0.4,0-0.9-0.2-1.4c-0.2-0.8-0.8-1.4-2.4-1.5c-0.8-0.1-5.1-0.1-6.1-0.1
		c-0.2,0-0.3,0.2-0.3,0.4v3.1c0,1.3,0,5,0,6.1c0.1,2.7,0.8,3.3,5.2,3.3c1.1,0,2.9,0,4.1-0.5s1.6-1.3,1.9-2.9
		c0.1-0.4,0.2-0.6,0.5-0.6c0.3,0,0.3,0.3,0.3,0.7c0,0.9-0.3,3.6-0.6,4.4c-0.3,1-0.7,1-2.3,1c-3.2,0-5.6-0.1-7.5-0.1
		c-1.9-0.1-3.2-0.1-4.5-0.1c-0.5,0-1.4,0-2.5,0c-1,0-2.1,0.1-3,0.1c-0.6,0-0.9-0.1-0.9-0.4c0-0.2,0.2-0.3,0.7-0.3
		c0.6,0,1.2-0.1,1.6-0.2c0.9-0.2,1.1-1,1.3-2.2c0.2-1.7,0.2-4.8,0.2-8.4V198.3z"/>
	<path class="st2" d="M209.2,216.2c-0.7-0.3-0.8-0.5-0.8-1.3c0-2.2,0.2-4.5,0.2-5.2c0-0.6,0.2-1,0.5-1c0.4,0,0.4,0.4,0.4,0.7
		c0,0.5,0.2,1.3,0.4,2c1,2.9,3.5,4,6.2,4c3.9,0,5.8-2.4,5.8-4.5c0-1.9-0.6-3.7-4.2-6.3l-2-1.4c-4.8-3.4-6.4-6.1-6.4-9.3
		c0-4.3,4-7.4,10-7.4c2.8,0,4.6,0.4,5.8,0.7c0.4,0.1,0.6,0.2,0.6,0.5c0,0.5-0.2,1.7-0.2,4.7c0,0.9-0.1,1.2-0.5,1.2
		c-0.3,0-0.4-0.2-0.4-0.7c0-0.4-0.2-1.6-1.1-2.6c-0.6-0.7-1.9-1.9-4.7-1.9c-3.2,0-5.2,1.7-5.2,4.1c0,1.8,1,3.2,4.6,5.7l1.2,0.8
		c5.2,3.6,7.1,6.3,7.1,10c0,2.3-1,5-4.1,6.8c-2.2,1.3-4.6,1.6-6.9,1.6C213,217.2,211.1,216.9,209.2,216.2z"/>
	<path class="st2" d="M244.9,216.5c-0.3,0-0.6-0.2-0.6-0.6c0-0.3,0.4-0.7,0.9-1c6.1-4.8,14.7-11,14.7-19.3c0-6.2-3.8-7.5-5.9-7.5
		c-1.9,0-3.3,0.3-4.6,1.4c-1,0.9-1.8,2.8-1.8,3.8c0,0.4-0.1,0.7-0.6,0.7c-0.2,0-0.3-0.3-0.4-0.7c0-0.4-0.3-3.6-0.3-4.8
		c0-0.4,0-0.5,0.5-0.8c1.7-0.8,4-1.5,7.8-1.5c7.6,0,10.9,3.8,10.9,8.4c0,7.6-9.3,14.3-14.9,18.3c-0.2,0.2-0.1,0.3,0.1,0.3h2.9
		c0.7,0,5.8,0,7.4-0.2c3-0.3,4.4-1.7,4.9-3.5c0.1-0.5,0.3-0.6,0.5-0.6c0.3,0,0.3,0.4,0.3,0.7c0,0.6-0.8,4.3-1.3,5.6
		c-0.3,1.1-1,1.2-3.8,1.2H244.9z"/>
	<path class="st2" d="M281.3,217.2c-8.5,0-10.9-9-10.9-14.6c0-9.2,3.5-16.3,11.6-16.3c8.6,0,10.9,8.3,10.9,14.5
		C292.8,210.6,288.7,217.2,281.3,217.2z M281,188.1c-3.2,0-5.6,4.1-5.6,13c0,6.8,1.9,14.3,6.6,14.3c3.5,0,5.7-5.4,5.7-13
		C287.7,195.6,285.8,188.1,281,188.1z"/>
	<path class="st2" d="M305.7,198.4c0-2.1,0-3.8,0-5.2c0-0.9,0-1.4-0.6-1.4c-0.8,0-4.1,1.5-5,1.9c-0.2,0.1-0.4,0.2-0.6,0.2
		c-0.1,0-0.3-0.2-0.3-0.4c0-0.2,0.2-0.4,0.4-0.6c0.2-0.1,8.5-5,10-6.1c0.4-0.2,0.8-0.5,1.1-0.5c0.4,0,0.5,0.4,0.5,0.8
		c0,0.3-0.3,4.2-0.3,10.2v7.3c0,3.8,0,7.1,0.2,8.9c0.1,1.3,0.3,1.8,1.7,2.1c0.6,0.1,2.5,0.2,2.9,0.2c0.2,0,0.4,0.1,0.4,0.4
		c0,0.3-0.2,0.4-0.7,0.4c-3.3,0-6.1-0.1-7.2-0.1c-1,0-4.6,0.1-7.4,0.1c-0.5,0-0.7-0.1-0.7-0.4c0-0.3,0.2-0.4,0.3-0.4
		c0.5,0,2.7-0.1,3.5-0.3c1.4-0.3,1.6-0.8,1.7-2.1c0.2-1.7,0.3-5.1,0.2-8.9L305.7,198.4z"/>
	<path class="st2" d="M344.4,187c0.8,0,1,0.1,1,0.3c0,0.2-0.2,0.6-0.3,0.7c-3.6,4.6-10.3,20.3-11,25.3c-0.1,0.7,0,0.9,0,1.5
		c0,0.8-3.5,2.4-5.5,2.4c-0.5,0-0.6-0.1-0.6-0.5c0-0.4,0.1-1,0.3-1.6c1.2-3.8,6.8-15.4,12.7-24.5h-11.2c-1.2,0-3,0.1-4.1,0.7
		c-0.8,0.5-1.3,1.7-1.4,2.4c0,0.3-0.2,0.5-0.4,0.5c-0.3,0-0.3-0.2-0.3-0.6c0-1.5,0.6-6.1,0.6-6.5c0-0.4,0.2-0.6,0.4-0.6
		c0.3,0,1.3,0.4,5.8,0.4H344.4z"/>
</g>
</svg>
