<?xml version="1.0" encoding="utf-8"?>
<!-- Generator: Adobe Illustrator 19.0.0, SVG Export Plug-In . SVG Version: 6.00 Build 0)  -->
<svg version="1.1" id="捲入線" xmlns="http://www.w3.org/2000/svg" xmlns:xlink="http://www.w3.org/1999/xlink" x="0px" y="0px"
	 viewBox="0 0 1580 830" style="enable-background:new 0 0 1580 830;" xml:space="preserve">
<style type="text/css">
	.st0{display:none;}
	.st1{display:inline;}
	.st2{fill:#CEBCA6;}
</style>
<g id="XMLID_272_" class="st0">
	<g id="XMLID_58_" class="st1">
		<g id="XMLID_62_">
			<g id="XMLID_63_">
				<g id="XMLID_70_">
					<path id="XMLID_163_" class="st2" d="M1473.2,221.5c0.1,0,0.1-0.1,0.1-0.1C1473.2,221.4,1473.1,221.4,1473.2,221.5z"/>
					<path id="XMLID_162_" class="st2" d="M1410.8,220.6l0.7-0.1C1411.1,220.6,1410.9,220.6,1410.8,220.6z"/>
					<path id="XMLID_161_" class="st2" d="M1510.5,221.8C1510.5,221.8,1510.5,221.8,1510.5,221.8c0.5,0,1.3,0,2.5,0.1L1510.5,221.8z
						"/>
					<path id="XMLID_160_" class="st2" d="M1277.9,219.7l0.8,0C1278.3,219.7,1278.1,219.6,1277.9,219.7z"/>
					<path id="XMLID_159_" class="st2" d="M1356.7,220.3c-0.2,0.1-0.7,0.1-1.1,0.1C1356.1,220.4,1356.5,220.4,1356.7,220.3z"/>
					<path id="XMLID_158_" class="st2" d="M1530.2,224.6l-1.1-0.2C1529.2,224.5,1529.6,224.6,1530.2,224.6z"/>
					<path id="XMLID_157_" class="st2" d="M1568.1,223.9C1568.1,223.8,1568.1,223.8,1568.1,223.9
						C1568,223.8,1568,223.8,1568.1,223.9z"/>
					<path id="XMLID_156_" class="st2" d="M1553.3,223.1c-0.3,0-0.7,0.1-1.1,0.1C1552.7,223.2,1553.3,223.2,1553.3,223.1z"/>
					<path id="XMLID_155_" class="st2" d="M1551.7,223.2c0.2,0,0.3,0,0.5,0C1552,223.2,1551.7,223.2,1551.7,223.2z"/>
					<path id="XMLID_154_" class="st2" d="M794.9,220.6c-1.1,0-2,0.1-3,0.3L794.9,220.6z"/>
					<path id="XMLID_153_" class="st2" d="M1157.5,219.6l0.2-0.1C1157.5,219.5,1157.5,219.5,1157.5,219.6z"/>
					<path id="XMLID_152_" class="st2" d="M793.6,222.3l-0.8,0C793.1,222.2,793.3,222.3,793.6,222.3z"/>
					<path id="XMLID_151_" class="st2" d="M1510.2,225.1c-1.1,0.2-3.3,0-3.3,0.1C1508,225.3,1509.7,225.4,1510.2,225.1z"/>
					<path id="XMLID_150_" class="st2" d="M1132,226.6l-0.7,0C1131.7,226.6,1131.9,226.6,1132,226.6z"/>
					<path id="XMLID_149_" class="st2" d="M793.6,222.3l0.9,0c-0.1,0-0.2-0.1-0.3-0.1C794,222.2,793.8,222.3,793.6,222.3z"/>
					<path id="XMLID_148_" class="st2" d="M1032.1,219.5C1032.1,219.5,1032.1,219.5,1032.1,219.5c0.1,0,0.2,0,0.3,0L1032.1,219.5z"
						/>
					<path id="XMLID_147_" class="st2" d="M1025.5,219.2c0.5,0,0.9,0,1.4-0.1C1026.1,219.1,1025.7,219.1,1025.5,219.2z"/>
					<path id="XMLID_146_" class="st2" d="M791.9,220.9l-1.7,0.1C790.8,221,791.4,220.9,791.9,220.9z"/>
					<path id="XMLID_145_" class="st2" d="M953.8,219.4c0.2,0,0.4,0,0.7,0C954.2,219.4,953.9,219.4,953.8,219.4z"/>
					<path id="XMLID_144_" class="st2" d="M1361.7,220.4c0.2,0,0.4,0,0.6,0C1362.4,220.4,1362.3,220.4,1361.7,220.4z"/>
					<path id="XMLID_143_" class="st2" d="M1312.2,225.4L1312.2,225.4C1312.2,225.4,1312.2,225.4,1312.2,225.4
						C1312.2,225.4,1312.2,225.4,1312.2,225.4z"/>
					<path id="XMLID_142_" class="st2" d="M1314.8,225.1c-0.8,0-2,0.1-2.6,0.2C1313,225.4,1313.8,225.3,1314.8,225.1z"/>
					<path id="XMLID_141_" class="st2" d="M1306.5,225.3c0.1,0,0.2,0,0.3,0C1306.7,225.3,1306.6,225.3,1306.5,225.3z"/>
					<path id="XMLID_140_" class="st2" d="M1359.7,225.6C1359.7,225.6,1359.7,225.6,1359.7,225.6
						C1359.7,225.6,1359.7,225.6,1359.7,225.6L1359.7,225.6z"/>
					<path id="XMLID_139_" class="st2" d="M1349.2,225.7c-0.2,0-0.4-0.1-0.7-0.1C1348.6,225.6,1348.9,225.7,1349.2,225.7z"/>
					<path id="XMLID_138_" class="st2" d="M1280.3,225.8C1280.3,225.8,1280.3,225.8,1280.3,225.8
						C1280.3,225.8,1280.3,225.8,1280.3,225.8C1280.2,225.8,1280.3,225.8,1280.3,225.8z"/>
					<path id="XMLID_137_" class="st2" d="M1181,227.2c10-0.1,22.9-0.5,32.8-0.4c2.1-0.4,5.3-0.4,8.4-0.5l0.3,0.5l2.6-0.2
						c1.1,0.2-2,0.1-0.1,0.3l1-0.3c0.2,0.2,6.7,0.1,2.3,0.5l10.2,0c2.3,0,1.3-0.4,3.8-0.3c0.5,0.1-0.9,0.1-0.7,0.3
						c7.5,0.4,8.7-1,15.6-0.8l-0.6,0.1c1.2-0.1,3.5-0.1,3.5-0.2c-0.9-0.5-1.3,0.3-3.4,0c0.2-0.4,2.7-0.2,2.5-0.6
						c1.6,0.2,2.6-0.1,4-0.1c2.4,0.3,5.9,0.1,7.7,0.4c1.2-0.1,2.5-0.6,5.1-0.6c1.8,0.3-0.4,0.3,2.1,0.5l0.4-0.3c2,0,1.7,0.1,1.7,0.2
						c2.2,0,1.8-0.3,4.6-0.2l-1.5,0.2c2-0.1,2.9-0.1,5.7,0c-0.1,0.1-1.2,0.1-2,0.1c1.5,0.4,2.6-0.2,3.5-0.1
						c-0.2-0.1-2.2-0.2-1.2-0.4c1.4,0,3-0.3,4,0l-1.5,0.2c2.9-0.2,1.6-0.3,4.9-0.2c-0.2,0-0.1,0.1-0.2,0.1c2.1-0.3,4.9,0,8,0
						l-0.6,0.1c1.3-0.1,2-0.3,2.6-0.3c-1.8-0.1-1.3-0.2-1.5-0.5c2.4,0.4,3.6-0.5,7.5-0.2c-0.1,0.1-1,0.3-2.1,0.2
						c-1.3,0.4-1.5,0.8-3.8,1c1.5-0.1,3.2-0.2,2.8,0l0.5-0.4c0.9,0,1.6,0,2.3,0c0.4-0.3-1.8-0.4,0.3-0.6c2.3-0.1,1.2,0.4,1.6,0.2
						c3.2-0.2,1.3-0.4,4.4-0.3c-0.3,0-0.9,0.1-1.2,0.1c2.2,0.2,5.4-0.1,6.1,0.4c-0.3,0.1-0.4,0.2-1.2,0.2l0-0.1
						c-2.4,0.3,2-0.1,1.3,0.3c-0.2-0.3,2.9-0.2,4.3-0.2l-0.4-0.3c4.6-0.9-0.3,0.6,4.3,0.5c2.9-0.2-1.1-0.1,0.7-0.3
						c2,0.1,2.7,0.3,5.6,0.2c0.8,0.1,2.4,0.3,2.6,0.6c1.8-0.1,5.3,0.1,6.3-0.2c-3-0.3-3,0.3-6.5-0.1l1-0.3c2.4,0,5.5-0.1,7.2,0
						c-0.3-0.1-0.5-0.1-0.3-0.2c3.5-0.1,4.4-0.4,7.8-0.3c0.4,0.3-1.5,0.2-3,0.3c2.2,0.2,2.3,0,5.6,0.1c0.2,0.3-2.3,0-2.6,0.2
						l3.7-0.1c0,0,0,0,0,0.1c0.5-0.4,2.8,0,5.1-0.1c5.4,0,6.2-0.6,9.2-0.9c0.8,0.1,1,0.2,0.7,0.3c-1.3-0.2-1.1,0-1.5,0.1
						c1.8,0,4,0.4,3,0.6c2.9-0.1-1-0.2,0.7-0.4l4,0c-0.5-0.2-1.9-0.3,0.2-0.4c1.7-0.1,2.6,0,4.8,0c-0.3,0.1,0.7,0.3-1,0.3
						c1.1,0.1,2.8,0.1,3.5-0.1c-2.5-0.2,4.1-0.2,2.2-0.5l2.5,0.2c-0.6,0-0.6,0.1-1.5,0.1c0.7,0.3,2-0.1,2.9-0.1
						c0.9,0.1,3.1,0.1,3.3,0.2c0.8-0.1,2.7,0,3,0.2c1.2-0.1,0.1-0.2,0.4-0.3l3.9,0c0.2,0.2,0.5,0.7-0.1,0.8c1.5-0.2,0.5-0.5,2.8-0.5
						c-1.3,0.4,3,0.3,1.1,0.7c1.3,0.3,5,0.3,7,0.2c1.3-0.3-2.2-0.2-2.1-0.5c5.7-0.1,6.1-0.9,10.3-0.8l-1.1-0.1
						c2.6-0.2,2.3-0.1,3.8-0.4c-0.7,0.4,3,1,7.3,0.9c0.4-0.2-2.4-0.3-1.7-0.6l2.9-0.1c0.2,0-0.1,0.1-0.5,0.1c2.6-0.1,4.8,0.5,5.5,0
						l2.6,0.5l-1-0.2c0.4-0.2,3.2-0.2,3.8-0.3c2.9-0.2,4,0,5.6,0.2c-0.5-0.1-1.8-0.5,0.5-0.5c0,0.6,4.8,0.2,4.8,0.5
						c0.9,0,2.6,0.2,2.7-0.1l-0.2,0.4c0.2-0.5,3.6-0.5,6.2-0.6c-0.6,0.7,2.9-0.1,4,0.6c0.5-0.5,4.6-0.2,5.1-0.6c2,0,1.8,0.4,2.3,0.6
						l0.9-0.2c1,0.2,4.8,0.3,7,0.4l2.1-0.4l0.8,0.2c0.3-0.1,2.1-0.2,1-0.3l1.1,0c0.1-0.4,1.6-0.1,3.8-0.3c0.5,0.1,0.4,0.2-0.1,0.2
						c1.1,0,0.6,0.2,1.3,0.4c-0.8-0.1,4-0.8,1-1c-0.2-0.2,1.6-0.3,2.7-0.2l0.7,0.4l1.3-0.4c1.7-0.1,2.5,0.2,3.9,0.2
						c-1.4,0-3.2,0.8,0.5,0.8c-1.9,0.1-2.9,0.3-3.9,0.4c0.8,0,1.1,0.1,0,0.2c2.9-0.1,1-0.2,3.8-0.3c-0.2,0.4,0.6,0.5,3.1,0.6
						l-1.9-0.3c0.1,0,0.2-0.1,0.4-0.1c-0.7,0-0.9-0.1-1.1-0.2c0.6,0,3.3-0.4,3.8-0.2c-2.9-0.6,5-0.4,3.2-0.8
						c0.3-0.1,2.3-0.1,2.5,0.1c-2.4,0.3,1.8,0.4,1.4,0.7c0.9-0.1-1.9-0.3-0.7-0.4c1.4,0,2.5,0.2,3.3,0.3l-0.6,0.1l2.2,0.2
						c0.4-0.2-2.1-0.3-0.1-0.4c0.5,0.1,2.6,0,2.5,0.1c-1,0.2-0.3,0.6-2,0.6c1.4,0,6-0.1,4.1-0.4l1.7,0c-1.1-0.2-4.1-0.4-0.6-0.5
						l0,0.1l2.4-0.3l1,0.2c0-0.1,0.3-0.2,1.2-0.2c0.2,0.1,1.1,0.2,1,0.3c2.6,0,2.4-0.2,2.7-0.3c1.4,0,2,0.1,1.3,0.3
						c2,0,5.4,0,6.7,0.2c2.6-0.2-0.5-0.1,1-0.3c2.3,0.6,8.7,0.2,13,0.2c-1.2-0.6,1.2-0.1,2-0.6c-0.9,0.2,4.1,0.4,0.3,0.6l2.3-0.1
						c1.6,0.3-3.8,0.2-1.4,0.6c2.6,0,4.2-0.6,7.3-0.4c-1,0.4,2.3-0.1,1.6,0.3c-0.6,0.1-1.5,0.1-2.3,0.1l0.5,0.1
						c5.6,0.1,1.6-0.5,4.6-0.7c3.4,0,2.7,0.3,2.9,0.5c0.5,0.1,2.3,0,3.2-0.1c-2.1,0.2-3.9-0.2-2.9-0.5c1.5,0.4,5.1,0,6-0.1
						c-4.9-0.5-3.4,0-8-0.5c-0.6,0.1-0.5,0.5-3.3,0.4c1.7-0.2-0.1-0.2-0.6-0.3c0.5,0.2-1.9,0.1-2.8,0.2c-0.8-0.2,1.7-0.5-1.1-0.6
						l-0.5,0.5c-1.1-0.1,0.5-0.4-1.9-0.3c1.3-0.3-0.4-0.4,2.8-0.5c-3.8-0.5-5.8,0.2-8.7,0.4c0.3,0,0.3-0.1,0.6-0.1
						c-0.6,0.1-1.8,0.1-2.6,0.2c-1.9-0.1,1.5-0.2,1-0.4l-3.1,0c-0.1,0-0.1,0-0.1,0c-0.8,0.1-1.6,0.1-1.9,0c0.9-0.2,1.3-0.4,1.9-0.5
						l-3.3,0.4c0.4-0.2-2.7-0.3-0.4-0.4l-4.9,0.1l-0.4-0.4c-1.2,0.1-1.2,0.1,0.2,0.2c-1.7-0.1-7.4,0.6-6.5-0.1
						c-3.8,0.3-5.2,0.2-9.8,0.4c3.5-0.3-4.1-0.4-0.3-0.6c-2.2-0.2-2.7,0.2-4.4,0.3c-1.6-0.2-0.9-0.5,0.9-0.6l-2.1,0.2l0-0.1
						l-1.8,0.2c-1.9-0.2-0.4-0.4-2.4-0.4l-0.4,0.3l-1.3-0.2c0.5,0.1-0.7,0.2-2.1,0.2l0-0.1l-1.7,0.1c1.7-0.2-1.6-0.1-0.8-0.3
						c-1.5,0-1.5,0-4.2,0l0.5,0.2c-3.5,0.2-0.1-0.3-3-0.3l0.2,0.3c-4.1-0.4-6.9,0.2-9.9,0c1.7-0.1,1.3-0.4,1.3-0.3
						c-2.6,0.1-6.8,0-9.5,0.3c-1-0.4-1.2-0.5-4-0.6c-2,0-2.3,0.1-3,0.3c-1.9-0.1-5.6,0.1-5.7-0.2c-0.5,0.2-1.7,0-2.8,0.1l-0.2-0.1
						l0.2,0.3c-3.4-0.6-5.8,0.3-9.3-0.2l0.6-0.1l-1.5,0.1c-0.2-0.1,0.4-0.2,0.4-0.3l-6.8,0l1.3,0.2c-1.4,0-2.4,0.3-4,0.1
						c2.7-0.4-2.3,0-2.7-0.3l1.5-0.1c-2,0-2,0-1.8,0.3c-2.6,0.1-1.8-0.5-4.2-0.2l1.7,0c0.5,0.1-0.7,0.4-1.9,0.3
						c-0.3,0-1.1-0.2-0.2-0.2c-2,0.1-5.1,0-6,0.1c-1.1-0.1-0.7-0.3-0.1-0.3c-4.3,0.2-2,0-6.3,0.2l0.1-0.1l-1.5,0.2l-2.1-0.3l0.8,0.2
						c-1.4,0-2.3,0.1-4,0l0.7-0.2c-4,0.1-4.7-0.4-8.5-0.1c-0.3,0,0.3-0.1,0.6-0.1c-3.6,0.3-2.7-0.4-6.3,0c0.2-0.1-0.2-0.2,0-0.2
						l-1.6,0.1l0.1-0.3l-1.3,0.4l-1-0.3l-0.6,0.1c-1.7-0.6-4.2-0.1-6.6-0.6l0.4,0.4c-6,0.8-13.7-0.4-20.9-0.1l0.1-0.3l-3,0.3
						c-1.6-0.2,1-0.2,0.5-0.4c-3.2,0.2-1.3,0.4-5,0.5c-1.9-0.2,0.7-0.2,1.6-0.3c-3.5,0.1-8.6,0.3-11.1,0.1c-0.1,0-0.2,0.1-0.1,0.1
						c-2.3,0.1-5.4,0-7.9,0c0.1-0.1,0.7-0.2,1.3-0.2c-0.9,0-2.2-0.1-3,0l1-0.2c-2-0.1-5.7,0.2-6.2-0.1c0.2,0.1,0.1,0.3-1.6,0.3
						c-0.9-0.4-4.6,0.2-7.3-0.1c0.3-0.1,2.3-0.1,1.8-0.1c-1.4-0.1-2.6,0.1-3.8,0.2l0.4-0.2l-6.3,0.2c-0.9-0.4-6,0.1-5.6-0.3
						c-2.3,0,1.9,0.2-1,0.2c-0.8-0.2-2.6,0.1-2.5-0.2l0.3,0l-2,0l1.3-0.3c-1.7,0.1-3,0.3-3.1,0.6c-1.6-0.2-4,0-4.7-0.3l0.6-0.1
						c-4.6,0.1-7.6-0.8-11.2-0.3c-0.3,0-0.2-0.1,0.3-0.1l-2.8,0l0.7-0.2l-4.7,0.3l0.1-0.1c-3.1-0.1-7.9,0-11.9,0.1l0.6-0.1
						c-4.3,0.2-4.2-0.1-7.4,0c0.1,0,0.2-0.1,0.3-0.1l-2.9,0l0.6-0.1c-2.1,0.3-6.1-0.4-4.8-0.1c-1.2,0.1-3.3,0.3-3.6,0.5
						c-3.1,0-0.8-0.2-2.7-0.3c-2.3,0-2.7,0.2-5.7,0.1l0.1-0.1c-1.4,0-2.3,0.1-4.3,0.2l0.6-0.1c-3.3,0.3-4.1-0.4-6.6,0.2
						c-1.4-0.1-4,0-3.8-0.3c-4.1,0.2-7.2,0.3-11.2,0.4c-0.6-0.5-0.9,0-3.3-0.2l0.2,0.3c-5.7,0-12.2-0.6-18.5-0.5l-0.2-0.3l-1.3,0.3
						c-6.8-0.1-15.5-0.2-20.9-0.2c-1.8,0.1-4.4,0.4-7.2,0.3l0.3,0c-4.9,0.1-10,0.3-15.4,0.1c0.3-0.1-0.2-0.2,0.4-0.3
						c-1.3,0.3-3.1,0-4.3,0l1.3,0.2c-1.5,0.2-3.7,0-4.5-0.2l-2.4,0.3c-0.2,0-0.4-0.1-0.4-0.1l-0.4,0.1l-1.3-0.3
						c-0.6,0.1-3.8,0.2-4.7,0.5c-0.2-0.1-2.5-0.2-0.7-0.3l-8.7-0.1l1.4,0.1c0.2,0.3-2.5,0.4-3.8,0.3c1.8-0.2,0.1-0.4-0.6-0.5
						c-1.2,0.1,1,0.2,0.4,0.4c-1.5,0.2-4.7,0.3-5.4,0.1l0.9-0.1c-2,0.1-3-0.3-5-0.3c-1.8,0.2-3.1,0-2.8,0.5c-2.6,0.1-1-0.3-1.8-0.3
						c-1.2,0.2-4.8,0.1-5.3-0.1c-1.4,0.6-7-0.2-7.5,0.3l-2.1-0.3c-0.1,0.1-0.5,0.5-2.2,0.5c-1.6-0.2-1.2-0.4-1.7-0.6l-1.1,0.5
						c-9.4-0.6-21.7-0.2-32-0.7c-4.6,0.1-10.4,0.4-15.7,0.3l0.6-0.1l-5.3-0.1l3.9,0.2c-1.2,0.1-2.1,0.2-3.2,0.2
						c-5.8-0.2-13.6-0.5-20.8-0.2c-4.7,0.6-3.1-0.5-7.6-0.1c0.4-0.1,0.5-0.1,0.9-0.2c-4.8,0.2-7.4,0.3-12.2,0.7
						c0.6-0.6-3.1,0-2.7-0.3l-0.4,0.2c-1.1-0.2-3.6-0.2-3.2-0.4l-2.1,0.3l-0.2-0.3c-2.8,0-8.9,0.2-10.3-0.3c-7,0.4-18,0.3-26.7,0.2
						c-1.2,0.2-3.8,0.2-5.8,0.2l-2.1-0.3c-2,0.1-4.2,0.5-6.1,0.3c0,0,0.1-0.1,0.2-0.1c-2.1,0.1-4-0.1-6,0.2c-2.3,0-4.5-0.2-3.8-0.5
						c-0.2,0.5-4.8-0.1-4.8-0.1s-116-1.2-144.4,1.5c-1,0.2-3.6,0.4-2.6,0.7c-2,0.1-3-0.3-3.4-0.1c2.8,0.2-0.9,0.6,1.8,1l-1.7,0.1
						c-0.4,0.2,2.4-0.2,1.9,0.1l0.5-0.5c1.4,0.1,2.2,0.2,2.7,0.3c1.3-0.2,2.2-0.8,5.3-0.5l-0.9,0c2.6,0,1.6,0.3,2.1,0.4l-0.6,0
						l2.2,0.2c-1.6-0.2-4.3,0.2-2.9,0.2c3.1,0.1-0.8-0.1,1.5-0.2c1.4,0,1,0.2,1,0.4l2.6,0c-0.1,0.2-1.7,0-0.7,0.2l3.2-0.2
						c0.6,0.5,3.5-0.3,5,0.3c-2.3,0.1,0.2,0.2-0.2,0.4l5.7,0c0.5,0.1-1.5,0.2-0.6,0.1c1.1,0.2,1.8-0.1,2.3-0.1
						c0.5,0.2,4.2,0,4.1,0.4c3.9,0.2,1.6-0.5,5.2-0.3c0.5,0.2-2.9,0.1-1.3,0.3l3.7-0.1c-0.3,0.1-0.7,0.4-2.1,0.3
						c10.1,0.3,15.5,1.5,24.7,1.2c1.3,0.3-0.9,0.2-1.9,0.3c6.7-0.3,9.4,0.6,15.1,0.5l0.1-0.2c7.9,0.7,17.5,0.3,26.4,0.6l-1.1-0.2
						c1.2-0.2,3.2-0.2,4.7-0.3c0.2,0.1-1.1,0.5,1.5,0.4c-0.5-0.1-1.6-0.2-1.3-0.3c7.7,0.6,23.9,0.4,36.5,0.7
						c17.1-0.2,35.6,0.3,52.4,0.1c-2.6,0-1.5-0.5,0.5-0.4c5.3,0.9,9.1-0.2,14.5,0.5c9.8-0.3,18.5,0.5,27.6-0.2l0.2,0.3
						c1.4,0.1,1.7-0.1,3.2-0.1l0,0.1c3.4,0.1,7.4-0.2,9.4,0l0.1-0.3c2,0,1,0.2,3.1,0.1l-0.1,0.1l2.4-0.3c-0.2,0.5,5.6,0,7.3,0.3
						c2.6-0.1,7.5-0.3,11.4-0.2c0.7,0.3,5.5,0.3,8.6,0.4c6-0.1,14.5-0.1,22.1-0.1l-0.1-0.3l2,0c0,0.1,0.2,0.1-0.1,0.1
						c1.5,0.4,4.6-0.1,6.2,0.1c-1-0.3-1.4,0-2.5-0.1c-1.6-0.2-0.1-0.5,2.1-0.3l0,0.1l1.5-0.2c0.2,0.3,1.5,0.4,1.7,0.6
						c6.5-0.1,11-0.5,17.7-0.4c-0.7,0.3,4.9-0.1,3.5,0.4c4.1-0.2-0.7-0.4,1.2-0.8c1.1,0,2.3-0.1,2.5,0.1c-0.5,0.1,0.9,0.3,0,0.3
						l2.7,0c0.3,0-0.3,0.1-0.6,0.1c5.5-0.3,9.8,0.3,14.7,0c0.4-0.2-2-0.1-1.6-0.2c5-0.4,4.4,0.3,9,0.1l-1,0.2
						c1.5-0.2,2.2-0.4,4.6-0.2c0.4,0.3-2.1,0.2-3.3,0.4c1.7,0,6-0.1,4.7-0.3c2-0.1,2.8,0.2,3.9,0.2c0-0.1-1.9-0.2-0.7-0.3
						c2.8,0.2,7,0.2,10.4,0.2c0,0.1,0.2,0.2-0.1,0.2C1177.5,226.6,1177.2,227.3,1181,227.2z"/>
					<path id="XMLID_136_" class="st2" d="M1361.1,225.7l-1.4,0c0,0.1-0.1,0.1-0.7,0.2L1361.1,225.7z"/>
					<path id="XMLID_135_" class="st2" d="M1296.4,225.5c-0.2,0-0.3,0-0.5,0.1C1296.3,225.6,1296.4,225.5,1296.4,225.5z"/>
					<path id="XMLID_134_" class="st2" d="M1280.7,226c1.1-0.1,0.1-0.1-0.4-0.2C1280.2,225.9,1280.3,225.9,1280.7,226z"/>
					<path id="XMLID_133_" class="st2" d="M1397.7,224.9c-0.2,0-0.4,0.1-0.3,0.1C1397.7,225,1397.8,225,1397.7,224.9z"/>
					<path id="XMLID_132_" class="st2" d="M1499,225.1c-0.1,0-0.2,0-0.4,0C1498.6,225.1,1498.8,225.1,1499,225.1z"/>
					<path id="XMLID_131_" class="st2" d="M1493.4,224.7c-0.3,0-0.6,0-1.1,0C1492.7,224.7,1493.1,224.7,1493.4,224.7z"/>
					<path id="XMLID_127_" class="st2" d="M1373.2,225c-0.4,0-0.7,0-1.1,0.1C1372.7,225.1,1373,225.1,1373.2,225z"/>
					<path id="XMLID_126_" class="st2" d="M1491,224.8l-1.4,0c0,0,0,0,0,0.1L1491,224.8z"/>
					<path id="XMLID_125_" class="st2" d="M1500.7,225.2c-0.6,0-1.3,0-1.8,0C1499.7,225.2,1500.2,225.2,1500.7,225.2z"/>
					<path id="XMLID_124_" class="st2" d="M1434.9,224.6c0,0-0.1,0-0.2,0C1433.6,224.7,1434.3,224.6,1434.9,224.6z"/>
					<path id="XMLID_74_" class="st2" d="M1484.9,225.3c-0.1,0-0.1,0-0.2,0l-0.4,0.1L1484.9,225.3z"/>
					<path id="XMLID_73_" class="st2" d="M1506.8,225.3c-0.3,0-0.5,0-0.7,0.1C1506.4,225.3,1506.6,225.4,1506.8,225.3
						C1506.9,225.3,1506.8,225.3,1506.8,225.3z"/>
					<path id="XMLID_71_" class="st2" d="M1456.1,225c0.4-0.1,0.5-0.2,0.6-0.2C1456.2,224.8,1455.9,224.8,1456.1,225z"/>
				</g>
			</g>
		</g>
	</g>
</g>
<g id="XMLID_273_" class="st0">
	<g id="XMLID_175_" class="st1">
		<g id="XMLID_64_">
			<g id="XMLID_67_">
				<g id="XMLID_68_">
					<path id="XMLID_75_" class="st2" d="M682.4,601.5c0.1,0,0.1-0.1,0.1-0.1C682.4,601.4,682.4,601.4,682.4,601.5z"/>
					<path id="XMLID_77_" class="st2" d="M620.3,600.6l0.7-0.1C620.5,600.6,620.3,600.6,620.3,600.6z"/>
					<path id="XMLID_78_" class="st2" d="M719.7,601.8C719.6,601.8,719.6,601.8,719.7,601.8c0.5,0,1.3,0,2.5,0.1L719.7,601.8z"/>
					<path id="XMLID_82_" class="st2" d="M487.6,599.7l0.8,0C488.1,599.7,487.8,599.6,487.6,599.7z"/>
					<path id="XMLID_83_" class="st2" d="M566.2,600.3c-0.2,0.1-0.7,0.1-1.1,0.1C565.7,600.4,566.1,600.4,566.2,600.3z"/>
					<path id="XMLID_84_" class="st2" d="M739.4,604.6l-1.1-0.2C738.3,604.5,738.7,604.6,739.4,604.6z"/>
					<path id="XMLID_85_" class="st2" d="M777.2,603.9C777.1,603.8,777.1,603.8,777.2,603.9C777,603.8,777.1,603.8,777.2,603.9z"/>
					<path id="XMLID_86_" class="st2" d="M762.4,603.1c-0.3,0-0.7,0.1-1.1,0.1C761.8,603.2,762.3,603.2,762.4,603.1z"/>
					<path id="XMLID_87_" class="st2" d="M760.8,603.2c0.2,0,0.3,0,0.5,0C761,603.2,760.8,603.2,760.8,603.2z"/>
					<path id="XMLID_88_" class="st2" d="M5.9,600.6c-1.1,0-2,0.1-3,0.3L5.9,600.6z"/>
					<path id="XMLID_89_" class="st2" d="M367.5,599.6l0.2-0.1C367.6,599.5,367.5,599.5,367.5,599.6z"/>
					<path id="XMLID_91_" class="st2" d="M4.6,602.3l-0.8,0C4.1,602.2,4.3,602.3,4.6,602.3z"/>
					<path id="XMLID_92_" class="st2" d="M719.3,605.1c-1.1,0.2-3.3,0-3.3,0.1C717.2,605.3,718.8,605.4,719.3,605.1z"/>
					<path id="XMLID_93_" class="st2" d="M342.2,606.6l-0.7,0C341.8,606.6,342,606.6,342.2,606.6z"/>
					<path id="XMLID_97_" class="st2" d="M4.6,602.3l0.9,0c-0.1,0-0.2-0.1-0.3-0.1C5,602.2,4.8,602.3,4.6,602.3z"/>
					<path id="XMLID_98_" class="st2" d="M242.5,599.5C242.5,599.5,242.5,599.5,242.5,599.5c0.1,0,0.2,0,0.3,0L242.5,599.5z"/>
					<path id="XMLID_99_" class="st2" d="M235.9,599.2c0.5,0,0.9,0,1.4-0.1C236.5,599.1,236.1,599.1,235.9,599.2z"/>
					<path id="XMLID_100_" class="st2" d="M2.9,600.9L1.2,601C1.8,601,2.4,600.9,2.9,600.9z"/>
					<path id="XMLID_105_" class="st2" d="M164.4,599.4c0.2,0,0.4,0,0.7,0C164.7,599.4,164.5,599.4,164.4,599.4z"/>
					<path id="XMLID_106_" class="st2" d="M571.3,600.4c0.2,0,0.4,0,0.6,0C571.9,600.4,571.9,600.4,571.3,600.4z"/>
					<path id="XMLID_107_" class="st2" d="M521.9,605.4L521.9,605.4C521.8,605.4,521.8,605.4,521.9,605.4
						C521.8,605.4,521.9,605.4,521.9,605.4z"/>
					<path id="XMLID_108_" class="st2" d="M524.5,605.1c-0.8,0-2,0.1-2.6,0.2C522.7,605.4,523.5,605.3,524.5,605.1z"/>
					<path id="XMLID_109_" class="st2" d="M516.2,605.3c0.1,0,0.2,0,0.3,0C516.4,605.3,516.3,605.3,516.2,605.3z"/>
					<path id="XMLID_110_" class="st2" d="M569.3,605.6C569.3,605.6,569.3,605.6,569.3,605.6C569.3,605.6,569.2,605.6,569.3,605.6
						L569.3,605.6z"/>
					<path id="XMLID_111_" class="st2" d="M558.8,605.7c-0.2,0-0.4-0.1-0.7-0.1C558.2,605.6,558.5,605.7,558.8,605.7z"/>
					<path id="XMLID_112_" class="st2" d="M490,605.8C490,605.8,490,605.8,490,605.8C490,605.8,490,605.8,490,605.8
						C490,605.8,490,605.8,490,605.8z"/>
					<path id="XMLID_113_" class="st2" d="M391,607.2c9.9-0.1,22.8-0.5,32.7-0.4c2.1-0.4,5.3-0.4,8.4-0.5l0.3,0.5l2.6-0.2
						c1.1,0.2-2,0.1-0.1,0.3l1-0.3c0.2,0.2,6.7,0.1,2.3,0.5l10.2,0c2.3,0,1.3-0.4,3.8-0.3c0.5,0.1-0.9,0.1-0.7,0.3
						c7.5,0.4,8.6-1,15.6-0.8l-0.6,0.1c1.2-0.1,3.4-0.1,3.5-0.2c-0.9-0.5-1.3,0.3-3.4,0c0.2-0.4,2.7-0.2,2.5-0.6
						c1.6,0.2,2.6-0.1,4-0.1c2.4,0.3,5.9,0.1,7.7,0.4c1.2-0.1,2.5-0.6,5.1-0.6c1.8,0.3-0.4,0.3,2.1,0.5l0.4-0.3c2,0,1.7,0.1,1.6,0.2
						c2.2,0,1.8-0.3,4.6-0.2l-1.5,0.2c2-0.1,2.9-0.1,5.7,0c-0.1,0.1-1.2,0.1-2,0.1c1.5,0.4,2.6-0.2,3.5-0.1
						c-0.2-0.1-2.2-0.2-1.2-0.4c1.4,0,3-0.3,4,0l-1.5,0.2c2.9-0.2,1.6-0.3,4.9-0.2c-0.2,0-0.1,0.1-0.2,0.1c2.1-0.3,4.9,0,8,0
						l-0.6,0.1c1.3-0.1,2-0.3,2.6-0.3c-1.8-0.1-1.3-0.2-1.5-0.5c2.4,0.4,3.6-0.5,7.5-0.2c-0.1,0.1-1,0.3-2.1,0.2
						c-1.3,0.4-1.5,0.8-3.8,1c1.5-0.1,3.2-0.2,2.8,0l0.5-0.4c0.9,0,1.6,0,2.3,0c0.4-0.3-1.8-0.4,0.3-0.6c2.3-0.1,1.2,0.4,1.6,0.2
						c3.2-0.2,1.3-0.4,4.4-0.3c-0.3,0-0.9,0.1-1.2,0.1c2.2,0.2,5.4-0.1,6,0.4c-0.3,0.1-0.4,0.2-1.2,0.2l0-0.1
						c-2.4,0.3,2-0.1,1.3,0.3c-0.2-0.3,2.9-0.2,4.3-0.2l-0.4-0.3c4.6-0.9-0.2,0.6,4.3,0.5c2.9-0.2-1.1-0.1,0.7-0.3
						c2,0.1,2.7,0.3,5.6,0.2c0.8,0.1,2.4,0.3,2.6,0.6c1.7-0.1,5.3,0.1,6.3-0.2c-3-0.3-3,0.3-6.5-0.1l1-0.3c2.4,0,5.5-0.1,7.2,0
						c-0.3-0.1-0.5-0.1-0.3-0.2c3.4-0.1,4.4-0.4,7.8-0.3c0.4,0.3-1.5,0.2-2.9,0.3c2.2,0.2,2.3,0,5.6,0.1c0.2,0.3-2.3,0-2.6,0.2
						l3.7-0.1c0,0,0,0,0,0.1c0.5-0.4,2.8,0,5.1-0.1c5.4,0,6.2-0.6,9.2-0.9c0.8,0.1,1,0.2,0.7,0.3c-1.3-0.2-1.1,0-1.5,0.1
						c1.8,0,4,0.4,3,0.6c2.9-0.1-1-0.2,0.7-0.4l3.9,0c-0.5-0.2-1.9-0.3,0.2-0.4c1.7-0.1,2.6,0,4.8,0c-0.3,0.1,0.7,0.3-1,0.3
						c1.1,0.1,2.8,0.1,3.4-0.1c-2.5-0.2,4-0.2,2.2-0.5l2.5,0.2c-0.6,0-0.6,0.1-1.5,0.1c0.7,0.3,2-0.1,2.9-0.1
						c0.9,0.1,3.1,0.1,3.3,0.2c0.8-0.1,2.7,0,3,0.2c1.2-0.1,0.1-0.2,0.4-0.3l3.9,0c0.2,0.2,0.5,0.7-0.1,0.8c1.5-0.2,0.5-0.5,2.8-0.5
						c-1.3,0.4,3,0.3,1.1,0.7c1.3,0.3,5,0.3,7,0.2c1.3-0.3-2.2-0.2-2.1-0.5c5.7-0.1,6-0.9,10.2-0.8l-1.1-0.1
						c2.6-0.2,2.3-0.1,3.8-0.4c-0.7,0.4,3,1,7.2,0.9c0.4-0.2-2.4-0.3-1.7-0.6l2.8-0.1c0.2,0-0.1,0.1-0.5,0.1c2.6-0.1,4.7,0.5,5.5,0
						l2.6,0.5l-1-0.2c0.4-0.2,3.2-0.2,3.8-0.3c2.9-0.2,4,0,5.6,0.2c-0.5-0.1-1.8-0.5,0.5-0.5c0,0.6,4.8,0.2,4.7,0.5
						c0.9,0,2.6,0.2,2.7-0.1l-0.2,0.4c0.2-0.5,3.6-0.5,6.2-0.6c-0.6,0.7,2.8-0.1,4,0.6c0.5-0.5,4.6-0.2,5.1-0.6c2,0,1.8,0.4,2.3,0.6
						l0.9-0.2c1,0.2,4.7,0.3,7,0.4l2.1-0.4l0.8,0.2c0.3-0.1,2.1-0.2,1-0.3l1.1,0c0.1-0.4,1.6-0.1,3.8-0.3c0.5,0.1,0.4,0.2-0.1,0.2
						c1.1,0,0.6,0.2,1.2,0.4c-0.8-0.1,4-0.8,1-1c-0.2-0.2,1.6-0.3,2.7-0.2l0.7,0.4l1.3-0.4c1.7-0.1,2.5,0.2,3.8,0.2
						c-1.4,0-3.2,0.8,0.5,0.8c-1.9,0.1-2.9,0.3-3.9,0.4c0.8,0,1.1,0.1,0,0.2c2.9-0.1,1-0.2,3.8-0.3c-0.2,0.4,0.6,0.5,3.1,0.6
						l-1.9-0.3c0.1,0,0.2-0.1,0.4-0.1c-0.7,0-0.9-0.1-1.1-0.2c0.6,0,3.3-0.4,3.8-0.2c-2.9-0.6,5-0.4,3.2-0.8
						c0.3-0.1,2.3-0.1,2.5,0.1c-2.4,0.3,1.8,0.4,1.4,0.7c0.9-0.1-1.9-0.3-0.7-0.4c1.4,0,2.5,0.2,3.2,0.3l-0.6,0.1l2.2,0.2
						c0.4-0.2-2.1-0.3-0.1-0.4c0.5,0.1,2.6,0,2.5,0.1c-1,0.2-0.3,0.6-2,0.6c1.4,0,6-0.1,4.1-0.4l1.7,0c-1.1-0.2-4.1-0.4-0.6-0.5
						l0,0.1l2.4-0.3l1,0.2c0-0.1,0.3-0.2,1.2-0.2c0.2,0.1,1.1,0.2,1,0.3c2.6,0,2.3-0.2,2.7-0.3c1.4,0,2,0.1,1.3,0.3
						c2,0,5.4,0,6.7,0.2c2.6-0.2-0.5-0.1,1-0.3c2.3,0.6,8.7,0.2,12.9,0.2c-1.2-0.6,1.2-0.1,2-0.6c-0.9,0.2,4.1,0.4,0.3,0.6l2.3-0.1
						c1.6,0.3-3.8,0.2-1.4,0.6c2.6,0,4.2-0.6,7.3-0.4c-1,0.4,2.3-0.1,1.6,0.3c-0.6,0.1-1.5,0.1-2.3,0.1l0.5,0.1
						c5.6,0.1,1.6-0.5,4.6-0.7c3.4,0,2.7,0.3,2.9,0.5c0.5,0.1,2.3,0,3.2-0.1c-2.1,0.2-3.9-0.2-2.9-0.5c1.5,0.4,5.1,0,6-0.1
						c-4.9-0.5-3.4,0-8-0.5c-0.6,0.1-0.5,0.5-3.3,0.4c1.7-0.2-0.1-0.2-0.6-0.3c0.5,0.2-1.9,0.1-2.7,0.2c-0.8-0.2,1.6-0.5-1.1-0.6
						l-0.5,0.5c-1.1-0.1,0.5-0.4-1.9-0.3c1.3-0.3-0.4-0.4,2.8-0.5c-3.7-0.5-5.8,0.2-8.7,0.4c0.3,0,0.3-0.1,0.6-0.1
						c-0.6,0.1-1.8,0.1-2.6,0.2c-1.9-0.1,1.5-0.2,1-0.4l-3.1,0c-0.1,0-0.1,0-0.1,0c-0.8,0.1-1.6,0.1-1.9,0c0.9-0.2,1.3-0.4,1.9-0.5
						l-3.3,0.4c0.4-0.2-2.7-0.3-0.4-0.4l-4.8,0.1l-0.4-0.4c-1.2,0.1-1.2,0.1,0.2,0.2c-1.7-0.1-7.3,0.6-6.5-0.1
						c-3.8,0.3-5.2,0.2-9.8,0.4c3.5-0.3-4.1-0.4-0.3-0.6c-2.2-0.2-2.7,0.2-4.4,0.3c-1.6-0.2-0.9-0.5,0.9-0.6l-2.1,0.2l0-0.1
						l-1.8,0.2c-1.9-0.2-0.4-0.4-2.4-0.4l-0.4,0.3l-1.3-0.2c0.5,0.1-0.7,0.2-2.1,0.2l0-0.1l-1.7,0.1c1.7-0.2-1.6-0.1-0.8-0.3
						c-1.5,0-1.5,0-4.2,0l0.5,0.2c-3.5,0.2-0.1-0.3-3-0.3l0.2,0.3c-4.1-0.4-6.9,0.2-9.9,0c1.7-0.1,1.3-0.4,1.3-0.3
						c-2.6,0.1-6.8,0-9.5,0.3c-1-0.4-1.2-0.5-4-0.6c-2,0-2.3,0.1-2.9,0.3c-1.9-0.1-5.6,0.1-5.7-0.2c-0.4,0.2-1.7,0-2.8,0.1l-0.2-0.1
						l0.2,0.3c-3.4-0.6-5.8,0.3-9.3-0.2l0.6-0.1l-1.5,0.1c-0.2-0.1,0.4-0.2,0.4-0.3l-6.8,0l1.3,0.2c-1.4,0-2.4,0.3-4,0.1
						c2.7-0.4-2.2,0-2.7-0.3l1.5-0.1c-2,0-2,0-1.8,0.3c-2.6,0.1-1.8-0.5-4.1-0.2l1.7,0c0.5,0.1-0.7,0.4-1.8,0.3
						c-0.3,0-1.1-0.2-0.2-0.2c-2,0.1-5.1,0-6,0.1c-1.1-0.1-0.7-0.3-0.1-0.3c-4.3,0.2-2,0-6.3,0.2l0.1-0.1l-1.5,0.2l-2.1-0.3l0.8,0.2
						c-1.4,0-2.3,0.1-4,0l0.7-0.2c-4,0.1-4.6-0.4-8.5-0.1c-0.3,0,0.3-0.1,0.6-0.1c-3.5,0.3-2.7-0.4-6.2,0c0.2-0.1-0.2-0.2,0-0.2
						l-1.6,0.1l0.1-0.3l-1.3,0.4l-1-0.3l-0.6,0.1c-1.7-0.6-4.2-0.1-6.5-0.6l0.4,0.4c-6,0.8-13.7-0.4-20.9-0.1l0.1-0.3l-3,0.3
						c-1.6-0.2,1-0.2,0.5-0.4c-3.2,0.2-1.3,0.4-5,0.5c-1.9-0.2,0.7-0.2,1.6-0.3c-3.5,0.1-8.6,0.3-11.1,0.1c-0.1,0-0.2,0.1-0.1,0.1
						c-2.3,0.1-5.4,0-7.9,0c0.1-0.1,0.7-0.2,1.3-0.2c-0.9,0-2.2-0.1-3,0l1-0.2c-2-0.1-5.7,0.2-6.2-0.1c0.2,0.1,0.1,0.3-1.6,0.3
						c-0.9-0.4-4.6,0.2-7.3-0.1c0.3-0.1,2.3-0.1,1.8-0.1c-1.4-0.1-2.6,0.1-3.8,0.2l0.4-0.2l-6.3,0.2c-0.9-0.4-6,0.1-5.5-0.3
						c-2.3,0,1.9,0.2-1,0.2c-0.8-0.2-2.6,0.1-2.5-0.2l0.3,0l-2,0l1.3-0.3c-1.7,0.1-3,0.3-3.1,0.6c-1.6-0.2-3.9,0-4.7-0.3l0.6-0.1
						c-4.6,0.1-7.6-0.8-11.2-0.3c-0.3,0-0.2-0.1,0.3-0.1l-2.8,0l0.7-0.2l-4.7,0.3l0.1-0.1c-3.1-0.1-7.9,0-11.9,0.1l0.6-0.1
						c-4.3,0.2-4.2-0.1-7.4,0c0.1,0,0.2-0.1,0.3-0.1l-2.9,0l0.6-0.1c-2.1,0.3-6-0.4-4.7-0.1c-1.2,0.1-3.3,0.3-3.6,0.5
						c-3.1,0-0.8-0.2-2.7-0.3c-2.3,0-2.7,0.2-5.7,0.1l0.1-0.1c-1.4,0-2.3,0.1-4.3,0.2l0.6-0.1c-3.2,0.3-4-0.4-6.6,0.2
						c-1.4-0.1-3.9,0-3.8-0.3c-4,0.2-7.2,0.3-11.2,0.4c-0.6-0.5-0.9,0-3.3-0.2l0.2,0.3c-5.7,0-12.2-0.6-18.4-0.5l-0.2-0.3l-1.3,0.3
						c-6.7-0.1-15.5-0.2-20.8-0.2c-1.8,0.1-4.4,0.4-7.2,0.3l0.3,0c-4.9,0.1-10,0.3-15.3,0.1c0.3-0.1-0.2-0.2,0.4-0.3
						c-1.3,0.3-3.1,0-4.3,0l1.3,0.2c-1.5,0.2-3.7,0-4.4-0.2l-2.4,0.3c-0.2,0-0.4-0.1-0.4-0.1l-0.4,0.1l-1.3-0.3
						c-0.6,0.1-3.7,0.2-4.7,0.5c-0.2-0.1-2.5-0.2-0.7-0.3l-8.7-0.1l1.4,0.1c0.2,0.3-2.5,0.4-3.8,0.3c1.8-0.2,0.1-0.4-0.6-0.5
						c-1.2,0.1,1,0.2,0.4,0.4c-1.5,0.2-4.6,0.3-5.4,0.1l0.9-0.1c-2,0.1-3-0.3-4.9-0.3c-1.8,0.2-3.1,0-2.7,0.5
						c-2.6,0.1-1-0.3-1.8-0.3c-1.2,0.2-4.8,0.1-5.3-0.1c-1.4,0.6-7-0.2-7.5,0.3l-2.1-0.3c-0.1,0.1-0.5,0.5-2.2,0.5
						c-1.6-0.2-1.2-0.4-1.7-0.6l-1.1,0.5c-9.4-0.6-21.7-0.2-31.9-0.7c-4.6,0.1-10.3,0.4-15.7,0.3l0.6-0.1l-5.3-0.1l3.9,0.2
						c-1.2,0.1-2.1,0.2-3.2,0.2c-5.8-0.2-13.6-0.5-20.8-0.2c-4.6,0.6-3.1-0.5-7.5-0.1c0.4-0.1,0.5-0.1,0.9-0.2
						c-4.8,0.2-7.4,0.3-12.2,0.7c0.6-0.6-3.1,0-2.7-0.3l-0.4,0.2c-1.1-0.2-3.6-0.2-3.2-0.4l-2.1,0.3l-0.2-0.3
						c-2.8,0-8.8,0.2-10.3-0.3c-7,0.4-17.9,0.3-26.7,0.2c-1.2,0.2-3.8,0.2-5.8,0.2l-2.1-0.3c-2,0.1-4.2,0.5-6.1,0.3
						c0,0,0.1-0.1,0.2-0.1c-2.1,0.1-4-0.1-5.9,0.2c-2.3,0-4.4-0.2-3.8-0.5c-0.2,0.5-4.8-0.1-4.8-0.1s-115.7-1.2-144,1.5
						c-0.9,0.2-3.6,0.4-2.6,0.7c-2,0.1-3-0.3-3.4-0.1c2.8,0.2-0.9,0.6,1.8,1l-1.7,0.1c-0.4,0.2,2.4-0.2,1.9,0.1l0.5-0.5
						c1.4,0.1,2.2,0.2,2.7,0.3c1.3-0.2,2.2-0.8,5.3-0.5l-0.9,0c2.6,0,1.6,0.3,2.1,0.4l-0.6,0l2.2,0.2c-1.6-0.2-4.3,0.2-2.9,0.2
						c3.1,0.1-0.8-0.1,1.5-0.2c1.4,0,1,0.2,1,0.4l2.6,0c-0.1,0.2-1.7,0-0.7,0.2l3.2-0.2c0.6,0.5,3.5-0.3,5,0.3
						c-2.3,0.1,0.2,0.2-0.2,0.4l5.7,0c0.5,0.1-1.5,0.2-0.6,0.1c1.1,0.2,1.8-0.1,2.3-0.1c0.5,0.2,4.2,0,4.1,0.4
						c3.8,0.2,1.6-0.5,5.2-0.3c0.5,0.2-2.8,0.1-1.3,0.3l3.7-0.1c-0.3,0.1-0.7,0.4-2.1,0.3c10,0.3,15.5,1.5,24.7,1.2
						c1.3,0.3-0.9,0.2-1.9,0.3c6.7-0.3,9.4,0.6,15,0.5l0.1-0.2c7.9,0.7,17.4,0.3,26.3,0.6l-1.1-0.2c1.2-0.2,3.2-0.2,4.7-0.3
						c0.2,0.1-1.1,0.5,1.5,0.4c-0.5-0.1-1.6-0.2-1.3-0.3c7.7,0.6,23.9,0.4,36.5,0.7c17-0.2,35.5,0.3,52.3,0.1
						c-2.6,0-1.5-0.5,0.5-0.4c5.3,0.9,9.1-0.2,14.5,0.5c9.8-0.3,18.5,0.5,27.5-0.2l0.2,0.3c1.4,0.1,1.7-0.1,3.1-0.1l0,0.1
						c3.4,0.1,7.4-0.2,9.4,0l0.1-0.3c2,0,1,0.2,3.1,0.1l-0.1,0.1l2.4-0.3c-0.2,0.5,5.6,0,7.2,0.3c2.6-0.1,7.5-0.3,11.4-0.2
						c0.7,0.3,5.5,0.3,8.6,0.4c6-0.1,14.5-0.1,22.1-0.1l-0.1-0.3l2,0c0,0.1,0.2,0.1-0.1,0.1c1.5,0.4,4.6-0.1,6.2,0.1
						c-1-0.3-1.4,0-2.5-0.1c-1.6-0.2-0.1-0.5,2.1-0.3l0,0.1l1.5-0.2c0.2,0.3,1.5,0.4,1.7,0.6c6.5-0.1,11-0.5,17.7-0.4
						c-0.7,0.3,4.8-0.1,3.5,0.4c4-0.2-0.7-0.4,1.2-0.8c1.1,0,2.3-0.1,2.5,0.1c-0.5,0.1,0.9,0.3,0,0.3l2.7,0c0.3,0-0.3,0.1-0.6,0.1
						c5.5-0.3,9.8,0.3,14.7,0c0.4-0.2-2-0.1-1.6-0.2c5-0.4,4.4,0.3,9,0.1l-1,0.2c1.5-0.2,2.2-0.4,4.6-0.2c0.4,0.3-2.1,0.2-3.3,0.4
						c1.7,0,6-0.1,4.7-0.3c2-0.1,2.8,0.2,3.9,0.2c0-0.1-1.9-0.2-0.7-0.3c2.8,0.2,7,0.2,10.4,0.2c0,0.1,0.2,0.2-0.1,0.2
						C387.5,606.6,387.3,607.3,391,607.2z"/>
					<path id="XMLID_114_" class="st2" d="M570.6,605.7l-1.4,0c0,0.1-0.1,0.1-0.7,0.2L570.6,605.7z"/>
					<path id="XMLID_115_" class="st2" d="M506.1,605.5c-0.2,0-0.3,0-0.5,0.1C506,605.6,506.1,605.5,506.1,605.5z"/>
					<path id="XMLID_116_" class="st2" d="M490.5,606c1.1-0.1,0.1-0.1-0.4-0.2C490,605.9,490,605.9,490.5,606z"/>
					<path id="XMLID_117_" class="st2" d="M607.2,604.9c-0.2,0-0.4,0.1-0.3,0.1C607.2,605,607.2,605,607.2,604.9z"/>
					<path id="XMLID_118_" class="st2" d="M708.2,605.1c-0.1,0-0.2,0-0.4,0C707.8,605.1,708,605.1,708.2,605.1z"/>
					<path id="XMLID_119_" class="st2" d="M702.6,604.7c-0.3,0-0.6,0-1.1,0C701.9,604.7,702.3,604.7,702.6,604.7z"/>
					<path id="XMLID_120_" class="st2" d="M582.7,605c-0.4,0-0.7,0-1.1,0.1C582.2,605.1,582.5,605.1,582.7,605z"/>
					<path id="XMLID_121_" class="st2" d="M700.3,604.8l-1.4,0c0,0,0,0,0,0.1L700.3,604.8z"/>
					<path id="XMLID_122_" class="st2" d="M709.9,605.2c-0.5,0-1.3,0-1.8,0C708.9,605.2,709.4,605.2,709.9,605.2z"/>
					<path id="XMLID_123_" class="st2" d="M644.2,604.6c0,0-0.1,0-0.2,0C643,604.7,643.7,604.6,644.2,604.6z"/>
					<path id="XMLID_128_" class="st2" d="M694.1,605.3c-0.1,0-0.1,0-0.2,0l-0.4,0.1L694.1,605.3z"/>
					<path id="XMLID_129_" class="st2" d="M716,605.3c-0.3,0-0.5,0-0.7,0.1C715.5,605.3,715.8,605.4,716,605.3
						C716.1,605.3,716,605.3,716,605.3z"/>
					<path id="XMLID_130_" class="st2" d="M665.4,605c0.4-0.1,0.5-0.2,0.6-0.2C665.5,604.8,665.2,604.8,665.4,605z"/>
				</g>
			</g>
		</g>
	</g>
</g>
<g id="XMLID_1_">
	<g id="XMLID_165_">
		<g id="XMLID_2_">
			<g id="XMLID_3_">
				<g id="XMLID_4_">
					<path id="XMLID_5_" class="st2" d="M915.5,269.6c0.1,0,0.2,0.1,0.3,0C915.5,269.6,915.5,269.6,915.5,269.6z"/>
					<path id="XMLID_6_" class="st2" d="M832.2,225.9l1.1,0.2C832.6,226,832.4,225.9,832.2,225.9z"/>
					<path id="XMLID_7_" class="st2" d="M951.6,313C951.6,313,951.6,313,951.6,313c0.1,0.3,0.4,0.7,0.8,1.3c0.3,0.6,0.7,1.2,1.2,2.1
						c0,0-0.5-0.8-0.9-1.7c-0.2-0.4-0.5-0.8-0.7-1.1C951.8,313.2,951.6,313,951.6,313z"/>
					<path id="XMLID_11_" class="st2" d="M646.6,282.7l0.9-0.9C647.1,282.2,646.8,282.5,646.6,282.7z"/>
					<path id="XMLID_13_" class="st2" d="M750.1,224.6c-0.4,0.1-1,0.3-1.6,0.5C749.3,224.9,749.9,224.7,750.1,224.6z"/>
					<path id="XMLID_14_" class="st2" d="M962.7,340.7c0,0-0.1-0.4-0.2-0.8c-0.1-0.4-0.2-0.8-0.2-0.8
						C962.2,339.2,962.4,339.8,962.7,340.7z"/>
					<path id="XMLID_15_" class="st2" d="M977.1,395.4c0,0,0-0.1,0-0.2C977.1,395.1,977.1,395.2,977.1,395.4z"/>
					<path id="XMLID_16_" class="st2" d="M974.5,373.3c-0.1-0.5-0.3-1-0.4-1.5C974.2,372.4,974.4,373.2,974.5,373.3z"/>
					<path id="XMLID_17_" class="st2" d="M973.8,371c0.1,0.2,0.1,0.5,0.2,0.7C973.9,371.3,973.8,371,973.8,371z"/>
					<path id="XMLID_18_" class="st2" d="M981,422.2c0.1-1.7-0.1-3.1-0.1-4.6L981,422.2z"/>
					<path id="XMLID_19_" class="st2" d="M600.2,454.3L600,454C600.1,454.3,600.2,454.4,600.2,454.3z"/>
					<path id="XMLID_20_" class="st2" d="M979.4,420.1l0.1-1.2C979.4,419.4,979.4,419.8,979.4,420.1z"/>
					<path id="XMLID_21_" class="st2" d="M948.5,314.4c-1-1.3-2.7-4.2-2.8-4.1C946.7,311.7,947.9,313.8,948.5,314.4z"/>
					<path id="XMLID_22_" class="st2" d="M618.7,488.6l0.5,1C619,489.1,618.8,488.8,618.7,488.6z"/>
					<path id="XMLID_23_" class="st2" d="M979.4,420.1l-0.1,1.4c0-0.1,0.1-0.3,0.1-0.4C979.4,420.8,979.4,420.4,979.4,420.1z"/>
					<path id="XMLID_24_" class="st2" d="M720.8,594.1C720.8,594.1,720.8,594.1,720.8,594.1c-0.2-0.1-0.3-0.1-0.4-0.1L720.8,594.1z"
						/>
					<path id="XMLID_25_" class="st2" d="M730.4,597.8c-0.7-0.2-1.3-0.4-2.1-0.6C729.4,597.5,730,597.7,730.4,597.8z"/>
					<path id="XMLID_26_" class="st2" d="M980.8,417.7l-0.1-2.6C980.8,416,980.8,416.8,980.8,417.7z"/>
					<path id="XMLID_27_" class="st2" d="M839,600c-0.3,0.1-0.7,0.2-1,0.3C838.5,600.2,838.8,600.1,839,600z"/>
					<path id="XMLID_28_" class="st2" d="M757.8,223.3c0.2,0,0.6-0.1,0.9-0.1C758.7,223.2,758.7,223.1,757.8,223.3z"/>
					<path id="XMLID_29_" class="st2" d="M690,254L690,254L690,254C690,254.1,690,254,690,254z"/>
					<path id="XMLID_30_" class="st2" d="M693.2,251.8c-0.5,0.3-1.2,0.7-1.8,1.1c-0.6,0.4-1.1,0.8-1.5,1.2
						C691,253.4,692,252.7,693.2,251.8z"/>
					<path id="XMLID_31_" class="st2" d="M682.9,258.6c0.1-0.1,0.2-0.1,0.4-0.2C683.1,258.4,683,258.5,682.9,258.6z"/>
					<path id="XMLID_32_" class="st2" d="M755.7,229C755.7,229,755.7,229,755.7,229C755.7,229,755.6,229,755.7,229L755.7,229z"/>
					<path id="XMLID_33_" class="st2" d="M740.4,232.5c-0.3,0-0.7,0.1-1.1,0.2C739.6,232.6,740,232.6,740.4,232.5z"/>
					<path id="XMLID_34_" class="st2" d="M653.6,284.3C653.6,284.3,653.6,284.3,653.6,284.3C653.6,284.3,653.6,284.3,653.6,284.3
						C653.6,284.3,653.6,284.3,653.6,284.3z"/>
					<path id="XMLID_35_" class="st2" d="M603.5,418.4c0-1.8-0.2-3.7-0.2-5.7c0-2,0.1-4,0.1-6c0-1,0-2.1,0-3.1
						c0.1-1,0.1-2.1,0.2-3.1c0.1-2.1,0.3-4.2,0.4-6.3c0.2-2.1,0.5-4.2,0.7-6.3c0.1-1,0.2-2.1,0.4-3.1c0.2-1,0.3-2,0.5-3
						c0.4-2,0.7-4,1-5.9c0.4-1.9,0.9-3.7,1.3-5.5c0.2-3.2,1.6-7.7,2.8-12.2l0.6-0.3l1.1-3.7c0.7-1.4-0.9,2.9,0.2,0.3l0.2-1.5
						c0.1-0.1,0.9-2.5,1.6-4c0.7-1.5,1-2.2,0,0.9c0,0,0.1-0.2,0.2-0.6c0.2-0.4,0.4-0.9,0.6-1.6c0.5-1.3,1.2-3.1,1.9-4.8
						c0.7-1.8,1.5-3.5,2-4.8c0.6-1.3,1-2.1,1-2.1c0.7-1.5,0.8-2,0.9-2.5c0.1-0.5,0.3-1.1,1.2-2.7c0.5-0.6-0.5,1.2-0.2,1
						c1.3-2.4,2.3-4.4,3.1-6.1c0.8-1.7,1.5-3.1,2.2-4.5c0.7-1.4,1.3-2.8,2.1-4.4c0.9-1.6,2-3.3,3.4-5.5l-0.4,0.8
						c0.4-0.8,1.1-1.9,1.6-2.8c0.6-0.9,1.1-1.6,1-1.6c-1.2,0.8-0.8,1.7-2.8,4.2c-0.2-0.5,1.9-3.5,1.6-3.5c1.5-1.9,2.2-3.2,3.4-4.9
						c0.6-0.7,1.2-1.5,1.8-2.3c0.7-0.8,1.3-1.6,2-2.4c1.3-1.6,2.6-3.2,3.5-4.1c1-1.4,2-3.2,4.5-6.1c1-0.9,1-0.7,1-0.7
						c0,0.1,0.1,0,1.4-1.3l0.2-0.6c2.1-2.2,1.9-1.8,1.9-1.6c1.1-1.2,1.5-1.7,2-2.3c0.2-0.3,0.5-0.6,0.9-1.1c0.4-0.4,0.9-0.9,1.7-1.6
						l-1.5,1.7c2.1-2.2,3-3,6.1-5.9c0,0.2-1.2,1.3-2.1,2.1c1.9-1.3,2.7-2.8,3.7-3.6c-0.2,0.1-0.8,0.6-1.3,0.9
						c-0.5,0.4-0.8,0.6-0.4,0c1.6-1.4,3.1-3.2,4.5-3.9l-1.6,1.7c1.6-1.5,2-1.9,2.4-2.4c0.2-0.2,0.5-0.5,0.9-0.9
						c0.4-0.4,1.1-0.9,2.1-1.6c-0.2,0.2-0.1,0.1-0.1,0.3c2.3-2.2,5.7-4.6,9.5-7.2l-0.7,0.6c1.5-1.2,2.2-1.9,3-2.5
						c-2.3,1.4-1.7,0.9-2,0.9c1.6-0.8,2.6-1.8,3.9-2.8c1.3-1,2.8-2.2,5.3-3.6c0,0.2-1.1,1.1-2.5,1.8c-0.7,0.7-1.1,1.2-1.6,1.7
						c-0.5,0.6-1.3,1.1-2.6,2.2c0.8-0.7,1.8-1.4,2.5-1.8c0.7-0.5,1.2-0.7,1-0.5l0.4-0.7c1.1-0.7,2-1.3,2.8-1.8
						c0.3-0.5-2.5,1.1,0-0.7c1.4-1,1.9-1.1,2-1.1c0.1,0-0.1,0.2,0.1,0c4-2.5,1.5-1.3,5.5-3.5c-0.4,0.3-1.1,0.8-1.5,0.9
						c2.9-1.6,7.1-3.9,8.1-3.9c-0.4,0.3-0.4,0.5-1.5,1l0-0.1c-3,1.9,2.6-1.5,1.8-0.6c-0.3-0.1,3.8-2.2,5.7-2.9l-0.7,0
						c5.9-3.6-0.1,0.7,6.1-2.2c3.9-1.8-1.6,0.5,0.8-0.7c2.7-1,3.9-1.2,7.8-2.9c1.2-0.3,3.5-0.9,3.8-0.7c1.2-0.5,3.1-1.1,4.8-1.6
						c1.7-0.5,3.4-1,4-1.3c-4.4,0.9-4.1,1.6-9.2,2.8l1.3-0.8c0.9-0.3,1.8-0.6,2.7-0.9c0.9-0.3,1.9-0.7,2.8-0.9
						c1.8-0.5,3.5-1,4.7-1.3c-0.5,0.1-0.7,0.1-0.5-0.1c1.2-0.4,2.2-0.7,3.1-1c0.9-0.3,1.7-0.5,2.5-0.7c1.6-0.4,3.1-0.9,5.6-1.4
						c0.7,0.1-2.2,0.7-4.2,1.3c1.6-0.2,2.4-0.4,3.5-0.7c0.5-0.1,1.1-0.3,1.8-0.4c0.8-0.1,1.7-0.3,2.9-0.5c0.3,0.2-3.3,0.5-3.8,1
						c0,0,0.3-0.1,0.8-0.2c0.5-0.1,1.2-0.2,1.9-0.4c1.4-0.3,2.7-0.5,2.7-0.5c0,0,0,0,0,0.1c0.4-0.3,1.4-0.5,2.8-0.7
						c0.7-0.1,1.4-0.2,2.2-0.3c0.8-0.1,1.6-0.2,2.5-0.3c7.9-1.1,9.1-1.6,13.5-2.3c1.2,0,1.6,0.1,1.1,0.3c-2,0-1.6,0.1-2.3,0.2
						c1.4-0.1,2.8-0.1,3.8-0.1c1,0.1,1.4,0.3,0.6,0.4c4.3-0.2-1.6-0.2,1.1-0.4l5.9-0.1c-0.7-0.2-2.8-0.2,0.3-0.4
						c0.6,0,1.2,0,1.7-0.1c0.5,0,1,0,1.6,0c1.1,0,2.2,0.1,3.9,0.1c-0.5,0.1,1.1,0.4-1.5,0.3c1.6,0.1,4.2,0.2,5.2,0
						c-1.8-0.1-0.3-0.2,1.3-0.1c1.6,0.1,3.4,0.1,2-0.2l3.7,0.5c-0.8-0.1-0.9,0.1-2.2-0.1c1,0.4,3,0.1,4.3,0.2
						c1.3,0.1,4.6,0.7,4.9,0.8c1.2,0.1,4,0.5,4.5,0.7c1.7,0.2,0.2-0.2,0.7-0.2c0,0,0.4,0,0.9,0.1c0.5,0.1,1.3,0.2,2,0.4
						c1.5,0.3,2.9,0.5,2.9,0.5c0.3,0.2,0.7,0.8-0.2,0.7c2.2,0.2,0.9-0.4,4.2,0.2c-2-0.1,4.3,1.3,1.5,1.1c0.9,0.3,2.7,0.8,4.6,1.3
						c1,0.2,2,0.5,2.9,0.7c0.9,0.2,1.8,0.5,2.5,0.7c1.9,0.2-3.1-1.1-2.8-1.3c4.1,1.1,6.3,1.5,8.3,1.9c2,0.4,3.6,0.8,6.5,1.9
						l-1.5-0.6c3.8,1.1,3.3,1,5.6,1.5c-0.6,0,0.4,0.6,2.2,1.5c0.9,0.5,2.1,1,3.3,1.6c0.6,0.3,1.3,0.6,2,0.9c0.7,0.3,1.4,0.6,2.1,1
						c0.6,0.1-3.1-1.8-2.1-1.6l3.9,1.7c0.3,0.2-0.2,0-0.7-0.2c1.8,0.7,3.3,1.6,4.6,2.2c1.3,0.7,2.2,1.3,2.8,1.3l3.2,2.2l-1.3-0.9
						c0.5,0.1,4.4,2,5.2,2.4c3.9,2,5.2,2.9,7.1,4.4c-0.3-0.3-0.8-0.7-0.8-0.9c-0.1-0.2,0.3-0.1,1.8,0.8c-0.3,0.5,6,4.1,5.7,4.3
						c1.2,0.8,3,2.4,3.3,2.3l-0.4,0.2c0.3-0.1,1.4,0.6,2.9,1.6c0.7,0.5,1.6,1,2.4,1.7c0.8,0.6,1.7,1.2,2.4,1.8
						c-1.1,0,3.4,2.6,4.3,4.2c0.8,0.1,5.3,4.4,6.1,4.5c2.2,2,1.7,2.1,2.1,2.8l1.1,0.8c0.5,0.6,1.7,1.9,3.1,3.3
						c1.4,1.4,2.9,3.1,4,4.4l2.4,2c0,0,0.2,0.2,0.3,0.5c0.2,0.2,0.3,0.5,0.3,0.5c0.4,0.3,2.1,2.2,1.2,0.9l1.1,1.3
						c0.4-0.2,1.6,1.7,4,4.1c0.4,0.7,0.2,0.6-0.3,0c1,1.3,0.4,0.9,0.9,1.7c-0.6-1,4.4,4.2,1.7,0.6c-0.1-0.4,1.7,1.6,2.6,3l0.3,1
						c0,0,0.4,0.3,0.8,0.7c0.4,0.3,0.7,0.7,0.7,0.7c1.5,2.1,2,3.1,3.2,4.9c-1.3-1.7-3.4-3.4-0.2,1.1c-1.7-2.3-2.7-3.4-3.7-4.5
						c0.6,0.9,0.9,1.4-0.2,0.1c2.6,3.4,1,1,3.5,4.5c-0.4,0,0.2,1,2.1,4.2l-1.3-2.5c0.1,0.1,0.2,0.2,0.4,0.4
						c-0.5-0.9-0.6-1.2-0.7-1.4c0.5,0.7,3,3.9,3.3,4.6c-0.9-2,0.2-0.4,1.4,1.3c1.2,1.7,2.3,3.6,1.8,2.4c0.3,0.4,1.8,3,1.8,3.3
						c-2-3,1,2.5,0.5,2.2c0.8,1.1-1.2-2.6-0.2-1.1c1.1,1.8,1.7,3.3,2.1,4.4l-0.5-0.8l1.4,3c0.4,0.4-1.2-3,0.3-0.3
						c0.3,0.7,1.8,3.4,1.6,3.4c-0.9-1.2-0.7-0.1-1.9-2.4c0.5,0.9,1.5,2.9,2.3,4.3c0.7,1.5,1.2,2.3,0.8,1l1,2.3
						c-0.5-1.5-2.1-5.7,0-1.1l-0.1,0l1.7,3.1l0.5,1.5c0.1-0.1,0.4,0.4,0.9,1.6c0,0.4,0.4,1.5,0.3,1.5c1.4,3.6,1.5,3.2,1.8,3.6
						c0.8,2,1,2.8,0.5,1.9c1,2.8,2.6,7.6,3.1,9.6c1.2,3.7-0.1-0.8,0.7,1.3c0.1,1.7,1,4.8,2,8.3c0.4,1.8,0.9,3.6,1.3,5.4
						c0.2,0.9,0.4,1.8,0.7,2.6c0.2,0.9,0.3,1.7,0.5,2.5c0.2-1.8,0.4,1.7,1.1,2.8c-0.4-1.3,0.6,6.1-0.5,0.6l0.7,3.4
						c0.1,2.3-1.2-5.5-1-2c0.4,1.9,0.7,3.4,1.1,5.1c0.3,1.6,0.7,3.4,0.8,5.6c-0.3-0.7-0.1,0.1,0,1c0.1,0.9,0.2,1.9-0.1,1.3
						c-0.2-0.9-0.3-2.2-0.5-3.4l0,0.8c0.1,1,0.2,1.9,0.2,2.5c0.1,0.6,0.1,1.1,0.2,1.5c0.1,0.7,0.2,0.9,0.3,0.9
						c0.2,0.1,0.4-0.3,0.7,1.9c0.4,5.1,0,4-0.2,4.4c-0.1,0.8,0.1,3.4,0.2,4.7c-0.3-3.1,0.1-5.8,0.4-4.4c-0.4,2.3,0.2,7.6,0.4,9
						c0.1-3.7,0.1-4.9,0.1-6.2c0-0.6,0-1.2,0-2.1c0-0.4,0-0.9,0-1.6c0-0.6,0-1.3,0-2.2c-0.2-0.9-0.6-0.7-0.7-4.9
						c0.4,2.6,0.2-0.2,0.2-0.9c-0.1,0.4-0.2-0.3-0.2-1.3c-0.1-1-0.3-2.2-0.4-2.8c0-1.2,0.8,2.4,0.4-1.8l-0.6-0.7
						c-0.1-1.6,0.5,0.6-0.1-2.8c0.5,1.8,0.4-0.6,1,4.1c-0.1-1.4-0.2-2.7-0.3-3.8c-0.1-1.1-0.3-2.2-0.6-3.2c-0.5-2-1-3.7-1.5-5.9
						c0.1,0.4,0.2,0.5,0.3,0.9c-0.3-0.9-0.6-2.6-0.9-3.8c-0.5-2.9,0.7,2.2,0.7,1.4c0,0-0.1-0.3-0.1-0.7c-0.1-0.4-0.2-1-0.4-1.6
						c-0.3-1.1-0.5-2.3-0.5-2.3c0-0.1,0-0.1,0-0.1c-0.3-1.2-0.7-2.3-0.6-2.8c0.5,1.3,0.8,1.8,1.1,2.7l-1.5-4.7
						c0.4,0.5-0.8-4,0.3-0.7l-2.1-7l0.2-0.7c-0.5-1.7-0.6-1.7-0.1,0.3c-0.3-1.2-1.3-3.8-2.1-6c-0.8-2.2-1.4-3.9-0.8-3.4
						c-1.1-2.7-1.9-4.4-2.7-6.4c-0.4-1-0.8-2-1.3-3.2c-0.5-1.1-1.2-2.4-1.9-4c2.5,4.7-2.1-5.8,0.3-0.7c-1.2-3.1-1.8-3.6-3.1-5.9
						c-1-2.3-0.2-1.4,1.2,0.9l-1.6-2.7l0.1,0l-1.4-2.3c-1.2-2.6,0.1-0.7-1.3-3.4l-0.6-0.4L955,319c0.2,0.7-0.7-0.8-1.8-2.6l0.1,0
						c0,0-0.3-0.6-0.7-1.1c-0.3-0.6-0.7-1.1-0.7-1.1c0.7,1.1,0.5,0.5,0.1-0.1c-0.4-0.7-0.9-1.5-0.5-1c-1.2-1.9-1.2-1.9-3.5-5.3
						l0.2,0.7c-1.5-2.2-1.5-2.2-1.4-2.3c0.1,0,0.4,0.1-0.9-1.7l-0.1,0.4c-1.6-2.6-3.1-4.8-4.7-6.6c-1.6-1.9-3-3.5-4.3-5.4
						c1.7,2,1.5,1.3,1.4,1.3c-0.6-0.8-1.3-1.6-2.1-2.6c-0.8-0.9-1.7-1.9-2.5-2.9c-1.7-1.9-3.5-3.9-5-5.2c-0.8-1.3-0.9-1.7-3.7-4.8
						c-2.2-2.2-2.5-2.4-3.4-2.9c-1-1.1-2.6-2.5-3.8-3.7c-1.3-1.2-2.4-2.1-2.4-2.3c-0.7-0.3-2-1.8-3.3-2.7l-0.2-0.3l0,0.4
						c-0.4-0.5-0.9-0.9-1.3-1.4c-0.5-0.4-0.9-0.8-1.4-1.1c-0.9-0.7-1.8-1.4-2.7-2c-0.9-0.6-1.8-1.3-2.7-2c-0.9-0.7-1.9-1.4-2.9-2.3
						l0.8,0.5l-1.9-1.2c-0.2-0.3,0.6,0.2,0.7,0.1c0,0-2.1-1.5-4.2-3c-2.1-1.4-4.3-2.8-4.3-2.8l1.6,1.3c-1.8-1.2-3.2-1.7-5.2-3.2
						c1.8,1,1.1,0.5-0.1-0.3c-1.3-0.7-3.1-1.7-3.3-2l2,1c-2.6-1.5-2.6-1.5-2.6-1.1c-1.7-0.9-2.2-1.4-2.8-1.8c-0.5-0.4-1-0.8-2.7-1.5
						c0,0,0.6,0.3,1.1,0.6c0.6,0.3,1.1,0.6,1.1,0.6c0.6,0.5-1.1-0.3-2.6-1c-0.3-0.2-1.4-0.9-0.2-0.3c-2.8-1.3-6.8-3.6-8.2-4
						c-1.5-0.8-0.9-0.7-0.1-0.4c-3.1-1.3-3.7-1.6-4.4-1.9c-0.3-0.2-0.7-0.3-1.3-0.6c-0.6-0.3-1.6-0.7-3.1-1.2l0.2-0.1l-2.2-0.7
						l-2.9-1.5l1,0.6c-1-0.4-1.8-0.7-2.7-1c-0.9-0.3-1.8-0.6-3-1l1,0.1c-2.9-0.9-4.6-1.6-6.2-2.2c-1.6-0.6-3.3-1.1-6.1-1.7
						c-0.4-0.1,0.5,0,1,0.1c-2.7-0.6-3.6-1-4.6-1.3c-1-0.3-2-0.6-4.7-1c0.3,0-0.2-0.2,0-0.2l-2.4-0.4l0.2-0.2l-2.1,0
						c0,0-0.4-0.2-0.7-0.3c-0.4-0.1-0.7-0.3-0.7-0.3l-1,0c-1.2-0.5-2.8-0.8-4.5-1.1c-0.8-0.2-1.7-0.3-2.6-0.5
						c-0.9-0.2-1.8-0.3-2.7-0.5l0.6,0.4c-9.1-0.7-20.8-2.5-31.9-1.9l0.2-0.3l-4.6,0.5c-2.5-0.2,1.5-0.3,0.7-0.4
						c-2.4,0.1-2.9,0.3-3.5,0.5c-0.6,0.1-1.3,0.3-4.1,0.5c-2.9,0,1-0.3,2.3-0.5c-5.3,0.4-13.1,1.6-16.8,2c-0.1,0.1-0.3,0.1-0.1,0.1
						c-3.5,0.8-8.1,1.3-11.9,2.3c0.1-0.2,1-0.4,1.9-0.6c-1.4,0.3-3.3,0.6-4.4,1l1.4-0.6c-1.5,0.3-3.6,0.8-5.4,1.3
						c-1.8,0.5-3.4,1-3.8,0.9c0.4,0,0.3,0.3-2.2,1c-1.5-0.1-6.7,2.3-10.7,3.4c0.4-0.3,3.3-1.3,2.5-1c-1,0.3-1.9,0.6-2.8,1
						c-0.9,0.4-1.7,0.8-2.5,1.2l0.5-0.4c0,0-2.2,0.9-4.5,1.9c-2.3,0.9-4.4,2-4.4,2c-1.5,0.2-8.3,3.8-7.8,3.3
						c-3.1,1.6,2.7-1.1-1.2,0.9c-1.1,0.4-3.5,1.9-3.5,1.5l0.4-0.2l-2.7,1.4l1.6-1.1c-2.3,1.2-3.8,2.5-3.9,2.7
						c-2.2,1.1-5.3,3-6.4,3.4c0,0,0.2-0.1,0.4-0.3c0.2-0.1,0.4-0.3,0.4-0.3c-2.9,1.9-5.5,3.3-7.9,4.7c-2.3,1.4-4.4,2.8-6.6,4.6
						c-0.4,0.2-0.4,0.1,0.3-0.4c0,0-0.9,0.6-1.8,1.3c-0.9,0.7-1.7,1.3-1.7,1.3l0.7-0.8l-5.5,4.7l0-0.2c-1.9,1.4-4.1,3.5-6.6,5.6
						c-1.2,1-2.4,2.2-3.6,3.3c-1.2,1.1-2.3,2.3-3.4,3.3l0.6-0.7c-0.6,0.6-1.1,1.1-1.6,1.6c-0.4,0.5-0.8,0.9-1.2,1.2
						c-0.7,0.7-1.2,1.2-1.7,1.7c-1,1-1.8,1.8-3.5,3.6c0.1-0.2,0.2-0.3,0.3-0.4c0,0-0.2,0.2-0.5,0.5c-0.3,0.3-0.6,0.7-1,1.1
						c-0.7,0.8-1.4,1.7-1.4,1.7l0.5-0.8c-0.9,1.3-2.5,3-3.7,4.2c-1.2,1.2-1.8,1.9-1.1,1.2c-1,1.5-2.9,4.1-3.1,4.7
						c-2.9,3.8-0.9,0.8-2.8,3.1c-2,2.8-2.2,3.4-5,7.2l-0.1-0.2c-1.2,1.9-1.8,3.1-3.4,5.7l0.4-0.8c-0.6,1.1-1.1,1.9-1.6,2.7
						c-0.5,0.8-0.9,1.4-1.2,2c-0.8,1.2-1.4,2.3-2.1,4.2c-1.2,1.7-2.9,5.3-3.1,5c-1.3,2.8-2.6,5.3-3.6,7.8c-0.5,1.3-1.1,2.5-1.6,3.8
						c-0.3,0.7-0.6,1.3-0.9,2c-0.3,0.7-0.5,1.4-0.8,2.1c-0.8,0.7-0.5,1.2-2.1,4.6l0.3-0.2c-3,8.2-6.7,17.5-8.6,27l-0.3,0.2l-0.2,1.9
						c-0.6,2.5-1,5.3-1.6,8.1c-0.1,0.7-0.3,1.4-0.4,2.1l-0.3,2.1c-0.2,1.4-0.4,2.9-0.6,4.3c-0.2,1.4-0.4,2.8-0.5,4.2
						c-0.1,1.4-0.2,2.7-0.3,4c-0.2,2.6-0.4,5-0.4,7c0,1.4,0.1,3.1,0.1,5c0,1,0,2,0,3c0,1,0.1,2.1,0.1,3.2l0-0.5
						c0.1,1.9,0.2,3.8,0.2,5.7l0.1,1.4l0.1,1.4c0.1,1,0.2,1.9,0.2,2.9c0.2,2,0.3,3.9,0.5,5.9c0.2,2,0.5,4,0.7,6
						c-0.2-0.5-0.1,0.3-0.3-0.6c0.3,0.9,0.4,2.1,0.5,3.3c0.1,1.2,0.3,2.3,0.4,3.2l-0.2-2.1c0.6,2.2,1,5.6,1,6.8c0,0,0.2,0.9,0.5,1.8
						c0.3,0.9,0.5,1.8,0.5,1.8c0,0.2,0.1,0.6,0,0.7l0.3,0.6l0.1,2c0.3,0.9,1.4,5.6,2.2,7c0,0.4,0.8,3.7,0.1,1.2c0,0,0.2,0.8,0.6,2
						c0.4,1.2,0.7,2.8,1.3,4.4c1.1,3.2,2.1,6.4,2.1,6.4l-0.6-2c0.1-0.2,0.5,0.7,0.9,1.8c0.2,0.6,0.5,1.2,0.7,1.9
						c0.2,0.6,0.5,1.2,0.6,1.7c-1.2-2.5-0.4-0.1-0.2,1.1c0.8,1.6-0.4-1.6,0.1-0.7c1,2.1,2.8,6.6,3.2,7.7c0,0-0.2-0.3-0.3-0.6
						c-0.2-0.3-0.3-0.6-0.3-0.6c1.3,2.8,1.5,4.3,2.8,7.1c0.3,0.6,0.6,1.2,0.9,1.7c0.3,0.5,0.5,0.9,0.7,1.3c0.4,0.7,0.6,1,0.7,0.6
						c1.9,3.5,0.4,1.5,1,2.7c0.5,0.8,1.4,2.4,2.1,4c0.8,1.5,1.5,2.9,1.6,3.3c0.8,0.8,2.1,3.2,3.3,5.3c1.3,2.2,2.5,4.2,2.9,4.4
						l1.5,2.9c0.2,0,0.8,0.4,2.4,2.5c1.3,2.1,0.8,1.8,1.1,2.5l1.4,1.1c7.9,12,21.3,25.7,33.3,36c1.4,1.1,2.9,2.2,4.5,3.4
						c0.8,0.6,1.6,1.2,2.4,1.8c0.8,0.6,1.7,1.1,2.5,1.7c1.7,1.2,3.4,2.4,5.2,3.5c1.8,1.1,3.5,2.3,5.3,3.4l-0.8-0.4
						c0,0,0.4,0.3,1.1,0.7c0.6,0.4,1.5,1,2.4,1.5c1.8,1.1,3.5,2.1,3.5,2.1s-1.3-0.8-2.5-1.6c-1.3-0.8-2.5-1.6-2.5-1.6
						c1.5,0.9,2.8,1.5,4.3,2.4c1,0.6,2,1.2,3,1.8c1,0.6,2.1,1.3,3.2,1.9c2.3,1.2,4.6,2.5,7.1,3.8c2.5,1.2,5.1,2.3,7.6,3.5
						c2.6,1.1,5.3,2.1,7.8,3c1.7,0.5,2.9,0.9,3.7,1.2c0.8,0.3,1.4,0.6,1.9,0.8c1,0.5,2,1.1,5.4,1.9c-0.6-0.1-0.8-0.1-1.3-0.2
						c3.6,1,6.3,1.6,9.1,2.4c1.4,0.4,2.8,0.6,4.3,0.9c1.5,0.3,3.1,0.6,4.9,0.9c-0.5,0.2,0.7,0.5,1.9,0.7c1.2,0.2,2.5,0.3,2.1,0.4
						l0.7-0.1c1.6,0.4,5.4,1.2,4.8,1.2c0,0,0.8,0.1,1.6,0.1c0.8,0,1.6,0.1,1.6,0.1l0.2,0.3c2.1,0.3,5.5,0.7,8.6,1
						c3.1,0.3,6,0.5,7.1,0.9c5.4,0.1,12.3,0.2,19.5-0.1c1.8,0,3.6-0.2,5.5-0.3c1.8-0.1,3.7-0.3,5.5-0.4c3.6-0.4,7.2-0.8,10.5-1.2
						c1.8-0.5,5.7-1.2,8.7-1.8c0,0,0.8-0.1,1.6-0.2c0.8-0.1,1.6-0.2,1.6-0.2c1.5-0.4,3.1-0.9,4.6-1.3c0.8-0.2,1.5-0.4,2.3-0.6
						c0.7-0.2,1.5-0.4,2.2-0.6c0,0-0.1,0.1-0.3,0.2c1.5-0.5,3-0.9,4.5-1.3c1.5-0.4,2.9-0.8,4.3-1.5c3.3-1.1,6.5-2,5.6-1.4
						c0.1-0.3,1.8-0.8,3.5-1.4c1.7-0.6,3.4-1.1,3.4-1.1s0.7-0.3,1.9-0.7c0.6-0.2,1.4-0.5,2.3-0.9c0.9-0.4,1.9-0.8,3-1.3
						c1.1-0.5,2.4-1.1,3.8-1.7c1.4-0.6,2.8-1.3,4.4-2.1c1.6-0.8,3.2-1.6,5-2.5c1.8-0.9,3.5-2,5.4-3c7.6-4.3,16.2-9.9,24.9-17
						c8.7-7.1,17.6-15.5,25.7-25.1c8.1-9.5,15.5-20.2,21.6-31.2c6.1-11,10.9-22.4,14.4-33.3c0.4-1.4,0.9-2.7,1.3-4
						c0.4-1.4,0.7-2.7,1.1-4c0.4-1.3,0.7-2.6,1-3.9c0.4-1.3,0.6-2.6,0.9-3.9c0.5-2.5,1.1-5,1.5-7.4c0.4-2.4,0.7-4.7,1.1-7
						c0.1-0.6,0.2-1.1,0.2-1.7c0.1-0.5,0.1-1.1,0.2-1.6c0.1-1.1,0.2-2.1,0.3-3.2c0.2-2.1,0.4-4,0.5-5.8c0.1-3.7,0.3-6.9,0.2-9.6
						c-0.2-1.5-0.3-5.5-0.6-4c0-3.1,0.5-4.5,0.2-5.1c-0.3,4.2-0.6-1.3-1,2.8l0-2.6c-0.2-0.5,0.1,3.6-0.2,2.9l0.4,0.7
						c-0.1,2.1-0.3,3.3-0.4,4c0.2,2,0.7,3.3,0,8.1l0.1-1.3c-0.3,3.9-0.5,2.4-0.6,3.2l0.1-0.9c0,0-0.1,0.8-0.2,1.6
						c-0.1,0.8-0.3,1.6-0.3,1.6c0.4-2.5,0.3-6.6,0.2-4.4c-0.5,4.6,0.2-1.2,0,2.3c-0.1,2.2-0.4,1.5-0.5,1.4l-0.5,3.8
						c-0.2-0.2,0.3-2.5-0.1-1l-0.4,4.9c-0.6,0.8-0.6,5.3-1.5,7.4c0.5-3.5-0.2,0.3-0.3-0.3c0,0-0.4,2.1-0.7,4.2
						c-0.5,2.1-0.9,4.2-0.9,4.2c-0.3,0.8,0.3-2.2,0.1-1c-0.5,1.5-0.5,2.6-0.7,3.5c-0.2,0.3-0.5,1.9-0.9,3.3c-0.4,1.4-0.8,2.7-1,2.5
						c-0.9,2.8-1,3.4-1,3.9c0,0.6,0,1.1-1,3.6c-0.4,0.6,1.3-4.1,0.3-1.9l-1.7,5.3c0.1-0.5,0-1.1,0.7-3.1c-0.7,1.8-1.3,3.4-1.9,5
						c-0.6,1.6-1.3,3-1.9,4.5c-0.6,1.4-1.3,2.8-1.9,4.1c-0.6,1.3-1.3,2.6-1.9,3.8c-1.3,2.5-2.5,5-3.9,7.6c-1.4,2.6-2.7,5.3-4.4,8.3
						c-1.2,1.5,0.5-1.3,1.1-2.6c-2.4,4.4-4.1,7.4-6.1,10c-1,1.3-1.9,2.6-2.9,4c-1,1.4-2.1,2.8-3.3,4.6l0.1,0.2
						c-0.9,1.2-1.8,2.3-2.8,3.6c-1,1.2-2,2.4-3,3.6c-1,1.2-2,2.5-3.1,3.7c-1.1,1.2-2.2,2.5-3.3,3.7c-4.4,5-9.2,9.9-14.2,14.3l1.2-1
						c-1.1,1.5-3.4,3.4-5,4.9c-0.3,0.1,0.9-1.4-2,1.2c0.7-0.5,1.9-1.5,1.6-1.1c-4.4,3.6-11.5,9-19.7,14.3c-2.1,1.3-4.2,2.7-6.3,4
						c-2.2,1.2-4.4,2.5-6.6,3.7c-4.5,2.3-8.9,4.6-13.3,6.4c-11.5,5.3-24.1,9.4-36.9,12.1c-12.8,2.7-25.9,4-38.3,4.1
						c3.8-0.1,2.2,0.5-0.7,0.4c-3.9-0.5-7.3-0.6-10.7-0.6c-1.7-0.1-3.4-0.2-5.2-0.3c-1.8-0.1-3.6-0.3-5.6-0.7
						c-3.6-0.4-7.1-0.7-10.5-1.4c-1.7-0.3-3.4-0.6-5-0.9c-1.7-0.3-3.3-0.8-4.9-1.2c-1.6-0.4-3.3-0.8-4.9-1.2
						c-1.6-0.5-3.2-0.9-4.8-1.4c-1.6-0.5-3.2-0.8-4.8-1.3c-1.6-0.5-3.2-1-4.8-1.4l-0.2-0.3c-1.9-0.8-2.5-0.7-4.4-1.5l0.1,0
						c-2.3-1-4.9-1.9-7.2-2.8c-2.3-1-4.3-1.9-5.6-2.5l-0.3,0.2c-2.7-1.2-1.3-0.8-4.1-2l0.1-0.1l-3.3-1.4c0.3-0.2-1.6-1.1-3.7-2.2
						c-2.1-1.2-4.5-2.5-5.5-3.2c-1.7-0.9-4-2.4-6.6-3.9c-2.6-1.5-5.3-3.5-7.6-5.2c-0.8-0.8-6.4-5.1-9.8-8.1
						c-6.9-5.5-16-14.3-23.2-23l-0.1,0.4c0,0-0.5-0.6-1-1.1c-0.5-0.5-0.9-1.1-0.9-1.1c0.1,0-0.1-0.3,0.2,0c-1.1-2-4.3-5.2-5.5-7.3
						c0.6,1.4,1.2,1.7,2.2,3c1.4,2-0.3,0.4-2.2-2.3l0.1,0l-1.4-1.7c0.1-0.4-1-2.1-1-2.4c-0.7-1-1.4-1.9-2.1-2.8
						c-0.7-0.9-1.2-1.8-1.8-2.7c-1.2-1.8-2.3-3.5-3.5-5.2c-1.1-1.8-2.1-3.5-3.2-5.4c-0.5-0.9-1.1-1.9-1.7-2.9
						c-0.5-1-1.1-2.1-1.6-3.2c0.7,0.8-3.3-6.4-2-4.8c-2.6-5.4,0,1.1-1.4-1.3c-0.7-1.5-1.5-3.1-1.5-3.4c0.4,0.7-0.3-1.4,0.3-0.1
						c0,0-0.4-0.9-0.8-1.8c-0.4-0.9-0.8-1.8-0.8-1.8c-0.1-0.4,0.3,0.4,0.5,0.8c-3.3-7.5-4.9-13.6-7.2-20.5c-0.3-0.5,0.7,2.8,0.4,2.3
						c-2.3-7-1.6-6.3-3.3-13l0.6,1.3c-0.3-1.1-0.6-1.8-0.9-2.8c-0.2-0.9-0.6-2.1-0.8-3.9c0.1-0.3,0.3,0.4,0.5,1.5
						c0.3,1,0.6,2.4,0.9,3.2c-0.7-2.4-1.8-8.6-1.7-6.7c-0.6-2.9-0.6-4.1-0.8-5.7c-0.1,0,0.3,2.8-0.1,1.1c-0.3-2-0.5-4.6-0.8-7.3
						c-0.1-1.3-0.4-2.7-0.4-4.1c-0.1-1.4-0.2-2.7-0.3-3.9c0.1,0,0.2-0.3,0.2,0.1C603.1,423.5,603.7,423.9,603.5,418.4z"/>
					<path id="XMLID_36_" class="st2" d="M757.7,228.7l-2,0.3c0,0.1-0.1,0.2-1,0.4L757.7,228.7z"/>
					<path id="XMLID_37_" class="st2" d="M671,267.8c-0.2,0.2-0.4,0.3-0.5,0.5C670.8,268,670.9,267.8,671,267.8z"/>
					<path id="XMLID_38_" class="st2" d="M654.2,284c1.1-1.2,0-0.2-0.6,0.3C653.6,284.4,653.7,284.4,654.2,284z"/>
					<path id="XMLID_39_" class="st2" d="M812,226.7c-0.4,0-0.6,0-0.5,0.1C812,226.8,812.1,226.8,812,226.7z"/>
					<path id="XMLID_40_" class="st2" d="M939.1,300.6c-0.1-0.2-0.2-0.3-0.3-0.5C938.8,300.2,939,300.3,939.1,300.6z"/>
					<path id="XMLID_41_" class="st2" d="M934.3,293.7c-0.3-0.3-0.6-0.7-1.1-1.3C933.6,293,934,293.4,934.3,293.7z"/>
					<path id="XMLID_42_" class="st2" d="M775.5,225.9c-0.6,0.1-1.1,0.1-1.6,0.2C774.8,226.1,775.2,226,775.5,225.9z"/>
					<path id="XMLID_43_" class="st2" d="M932,291.1l-1.4-1.6c0,0,0,0-0.1,0L932,291.1z"/>
					<path id="XMLID_45_" class="st2" d="M940.7,302.7c-0.5-0.7-1.1-1.6-1.5-2.2C939.7,301.4,940.2,302.1,940.7,302.7z"/>
					<path id="XMLID_46_" class="st2" d="M865.4,241.1c-0.1,0-0.1-0.1-0.2-0.1C863.7,240.5,864.6,240.9,865.4,241.1z"/>
					<path id="XMLID_47_" class="st2" d="M925.5,284.6c-0.1-0.1-0.1-0.1-0.2-0.2l-0.5-0.4L925.5,284.6z"/>
					<path id="XMLID_48_" class="st2" d="M945.7,310.3c-0.2-0.3-0.4-0.6-0.6-0.9c0.2,0.3,0.4,0.6,0.6,1
						C945.7,310.3,945.7,310.3,945.7,310.3z"/>
					<path id="XMLID_49_" class="st2" d="M892.9,256.8c0.6,0.2,0.8,0.3,0.8,0.3C893.2,256.6,892.8,256.4,892.9,256.8z"/>
				</g>
			</g>
		</g>
	</g>
</g>
</svg>
