<?xml version="1.0" encoding="utf-8"?>
<!-- Generator: Adobe Illustrator 19.0.0, SVG Export Plug-In . SVG Version: 6.00 Build 0)  -->
<svg version="1.1" id="捲入線" xmlns="http://www.w3.org/2000/svg" xmlns:xlink="http://www.w3.org/1999/xlink" x="0px" y="0px"
	 viewBox="0 0 700 700" style="enable-background:new 0 0 700 700;" xml:space="preserve">
<style type="text/css">
	.st0{display:none;}
	.st1{display:inline;}
	.st2{fill:#CEBCA6;}
</style>
<g id="XMLID_272_" class="st0">
	<g id="XMLID_58_" class="st1">
		<g id="XMLID_62_">
			<g id="XMLID_63_">
				<g id="XMLID_70_">
					<path id="XMLID_163_" class="st2" d="M1033.2,156.5c0.1,0,0.1-0.1,0.1-0.1C1033.2,156.4,1033.1,156.4,1033.2,156.5z"/>
					<path id="XMLID_162_" class="st2" d="M970.8,155.6l0.7-0.1C971.1,155.6,970.9,155.6,970.8,155.6z"/>
					<path id="XMLID_161_" class="st2" d="M1070.5,156.8C1070.5,156.8,1070.5,156.8,1070.5,156.8c0.5,0,1.3,0,2.5,0.1L1070.5,156.8z
						"/>
					<path id="XMLID_160_" class="st2" d="M837.9,154.7l0.8,0C838.3,154.7,838.1,154.6,837.9,154.7z"/>
					<path id="XMLID_159_" class="st2" d="M916.7,155.3c-0.2,0.1-0.7,0.1-1.1,0.1C916.1,155.4,916.5,155.4,916.7,155.3z"/>
					<path id="XMLID_158_" class="st2" d="M1090.2,159.6l-1.1-0.2C1089.2,159.5,1089.6,159.6,1090.2,159.6z"/>
					<path id="XMLID_157_" class="st2" d="M1128.1,158.9C1128.1,158.8,1128.1,158.8,1128.1,158.9
						C1128,158.8,1128,158.8,1128.1,158.9z"/>
					<path id="XMLID_156_" class="st2" d="M1113.3,158.1c-0.3,0-0.7,0.1-1.1,0.1C1112.7,158.2,1113.3,158.2,1113.3,158.1z"/>
					<path id="XMLID_155_" class="st2" d="M1111.7,158.2c0.2,0,0.3,0,0.5,0C1112,158.2,1111.7,158.2,1111.7,158.2z"/>
					<path id="XMLID_154_" class="st2" d="M354.9,155.6c-1.1,0-2,0.1-3,0.3L354.9,155.6z"/>
					<path id="XMLID_153_" class="st2" d="M717.5,154.6l0.2-0.1C717.5,154.5,717.5,154.5,717.5,154.6z"/>
					<path id="XMLID_152_" class="st2" d="M353.6,157.3l-0.8,0C353.1,157.2,353.3,157.3,353.6,157.3z"/>
					<path id="XMLID_151_" class="st2" d="M1070.2,160.1c-1.1,0.2-3.3,0-3.3,0.1C1068,160.3,1069.7,160.4,1070.2,160.1z"/>
					<path id="XMLID_150_" class="st2" d="M692,161.6l-0.7,0C691.7,161.6,691.9,161.6,692,161.6z"/>
					<path id="XMLID_149_" class="st2" d="M353.6,157.3l0.9,0c-0.1,0-0.2-0.1-0.3-0.1C354,157.2,353.8,157.3,353.6,157.3z"/>
					<path id="XMLID_148_" class="st2" d="M592.1,154.5C592.1,154.5,592.1,154.5,592.1,154.5c0.1,0,0.2,0,0.3,0L592.1,154.5z"/>
					<path id="XMLID_147_" class="st2" d="M585.5,154.2c0.5,0,0.9,0,1.4-0.1C586.1,154.1,585.7,154.1,585.5,154.2z"/>
					<path id="XMLID_146_" class="st2" d="M351.9,155.9l-1.7,0.1C350.8,156,351.4,155.9,351.9,155.9z"/>
					<path id="XMLID_145_" class="st2" d="M513.8,154.4c0.2,0,0.4,0,0.7,0C514.2,154.4,513.9,154.4,513.8,154.4z"/>
					<path id="XMLID_144_" class="st2" d="M921.7,155.4c0.2,0,0.4,0,0.6,0C922.4,155.4,922.3,155.4,921.7,155.4z"/>
					<path id="XMLID_143_" class="st2" d="M872.2,160.4L872.2,160.4C872.2,160.4,872.2,160.4,872.2,160.4
						C872.2,160.4,872.2,160.4,872.2,160.4z"/>
					<path id="XMLID_142_" class="st2" d="M874.8,160.1c-0.8,0-2,0.1-2.6,0.2C873,160.4,873.8,160.3,874.8,160.1z"/>
					<path id="XMLID_141_" class="st2" d="M866.5,160.3c0.1,0,0.2,0,0.3,0C866.7,160.3,866.6,160.3,866.5,160.3z"/>
					<path id="XMLID_140_" class="st2" d="M919.7,160.6C919.7,160.6,919.7,160.6,919.7,160.6C919.7,160.6,919.7,160.6,919.7,160.6
						L919.7,160.6z"/>
					<path id="XMLID_139_" class="st2" d="M909.2,160.7c-0.2,0-0.4-0.1-0.7-0.1C908.6,160.6,908.9,160.7,909.2,160.7z"/>
					<path id="XMLID_138_" class="st2" d="M840.3,160.8C840.3,160.8,840.3,160.8,840.3,160.8C840.3,160.8,840.3,160.8,840.3,160.8
						C840.2,160.8,840.3,160.8,840.3,160.8z"/>
					<path id="XMLID_137_" class="st2" d="M741,162.2c10-0.1,22.9-0.5,32.8-0.4c2.1-0.4,5.3-0.4,8.4-0.5l0.3,0.5l2.6-0.2
						c1.1,0.2-2,0.1-0.1,0.3l1-0.3c0.2,0.2,6.7,0.1,2.3,0.5l10.2,0c2.3,0,1.3-0.4,3.8-0.3c0.5,0.1-0.9,0.1-0.7,0.3
						c7.5,0.4,8.7-1,15.6-0.8l-0.6,0.1c1.2-0.1,3.5-0.1,3.5-0.2c-0.9-0.5-1.3,0.3-3.4,0c0.2-0.4,2.7-0.2,2.5-0.6
						c1.6,0.2,2.6-0.1,4-0.1c2.4,0.3,5.9,0.1,7.7,0.4c1.2-0.1,2.5-0.6,5.1-0.6c1.8,0.3-0.4,0.3,2.1,0.5l0.4-0.3c2,0,1.7,0.1,1.7,0.2
						c2.2,0,1.8-0.3,4.6-0.2l-1.5,0.2c2-0.1,2.9-0.1,5.7,0c-0.1,0.1-1.2,0.1-2,0.1c1.5,0.4,2.6-0.2,3.5-0.1
						c-0.2-0.1-2.2-0.2-1.2-0.4c1.4,0,3-0.3,4,0l-1.5,0.2c2.9-0.2,1.6-0.3,4.9-0.2c-0.2,0-0.1,0.1-0.2,0.1c2.1-0.3,4.9,0,8,0
						l-0.6,0.1c1.3-0.1,2-0.3,2.6-0.3c-1.8-0.1-1.3-0.2-1.5-0.5c2.4,0.4,3.6-0.5,7.5-0.2c-0.1,0.1-1,0.3-2.1,0.2
						c-1.3,0.4-1.5,0.8-3.8,1c1.5-0.1,3.2-0.2,2.8,0l0.5-0.4c0.9,0,1.6,0,2.3,0c0.4-0.3-1.8-0.4,0.3-0.6c2.3-0.1,1.2,0.4,1.6,0.2
						c3.2-0.2,1.3-0.4,4.4-0.3c-0.3,0-0.9,0.1-1.2,0.1c2.2,0.2,5.4-0.1,6.1,0.4c-0.3,0.1-0.4,0.2-1.2,0.2l0-0.1
						c-2.4,0.3,2-0.1,1.3,0.3c-0.2-0.3,2.9-0.2,4.3-0.2l-0.4-0.3c4.6-0.9-0.3,0.6,4.3,0.5c2.9-0.2-1.1-0.1,0.7-0.3
						c2,0.1,2.7,0.3,5.6,0.2c0.8,0.1,2.4,0.3,2.6,0.6c1.8-0.1,5.3,0.1,6.3-0.2c-3-0.3-3,0.3-6.5-0.1l1-0.3c2.4,0,5.5-0.1,7.2,0
						c-0.3-0.1-0.5-0.1-0.3-0.2c3.5-0.1,4.4-0.4,7.8-0.3c0.4,0.3-1.5,0.2-3,0.3c2.2,0.2,2.3,0,5.6,0.1c0.2,0.3-2.3,0-2.6,0.2
						l3.7-0.1c0,0,0,0,0,0.1c0.5-0.4,2.8,0,5.1-0.1c5.4,0,6.2-0.6,9.2-0.9c0.8,0.1,1,0.2,0.7,0.3c-1.3-0.2-1.1,0-1.5,0.1
						c1.8,0,4,0.4,3,0.6c2.9-0.1-1-0.2,0.7-0.4l4,0c-0.5-0.2-1.9-0.3,0.2-0.4c1.7-0.1,2.6,0,4.8,0c-0.3,0.1,0.7,0.3-1,0.3
						c1.1,0.1,2.8,0.1,3.5-0.1c-2.5-0.2,4.1-0.2,2.2-0.5l2.5,0.2c-0.6,0-0.6,0.1-1.5,0.1c0.7,0.3,2-0.1,2.9-0.1
						c0.9,0.1,3.1,0.1,3.3,0.2c0.8-0.1,2.7,0,3,0.2c1.2-0.1,0.1-0.2,0.4-0.3l3.9,0c0.2,0.2,0.5,0.7-0.1,0.8c1.5-0.2,0.5-0.5,2.8-0.5
						c-1.3,0.4,3,0.3,1.1,0.7c1.3,0.3,5,0.3,7,0.2c1.3-0.3-2.2-0.2-2.1-0.5c5.7-0.1,6.1-0.9,10.3-0.8l-1.1-0.1
						c2.6-0.2,2.3-0.1,3.8-0.4c-0.7,0.4,3,1,7.3,0.9c0.4-0.2-2.4-0.3-1.7-0.6l2.9-0.1c0.2,0-0.1,0.1-0.5,0.1c2.6-0.1,4.8,0.5,5.5,0
						l2.6,0.5l-1-0.2c0.4-0.2,3.2-0.2,3.8-0.3c2.9-0.2,4,0,5.6,0.2c-0.5-0.1-1.8-0.5,0.5-0.5c0,0.6,4.8,0.2,4.8,0.5
						c0.9,0,2.6,0.2,2.7-0.1l-0.2,0.4c0.2-0.5,3.6-0.5,6.2-0.6c-0.6,0.7,2.9-0.1,4,0.6c0.5-0.5,4.6-0.2,5.1-0.6c2,0,1.8,0.4,2.3,0.6
						l0.9-0.2c1,0.2,4.8,0.3,7,0.4l2.1-0.4l0.8,0.2c0.3-0.1,2.1-0.2,1-0.3l1.1,0c0.1-0.4,1.6-0.1,3.8-0.3c0.5,0.1,0.4,0.2-0.1,0.2
						c1.1,0,0.6,0.2,1.3,0.4c-0.8-0.1,4-0.8,1-1c-0.2-0.2,1.6-0.3,2.7-0.2l0.7,0.4l1.3-0.4c1.7-0.1,2.5,0.2,3.9,0.2
						c-1.4,0-3.2,0.8,0.5,0.8c-1.9,0.1-2.9,0.3-3.9,0.4c0.8,0,1.1,0.1,0,0.2c2.9-0.1,1-0.2,3.8-0.3c-0.2,0.4,0.6,0.5,3.1,0.6
						l-1.9-0.3c0.1,0,0.2-0.1,0.4-0.1c-0.7,0-0.9-0.1-1.1-0.2c0.6,0,3.3-0.4,3.8-0.2c-2.9-0.6,5-0.4,3.2-0.8
						c0.3-0.1,2.3-0.1,2.5,0.1c-2.4,0.3,1.8,0.4,1.4,0.7c0.9-0.1-1.9-0.3-0.7-0.4c1.4,0,2.5,0.2,3.3,0.3l-0.6,0.1l2.2,0.2
						c0.4-0.2-2.1-0.3-0.1-0.4c0.5,0.1,2.6,0,2.5,0.1c-1,0.2-0.3,0.6-2,0.6c1.4,0,6-0.1,4.1-0.4l1.7,0c-1.1-0.2-4.1-0.4-0.6-0.5
						l0,0.1l2.4-0.3l1,0.2c0-0.1,0.3-0.2,1.2-0.2c0.2,0.1,1.1,0.2,1,0.3c2.6,0,2.4-0.2,2.7-0.3c1.4,0,2,0.1,1.3,0.3
						c2,0,5.4,0,6.7,0.2c2.6-0.2-0.5-0.1,1-0.3c2.3,0.6,8.7,0.2,13,0.2c-1.2-0.6,1.2-0.1,2-0.6c-0.9,0.2,4.1,0.4,0.3,0.6l2.3-0.1
						c1.6,0.3-3.8,0.2-1.4,0.6c2.6,0,4.2-0.6,7.3-0.4c-1,0.4,2.3-0.1,1.6,0.3c-0.6,0.1-1.5,0.1-2.3,0.1l0.5,0.1
						c5.6,0.1,1.6-0.5,4.6-0.7c3.4,0,2.7,0.3,2.9,0.5c0.5,0.1,2.3,0,3.2-0.1c-2.1,0.2-3.9-0.2-2.9-0.5c1.5,0.4,5.1,0,6-0.1
						c-4.9-0.5-3.4,0-8-0.5c-0.6,0.1-0.5,0.5-3.3,0.4c1.7-0.2-0.1-0.2-0.6-0.3c0.5,0.2-1.9,0.1-2.8,0.2c-0.8-0.2,1.7-0.5-1.1-0.6
						l-0.5,0.5c-1.1-0.1,0.5-0.4-1.9-0.3c1.3-0.3-0.4-0.4,2.8-0.5c-3.8-0.5-5.8,0.2-8.7,0.4c0.3,0,0.3-0.1,0.6-0.1
						c-0.6,0.1-1.8,0.1-2.6,0.2c-1.9-0.1,1.5-0.2,1-0.4l-3.1,0c-0.1,0-0.1,0-0.1,0c-0.8,0.1-1.6,0.1-1.9,0c0.9-0.2,1.3-0.4,1.9-0.5
						l-3.3,0.4c0.4-0.2-2.7-0.3-0.4-0.4l-4.9,0.1l-0.4-0.4c-1.2,0.1-1.2,0.1,0.2,0.2c-1.7-0.1-7.4,0.6-6.5-0.1
						c-3.8,0.3-5.2,0.2-9.8,0.4c3.5-0.3-4.1-0.4-0.3-0.6c-2.2-0.2-2.7,0.2-4.4,0.3c-1.6-0.2-0.9-0.5,0.9-0.6l-2.1,0.2l0-0.1
						l-1.8,0.2c-1.9-0.2-0.4-0.4-2.4-0.4l-0.4,0.3l-1.3-0.2c0.5,0.1-0.7,0.2-2.1,0.2l0-0.1l-1.7,0.1c1.7-0.2-1.6-0.1-0.8-0.3
						c-1.5,0-1.5,0-4.2,0l0.5,0.2c-3.5,0.2-0.1-0.3-3-0.3l0.2,0.3c-4.1-0.4-6.9,0.2-9.9,0c1.7-0.1,1.3-0.4,1.3-0.3
						c-2.6,0.1-6.8,0-9.5,0.3c-1-0.4-1.2-0.5-4-0.6c-2,0-2.3,0.1-3,0.3c-1.9-0.1-5.6,0.1-5.7-0.2c-0.5,0.2-1.7,0-2.8,0.1l-0.2-0.1
						l0.2,0.3c-3.4-0.6-5.8,0.3-9.3-0.2l0.6-0.1l-1.5,0.1c-0.2-0.1,0.4-0.2,0.4-0.3l-6.8,0l1.3,0.2c-1.4,0-2.4,0.3-4,0.1
						c2.7-0.4-2.3,0-2.7-0.3l1.5-0.1c-2,0-2,0-1.8,0.3c-2.6,0.1-1.8-0.5-4.2-0.2l1.7,0c0.5,0.1-0.7,0.4-1.9,0.3
						c-0.3,0-1.1-0.2-0.2-0.2c-2,0.1-5.1,0-6,0.1c-1.1-0.1-0.7-0.3-0.1-0.3c-4.3,0.2-2,0-6.3,0.2l0.1-0.1l-1.5,0.2l-2.1-0.3l0.8,0.2
						c-1.4,0-2.3,0.1-4,0l0.7-0.2c-4,0.1-4.7-0.4-8.5-0.1c-0.3,0,0.3-0.1,0.6-0.1c-3.6,0.3-2.7-0.4-6.3,0c0.2-0.1-0.2-0.2,0-0.2
						l-1.6,0.1l0.1-0.3l-1.3,0.4l-1-0.3l-0.6,0.1c-1.7-0.6-4.2-0.1-6.6-0.6l0.4,0.4c-6,0.8-13.7-0.4-20.9-0.1l0.1-0.3l-3,0.3
						c-1.6-0.2,1-0.2,0.5-0.4c-3.2,0.2-1.3,0.4-5,0.5c-1.9-0.2,0.7-0.2,1.6-0.3c-3.5,0.1-8.6,0.3-11.1,0.1c-0.1,0-0.2,0.1-0.1,0.1
						c-2.3,0.1-5.4,0-7.9,0c0.1-0.1,0.7-0.2,1.3-0.2c-0.9,0-2.2-0.1-3,0l1-0.2c-2-0.1-5.7,0.2-6.2-0.1c0.2,0.1,0.1,0.3-1.6,0.3
						c-0.9-0.4-4.6,0.2-7.3-0.1c0.3-0.1,2.3-0.1,1.8-0.1c-1.4-0.1-2.6,0.1-3.8,0.2l0.4-0.2l-6.3,0.2c-0.9-0.4-6,0.1-5.6-0.3
						c-2.3,0,1.9,0.2-1,0.2c-0.8-0.2-2.6,0.1-2.5-0.2l0.3,0l-2,0l1.3-0.3c-1.7,0.1-3,0.3-3.1,0.6c-1.6-0.2-4,0-4.7-0.3l0.6-0.1
						c-4.6,0.1-7.6-0.8-11.2-0.3c-0.3,0-0.2-0.1,0.3-0.1l-2.8,0l0.7-0.2l-4.7,0.3l0.1-0.1c-3.1-0.1-7.9,0-11.9,0.1l0.6-0.1
						c-4.3,0.2-4.2-0.1-7.4,0c0.1,0,0.2-0.1,0.3-0.1l-2.9,0l0.6-0.1c-2.1,0.3-6.1-0.4-4.8-0.1c-1.2,0.1-3.3,0.3-3.6,0.5
						c-3.1,0-0.8-0.2-2.7-0.3c-2.3,0-2.7,0.2-5.7,0.1l0.1-0.1c-1.4,0-2.3,0.1-4.3,0.2l0.6-0.1c-3.3,0.3-4.1-0.4-6.6,0.2
						c-1.4-0.1-4,0-3.8-0.3c-4.1,0.2-7.2,0.3-11.2,0.4c-0.6-0.5-0.9,0-3.3-0.2l0.2,0.3c-5.7,0-12.2-0.6-18.5-0.5l-0.2-0.3l-1.3,0.3
						c-6.8-0.1-15.5-0.2-20.9-0.2c-1.8,0.1-4.4,0.4-7.2,0.3l0.3,0c-4.9,0.1-10,0.3-15.4,0.1c0.3-0.1-0.2-0.2,0.4-0.3
						c-1.3,0.3-3.1,0-4.3,0l1.3,0.2c-1.5,0.2-3.7,0-4.5-0.2l-2.4,0.3c-0.2,0-0.4-0.1-0.4-0.1l-0.4,0.1l-1.3-0.3
						c-0.6,0.1-3.8,0.2-4.7,0.5c-0.2-0.1-2.5-0.2-0.7-0.3l-8.7-0.1l1.4,0.1c0.2,0.3-2.5,0.4-3.8,0.3c1.8-0.2,0.1-0.4-0.6-0.5
						c-1.2,0.1,1,0.2,0.4,0.4c-1.5,0.2-4.7,0.3-5.4,0.1l0.9-0.1c-2,0.1-3-0.3-5-0.3c-1.8,0.2-3.1,0-2.8,0.5c-2.6,0.1-1-0.3-1.8-0.3
						c-1.2,0.2-4.8,0.1-5.3-0.1c-1.4,0.6-7-0.2-7.5,0.3l-2.1-0.3c-0.1,0.1-0.5,0.5-2.2,0.5c-1.6-0.2-1.2-0.4-1.7-0.6l-1.1,0.5
						c-9.4-0.6-21.7-0.2-32-0.7c-4.6,0.1-10.4,0.4-15.7,0.3l0.6-0.1l-5.3-0.1l3.9,0.2c-1.2,0.1-2.1,0.2-3.2,0.2
						c-5.8-0.2-13.6-0.5-20.8-0.2c-4.7,0.6-3.1-0.5-7.6-0.1c0.4-0.1,0.5-0.1,0.9-0.2c-4.8,0.2-7.4,0.3-12.2,0.7
						c0.6-0.6-3.1,0-2.7-0.3l-0.4,0.2c-1.1-0.2-3.6-0.2-3.2-0.4l-2.1,0.3l-0.2-0.3c-2.8,0-8.9,0.2-10.3-0.3c-7,0.4-18,0.3-26.7,0.2
						c-1.2,0.2-3.8,0.2-5.8,0.2l-2.1-0.3c-2,0.1-4.2,0.5-6.1,0.3c0,0,0.1-0.1,0.2-0.1c-2.1,0.1-4-0.1-6,0.2c-2.3,0-4.5-0.2-3.8-0.5
						c-0.2,0.5-4.8-0.1-4.8-0.1s-116-1.2-144.4,1.5c-1,0.2-3.6,0.4-2.6,0.7c-2,0.1-3-0.3-3.4-0.1c2.8,0.2-0.9,0.6,1.8,1l-1.7,0.1
						c-0.4,0.2,2.4-0.2,1.9,0.1l0.5-0.5c1.4,0.1,2.2,0.2,2.7,0.3c1.3-0.2,2.2-0.8,5.3-0.5l-0.9,0c2.6,0,1.6,0.3,2.1,0.4l-0.6,0
						l2.2,0.2c-1.6-0.2-4.3,0.2-2.9,0.2c3.1,0.1-0.8-0.1,1.5-0.2c1.4,0,1,0.2,1,0.4l2.6,0c-0.1,0.2-1.7,0-0.7,0.2l3.2-0.2
						c0.6,0.5,3.5-0.3,5,0.3c-2.3,0.1,0.2,0.2-0.2,0.4l5.7,0c0.5,0.1-1.5,0.2-0.6,0.1c1.1,0.2,1.8-0.1,2.3-0.1
						c0.5,0.2,4.2,0,4.1,0.4c3.9,0.2,1.6-0.5,5.2-0.3c0.5,0.2-2.9,0.1-1.3,0.3l3.7-0.1c-0.3,0.1-0.7,0.4-2.1,0.3
						c10.1,0.3,15.5,1.5,24.7,1.2c1.3,0.3-0.9,0.2-1.9,0.3c6.7-0.3,9.4,0.6,15.1,0.5l0.1-0.2c7.9,0.7,17.5,0.3,26.4,0.6l-1.1-0.2
						c1.2-0.2,3.2-0.2,4.7-0.3c0.2,0.1-1.1,0.5,1.5,0.4c-0.5-0.1-1.6-0.2-1.3-0.3c7.7,0.6,23.9,0.4,36.5,0.7
						c17.1-0.2,35.6,0.3,52.4,0.1c-2.6,0-1.5-0.5,0.5-0.4c5.3,0.9,9.1-0.2,14.5,0.5c9.8-0.3,18.5,0.5,27.6-0.2l0.2,0.3
						c1.4,0.1,1.7-0.1,3.2-0.1l0,0.1c3.4,0.1,7.4-0.2,9.4,0l0.1-0.3c2,0,1,0.2,3.1,0.1l-0.1,0.1l2.4-0.3c-0.2,0.5,5.6,0,7.3,0.3
						c2.6-0.1,7.5-0.3,11.4-0.2c0.7,0.3,5.5,0.3,8.6,0.4c6-0.1,14.5-0.1,22.1-0.1l-0.1-0.3l2,0c0,0.1,0.2,0.1-0.1,0.1
						c1.5,0.4,4.6-0.1,6.2,0.1c-1-0.3-1.4,0-2.5-0.1c-1.6-0.2-0.1-0.5,2.1-0.3l0,0.1l1.5-0.2c0.2,0.3,1.5,0.4,1.7,0.6
						c6.5-0.1,11-0.5,17.7-0.4c-0.7,0.3,4.9-0.1,3.5,0.4c4.1-0.2-0.7-0.4,1.2-0.8c1.1,0,2.3-0.1,2.5,0.1c-0.5,0.1,0.9,0.3,0,0.3
						l2.7,0c0.3,0-0.3,0.1-0.6,0.1c5.5-0.3,9.8,0.3,14.7,0c0.4-0.2-2-0.1-1.6-0.2c5-0.4,4.4,0.3,9,0.1l-1,0.2
						c1.5-0.2,2.2-0.4,4.6-0.2c0.4,0.3-2.1,0.2-3.3,0.4c1.7,0,6-0.1,4.7-0.3c2-0.1,2.8,0.2,3.9,0.2c0-0.1-1.9-0.2-0.7-0.3
						c2.8,0.2,7,0.2,10.4,0.2c0,0.1,0.2,0.2-0.1,0.2C737.5,161.6,737.2,162.3,741,162.2z"/>
					<path id="XMLID_136_" class="st2" d="M921.1,160.7l-1.4,0c0,0.1-0.1,0.1-0.7,0.2L921.1,160.7z"/>
					<path id="XMLID_135_" class="st2" d="M856.4,160.5c-0.2,0-0.3,0-0.5,0.1C856.3,160.6,856.4,160.5,856.4,160.5z"/>
					<path id="XMLID_134_" class="st2" d="M840.7,161c1.1-0.1,0.1-0.1-0.4-0.2C840.2,160.9,840.3,160.9,840.7,161z"/>
					<path id="XMLID_133_" class="st2" d="M957.7,159.9c-0.2,0-0.4,0.1-0.3,0.1C957.7,160,957.8,160,957.7,159.9z"/>
					<path id="XMLID_132_" class="st2" d="M1059,160.1c-0.1,0-0.2,0-0.4,0C1058.6,160.1,1058.8,160.1,1059,160.1z"/>
					<path id="XMLID_131_" class="st2" d="M1053.4,159.7c-0.3,0-0.6,0-1.1,0C1052.7,159.7,1053.1,159.7,1053.4,159.7z"/>
					<path id="XMLID_127_" class="st2" d="M933.2,160c-0.4,0-0.7,0-1.1,0.1C932.7,160.1,933,160.1,933.2,160z"/>
					<path id="XMLID_126_" class="st2" d="M1051,159.8l-1.4,0c0,0,0,0,0,0.1L1051,159.8z"/>
					<path id="XMLID_125_" class="st2" d="M1060.7,160.2c-0.6,0-1.3,0-1.8,0C1059.7,160.2,1060.2,160.2,1060.7,160.2z"/>
					<path id="XMLID_124_" class="st2" d="M994.9,159.6c0,0-0.1,0-0.2,0C993.6,159.7,994.3,159.6,994.9,159.6z"/>
					<path id="XMLID_74_" class="st2" d="M1044.9,160.3c-0.1,0-0.1,0-0.2,0l-0.4,0.1L1044.9,160.3z"/>
					<path id="XMLID_73_" class="st2" d="M1066.8,160.3c-0.3,0-0.5,0-0.7,0.1C1066.4,160.3,1066.6,160.4,1066.8,160.3
						C1066.9,160.3,1066.8,160.3,1066.8,160.3z"/>
					<path id="XMLID_71_" class="st2" d="M1016.1,160c0.4-0.1,0.5-0.2,0.6-0.2C1016.2,159.8,1015.9,159.8,1016.1,160z"/>
				</g>
			</g>
		</g>
	</g>
</g>
<g id="XMLID_273_" class="st0">
	<g id="XMLID_175_" class="st1">
		<g id="XMLID_64_">
			<g id="XMLID_67_">
				<g id="XMLID_68_">
					<path id="XMLID_75_" class="st2" d="M242.4,536.5c0.1,0,0.1-0.1,0.1-0.1C242.4,536.4,242.4,536.4,242.4,536.5z"/>
					<path id="XMLID_77_" class="st2" d="M180.3,535.6l0.7-0.1C180.5,535.6,180.3,535.6,180.3,535.6z"/>
					<path id="XMLID_78_" class="st2" d="M279.7,536.8C279.6,536.8,279.6,536.8,279.7,536.8c0.5,0,1.3,0,2.5,0.1L279.7,536.8z"/>
					<path id="XMLID_82_" class="st2" d="M47.6,534.7l0.8,0C48.1,534.7,47.8,534.6,47.6,534.7z"/>
					<path id="XMLID_83_" class="st2" d="M126.2,535.3c-0.2,0.1-0.7,0.1-1.1,0.1C125.7,535.4,126.1,535.4,126.2,535.3z"/>
					<path id="XMLID_84_" class="st2" d="M299.4,539.6l-1.1-0.2C298.3,539.5,298.7,539.6,299.4,539.6z"/>
					<path id="XMLID_85_" class="st2" d="M337.2,538.9C337.1,538.8,337.1,538.8,337.2,538.9C337,538.8,337.1,538.8,337.2,538.9z"/>
					<path id="XMLID_86_" class="st2" d="M322.4,538.1c-0.3,0-0.7,0.1-1.1,0.1C321.8,538.2,322.3,538.2,322.4,538.1z"/>
					<path id="XMLID_87_" class="st2" d="M320.8,538.2c0.2,0,0.3,0,0.5,0C321,538.2,320.8,538.2,320.8,538.2z"/>
					<path id="XMLID_88_" class="st2" d="M-434.1,535.6c-1.1,0-2,0.1-3,0.3L-434.1,535.6z"/>
					<path id="XMLID_89_" class="st2" d="M-72.5,534.6l0.2-0.1C-72.4,534.5-72.5,534.5-72.5,534.6z"/>
					<path id="XMLID_91_" class="st2" d="M-435.4,537.3l-0.8,0C-435.9,537.2-435.7,537.3-435.4,537.3z"/>
					<path id="XMLID_92_" class="st2" d="M279.3,540.1c-1.1,0.2-3.3,0-3.3,0.1C277.2,540.3,278.8,540.4,279.3,540.1z"/>
					<path id="XMLID_93_" class="st2" d="M-97.8,541.6l-0.7,0C-98.2,541.6-98,541.6-97.8,541.6z"/>
					<path id="XMLID_97_" class="st2" d="M-435.4,537.3l0.9,0c-0.1,0-0.2-0.1-0.3-0.1C-435,537.2-435.2,537.3-435.4,537.3z"/>
					<path id="XMLID_98_" class="st2" d="M-197.5,534.5C-197.5,534.5-197.5,534.5-197.5,534.5c0.1,0,0.2,0,0.3,0L-197.5,534.5z"/>
					<path id="XMLID_99_" class="st2" d="M-204.1,534.2c0.5,0,0.9,0,1.4-0.1C-203.5,534.1-203.9,534.1-204.1,534.2z"/>
					<path id="XMLID_100_" class="st2" d="M-437.1,535.9l-1.7,0.1C-438.2,536-437.6,535.9-437.1,535.9z"/>
					<path id="XMLID_105_" class="st2" d="M-275.6,534.4c0.2,0,0.4,0,0.7,0C-275.3,534.4-275.5,534.4-275.6,534.4z"/>
					<path id="XMLID_106_" class="st2" d="M131.3,535.4c0.2,0,0.4,0,0.6,0C131.9,535.4,131.9,535.4,131.3,535.4z"/>
					<path id="XMLID_107_" class="st2" d="M81.9,540.4L81.9,540.4C81.8,540.4,81.8,540.4,81.9,540.4
						C81.8,540.4,81.9,540.4,81.9,540.4z"/>
					<path id="XMLID_108_" class="st2" d="M84.5,540.1c-0.8,0-2,0.1-2.6,0.2C82.7,540.4,83.5,540.3,84.5,540.1z"/>
					<path id="XMLID_109_" class="st2" d="M76.2,540.3c0.1,0,0.2,0,0.3,0C76.4,540.3,76.3,540.3,76.2,540.3z"/>
					<path id="XMLID_110_" class="st2" d="M129.3,540.6C129.3,540.6,129.3,540.6,129.3,540.6C129.3,540.6,129.2,540.6,129.3,540.6
						L129.3,540.6z"/>
					<path id="XMLID_111_" class="st2" d="M118.8,540.7c-0.2,0-0.4-0.1-0.7-0.1C118.2,540.6,118.5,540.7,118.8,540.7z"/>
					<path id="XMLID_112_" class="st2" d="M50,540.8C50,540.8,50,540.8,50,540.8C50,540.8,50,540.8,50,540.8
						C50,540.8,50,540.8,50,540.8z"/>
					<path id="XMLID_113_" class="st2" d="M-49,542.2c9.9-0.1,22.8-0.5,32.7-0.4c2.1-0.4,5.3-0.4,8.4-0.5l0.3,0.5l2.6-0.2
						c1.1,0.2-2,0.1-0.1,0.3l1-0.3c0.2,0.2,6.7,0.1,2.3,0.5l10.2,0c2.3,0,1.3-0.4,3.8-0.3c0.5,0.1-0.9,0.1-0.7,0.3
						c7.5,0.4,8.6-1,15.6-0.8l-0.6,0.1c1.2-0.1,3.4-0.1,3.5-0.2c-0.9-0.5-1.3,0.3-3.4,0c0.2-0.4,2.7-0.2,2.5-0.6
						c1.6,0.2,2.6-0.1,4-0.1c2.4,0.3,5.9,0.1,7.7,0.4c1.2-0.1,2.5-0.6,5.1-0.6c1.8,0.3-0.4,0.3,2.1,0.5l0.4-0.3c2,0,1.7,0.1,1.6,0.2
						c2.2,0,1.8-0.3,4.6-0.2l-1.5,0.2c2-0.1,2.9-0.1,5.7,0c-0.1,0.1-1.2,0.1-2,0.1c1.5,0.4,2.6-0.2,3.5-0.1
						c-0.2-0.1-2.2-0.2-1.2-0.4c1.4,0,3-0.3,4,0l-1.5,0.2c2.9-0.2,1.6-0.3,4.9-0.2c-0.2,0-0.1,0.1-0.2,0.1c2.1-0.3,4.9,0,8,0
						l-0.6,0.1c1.3-0.1,2-0.3,2.6-0.3c-1.8-0.1-1.3-0.2-1.5-0.5c2.4,0.4,3.6-0.5,7.5-0.2c-0.1,0.1-1,0.3-2.1,0.2
						c-1.3,0.4-1.5,0.8-3.8,1c1.5-0.1,3.2-0.2,2.8,0l0.5-0.4c0.9,0,1.6,0,2.3,0c0.4-0.3-1.8-0.4,0.3-0.6c2.3-0.1,1.2,0.4,1.6,0.2
						c3.2-0.2,1.3-0.4,4.4-0.3c-0.3,0-0.9,0.1-1.2,0.1c2.2,0.2,5.4-0.1,6,0.4c-0.3,0.1-0.4,0.2-1.2,0.2l0-0.1
						c-2.4,0.3,2-0.1,1.3,0.3c-0.2-0.3,2.9-0.2,4.3-0.2l-0.4-0.3c4.6-0.9-0.2,0.6,4.3,0.5c2.9-0.2-1.1-0.1,0.7-0.3
						c2,0.1,2.7,0.3,5.6,0.2c0.8,0.1,2.4,0.3,2.6,0.6c1.7-0.1,5.3,0.1,6.3-0.2c-3-0.3-3,0.3-6.5-0.1l1-0.3c2.4,0,5.5-0.1,7.2,0
						c-0.3-0.1-0.5-0.1-0.3-0.2c3.4-0.1,4.4-0.4,7.8-0.3c0.4,0.3-1.5,0.2-2.9,0.3c2.2,0.2,2.3,0,5.6,0.1c0.2,0.3-2.3,0-2.6,0.2
						l3.7-0.1c0,0,0,0,0,0.1c0.5-0.4,2.8,0,5.1-0.1c5.4,0,6.2-0.6,9.2-0.9c0.8,0.1,1,0.2,0.7,0.3c-1.3-0.2-1.1,0-1.5,0.1
						c1.8,0,4,0.4,3,0.6c2.9-0.1-1-0.2,0.7-0.4l3.9,0c-0.5-0.2-1.9-0.3,0.2-0.4c1.7-0.1,2.6,0,4.8,0c-0.3,0.1,0.7,0.3-1,0.3
						c1.1,0.1,2.8,0.1,3.4-0.1c-2.5-0.2,4-0.2,2.2-0.5l2.5,0.2c-0.6,0-0.6,0.1-1.5,0.1c0.7,0.3,2-0.1,2.9-0.1
						c0.9,0.1,3.1,0.1,3.3,0.2c0.8-0.1,2.7,0,3,0.2c1.2-0.1,0.1-0.2,0.4-0.3l3.9,0c0.2,0.2,0.5,0.7-0.1,0.8c1.5-0.2,0.5-0.5,2.8-0.5
						c-1.3,0.4,3,0.3,1.1,0.7c1.3,0.3,5,0.3,7,0.2c1.3-0.3-2.2-0.2-2.1-0.5c5.7-0.1,6-0.9,10.2-0.8l-1.1-0.1
						c2.6-0.2,2.3-0.1,3.8-0.4c-0.7,0.4,3,1,7.2,0.9c0.4-0.2-2.4-0.3-1.7-0.6l2.8-0.1c0.2,0-0.1,0.1-0.5,0.1c2.6-0.1,4.7,0.5,5.5,0
						l2.6,0.5l-1-0.2c0.4-0.2,3.2-0.2,3.8-0.3c2.9-0.2,4,0,5.6,0.2c-0.5-0.1-1.8-0.5,0.5-0.5c0,0.6,4.8,0.2,4.7,0.5
						c0.9,0,2.6,0.2,2.7-0.1l-0.2,0.4c0.2-0.5,3.6-0.5,6.2-0.6c-0.6,0.7,2.8-0.1,4,0.6c0.5-0.5,4.6-0.2,5.1-0.6c2,0,1.8,0.4,2.3,0.6
						l0.9-0.2c1,0.2,4.7,0.3,7,0.4l2.1-0.4l0.8,0.2c0.3-0.1,2.1-0.2,1-0.3l1.1,0c0.1-0.4,1.6-0.1,3.8-0.3c0.5,0.1,0.4,0.2-0.1,0.2
						c1.1,0,0.6,0.2,1.2,0.4c-0.8-0.1,4-0.8,1-1c-0.2-0.2,1.6-0.3,2.7-0.2l0.7,0.4l1.3-0.4c1.7-0.1,2.5,0.2,3.8,0.2
						c-1.4,0-3.2,0.8,0.5,0.8c-1.9,0.1-2.9,0.3-3.9,0.4c0.8,0,1.1,0.1,0,0.2c2.9-0.1,1-0.2,3.8-0.3c-0.2,0.4,0.6,0.5,3.1,0.6
						l-1.9-0.3c0.1,0,0.2-0.1,0.4-0.1c-0.7,0-0.9-0.1-1.1-0.2c0.6,0,3.3-0.4,3.8-0.2c-2.9-0.6,5-0.4,3.2-0.8
						c0.3-0.1,2.3-0.1,2.5,0.1c-2.4,0.3,1.8,0.4,1.4,0.7c0.9-0.1-1.9-0.3-0.7-0.4c1.4,0,2.5,0.2,3.2,0.3l-0.6,0.1l2.2,0.2
						c0.4-0.2-2.1-0.3-0.1-0.4c0.5,0.1,2.6,0,2.5,0.1c-1,0.2-0.3,0.6-2,0.6c1.4,0,6-0.1,4.1-0.4l1.7,0c-1.1-0.2-4.1-0.4-0.6-0.5
						l0,0.1l2.4-0.3l1,0.2c0-0.1,0.3-0.2,1.2-0.2c0.2,0.1,1.1,0.2,1,0.3c2.6,0,2.3-0.2,2.7-0.3c1.4,0,2,0.1,1.3,0.3
						c2,0,5.4,0,6.7,0.2c2.6-0.2-0.5-0.1,1-0.3c2.3,0.6,8.7,0.2,12.9,0.2c-1.2-0.6,1.2-0.1,2-0.6c-0.9,0.2,4.1,0.4,0.3,0.6l2.3-0.1
						c1.6,0.3-3.8,0.2-1.4,0.6c2.6,0,4.2-0.6,7.3-0.4c-1,0.4,2.3-0.1,1.6,0.3c-0.6,0.1-1.5,0.1-2.3,0.1l0.5,0.1
						c5.6,0.1,1.6-0.5,4.6-0.7c3.4,0,2.7,0.3,2.9,0.5c0.5,0.1,2.3,0,3.2-0.1c-2.1,0.2-3.9-0.2-2.9-0.5c1.5,0.4,5.1,0,6-0.1
						c-4.9-0.5-3.4,0-8-0.5c-0.6,0.1-0.5,0.5-3.3,0.4c1.7-0.2-0.1-0.2-0.6-0.3c0.5,0.2-1.9,0.1-2.7,0.2c-0.8-0.2,1.6-0.5-1.1-0.6
						l-0.5,0.5c-1.1-0.1,0.5-0.4-1.9-0.3c1.3-0.3-0.4-0.4,2.8-0.5c-3.7-0.5-5.8,0.2-8.7,0.4c0.3,0,0.3-0.1,0.6-0.1
						c-0.6,0.1-1.8,0.1-2.6,0.2c-1.9-0.1,1.5-0.2,1-0.4l-3.1,0c-0.1,0-0.1,0-0.1,0c-0.8,0.1-1.6,0.1-1.9,0c0.9-0.2,1.3-0.4,1.9-0.5
						l-3.3,0.4c0.4-0.2-2.7-0.3-0.4-0.4l-4.8,0.1l-0.4-0.4c-1.2,0.1-1.2,0.1,0.2,0.2c-1.7-0.1-7.3,0.6-6.5-0.1
						c-3.8,0.3-5.2,0.2-9.8,0.4c3.5-0.3-4.1-0.4-0.3-0.6c-2.2-0.2-2.7,0.2-4.4,0.3c-1.6-0.2-0.9-0.5,0.9-0.6l-2.1,0.2l0-0.1
						l-1.8,0.2c-1.9-0.2-0.4-0.4-2.4-0.4l-0.4,0.3l-1.3-0.2c0.5,0.1-0.7,0.2-2.1,0.2l0-0.1l-1.7,0.1c1.7-0.2-1.6-0.1-0.8-0.3
						c-1.5,0-1.5,0-4.2,0l0.5,0.2c-3.5,0.2-0.1-0.3-3-0.3l0.2,0.3c-4.1-0.4-6.9,0.2-9.9,0c1.7-0.1,1.3-0.4,1.3-0.3
						c-2.6,0.1-6.8,0-9.5,0.3c-1-0.4-1.2-0.5-4-0.6c-2,0-2.3,0.1-2.9,0.3c-1.9-0.1-5.6,0.1-5.7-0.2c-0.4,0.2-1.7,0-2.8,0.1l-0.2-0.1
						l0.2,0.3c-3.4-0.6-5.8,0.3-9.3-0.2l0.6-0.1l-1.5,0.1c-0.2-0.1,0.4-0.2,0.4-0.3l-6.8,0l1.3,0.2c-1.4,0-2.4,0.3-4,0.1
						c2.7-0.4-2.2,0-2.7-0.3l1.5-0.1c-2,0-2,0-1.8,0.3c-2.6,0.1-1.8-0.5-4.1-0.2l1.7,0c0.5,0.1-0.7,0.4-1.8,0.3
						c-0.3,0-1.1-0.2-0.2-0.2c-2,0.1-5.1,0-6,0.1c-1.1-0.1-0.7-0.3-0.1-0.3c-4.3,0.2-2,0-6.3,0.2l0.1-0.1l-1.5,0.2l-2.1-0.3l0.8,0.2
						c-1.4,0-2.3,0.1-4,0l0.7-0.2c-4,0.1-4.6-0.4-8.5-0.1c-0.3,0,0.3-0.1,0.6-0.1c-3.5,0.3-2.7-0.4-6.2,0c0.2-0.1-0.2-0.2,0-0.2
						l-1.6,0.1l0.1-0.3l-1.3,0.4l-1-0.3l-0.6,0.1c-1.7-0.6-4.2-0.1-6.5-0.6l0.4,0.4c-6,0.8-13.7-0.4-20.9-0.1l0.1-0.3l-3,0.3
						c-1.6-0.2,1-0.2,0.5-0.4c-3.2,0.2-1.3,0.4-5,0.5c-1.9-0.2,0.7-0.2,1.6-0.3c-3.5,0.1-8.6,0.3-11.1,0.1c-0.1,0-0.2,0.1-0.1,0.1
						c-2.3,0.1-5.4,0-7.9,0c0.1-0.1,0.7-0.2,1.3-0.2c-0.9,0-2.2-0.1-3,0l1-0.2c-2-0.1-5.7,0.2-6.2-0.1c0.2,0.1,0.1,0.3-1.6,0.3
						c-0.9-0.4-4.6,0.2-7.3-0.1c0.3-0.1,2.3-0.1,1.8-0.1c-1.4-0.1-2.6,0.1-3.8,0.2l0.4-0.2l-6.3,0.2c-0.9-0.4-6,0.1-5.5-0.3
						c-2.3,0,1.9,0.2-1,0.2c-0.8-0.2-2.6,0.1-2.5-0.2l0.3,0l-2,0l1.3-0.3c-1.7,0.1-3,0.3-3.1,0.6c-1.6-0.2-3.9,0-4.7-0.3l0.6-0.1
						c-4.6,0.1-7.6-0.8-11.2-0.3c-0.3,0-0.2-0.1,0.3-0.1l-2.8,0l0.7-0.2l-4.7,0.3l0.1-0.1c-3.1-0.1-7.9,0-11.9,0.1l0.6-0.1
						c-4.3,0.2-4.2-0.1-7.4,0c0.1,0,0.2-0.1,0.3-0.1l-2.9,0l0.6-0.1c-2.1,0.3-6-0.4-4.7-0.1c-1.2,0.1-3.3,0.3-3.6,0.5
						c-3.1,0-0.8-0.2-2.7-0.3c-2.3,0-2.7,0.2-5.7,0.1l0.1-0.1c-1.4,0-2.3,0.1-4.3,0.2l0.6-0.1c-3.2,0.3-4-0.4-6.6,0.2
						c-1.4-0.1-3.9,0-3.8-0.3c-4,0.2-7.2,0.3-11.2,0.4c-0.6-0.5-0.9,0-3.3-0.2l0.2,0.3c-5.7,0-12.2-0.6-18.4-0.5l-0.2-0.3l-1.3,0.3
						c-6.7-0.1-15.5-0.2-20.8-0.2c-1.8,0.1-4.4,0.4-7.2,0.3l0.3,0c-4.9,0.1-10,0.3-15.3,0.1c0.3-0.1-0.2-0.2,0.4-0.3
						c-1.3,0.3-3.1,0-4.3,0l1.3,0.2c-1.5,0.2-3.7,0-4.4-0.2l-2.4,0.3c-0.2,0-0.4-0.1-0.4-0.1l-0.4,0.1l-1.3-0.3
						c-0.6,0.1-3.7,0.2-4.7,0.5c-0.2-0.1-2.5-0.2-0.7-0.3l-8.7-0.1l1.4,0.1c0.2,0.3-2.5,0.4-3.8,0.3c1.8-0.2,0.1-0.4-0.6-0.5
						c-1.2,0.1,1,0.2,0.4,0.4c-1.5,0.2-4.6,0.3-5.4,0.1l0.9-0.1c-2,0.1-3-0.3-4.9-0.3c-1.8,0.2-3.1,0-2.7,0.5
						c-2.6,0.1-1-0.3-1.8-0.3c-1.2,0.2-4.8,0.1-5.3-0.1c-1.4,0.6-7-0.2-7.5,0.3l-2.1-0.3c-0.1,0.1-0.5,0.5-2.2,0.5
						c-1.6-0.2-1.2-0.4-1.7-0.6l-1.1,0.5c-9.4-0.6-21.7-0.2-31.9-0.7c-4.6,0.1-10.3,0.4-15.7,0.3l0.6-0.1l-5.3-0.1l3.9,0.2
						c-1.2,0.1-2.1,0.2-3.2,0.2c-5.8-0.2-13.6-0.5-20.8-0.2c-4.6,0.6-3.1-0.5-7.5-0.1c0.4-0.1,0.5-0.1,0.9-0.2
						c-4.8,0.2-7.4,0.3-12.2,0.7c0.6-0.6-3.1,0-2.7-0.3l-0.4,0.2c-1.1-0.2-3.6-0.2-3.2-0.4l-2.1,0.3l-0.2-0.3
						c-2.8,0-8.8,0.2-10.3-0.3c-7,0.4-17.9,0.3-26.7,0.2c-1.2,0.2-3.8,0.2-5.8,0.2l-2.1-0.3c-2,0.1-4.2,0.5-6.1,0.3
						c0,0,0.1-0.1,0.2-0.1c-2.1,0.1-4-0.1-5.9,0.2c-2.3,0-4.4-0.2-3.8-0.5c-0.2,0.5-4.8-0.1-4.8-0.1s-115.7-1.2-144,1.5
						c-0.9,0.2-3.6,0.4-2.6,0.7c-2,0.1-3-0.3-3.4-0.1c2.8,0.2-0.9,0.6,1.8,1l-1.7,0.1c-0.4,0.2,2.4-0.2,1.9,0.1l0.5-0.5
						c1.4,0.1,2.2,0.2,2.7,0.3c1.3-0.2,2.2-0.8,5.3-0.5l-0.9,0c2.6,0,1.6,0.3,2.1,0.4l-0.6,0l2.2,0.2c-1.6-0.2-4.3,0.2-2.9,0.2
						c3.1,0.1-0.8-0.1,1.5-0.2c1.4,0,1,0.2,1,0.4l2.6,0c-0.1,0.2-1.7,0-0.7,0.2l3.2-0.2c0.6,0.5,3.5-0.3,5,0.3
						c-2.3,0.1,0.2,0.2-0.2,0.4l5.7,0c0.5,0.1-1.5,0.2-0.6,0.1c1.1,0.2,1.8-0.1,2.3-0.1c0.5,0.2,4.2,0,4.1,0.4
						c3.8,0.2,1.6-0.5,5.2-0.3c0.5,0.2-2.8,0.1-1.3,0.3l3.7-0.1c-0.3,0.1-0.7,0.4-2.1,0.3c10,0.3,15.5,1.5,24.7,1.2
						c1.3,0.3-0.9,0.2-1.9,0.3c6.7-0.3,9.4,0.6,15,0.5l0.1-0.2c7.9,0.7,17.4,0.3,26.3,0.6l-1.1-0.2c1.2-0.2,3.2-0.2,4.7-0.3
						c0.2,0.1-1.1,0.5,1.5,0.4c-0.5-0.1-1.6-0.2-1.3-0.3c7.7,0.6,23.9,0.4,36.5,0.7c17-0.2,35.5,0.3,52.3,0.1
						c-2.6,0-1.5-0.5,0.5-0.4c5.3,0.9,9.1-0.2,14.5,0.5c9.8-0.3,18.5,0.5,27.5-0.2l0.2,0.3c1.4,0.1,1.7-0.1,3.1-0.1l0,0.1
						c3.4,0.1,7.4-0.2,9.4,0l0.1-0.3c2,0,1,0.2,3.1,0.1l-0.1,0.1l2.4-0.3c-0.2,0.5,5.6,0,7.2,0.3c2.6-0.1,7.5-0.3,11.4-0.2
						c0.7,0.3,5.5,0.3,8.6,0.4c6-0.1,14.5-0.1,22.1-0.1l-0.1-0.3l2,0c0,0.1,0.2,0.1-0.1,0.1c1.5,0.4,4.6-0.1,6.2,0.1
						c-1-0.3-1.4,0-2.5-0.1c-1.6-0.2-0.1-0.5,2.1-0.3l0,0.1l1.5-0.2c0.2,0.3,1.5,0.4,1.7,0.6c6.5-0.1,11-0.5,17.7-0.4
						c-0.7,0.3,4.8-0.1,3.5,0.4c4-0.2-0.7-0.4,1.2-0.8c1.1,0,2.3-0.1,2.5,0.1c-0.5,0.1,0.9,0.3,0,0.3l2.7,0c0.3,0-0.3,0.1-0.6,0.1
						c5.5-0.3,9.8,0.3,14.7,0c0.4-0.2-2-0.1-1.6-0.2c5-0.4,4.4,0.3,9,0.1l-1,0.2c1.5-0.2,2.2-0.4,4.6-0.2c0.4,0.3-2.1,0.2-3.3,0.4
						c1.7,0,6-0.1,4.7-0.3c2-0.1,2.8,0.2,3.9,0.2c0-0.1-1.9-0.2-0.7-0.3c2.8,0.2,7,0.2,10.4,0.2c0,0.1,0.2,0.2-0.1,0.2
						C-52.5,541.6-52.7,542.3-49,542.2z"/>
					<path id="XMLID_114_" class="st2" d="M130.6,540.7l-1.4,0c0,0.1-0.1,0.1-0.7,0.2L130.6,540.7z"/>
					<path id="XMLID_115_" class="st2" d="M66.1,540.5c-0.2,0-0.3,0-0.5,0.1C66,540.6,66.1,540.5,66.1,540.5z"/>
					<path id="XMLID_116_" class="st2" d="M50.5,541c1.1-0.1,0.1-0.1-0.4-0.2C50,540.9,50,540.9,50.5,541z"/>
					<path id="XMLID_117_" class="st2" d="M167.2,539.9c-0.2,0-0.4,0.1-0.3,0.1C167.2,540,167.2,540,167.2,539.9z"/>
					<path id="XMLID_118_" class="st2" d="M268.2,540.1c-0.1,0-0.2,0-0.4,0C267.8,540.1,268,540.1,268.2,540.1z"/>
					<path id="XMLID_119_" class="st2" d="M262.6,539.7c-0.3,0-0.6,0-1.1,0C261.9,539.7,262.3,539.7,262.6,539.7z"/>
					<path id="XMLID_120_" class="st2" d="M142.7,540c-0.4,0-0.7,0-1.1,0.1C142.2,540.1,142.5,540.1,142.7,540z"/>
					<path id="XMLID_121_" class="st2" d="M260.3,539.8l-1.4,0c0,0,0,0,0,0.1L260.3,539.8z"/>
					<path id="XMLID_122_" class="st2" d="M269.9,540.2c-0.5,0-1.3,0-1.8,0C268.9,540.2,269.4,540.2,269.9,540.2z"/>
					<path id="XMLID_123_" class="st2" d="M204.2,539.6c0,0-0.1,0-0.2,0C203,539.7,203.7,539.6,204.2,539.6z"/>
					<path id="XMLID_128_" class="st2" d="M254.1,540.3c-0.1,0-0.1,0-0.2,0l-0.4,0.1L254.1,540.3z"/>
					<path id="XMLID_129_" class="st2" d="M276,540.3c-0.3,0-0.5,0-0.7,0.1C275.5,540.3,275.8,540.4,276,540.3
						C276.1,540.3,276,540.3,276,540.3z"/>
					<path id="XMLID_130_" class="st2" d="M225.4,540c0.4-0.1,0.5-0.2,0.6-0.2C225.5,539.8,225.2,539.8,225.4,540z"/>
				</g>
			</g>
		</g>
	</g>
</g>
<g id="XMLID_1_">
	<g id="XMLID_165_">
		<g id="XMLID_2_">
			<g id="XMLID_3_">
				<g id="XMLID_4_">
					<path id="XMLID_5_" class="st2" d="M475.5,204.6c0.1,0,0.2,0.1,0.3,0C475.5,204.6,475.5,204.6,475.5,204.6z"/>
					<path id="XMLID_6_" class="st2" d="M392.2,160.9l1.1,0.2C392.6,161,392.4,160.9,392.2,160.9z"/>
					<path id="XMLID_7_" class="st2" d="M511.6,248C511.6,248,511.6,248,511.6,248c0.1,0.3,0.4,0.7,0.8,1.3c0.3,0.6,0.7,1.2,1.2,2.1
						c0,0-0.5-0.8-0.9-1.7c-0.2-0.4-0.5-0.8-0.7-1.1C511.8,248.2,511.6,248,511.6,248z"/>
					<path id="XMLID_11_" class="st2" d="M206.6,217.7l0.9-0.9C207.1,217.2,206.8,217.5,206.6,217.7z"/>
					<path id="XMLID_13_" class="st2" d="M310.1,159.6c-0.4,0.1-1,0.3-1.6,0.5C309.3,159.9,309.9,159.7,310.1,159.6z"/>
					<path id="XMLID_14_" class="st2" d="M522.7,275.7c0,0-0.1-0.4-0.2-0.8c-0.1-0.4-0.2-0.8-0.2-0.8
						C522.2,274.2,522.4,274.8,522.7,275.7z"/>
					<path id="XMLID_15_" class="st2" d="M537.1,330.4c0,0,0-0.1,0-0.2C537.1,330.1,537.1,330.2,537.1,330.4z"/>
					<path id="XMLID_16_" class="st2" d="M534.5,308.3c-0.1-0.5-0.3-1-0.4-1.5C534.2,307.4,534.4,308.2,534.5,308.3z"/>
					<path id="XMLID_17_" class="st2" d="M533.8,306c0.1,0.2,0.1,0.5,0.2,0.7C533.9,306.3,533.8,306,533.8,306z"/>
					<path id="XMLID_18_" class="st2" d="M541,357.2c0.1-1.7-0.1-3.1-0.1-4.6L541,357.2z"/>
					<path id="XMLID_19_" class="st2" d="M160.2,389.3L160,389C160.1,389.3,160.2,389.4,160.2,389.3z"/>
					<path id="XMLID_20_" class="st2" d="M539.4,355.1l0.1-1.2C539.4,354.4,539.4,354.8,539.4,355.1z"/>
					<path id="XMLID_21_" class="st2" d="M508.5,249.4c-1-1.3-2.7-4.2-2.8-4.1C506.7,246.7,507.9,248.8,508.5,249.4z"/>
					<path id="XMLID_22_" class="st2" d="M178.7,423.6l0.5,1C179,424.1,178.8,423.8,178.7,423.6z"/>
					<path id="XMLID_23_" class="st2" d="M539.4,355.1l-0.1,1.4c0-0.1,0.1-0.3,0.1-0.4C539.4,355.8,539.4,355.4,539.4,355.1z"/>
					<path id="XMLID_24_" class="st2" d="M280.8,529.1C280.8,529.1,280.8,529.1,280.8,529.1c-0.2-0.1-0.3-0.1-0.4-0.1L280.8,529.1z"
						/>
					<path id="XMLID_25_" class="st2" d="M290.4,532.8c-0.7-0.2-1.3-0.4-2.1-0.6C289.4,532.5,290,532.7,290.4,532.8z"/>
					<path id="XMLID_26_" class="st2" d="M540.8,352.7l-0.1-2.6C540.8,351,540.8,351.8,540.8,352.7z"/>
					<path id="XMLID_27_" class="st2" d="M399,535c-0.3,0.1-0.7,0.2-1,0.3C398.5,535.2,398.8,535.1,399,535z"/>
					<path id="XMLID_28_" class="st2" d="M317.8,158.3c0.2,0,0.6-0.1,0.9-0.1C318.7,158.2,318.7,158.1,317.8,158.3z"/>
					<path id="XMLID_29_" class="st2" d="M250,189L250,189L250,189C250,189.1,250,189,250,189z"/>
					<path id="XMLID_30_" class="st2" d="M253.2,186.8c-0.5,0.3-1.2,0.7-1.8,1.1c-0.6,0.4-1.1,0.8-1.5,1.2
						C251,188.4,252,187.7,253.2,186.8z"/>
					<path id="XMLID_31_" class="st2" d="M242.9,193.6c0.1-0.1,0.2-0.1,0.4-0.2C243.1,193.4,243,193.5,242.9,193.6z"/>
					<path id="XMLID_32_" class="st2" d="M315.7,164C315.7,164,315.7,164,315.7,164C315.7,164,315.6,164,315.7,164L315.7,164z"/>
					<path id="XMLID_33_" class="st2" d="M300.4,167.5c-0.3,0-0.7,0.1-1.1,0.2C299.6,167.6,300,167.6,300.4,167.5z"/>
					<path id="XMLID_34_" class="st2" d="M213.6,219.3C213.6,219.3,213.6,219.3,213.6,219.3C213.6,219.3,213.6,219.3,213.6,219.3
						C213.6,219.3,213.6,219.3,213.6,219.3z"/>
					<path id="XMLID_35_" class="st2" d="M163.5,353.4c0-1.8-0.2-3.7-0.2-5.7c0-2,0.1-4,0.1-6c0-1,0-2.1,0-3.1
						c0.1-1,0.1-2.1,0.2-3.1c0.1-2.1,0.3-4.2,0.4-6.3c0.2-2.1,0.5-4.2,0.7-6.3c0.1-1,0.2-2.1,0.4-3.1c0.2-1,0.3-2,0.5-3
						c0.4-2,0.7-4,1-5.9c0.4-1.9,0.9-3.7,1.3-5.5c0.2-3.2,1.6-7.7,2.8-12.2l0.6-0.3l1.1-3.7c0.7-1.4-0.9,2.9,0.2,0.3l0.2-1.5
						c0.1-0.1,0.9-2.5,1.6-4c0.7-1.5,1-2.2,0,0.9c0,0,0.1-0.2,0.2-0.6c0.2-0.4,0.4-0.9,0.6-1.6c0.5-1.3,1.2-3.1,1.9-4.8
						c0.7-1.8,1.5-3.5,2-4.8c0.6-1.3,1-2.1,1-2.1c0.7-1.5,0.8-2,0.9-2.5c0.1-0.5,0.3-1.1,1.2-2.7c0.5-0.6-0.5,1.2-0.2,1
						c1.3-2.4,2.3-4.4,3.1-6.1c0.8-1.7,1.5-3.1,2.2-4.5c0.7-1.4,1.3-2.8,2.1-4.4c0.9-1.6,2-3.3,3.4-5.5l-0.4,0.8
						c0.4-0.8,1.1-1.9,1.6-2.8c0.6-0.9,1.1-1.6,1-1.6c-1.2,0.8-0.8,1.7-2.8,4.2c-0.2-0.5,1.9-3.5,1.6-3.5c1.5-1.9,2.2-3.2,3.4-4.9
						c0.6-0.7,1.2-1.5,1.8-2.3c0.7-0.8,1.3-1.6,2-2.4c1.3-1.6,2.6-3.2,3.5-4.1c1-1.4,2-3.2,4.5-6.1c1-0.9,1-0.7,1-0.7
						c0,0.1,0.1,0,1.4-1.3l0.2-0.6c2.1-2.2,1.9-1.8,1.9-1.6c1.1-1.2,1.5-1.7,2-2.3c0.2-0.3,0.5-0.6,0.9-1.1c0.4-0.4,0.9-0.9,1.7-1.6
						l-1.5,1.7c2.1-2.2,3-3,6.1-5.9c0,0.2-1.2,1.3-2.1,2.1c1.9-1.3,2.7-2.8,3.7-3.6c-0.2,0.1-0.8,0.6-1.3,0.9
						c-0.5,0.4-0.8,0.6-0.4,0c1.6-1.4,3.1-3.2,4.5-3.9l-1.6,1.7c1.6-1.5,2-1.9,2.4-2.4c0.2-0.2,0.5-0.5,0.9-0.9
						c0.4-0.4,1.1-0.9,2.1-1.6c-0.2,0.2-0.1,0.1-0.1,0.3c2.3-2.2,5.7-4.6,9.5-7.2l-0.7,0.6c1.5-1.2,2.2-1.9,3-2.5
						c-2.3,1.4-1.7,0.9-2,0.9c1.6-0.8,2.6-1.8,3.9-2.8c1.3-1,2.8-2.2,5.3-3.6c0,0.2-1.1,1.1-2.5,1.8c-0.7,0.7-1.1,1.2-1.6,1.7
						c-0.5,0.6-1.3,1.1-2.6,2.2c0.8-0.7,1.8-1.4,2.5-1.8c0.7-0.5,1.2-0.7,1-0.5l0.4-0.7c1.1-0.7,2-1.3,2.8-1.8
						c0.3-0.5-2.5,1.1,0-0.7c1.4-1,1.9-1.1,2-1.1c0.1,0-0.1,0.2,0.1,0c4-2.5,1.5-1.3,5.5-3.5c-0.4,0.3-1.1,0.8-1.5,0.9
						c2.9-1.6,7.1-3.9,8.1-3.9c-0.4,0.3-0.4,0.5-1.5,1l0-0.1c-3,1.9,2.6-1.5,1.8-0.6c-0.3-0.1,3.8-2.2,5.7-2.9l-0.7,0
						c5.9-3.6-0.1,0.7,6.1-2.2c3.9-1.8-1.6,0.5,0.8-0.7c2.7-1,3.9-1.2,7.8-2.9c1.2-0.3,3.5-0.9,3.8-0.7c1.2-0.5,3.1-1.1,4.8-1.6
						c1.7-0.5,3.4-1,4-1.3c-4.4,0.9-4.1,1.6-9.2,2.8l1.3-0.8c0.9-0.3,1.8-0.6,2.7-0.9c0.9-0.3,1.9-0.7,2.8-0.9
						c1.8-0.5,3.5-1,4.7-1.3c-0.5,0.1-0.7,0.1-0.5-0.1c1.2-0.4,2.2-0.7,3.1-1c0.9-0.3,1.7-0.5,2.5-0.7c1.6-0.4,3.1-0.9,5.6-1.4
						c0.7,0.1-2.2,0.7-4.2,1.3c1.6-0.2,2.4-0.4,3.5-0.7c0.5-0.1,1.1-0.3,1.8-0.4c0.8-0.1,1.7-0.3,2.9-0.5c0.3,0.2-3.3,0.5-3.8,1
						c0,0,0.3-0.1,0.8-0.2c0.5-0.1,1.2-0.2,1.9-0.4c1.4-0.3,2.7-0.5,2.7-0.5c0,0,0,0,0,0.1c0.4-0.3,1.4-0.5,2.8-0.7
						c0.7-0.1,1.4-0.2,2.2-0.3c0.8-0.1,1.6-0.2,2.5-0.3c7.9-1.1,9.1-1.6,13.5-2.3c1.2,0,1.6,0.1,1.1,0.3c-2,0-1.6,0.1-2.3,0.2
						c1.4-0.1,2.8-0.1,3.8-0.1c1,0.1,1.4,0.3,0.6,0.4c4.3-0.2-1.6-0.2,1.1-0.4l5.9-0.1c-0.7-0.2-2.8-0.2,0.3-0.4
						c0.6,0,1.2,0,1.7-0.1c0.5,0,1,0,1.6,0c1.1,0,2.2,0.1,3.9,0.1c-0.5,0.1,1.1,0.4-1.5,0.3c1.6,0.1,4.2,0.2,5.2,0
						c-1.8-0.1-0.3-0.2,1.3-0.1c1.6,0.1,3.4,0.1,2-0.2l3.7,0.5c-0.8-0.1-0.9,0.1-2.2-0.1c1,0.4,3,0.1,4.3,0.2
						c1.3,0.1,4.6,0.7,4.9,0.8c1.2,0.1,4,0.5,4.5,0.7c1.7,0.2,0.2-0.2,0.7-0.2c0,0,0.4,0,0.9,0.1c0.5,0.1,1.3,0.2,2,0.4
						c1.5,0.3,2.9,0.5,2.9,0.5c0.3,0.2,0.7,0.8-0.2,0.7c2.2,0.2,0.9-0.4,4.2,0.2c-2-0.1,4.3,1.3,1.5,1.1c0.9,0.3,2.7,0.8,4.6,1.3
						c1,0.2,2,0.5,2.9,0.7c0.9,0.2,1.8,0.5,2.5,0.7c1.9,0.2-3.1-1.1-2.8-1.3c4.1,1.1,6.3,1.5,8.3,1.9c2,0.4,3.6,0.8,6.5,1.9
						l-1.5-0.6c3.8,1.1,3.3,1,5.6,1.5c-0.6,0,0.4,0.6,2.2,1.5c0.9,0.5,2.1,1,3.3,1.6c0.6,0.3,1.3,0.6,2,0.9c0.7,0.3,1.4,0.6,2.1,1
						c0.6,0.1-3.1-1.8-2.1-1.6l3.9,1.7c0.3,0.2-0.2,0-0.7-0.2c1.8,0.7,3.3,1.6,4.6,2.2c1.3,0.7,2.2,1.3,2.8,1.3l3.2,2.2l-1.3-0.9
						c0.5,0.1,4.4,2,5.2,2.4c3.9,2,5.2,2.9,7.1,4.4c-0.3-0.3-0.8-0.7-0.8-0.9c-0.1-0.2,0.3-0.1,1.8,0.8c-0.3,0.5,6,4.1,5.7,4.3
						c1.2,0.8,3,2.4,3.3,2.3l-0.4,0.2c0.3-0.1,1.4,0.6,2.9,1.6c0.7,0.5,1.6,1,2.4,1.7c0.8,0.6,1.7,1.2,2.4,1.8
						c-1.1,0,3.4,2.6,4.3,4.2c0.8,0.1,5.3,4.4,6.1,4.5c2.2,2,1.7,2.1,2.1,2.8l1.1,0.8c0.5,0.6,1.7,1.9,3.1,3.3
						c1.4,1.4,2.9,3.1,4,4.4l2.4,2c0,0,0.2,0.2,0.3,0.5c0.2,0.2,0.3,0.5,0.3,0.5c0.4,0.3,2.1,2.2,1.2,0.9l1.1,1.3
						c0.4-0.2,1.6,1.7,4,4.1c0.4,0.7,0.2,0.6-0.3,0c1,1.3,0.4,0.9,0.9,1.7c-0.6-1,4.4,4.2,1.7,0.6c-0.1-0.4,1.7,1.6,2.6,3l0.3,1
						c0,0,0.4,0.3,0.8,0.7c0.4,0.3,0.7,0.7,0.7,0.7c1.5,2.1,2,3.1,3.2,4.9c-1.3-1.7-3.4-3.4-0.2,1.1c-1.7-2.3-2.7-3.4-3.7-4.5
						c0.6,0.9,0.9,1.4-0.2,0.1c2.6,3.4,1,1,3.5,4.5c-0.4,0,0.2,1,2.1,4.2l-1.3-2.5c0.1,0.1,0.2,0.2,0.4,0.4
						c-0.5-0.9-0.6-1.2-0.7-1.4c0.5,0.7,3,3.9,3.3,4.6c-0.9-2,0.2-0.4,1.4,1.3c1.2,1.7,2.3,3.6,1.8,2.4c0.3,0.4,1.8,3,1.8,3.3
						c-2-3,1,2.5,0.5,2.2c0.8,1.1-1.2-2.6-0.2-1.1c1.1,1.8,1.7,3.3,2.1,4.4l-0.5-0.8l1.4,3c0.4,0.4-1.2-3,0.3-0.3
						c0.3,0.7,1.8,3.4,1.6,3.4c-0.9-1.2-0.7-0.1-1.9-2.4c0.5,0.9,1.5,2.9,2.3,4.3c0.7,1.5,1.2,2.3,0.8,1l1,2.3
						c-0.5-1.5-2.1-5.7,0-1.1l-0.1,0l1.7,3.1l0.5,1.5c0.1-0.1,0.4,0.4,0.9,1.6c0,0.4,0.4,1.5,0.3,1.5c1.4,3.6,1.5,3.2,1.8,3.6
						c0.8,2,1,2.8,0.5,1.9c1,2.8,2.6,7.6,3.1,9.6c1.2,3.7-0.1-0.8,0.7,1.3c0.1,1.7,1,4.8,2,8.3c0.4,1.8,0.9,3.6,1.3,5.4
						c0.2,0.9,0.4,1.8,0.7,2.6c0.2,0.9,0.3,1.7,0.5,2.5c0.2-1.8,0.4,1.7,1.1,2.8c-0.4-1.3,0.6,6.1-0.5,0.6l0.7,3.4
						c0.1,2.3-1.2-5.5-1-2c0.4,1.9,0.7,3.4,1.1,5.1c0.3,1.6,0.7,3.4,0.8,5.6c-0.3-0.7-0.1,0.1,0,1c0.1,0.9,0.2,1.9-0.1,1.3
						c-0.2-0.9-0.3-2.2-0.5-3.4l0,0.8c0.1,1,0.2,1.9,0.2,2.5c0.1,0.6,0.1,1.1,0.2,1.5c0.1,0.7,0.2,0.9,0.3,0.9
						c0.2,0.1,0.4-0.3,0.7,1.9c0.4,5.1,0,4-0.2,4.4c-0.1,0.8,0.1,3.4,0.2,4.7c-0.3-3.1,0.1-5.8,0.4-4.4c-0.4,2.3,0.2,7.6,0.4,9
						c0.1-3.7,0.1-4.9,0.1-6.2c0-0.6,0-1.2,0-2.1c0-0.4,0-0.9,0-1.6c0-0.6,0-1.3,0-2.2c-0.2-0.9-0.6-0.7-0.7-4.9
						c0.4,2.6,0.2-0.2,0.2-0.9c-0.1,0.4-0.2-0.3-0.2-1.3c-0.1-1-0.3-2.2-0.4-2.8c0-1.2,0.8,2.4,0.4-1.8l-0.6-0.7
						c-0.1-1.6,0.5,0.6-0.1-2.8c0.5,1.8,0.4-0.6,1,4.1c-0.1-1.4-0.2-2.7-0.3-3.8c-0.1-1.1-0.3-2.2-0.6-3.2c-0.5-2-1-3.7-1.5-5.9
						c0.1,0.4,0.2,0.5,0.3,0.9c-0.3-0.9-0.6-2.6-0.9-3.8c-0.5-2.9,0.7,2.2,0.7,1.4c0,0-0.1-0.3-0.1-0.7c-0.1-0.4-0.2-1-0.4-1.6
						c-0.3-1.1-0.5-2.3-0.5-2.3c0-0.1,0-0.1,0-0.1c-0.3-1.2-0.7-2.3-0.6-2.8c0.5,1.3,0.8,1.8,1.1,2.7l-1.5-4.7
						c0.4,0.5-0.8-4,0.3-0.7l-2.1-7l0.2-0.7c-0.5-1.7-0.6-1.7-0.1,0.3c-0.3-1.2-1.3-3.8-2.1-6c-0.8-2.2-1.4-3.9-0.8-3.4
						c-1.1-2.7-1.9-4.4-2.7-6.4c-0.4-1-0.8-2-1.3-3.2c-0.5-1.1-1.2-2.4-1.9-4c2.5,4.7-2.1-5.8,0.3-0.7c-1.2-3.1-1.8-3.6-3.1-5.9
						c-1-2.3-0.2-1.4,1.2,0.9l-1.6-2.7l0.1,0l-1.4-2.3c-1.2-2.6,0.1-0.7-1.3-3.4l-0.6-0.4L515,254c0.2,0.7-0.7-0.8-1.8-2.6l0.1,0
						c0,0-0.3-0.6-0.7-1.1c-0.3-0.6-0.7-1.1-0.7-1.1c0.7,1.1,0.5,0.5,0.1-0.1c-0.4-0.7-0.9-1.5-0.5-1c-1.2-1.9-1.2-1.9-3.5-5.3
						l0.2,0.7c-1.5-2.2-1.5-2.2-1.4-2.3c0.1,0,0.4,0.1-0.9-1.7l-0.1,0.4c-1.6-2.6-3.1-4.8-4.7-6.6c-1.6-1.9-3-3.5-4.3-5.4
						c1.7,2,1.5,1.3,1.4,1.3c-0.6-0.8-1.3-1.6-2.1-2.6c-0.8-0.9-1.7-1.9-2.5-2.9c-1.7-1.9-3.5-3.9-5-5.2c-0.8-1.3-0.9-1.7-3.7-4.8
						c-2.2-2.2-2.5-2.4-3.4-2.9c-1-1.1-2.6-2.5-3.8-3.7c-1.3-1.2-2.4-2.1-2.4-2.3c-0.7-0.3-2-1.8-3.3-2.7l-0.2-0.3l0,0.4
						c-0.4-0.5-0.9-0.9-1.3-1.4c-0.5-0.4-0.9-0.8-1.4-1.1c-0.9-0.7-1.8-1.4-2.7-2c-0.9-0.6-1.8-1.3-2.7-2c-0.9-0.7-1.9-1.4-2.9-2.3
						l0.8,0.5l-1.9-1.2c-0.2-0.3,0.6,0.2,0.7,0.1c0,0-2.1-1.5-4.2-3c-2.1-1.4-4.3-2.8-4.3-2.8l1.6,1.3c-1.8-1.2-3.2-1.7-5.2-3.2
						c1.8,1,1.1,0.5-0.1-0.3c-1.3-0.7-3.1-1.7-3.3-2l2,1c-2.6-1.5-2.6-1.5-2.6-1.1c-1.7-0.9-2.2-1.4-2.8-1.8c-0.5-0.4-1-0.8-2.7-1.5
						c0,0,0.6,0.3,1.1,0.6c0.6,0.3,1.1,0.6,1.1,0.6c0.6,0.5-1.1-0.3-2.6-1c-0.3-0.2-1.4-0.9-0.2-0.3c-2.8-1.3-6.8-3.6-8.2-4
						c-1.5-0.8-0.9-0.7-0.1-0.4c-3.1-1.3-3.7-1.6-4.4-1.9c-0.3-0.2-0.7-0.3-1.3-0.6c-0.6-0.3-1.6-0.7-3.1-1.2l0.2-0.1l-2.2-0.7
						l-2.9-1.5l1,0.6c-1-0.4-1.8-0.7-2.7-1c-0.9-0.3-1.8-0.6-3-1l1,0.1c-2.9-0.9-4.6-1.6-6.2-2.2c-1.6-0.6-3.3-1.1-6.1-1.7
						c-0.4-0.1,0.5,0,1,0.1c-2.7-0.6-3.6-1-4.6-1.3c-1-0.3-2-0.6-4.7-1c0.3,0-0.2-0.2,0-0.2l-2.4-0.4l0.2-0.2l-2.1,0
						c0,0-0.4-0.2-0.7-0.3c-0.4-0.1-0.7-0.3-0.7-0.3l-1,0c-1.2-0.5-2.8-0.8-4.5-1.1c-0.8-0.2-1.7-0.3-2.6-0.5
						c-0.9-0.2-1.8-0.3-2.7-0.5l0.6,0.4c-9.1-0.7-20.8-2.5-31.9-1.9l0.2-0.3l-4.6,0.5c-2.5-0.2,1.5-0.3,0.7-0.4
						c-2.4,0.1-2.9,0.3-3.5,0.5c-0.6,0.1-1.3,0.3-4.1,0.5c-2.9,0,1-0.3,2.3-0.5c-5.3,0.4-13.1,1.6-16.8,2c-0.1,0.1-0.3,0.1-0.1,0.1
						c-3.5,0.8-8.1,1.3-11.9,2.3c0.1-0.2,1-0.4,1.9-0.6c-1.4,0.3-3.3,0.6-4.4,1l1.4-0.6c-1.5,0.3-3.6,0.8-5.4,1.3
						c-1.8,0.5-3.4,1-3.8,0.9c0.4,0,0.3,0.3-2.2,1c-1.5-0.1-6.7,2.3-10.7,3.4c0.4-0.3,3.3-1.3,2.5-1c-1,0.3-1.9,0.6-2.8,1
						c-0.9,0.4-1.7,0.8-2.5,1.2l0.5-0.4c0,0-2.2,0.9-4.5,1.9c-2.3,0.9-4.4,2-4.4,2c-1.5,0.2-8.3,3.8-7.8,3.3
						c-3.1,1.6,2.7-1.1-1.2,0.9c-1.1,0.4-3.5,1.9-3.5,1.5l0.4-0.2l-2.7,1.4l1.6-1.1c-2.3,1.2-3.8,2.5-3.9,2.7
						c-2.2,1.1-5.3,3-6.4,3.4c0,0,0.2-0.1,0.4-0.3c0.2-0.1,0.4-0.3,0.4-0.3c-2.9,1.9-5.5,3.3-7.9,4.7c-2.3,1.4-4.4,2.8-6.6,4.6
						c-0.4,0.2-0.4,0.1,0.3-0.4c0,0-0.9,0.6-1.8,1.3c-0.9,0.7-1.7,1.3-1.7,1.3l0.7-0.8l-5.5,4.7l0-0.2c-1.9,1.4-4.1,3.5-6.6,5.6
						c-1.2,1-2.4,2.2-3.6,3.3c-1.2,1.1-2.3,2.3-3.4,3.3l0.6-0.7c-0.6,0.6-1.1,1.1-1.6,1.6c-0.4,0.5-0.8,0.9-1.2,1.2
						c-0.7,0.7-1.2,1.2-1.7,1.7c-1,1-1.8,1.8-3.5,3.6c0.1-0.2,0.2-0.3,0.3-0.4c0,0-0.2,0.2-0.5,0.5c-0.3,0.3-0.6,0.7-1,1.1
						c-0.7,0.8-1.4,1.7-1.4,1.7l0.5-0.8c-0.9,1.3-2.5,3-3.7,4.2c-1.2,1.2-1.8,1.9-1.1,1.2c-1,1.5-2.9,4.1-3.1,4.7
						c-2.9,3.8-0.9,0.8-2.8,3.1c-2,2.8-2.2,3.4-5,7.2l-0.1-0.2c-1.2,1.9-1.8,3.1-3.4,5.7l0.4-0.8c-0.6,1.1-1.1,1.9-1.6,2.7
						c-0.5,0.8-0.9,1.4-1.2,2c-0.8,1.2-1.4,2.3-2.1,4.2c-1.2,1.7-2.9,5.3-3.1,5c-1.3,2.8-2.6,5.3-3.6,7.8c-0.5,1.3-1.1,2.5-1.6,3.8
						c-0.3,0.7-0.6,1.3-0.9,2c-0.3,0.7-0.5,1.4-0.8,2.1c-0.8,0.7-0.5,1.2-2.1,4.6l0.3-0.2c-3,8.2-6.7,17.5-8.6,27l-0.3,0.2l-0.2,1.9
						c-0.6,2.5-1,5.3-1.6,8.1c-0.1,0.7-0.3,1.4-0.4,2.1l-0.3,2.1c-0.2,1.4-0.4,2.9-0.6,4.3c-0.2,1.4-0.4,2.8-0.5,4.2
						c-0.1,1.4-0.2,2.7-0.3,4c-0.2,2.6-0.4,5-0.4,7c0,1.4,0.1,3.1,0.1,5c0,1,0,2,0,3c0,1,0.1,2.1,0.1,3.2l0-0.5
						c0.1,1.9,0.2,3.8,0.2,5.7l0.1,1.4l0.1,1.4c0.1,1,0.2,1.9,0.2,2.9c0.2,2,0.3,3.9,0.5,5.9c0.2,2,0.5,4,0.7,6
						c-0.2-0.5-0.1,0.3-0.3-0.6c0.3,0.9,0.4,2.1,0.5,3.3c0.1,1.2,0.3,2.3,0.4,3.2l-0.2-2.1c0.6,2.2,1,5.6,1,6.8c0,0,0.2,0.9,0.5,1.8
						c0.3,0.9,0.5,1.8,0.5,1.8c0,0.2,0.1,0.6,0,0.7l0.3,0.6l0.1,2c0.3,0.9,1.4,5.6,2.2,7c0,0.4,0.8,3.7,0.1,1.2c0,0,0.2,0.8,0.6,2
						c0.4,1.2,0.7,2.8,1.3,4.4c1.1,3.2,2.1,6.4,2.1,6.4l-0.6-2c0.1-0.2,0.5,0.7,0.9,1.8c0.2,0.6,0.5,1.2,0.7,1.9
						c0.2,0.6,0.5,1.2,0.6,1.7c-1.2-2.5-0.4-0.1-0.2,1.1c0.8,1.6-0.4-1.6,0.1-0.7c1,2.1,2.8,6.6,3.2,7.7c0,0-0.2-0.3-0.3-0.6
						c-0.2-0.3-0.3-0.6-0.3-0.6c1.3,2.8,1.5,4.3,2.8,7.1c0.3,0.6,0.6,1.2,0.9,1.7c0.3,0.5,0.5,0.9,0.7,1.3c0.4,0.7,0.6,1,0.7,0.6
						c1.9,3.5,0.4,1.5,1,2.7c0.5,0.8,1.4,2.4,2.1,4c0.8,1.5,1.5,2.9,1.6,3.3c0.8,0.8,2.1,3.2,3.3,5.3c1.3,2.2,2.5,4.2,2.9,4.4
						l1.5,2.9c0.2,0,0.8,0.4,2.4,2.5c1.3,2.1,0.8,1.8,1.1,2.5l1.4,1.1c7.9,12,21.3,25.7,33.3,36c1.4,1.1,2.9,2.2,4.5,3.4
						c0.8,0.6,1.6,1.2,2.4,1.8c0.8,0.6,1.7,1.1,2.5,1.7c1.7,1.2,3.4,2.4,5.2,3.5c1.8,1.1,3.5,2.3,5.3,3.4l-0.8-0.4
						c0,0,0.4,0.3,1.1,0.7c0.6,0.4,1.5,1,2.4,1.5c1.8,1.1,3.5,2.1,3.5,2.1s-1.3-0.8-2.5-1.6c-1.3-0.8-2.5-1.6-2.5-1.6
						c1.5,0.9,2.8,1.5,4.3,2.4c1,0.6,2,1.2,3,1.8c1,0.6,2.1,1.3,3.2,1.9c2.3,1.2,4.6,2.5,7.1,3.8c2.5,1.2,5.1,2.3,7.6,3.5
						c2.6,1.1,5.3,2.1,7.8,3c1.7,0.5,2.9,0.9,3.7,1.2c0.8,0.3,1.4,0.6,1.9,0.8c1,0.5,2,1.1,5.4,1.9c-0.6-0.1-0.8-0.1-1.3-0.2
						c3.6,1,6.3,1.6,9.1,2.4c1.4,0.4,2.8,0.6,4.3,0.9c1.5,0.3,3.1,0.6,4.9,0.9c-0.5,0.2,0.7,0.5,1.9,0.7c1.2,0.2,2.5,0.3,2.1,0.4
						l0.7-0.1c1.6,0.4,5.4,1.2,4.8,1.2c0,0,0.8,0.1,1.6,0.1c0.8,0,1.6,0.1,1.6,0.1l0.2,0.3c2.1,0.3,5.5,0.7,8.6,1
						c3.1,0.3,6,0.5,7.1,0.9c5.4,0.1,12.3,0.2,19.5-0.1c1.8,0,3.6-0.2,5.5-0.3c1.8-0.1,3.7-0.3,5.5-0.4c3.6-0.4,7.2-0.8,10.5-1.2
						c1.8-0.5,5.7-1.2,8.7-1.8c0,0,0.8-0.1,1.6-0.2c0.8-0.1,1.6-0.2,1.6-0.2c1.5-0.4,3.1-0.9,4.6-1.3c0.8-0.2,1.5-0.4,2.3-0.6
						c0.7-0.2,1.5-0.4,2.2-0.6c0,0-0.1,0.1-0.3,0.2c1.5-0.5,3-0.9,4.5-1.3c1.5-0.4,2.9-0.8,4.3-1.5c3.3-1.1,6.5-2,5.6-1.4
						c0.1-0.3,1.8-0.8,3.5-1.4c1.7-0.6,3.4-1.1,3.4-1.1s0.7-0.3,1.9-0.7c0.6-0.2,1.4-0.5,2.3-0.9c0.9-0.4,1.9-0.8,3-1.3
						c1.1-0.5,2.4-1.1,3.8-1.7c1.4-0.6,2.8-1.3,4.4-2.1c1.6-0.8,3.2-1.6,5-2.5c1.8-0.9,3.5-2,5.4-3c7.6-4.3,16.2-9.9,24.9-17
						c8.7-7.1,17.6-15.5,25.7-25.1c8.1-9.5,15.5-20.2,21.6-31.2c6.1-11,10.9-22.4,14.4-33.3c0.4-1.4,0.9-2.7,1.3-4
						c0.4-1.4,0.7-2.7,1.1-4c0.4-1.3,0.7-2.6,1-3.9c0.4-1.3,0.6-2.6,0.9-3.9c0.5-2.5,1.1-5,1.5-7.4c0.4-2.4,0.7-4.7,1.1-7
						c0.1-0.6,0.2-1.1,0.2-1.7c0.1-0.5,0.1-1.1,0.2-1.6c0.1-1.1,0.2-2.1,0.3-3.2c0.2-2.1,0.4-4,0.5-5.8c0.1-3.7,0.3-6.9,0.2-9.6
						c-0.2-1.5-0.3-5.5-0.6-4c0-3.1,0.5-4.5,0.2-5.1c-0.3,4.2-0.6-1.3-1,2.8l0-2.6c-0.2-0.5,0.1,3.6-0.2,2.9l0.4,0.7
						c-0.1,2.1-0.3,3.3-0.4,4c0.2,2,0.7,3.3,0,8.1l0.1-1.3c-0.3,3.9-0.5,2.4-0.6,3.2l0.1-0.9c0,0-0.1,0.8-0.2,1.6
						c-0.1,0.8-0.3,1.6-0.3,1.6c0.4-2.5,0.3-6.6,0.2-4.4c-0.5,4.6,0.2-1.2,0,2.3c-0.1,2.2-0.4,1.5-0.5,1.4l-0.5,3.8
						c-0.2-0.2,0.3-2.5-0.1-1l-0.4,4.9c-0.6,0.8-0.6,5.3-1.5,7.4c0.5-3.5-0.2,0.3-0.3-0.3c0,0-0.4,2.1-0.7,4.2
						c-0.5,2.1-0.9,4.2-0.9,4.2c-0.3,0.8,0.3-2.2,0.1-1c-0.5,1.5-0.5,2.6-0.7,3.5c-0.2,0.3-0.5,1.9-0.9,3.3c-0.4,1.4-0.8,2.7-1,2.5
						c-0.9,2.8-1,3.4-1,3.9c0,0.6,0,1.1-1,3.6c-0.4,0.6,1.3-4.1,0.3-1.9l-1.7,5.3c0.1-0.5,0-1.1,0.7-3.1c-0.7,1.8-1.3,3.4-1.9,5
						c-0.6,1.6-1.3,3-1.9,4.5c-0.6,1.4-1.3,2.8-1.9,4.1c-0.6,1.3-1.3,2.6-1.9,3.8c-1.3,2.5-2.5,5-3.9,7.6c-1.4,2.6-2.7,5.3-4.4,8.3
						c-1.2,1.5,0.5-1.3,1.1-2.6c-2.4,4.4-4.1,7.4-6.1,10c-1,1.3-1.9,2.6-2.9,4c-1,1.4-2.1,2.8-3.3,4.6l0.1,0.2
						c-0.9,1.2-1.8,2.3-2.8,3.6c-1,1.2-2,2.4-3,3.6c-1,1.2-2,2.5-3.1,3.7c-1.1,1.2-2.2,2.5-3.3,3.7c-4.4,5-9.2,9.9-14.2,14.3l1.2-1
						c-1.1,1.5-3.4,3.4-5,4.9c-0.3,0.1,0.9-1.4-2,1.2c0.7-0.5,1.9-1.5,1.6-1.1c-4.4,3.6-11.5,9-19.7,14.3c-2.1,1.3-4.2,2.7-6.3,4
						c-2.2,1.2-4.4,2.5-6.6,3.7c-4.5,2.3-8.9,4.6-13.3,6.4c-11.5,5.3-24.1,9.4-36.9,12.1c-12.8,2.7-25.9,4-38.3,4.1
						c3.8-0.1,2.2,0.5-0.7,0.4c-3.9-0.5-7.3-0.6-10.7-0.6c-1.7-0.1-3.4-0.2-5.2-0.3c-1.8-0.1-3.6-0.3-5.6-0.7
						c-3.6-0.4-7.1-0.7-10.5-1.4c-1.7-0.3-3.4-0.6-5-0.9c-1.7-0.3-3.3-0.8-4.9-1.2c-1.6-0.4-3.3-0.8-4.9-1.2
						c-1.6-0.5-3.2-0.9-4.8-1.4c-1.6-0.5-3.2-0.8-4.8-1.3c-1.6-0.5-3.2-1-4.8-1.4l-0.2-0.3c-1.9-0.8-2.5-0.7-4.4-1.5l0.1,0
						c-2.3-1-4.9-1.9-7.2-2.8c-2.3-1-4.3-1.9-5.6-2.5l-0.3,0.2c-2.7-1.2-1.3-0.8-4.1-2l0.1-0.1l-3.3-1.4c0.3-0.2-1.6-1.1-3.7-2.2
						c-2.1-1.2-4.5-2.5-5.5-3.2c-1.7-0.9-4-2.4-6.6-3.9c-2.6-1.5-5.3-3.5-7.6-5.2c-0.8-0.8-6.4-5.1-9.8-8.1
						c-6.9-5.5-16-14.3-23.2-23l-0.1,0.4c0,0-0.5-0.6-1-1.1c-0.5-0.5-0.9-1.1-0.9-1.1c0.1,0-0.1-0.3,0.2,0c-1.1-2-4.3-5.2-5.5-7.3
						c0.6,1.4,1.2,1.7,2.2,3c1.4,2-0.3,0.4-2.2-2.3l0.1,0l-1.4-1.7c0.1-0.4-1-2.1-1-2.4c-0.7-1-1.4-1.9-2.1-2.8
						c-0.7-0.9-1.2-1.8-1.8-2.7c-1.2-1.8-2.3-3.5-3.5-5.2c-1.1-1.8-2.1-3.5-3.2-5.4c-0.5-0.9-1.1-1.9-1.7-2.9
						c-0.5-1-1.1-2.1-1.6-3.2c0.7,0.8-3.3-6.4-2-4.8c-2.6-5.4,0,1.1-1.4-1.3c-0.7-1.5-1.5-3.1-1.5-3.4c0.4,0.7-0.3-1.4,0.3-0.1
						c0,0-0.4-0.9-0.8-1.8c-0.4-0.9-0.8-1.8-0.8-1.8c-0.1-0.4,0.3,0.4,0.5,0.8c-3.3-7.5-4.9-13.6-7.2-20.5c-0.3-0.5,0.7,2.8,0.4,2.3
						c-2.3-7-1.6-6.3-3.3-13l0.6,1.3c-0.3-1.1-0.6-1.8-0.9-2.8c-0.2-0.9-0.6-2.1-0.8-3.9c0.1-0.3,0.3,0.4,0.5,1.5
						c0.3,1,0.6,2.4,0.9,3.2c-0.7-2.4-1.8-8.6-1.7-6.7c-0.6-2.9-0.6-4.1-0.8-5.7c-0.1,0,0.3,2.8-0.1,1.1c-0.3-2-0.5-4.6-0.8-7.3
						c-0.1-1.3-0.4-2.7-0.4-4.1c-0.1-1.4-0.2-2.7-0.3-3.9c0.1,0,0.2-0.3,0.2,0.1C163.1,358.5,163.7,358.9,163.5,353.4z"/>
					<path id="XMLID_36_" class="st2" d="M317.7,163.7l-2,0.3c0,0.1-0.1,0.2-1,0.4L317.7,163.7z"/>
					<path id="XMLID_37_" class="st2" d="M231,202.8c-0.2,0.2-0.4,0.3-0.5,0.5C230.8,203,230.9,202.8,231,202.8z"/>
					<path id="XMLID_38_" class="st2" d="M214.2,219c1.1-1.2,0-0.2-0.6,0.3C213.6,219.4,213.7,219.4,214.2,219z"/>
					<path id="XMLID_39_" class="st2" d="M372,161.7c-0.4,0-0.6,0-0.5,0.1C372,161.8,372.1,161.8,372,161.7z"/>
					<path id="XMLID_40_" class="st2" d="M499.1,235.6c-0.1-0.2-0.2-0.3-0.3-0.5C498.8,235.2,499,235.3,499.1,235.6z"/>
					<path id="XMLID_41_" class="st2" d="M494.3,228.7c-0.3-0.3-0.6-0.7-1.1-1.3C493.6,228,494,228.4,494.3,228.7z"/>
					<path id="XMLID_42_" class="st2" d="M335.5,160.9c-0.6,0.1-1.1,0.1-1.6,0.2C334.8,161.1,335.2,161,335.5,160.9z"/>
					<path id="XMLID_43_" class="st2" d="M492,226.1l-1.4-1.6c0,0,0,0-0.1,0L492,226.1z"/>
					<path id="XMLID_45_" class="st2" d="M500.7,237.7c-0.5-0.7-1.1-1.6-1.5-2.2C499.7,236.4,500.2,237.1,500.7,237.7z"/>
					<path id="XMLID_46_" class="st2" d="M425.4,176.1c-0.1,0-0.1-0.1-0.2-0.1C423.7,175.5,424.6,175.9,425.4,176.1z"/>
					<path id="XMLID_47_" class="st2" d="M485.5,219.6c-0.1-0.1-0.1-0.1-0.2-0.2l-0.5-0.4L485.5,219.6z"/>
					<path id="XMLID_48_" class="st2" d="M505.7,245.3c-0.2-0.3-0.4-0.6-0.6-0.9c0.2,0.3,0.4,0.6,0.6,1
						C505.7,245.3,505.7,245.3,505.7,245.3z"/>
					<path id="XMLID_49_" class="st2" d="M452.9,191.8c0.6,0.2,0.8,0.3,0.8,0.3C453.2,191.6,452.8,191.4,452.9,191.8z"/>
				</g>
			</g>
		</g>
	</g>
</g>
</svg>
