<?xml version="1.0" encoding="utf-8"?>
<!-- Generator: Adobe Illustrator 19.0.0, SVG Export Plug-In . SVG Version: 6.00 Build 0)  -->
<svg version="1.1" id="捲入線" xmlns="http://www.w3.org/2000/svg" xmlns:xlink="http://www.w3.org/1999/xlink" x="0px" y="0px"
	 viewBox="0 0 1580 830" style="enable-background:new 0 0 1580 830;" xml:space="preserve">
<style type="text/css">
	.st0{fill:#CEBCA6;}
</style>
<g id="XMLID_272_">
	<g id="XMLID_124_">
		<g id="XMLID_13_">
			<g id="XMLID_14_">
				<g id="XMLID_15_">
					<path id="XMLID_19_" class="st0" d="M1473.2,221.5c0.1,0,0.1-0.1,0.1-0.1C1473.2,221.4,1473.1,221.4,1473.2,221.5z"/>
					<path id="XMLID_20_" class="st0" d="M1410.8,220.6l0.7-0.1C1411.1,220.6,1410.9,220.6,1410.8,220.6z"/>
					<path id="XMLID_21_" class="st0" d="M1510.5,221.8C1510.5,221.8,1510.5,221.8,1510.5,221.8c0.5,0,1.3,0,2.5,0.1L1510.5,221.8z"
						/>
					<path id="XMLID_22_" class="st0" d="M1277.9,219.7l0.8,0C1278.3,219.7,1278.1,219.6,1277.9,219.7z"/>
					<path id="XMLID_23_" class="st0" d="M1356.7,220.3c-0.2,0.1-0.7,0.1-1.1,0.1C1356.1,220.4,1356.5,220.4,1356.7,220.3z"/>
					<path id="XMLID_24_" class="st0" d="M1530.2,224.6l-1.1-0.2C1529.2,224.5,1529.6,224.6,1530.2,224.6z"/>
					<path id="XMLID_26_" class="st0" d="M1568.1,223.9C1568.1,223.8,1568.1,223.8,1568.1,223.9C1568,223.8,1568,223.8,1568.1,223.9
						z"/>
					<path id="XMLID_28_" class="st0" d="M1553.3,223.1c-0.3,0-0.7,0.1-1.1,0.1C1552.7,223.2,1553.3,223.2,1553.3,223.1z"/>
					<path id="XMLID_29_" class="st0" d="M1551.7,223.2c0.2,0,0.3,0,0.5,0C1552,223.2,1551.7,223.2,1551.7,223.2z"/>
					<path id="XMLID_30_" class="st0" d="M794.9,220.6c-1.1,0-2,0.1-3,0.3L794.9,220.6z"/>
					<path id="XMLID_31_" class="st0" d="M1157.5,219.6l0.2-0.1C1157.5,219.5,1157.5,219.5,1157.5,219.6z"/>
					<path id="XMLID_32_" class="st0" d="M793.6,222.3l-0.8,0C793.1,222.2,793.3,222.3,793.6,222.3z"/>
					<path id="XMLID_33_" class="st0" d="M1510.2,225.1c-1.1,0.2-3.3,0-3.3,0.1C1508,225.3,1509.7,225.4,1510.2,225.1z"/>
					<path id="XMLID_34_" class="st0" d="M1132,226.6l-0.7,0C1131.7,226.6,1131.9,226.6,1132,226.6z"/>
					<path id="XMLID_35_" class="st0" d="M793.6,222.3l0.9,0c-0.1,0-0.2-0.1-0.3-0.1C794,222.2,793.8,222.3,793.6,222.3z"/>
					<path id="XMLID_36_" class="st0" d="M1032.1,219.5C1032.1,219.5,1032.1,219.5,1032.1,219.5c0.1,0,0.2,0,0.3,0L1032.1,219.5z"/>
					<path id="XMLID_37_" class="st0" d="M1025.5,219.2c0.5,0,0.9,0,1.4-0.1C1026.1,219.1,1025.7,219.1,1025.5,219.2z"/>
					<path id="XMLID_38_" class="st0" d="M791.9,220.9l-1.7,0.1C790.8,221,791.4,220.9,791.9,220.9z"/>
					<path id="XMLID_39_" class="st0" d="M953.8,219.4c0.2,0,0.4,0,0.7,0C954.2,219.4,953.9,219.4,953.8,219.4z"/>
					<path id="XMLID_40_" class="st0" d="M1361.7,220.4c0.2,0,0.4,0,0.6,0C1362.4,220.4,1362.3,220.4,1361.7,220.4z"/>
					<path id="XMLID_41_" class="st0" d="M1312.2,225.4L1312.2,225.4C1312.2,225.4,1312.2,225.4,1312.2,225.4
						C1312.2,225.4,1312.2,225.4,1312.2,225.4z"/>
					<path id="XMLID_42_" class="st0" d="M1314.8,225.1c-0.8,0-2,0.1-2.6,0.2C1313,225.4,1313.8,225.3,1314.8,225.1z"/>
					<path id="XMLID_45_" class="st0" d="M1306.5,225.3c0.1,0,0.2,0,0.3,0C1306.7,225.3,1306.6,225.3,1306.5,225.3z"/>
					<path id="XMLID_46_" class="st0" d="M1359.7,225.6C1359.7,225.6,1359.7,225.6,1359.7,225.6
						C1359.7,225.6,1359.7,225.6,1359.7,225.6L1359.7,225.6z"/>
					<path id="XMLID_47_" class="st0" d="M1349.2,225.7c-0.2,0-0.4-0.1-0.7-0.1C1348.6,225.6,1348.9,225.7,1349.2,225.7z"/>
					<path id="XMLID_48_" class="st0" d="M1280.3,225.8C1280.3,225.8,1280.3,225.8,1280.3,225.8
						C1280.3,225.8,1280.3,225.8,1280.3,225.8C1280.2,225.8,1280.3,225.8,1280.3,225.8z"/>
					<path id="XMLID_49_" class="st0" d="M1181,227.2c10-0.1,22.9-0.5,32.8-0.4c2.1-0.4,5.3-0.4,8.4-0.5l0.3,0.5l2.6-0.2
						c1.1,0.2-2,0.1-0.1,0.3l1-0.3c0.2,0.2,6.7,0.1,2.3,0.5l10.2,0c2.3,0,1.3-0.4,3.8-0.3c0.5,0.1-0.9,0.1-0.7,0.3
						c7.5,0.4,8.7-1,15.6-0.8l-0.6,0.1c1.2-0.1,3.5-0.1,3.5-0.2c-0.9-0.5-1.3,0.3-3.4,0c0.2-0.4,2.7-0.2,2.5-0.6
						c1.6,0.2,2.6-0.1,4-0.1c2.4,0.3,5.9,0.1,7.7,0.4c1.2-0.1,2.5-0.6,5.1-0.6c1.8,0.3-0.4,0.3,2.1,0.5l0.4-0.3c2,0,1.7,0.1,1.7,0.2
						c2.2,0,1.8-0.3,4.6-0.2l-1.5,0.2c2-0.1,2.9-0.1,5.7,0c-0.1,0.1-1.2,0.1-2,0.1c1.5,0.4,2.6-0.2,3.5-0.1
						c-0.2-0.1-2.2-0.2-1.2-0.4c1.4,0,3-0.3,4,0l-1.5,0.2c2.9-0.2,1.6-0.3,4.9-0.2c-0.2,0-0.1,0.1-0.2,0.1c2.1-0.3,4.9,0,8,0
						l-0.6,0.1c1.3-0.1,2-0.3,2.6-0.3c-1.8-0.1-1.3-0.2-1.5-0.5c2.4,0.4,3.6-0.5,7.5-0.2c-0.1,0.1-1,0.3-2.1,0.2
						c-1.3,0.4-1.5,0.8-3.8,1c1.5-0.1,3.2-0.2,2.8,0l0.5-0.4c0.9,0,1.6,0,2.3,0c0.4-0.3-1.8-0.4,0.3-0.6c2.3-0.1,1.2,0.4,1.6,0.2
						c3.2-0.2,1.3-0.4,4.4-0.3c-0.3,0-0.9,0.1-1.2,0.1c2.2,0.2,5.4-0.1,6.1,0.4c-0.3,0.1-0.4,0.2-1.2,0.2l0-0.1
						c-2.4,0.3,2-0.1,1.3,0.3c-0.2-0.3,2.9-0.2,4.3-0.2l-0.4-0.3c4.6-0.9-0.3,0.6,4.3,0.5c2.9-0.2-1.1-0.1,0.7-0.3
						c2,0.1,2.7,0.3,5.6,0.2c0.8,0.1,2.4,0.3,2.6,0.6c1.8-0.1,5.3,0.1,6.3-0.2c-3-0.3-3,0.3-6.5-0.1l1-0.3c2.4,0,5.5-0.1,7.2,0
						c-0.3-0.1-0.5-0.1-0.3-0.2c3.5-0.1,4.4-0.4,7.8-0.3c0.4,0.3-1.5,0.2-3,0.3c2.2,0.2,2.3,0,5.6,0.1c0.2,0.3-2.3,0-2.6,0.2
						l3.7-0.1c0,0,0,0,0,0.1c0.5-0.4,2.8,0,5.1-0.1c5.4,0,6.2-0.6,9.2-0.9c0.8,0.1,1,0.2,0.7,0.3c-1.3-0.2-1.1,0-1.5,0.1
						c1.8,0,4,0.4,3,0.6c2.9-0.1-1-0.2,0.7-0.4l4,0c-0.5-0.2-1.9-0.3,0.2-0.4c1.7-0.1,2.6,0,4.8,0c-0.3,0.1,0.7,0.3-1,0.3
						c1.1,0.1,2.8,0.1,3.5-0.1c-2.5-0.2,4.1-0.2,2.2-0.5l2.5,0.2c-0.6,0-0.6,0.1-1.5,0.1c0.7,0.3,2-0.1,2.9-0.1
						c0.9,0.1,3.1,0.1,3.3,0.2c0.8-0.1,2.7,0,3,0.2c1.2-0.1,0.1-0.2,0.4-0.3l3.9,0c0.2,0.2,0.5,0.7-0.1,0.8c1.5-0.2,0.5-0.5,2.8-0.5
						c-1.3,0.4,3,0.3,1.1,0.7c1.3,0.3,5,0.3,7,0.2c1.3-0.3-2.2-0.2-2.1-0.5c5.7-0.1,6.1-0.9,10.3-0.8l-1.1-0.1
						c2.6-0.2,2.3-0.1,3.8-0.4c-0.7,0.4,3,1,7.3,0.9c0.4-0.2-2.4-0.3-1.7-0.6l2.9-0.1c0.2,0-0.1,0.1-0.5,0.1c2.6-0.1,4.8,0.5,5.5,0
						l2.6,0.5l-1-0.2c0.4-0.2,3.2-0.2,3.8-0.3c2.9-0.2,4,0,5.6,0.2c-0.5-0.1-1.8-0.5,0.5-0.5c0,0.6,4.8,0.2,4.8,0.5
						c0.9,0,2.6,0.2,2.7-0.1l-0.2,0.4c0.2-0.5,3.6-0.5,6.2-0.6c-0.6,0.7,2.9-0.1,4,0.6c0.5-0.5,4.6-0.2,5.1-0.6c2,0,1.8,0.4,2.3,0.6
						l0.9-0.2c1,0.2,4.8,0.3,7,0.4l2.1-0.4l0.8,0.2c0.3-0.1,2.1-0.2,1-0.3l1.1,0c0.1-0.4,1.6-0.1,3.8-0.3c0.5,0.1,0.4,0.2-0.1,0.2
						c1.1,0,0.6,0.2,1.3,0.4c-0.8-0.1,4-0.8,1-1c-0.2-0.2,1.6-0.3,2.7-0.2l0.7,0.4l1.3-0.4c1.7-0.1,2.5,0.2,3.9,0.2
						c-1.4,0-3.2,0.8,0.5,0.8c-1.9,0.1-2.9,0.3-3.9,0.4c0.8,0,1.1,0.1,0,0.2c2.9-0.1,1-0.2,3.8-0.3c-0.2,0.4,0.6,0.5,3.1,0.6
						l-1.9-0.3c0.1,0,0.2-0.1,0.4-0.1c-0.7,0-0.9-0.1-1.1-0.2c0.6,0,3.3-0.4,3.8-0.2c-2.9-0.6,5-0.4,3.2-0.8
						c0.3-0.1,2.3-0.1,2.5,0.1c-2.4,0.3,1.8,0.4,1.4,0.7c0.9-0.1-1.9-0.3-0.7-0.4c1.4,0,2.5,0.2,3.3,0.3l-0.6,0.1l2.2,0.2
						c0.4-0.2-2.1-0.3-0.1-0.4c0.5,0.1,2.6,0,2.5,0.1c-1,0.2-0.3,0.6-2,0.6c1.4,0,6-0.1,4.1-0.4l1.7,0c-1.1-0.2-4.1-0.4-0.6-0.5
						l0,0.1l2.4-0.3l1,0.2c0-0.1,0.3-0.2,1.2-0.2c0.2,0.1,1.1,0.2,1,0.3c2.6,0,2.4-0.2,2.7-0.3c1.4,0,2,0.1,1.3,0.3
						c2,0,5.4,0,6.7,0.2c2.6-0.2-0.5-0.1,1-0.3c2.3,0.6,8.7,0.2,13,0.2c-1.2-0.6,1.2-0.1,2-0.6c-0.9,0.2,4.1,0.4,0.3,0.6l2.3-0.1
						c1.6,0.3-3.8,0.2-1.4,0.6c2.6,0,4.2-0.6,7.3-0.4c-1,0.4,2.3-0.1,1.6,0.3c-0.6,0.1-1.5,0.1-2.3,0.1l0.5,0.1
						c5.6,0.1,1.6-0.5,4.6-0.7c3.4,0,2.7,0.3,2.9,0.5c0.5,0.1,2.3,0,3.2-0.1c-2.1,0.2-3.9-0.2-2.9-0.5c1.5,0.4,5.1,0,6-0.1
						c-4.9-0.5-3.4,0-8-0.5c-0.6,0.1-0.5,0.5-3.3,0.4c1.7-0.2-0.1-0.2-0.6-0.3c0.5,0.2-1.9,0.1-2.8,0.2c-0.8-0.2,1.7-0.5-1.1-0.6
						l-0.5,0.5c-1.1-0.1,0.5-0.4-1.9-0.3c1.3-0.3-0.4-0.4,2.8-0.5c-3.8-0.5-5.8,0.2-8.7,0.4c0.3,0,0.3-0.1,0.6-0.1
						c-0.6,0.1-1.8,0.1-2.6,0.2c-1.9-0.1,1.5-0.2,1-0.4l-3.1,0c-0.1,0-0.1,0-0.1,0c-0.8,0.1-1.6,0.1-1.9,0c0.9-0.2,1.3-0.4,1.9-0.5
						l-3.3,0.4c0.4-0.2-2.7-0.3-0.4-0.4l-4.9,0.1l-0.4-0.4c-1.2,0.1-1.2,0.1,0.2,0.2c-1.7-0.1-7.4,0.6-6.5-0.1
						c-3.8,0.3-5.2,0.2-9.8,0.4c3.5-0.3-4.1-0.4-0.3-0.6c-2.2-0.2-2.7,0.2-4.4,0.3c-1.6-0.2-0.9-0.5,0.9-0.6l-2.1,0.2l0-0.1
						l-1.8,0.2c-1.9-0.2-0.4-0.4-2.4-0.4l-0.4,0.3l-1.3-0.2c0.5,0.1-0.7,0.2-2.1,0.2l0-0.1l-1.7,0.1c1.7-0.2-1.6-0.1-0.8-0.3
						c-1.5,0-1.5,0-4.2,0l0.5,0.2c-3.5,0.2-0.1-0.3-3-0.3l0.2,0.3c-4.1-0.4-6.9,0.2-9.9,0c1.7-0.1,1.3-0.4,1.3-0.3
						c-2.6,0.1-6.8,0-9.5,0.3c-1-0.4-1.2-0.5-4-0.6c-2,0-2.3,0.1-3,0.3c-1.9-0.1-5.6,0.1-5.7-0.2c-0.5,0.2-1.7,0-2.8,0.1l-0.2-0.1
						l0.2,0.3c-3.4-0.6-5.8,0.3-9.3-0.2l0.6-0.1l-1.5,0.1c-0.2-0.1,0.4-0.2,0.4-0.3l-6.8,0l1.3,0.2c-1.4,0-2.4,0.3-4,0.1
						c2.7-0.4-2.3,0-2.7-0.3l1.5-0.1c-2,0-2,0-1.8,0.3c-2.6,0.1-1.8-0.5-4.2-0.2l1.7,0c0.5,0.1-0.7,0.4-1.9,0.3
						c-0.3,0-1.1-0.2-0.2-0.2c-2,0.1-5.1,0-6,0.1c-1.1-0.1-0.7-0.3-0.1-0.3c-4.3,0.2-2,0-6.3,0.2l0.1-0.1l-1.5,0.2l-2.1-0.3l0.8,0.2
						c-1.4,0-2.3,0.1-4,0l0.7-0.2c-4,0.1-4.7-0.4-8.5-0.1c-0.3,0,0.3-0.1,0.6-0.1c-3.6,0.3-2.7-0.4-6.3,0c0.2-0.1-0.2-0.2,0-0.2
						l-1.6,0.1l0.1-0.3l-1.3,0.4l-1-0.3l-0.6,0.1c-1.7-0.6-4.2-0.1-6.6-0.6l0.4,0.4c-6,0.8-13.7-0.4-20.9-0.1l0.1-0.3l-3,0.3
						c-1.6-0.2,1-0.2,0.5-0.4c-3.2,0.2-1.3,0.4-5,0.5c-1.9-0.2,0.7-0.2,1.6-0.3c-3.5,0.1-8.6,0.3-11.1,0.1c-0.1,0-0.2,0.1-0.1,0.1
						c-2.3,0.1-5.4,0-7.9,0c0.1-0.1,0.7-0.2,1.3-0.2c-0.9,0-2.2-0.1-3,0l1-0.2c-2-0.1-5.7,0.2-6.2-0.1c0.2,0.1,0.1,0.3-1.6,0.3
						c-0.9-0.4-4.6,0.2-7.3-0.1c0.3-0.1,2.3-0.1,1.8-0.1c-1.4-0.1-2.6,0.1-3.8,0.2l0.4-0.2l-6.3,0.2c-0.9-0.4-6,0.1-5.6-0.3
						c-2.3,0,1.9,0.2-1,0.2c-0.8-0.2-2.6,0.1-2.5-0.2l0.3,0l-2,0l1.3-0.3c-1.7,0.1-3,0.3-3.1,0.6c-1.6-0.2-4,0-4.7-0.3l0.6-0.1
						c-4.6,0.1-7.6-0.8-11.2-0.3c-0.3,0-0.2-0.1,0.3-0.1l-2.8,0l0.7-0.2l-4.7,0.3l0.1-0.1c-3.1-0.1-7.9,0-11.9,0.1l0.6-0.1
						c-4.3,0.2-4.2-0.1-7.4,0c0.1,0,0.2-0.1,0.3-0.1l-2.9,0l0.6-0.1c-2.1,0.3-6.1-0.4-4.8-0.1c-1.2,0.1-3.3,0.3-3.6,0.5
						c-3.1,0-0.8-0.2-2.7-0.3c-2.3,0-2.7,0.2-5.7,0.1l0.1-0.1c-1.4,0-2.3,0.1-4.3,0.2l0.6-0.1c-3.3,0.3-4.1-0.4-6.6,0.2
						c-1.4-0.1-4,0-3.8-0.3c-4.1,0.2-7.2,0.3-11.2,0.4c-0.6-0.5-0.9,0-3.3-0.2l0.2,0.3c-5.7,0-12.2-0.6-18.5-0.5l-0.2-0.3l-1.3,0.3
						c-6.8-0.1-15.5-0.2-20.9-0.2c-1.8,0.1-4.4,0.4-7.2,0.3l0.3,0c-4.9,0.1-10,0.3-15.4,0.1c0.3-0.1-0.2-0.2,0.4-0.3
						c-1.3,0.3-3.1,0-4.3,0l1.3,0.2c-1.5,0.2-3.7,0-4.5-0.2l-2.4,0.3c-0.2,0-0.4-0.1-0.4-0.1l-0.4,0.1l-1.3-0.3
						c-0.6,0.1-3.8,0.2-4.7,0.5c-0.2-0.1-2.5-0.2-0.7-0.3l-8.7-0.1l1.4,0.1c0.2,0.3-2.5,0.4-3.8,0.3c1.8-0.2,0.1-0.4-0.6-0.5
						c-1.2,0.1,1,0.2,0.4,0.4c-1.5,0.2-4.7,0.3-5.4,0.1l0.9-0.1c-2,0.1-3-0.3-5-0.3c-1.8,0.2-3.1,0-2.8,0.5c-2.6,0.1-1-0.3-1.8-0.3
						c-1.2,0.2-4.8,0.1-5.3-0.1c-1.4,0.6-7-0.2-7.5,0.3l-2.1-0.3c-0.1,0.1-0.5,0.5-2.2,0.5c-1.6-0.2-1.2-0.4-1.7-0.6l-1.1,0.5
						c-9.4-0.6-21.7-0.2-32-0.7c-4.6,0.1-10.4,0.4-15.7,0.3l0.6-0.1l-5.3-0.1l3.9,0.2c-1.2,0.1-2.1,0.2-3.2,0.2
						c-5.8-0.2-13.6-0.5-20.8-0.2c-4.7,0.6-3.1-0.5-7.6-0.1c0.4-0.1,0.5-0.1,0.9-0.2c-4.8,0.2-7.4,0.3-12.2,0.7
						c0.6-0.6-3.1,0-2.7-0.3l-0.4,0.2c-1.1-0.2-3.6-0.2-3.2-0.4l-2.1,0.3l-0.2-0.3c-2.8,0-8.9,0.2-10.3-0.3c-7,0.4-18,0.3-26.7,0.2
						c-1.2,0.2-3.8,0.2-5.8,0.2l-2.1-0.3c-2,0.1-4.2,0.5-6.1,0.3c0,0,0.1-0.1,0.2-0.1c-2.1,0.1-4-0.1-6,0.2c-2.3,0-4.5-0.2-3.8-0.5
						c-0.2,0.5-4.8-0.1-4.8-0.1s-116-1.2-144.4,1.5c-1,0.2-3.6,0.4-2.6,0.7c-2,0.1-3-0.3-3.4-0.1c2.8,0.2-0.9,0.6,1.8,1l-1.7,0.1
						c-0.4,0.2,2.4-0.2,1.9,0.1l0.5-0.5c1.4,0.1,2.2,0.2,2.7,0.3c1.3-0.2,2.2-0.8,5.3-0.5l-0.9,0c2.6,0,1.6,0.3,2.1,0.4l-0.6,0
						l2.2,0.2c-1.6-0.2-4.3,0.2-2.9,0.2c3.1,0.1-0.8-0.1,1.5-0.2c1.4,0,1,0.2,1,0.4l2.6,0c-0.1,0.2-1.7,0-0.7,0.2l3.2-0.2
						c0.6,0.5,3.5-0.3,5,0.3c-2.3,0.1,0.2,0.2-0.2,0.4l5.7,0c0.5,0.1-1.5,0.2-0.6,0.1c1.1,0.2,1.8-0.1,2.3-0.1
						c0.5,0.2,4.2,0,4.1,0.4c3.9,0.2,1.6-0.5,5.2-0.3c0.5,0.2-2.9,0.1-1.3,0.3l3.7-0.1c-0.3,0.1-0.7,0.4-2.1,0.3
						c10.1,0.3,15.5,1.5,24.7,1.2c1.3,0.3-0.9,0.2-1.9,0.3c6.7-0.3,9.4,0.6,15.1,0.5l0.1-0.2c7.9,0.7,17.5,0.3,26.4,0.6l-1.1-0.2
						c1.2-0.2,3.2-0.2,4.7-0.3c0.2,0.1-1.1,0.5,1.5,0.4c-0.5-0.1-1.6-0.2-1.3-0.3c7.7,0.6,23.9,0.4,36.5,0.7
						c17.1-0.2,35.6,0.3,52.4,0.1c-2.6,0-1.5-0.5,0.5-0.4c5.3,0.9,9.1-0.2,14.5,0.5c9.8-0.3,18.5,0.5,27.6-0.2l0.2,0.3
						c1.4,0.1,1.7-0.1,3.2-0.1l0,0.1c3.4,0.1,7.4-0.2,9.4,0l0.1-0.3c2,0,1,0.2,3.1,0.1l-0.1,0.1l2.4-0.3c-0.2,0.5,5.6,0,7.3,0.3
						c2.6-0.1,7.5-0.3,11.4-0.2c0.7,0.3,5.5,0.3,8.6,0.4c6-0.1,14.5-0.1,22.1-0.1l-0.1-0.3l2,0c0,0.1,0.2,0.1-0.1,0.1
						c1.5,0.4,4.6-0.1,6.2,0.1c-1-0.3-1.4,0-2.5-0.1c-1.6-0.2-0.1-0.5,2.1-0.3l0,0.1l1.5-0.2c0.2,0.3,1.5,0.4,1.7,0.6
						c6.5-0.1,11-0.5,17.7-0.4c-0.7,0.3,4.9-0.1,3.5,0.4c4.1-0.2-0.7-0.4,1.2-0.8c1.1,0,2.3-0.1,2.5,0.1c-0.5,0.1,0.9,0.3,0,0.3
						l2.7,0c0.3,0-0.3,0.1-0.6,0.1c5.5-0.3,9.8,0.3,14.7,0c0.4-0.2-2-0.1-1.6-0.2c5-0.4,4.4,0.3,9,0.1l-1,0.2
						c1.5-0.2,2.2-0.4,4.6-0.2c0.4,0.3-2.1,0.2-3.3,0.4c1.7,0,6-0.1,4.7-0.3c2-0.1,2.8,0.2,3.9,0.2c0-0.1-1.9-0.2-0.7-0.3
						c2.8,0.2,7,0.2,10.4,0.2c0,0.1,0.2,0.2-0.1,0.2C1177.5,226.6,1177.2,227.3,1181,227.2z"/>
					<path id="XMLID_50_" class="st0" d="M1361.1,225.7l-1.4,0c0,0.1-0.1,0.1-0.7,0.2L1361.1,225.7z"/>
					<path id="XMLID_51_" class="st0" d="M1296.4,225.5c-0.2,0-0.3,0-0.5,0.1C1296.3,225.6,1296.4,225.5,1296.4,225.5z"/>
					<path id="XMLID_52_" class="st0" d="M1280.7,226c1.1-0.1,0.1-0.1-0.4-0.2C1280.2,225.9,1280.3,225.9,1280.7,226z"/>
					<path id="XMLID_53_" class="st0" d="M1397.7,224.9c-0.2,0-0.4,0.1-0.3,0.1C1397.7,225,1397.8,225,1397.7,224.9z"/>
					<path id="XMLID_54_" class="st0" d="M1499,225.1c-0.1,0-0.2,0-0.4,0C1498.6,225.1,1498.8,225.1,1499,225.1z"/>
					<path id="XMLID_55_" class="st0" d="M1493.4,224.7c-0.3,0-0.6,0-1.1,0C1492.7,224.7,1493.1,224.7,1493.4,224.7z"/>
					<path id="XMLID_56_" class="st0" d="M1373.2,225c-0.4,0-0.7,0-1.1,0.1C1372.7,225.1,1373,225.1,1373.2,225z"/>
					<path id="XMLID_57_" class="st0" d="M1491,224.8l-1.4,0c0,0,0,0,0,0.1L1491,224.8z"/>
					<path id="XMLID_58_" class="st0" d="M1500.7,225.2c-0.6,0-1.3,0-1.8,0C1499.7,225.2,1500.2,225.2,1500.7,225.2z"/>
					<path id="XMLID_59_" class="st0" d="M1434.9,224.6c0,0-0.1,0-0.2,0C1433.6,224.7,1434.3,224.6,1434.9,224.6z"/>
					<path id="XMLID_60_" class="st0" d="M1484.9,225.3c-0.1,0-0.1,0-0.2,0l-0.4,0.1L1484.9,225.3z"/>
					<path id="XMLID_61_" class="st0" d="M1506.8,225.3c-0.3,0-0.5,0-0.7,0.1C1506.4,225.3,1506.6,225.4,1506.8,225.3
						C1506.9,225.3,1506.8,225.3,1506.8,225.3z"/>
					<path id="XMLID_62_" class="st0" d="M1456.1,225c0.4-0.1,0.5-0.2,0.6-0.2C1456.2,224.8,1455.9,224.8,1456.1,225z"/>
				</g>
			</g>
		</g>
	</g>
</g>
<g id="XMLID_273_">
	<g id="XMLID_175_">
		<g id="XMLID_64_">
			<g id="XMLID_67_">
				<g id="XMLID_68_">
					<path id="XMLID_75_" class="st0" d="M682.4,601.5c0.1,0,0.1-0.1,0.1-0.1C682.4,601.4,682.4,601.4,682.4,601.5z"/>
					<path id="XMLID_77_" class="st0" d="M620.3,600.6l0.7-0.1C620.5,600.6,620.3,600.6,620.3,600.6z"/>
					<path id="XMLID_78_" class="st0" d="M719.7,601.8C719.6,601.8,719.6,601.8,719.7,601.8c0.5,0,1.3,0,2.5,0.1L719.7,601.8z"/>
					<path id="XMLID_82_" class="st0" d="M487.6,599.7l0.8,0C488.1,599.7,487.8,599.6,487.6,599.7z"/>
					<path id="XMLID_83_" class="st0" d="M566.2,600.3c-0.2,0.1-0.7,0.1-1.1,0.1C565.7,600.4,566.1,600.4,566.2,600.3z"/>
					<path id="XMLID_84_" class="st0" d="M739.4,604.6l-1.1-0.2C738.3,604.5,738.7,604.6,739.4,604.6z"/>
					<path id="XMLID_85_" class="st0" d="M777.2,603.9C777.1,603.8,777.1,603.8,777.2,603.9C777,603.8,777.1,603.8,777.2,603.9z"/>
					<path id="XMLID_86_" class="st0" d="M762.4,603.1c-0.3,0-0.7,0.1-1.1,0.1C761.8,603.2,762.3,603.2,762.4,603.1z"/>
					<path id="XMLID_87_" class="st0" d="M760.8,603.2c0.2,0,0.3,0,0.5,0C761,603.2,760.8,603.2,760.8,603.2z"/>
					<path id="XMLID_88_" class="st0" d="M5.9,600.6c-1.1,0-2,0.1-3,0.3L5.9,600.6z"/>
					<path id="XMLID_89_" class="st0" d="M367.5,599.6l0.2-0.1C367.6,599.5,367.5,599.5,367.5,599.6z"/>
					<path id="XMLID_91_" class="st0" d="M4.6,602.3l-0.8,0C4.1,602.2,4.3,602.3,4.6,602.3z"/>
					<path id="XMLID_92_" class="st0" d="M719.3,605.1c-1.1,0.2-3.3,0-3.3,0.1C717.2,605.3,718.8,605.4,719.3,605.1z"/>
					<path id="XMLID_93_" class="st0" d="M342.2,606.6l-0.7,0C341.8,606.6,342,606.6,342.2,606.6z"/>
					<path id="XMLID_97_" class="st0" d="M4.6,602.3l0.9,0c-0.1,0-0.2-0.1-0.3-0.1C5,602.2,4.8,602.3,4.6,602.3z"/>
					<path id="XMLID_98_" class="st0" d="M242.5,599.5C242.5,599.5,242.5,599.5,242.5,599.5c0.1,0,0.2,0,0.3,0L242.5,599.5z"/>
					<path id="XMLID_99_" class="st0" d="M235.9,599.2c0.5,0,0.9,0,1.4-0.1C236.5,599.1,236.1,599.1,235.9,599.2z"/>
					<path id="XMLID_100_" class="st0" d="M2.9,600.9L1.2,601C1.8,601,2.4,600.9,2.9,600.9z"/>
					<path id="XMLID_105_" class="st0" d="M164.4,599.4c0.2,0,0.4,0,0.7,0C164.7,599.4,164.5,599.4,164.4,599.4z"/>
					<path id="XMLID_106_" class="st0" d="M571.3,600.4c0.2,0,0.4,0,0.6,0C571.9,600.4,571.9,600.4,571.3,600.4z"/>
					<path id="XMLID_107_" class="st0" d="M521.9,605.4L521.9,605.4C521.8,605.4,521.8,605.4,521.9,605.4
						C521.8,605.4,521.9,605.4,521.9,605.4z"/>
					<path id="XMLID_108_" class="st0" d="M524.5,605.1c-0.8,0-2,0.1-2.6,0.2C522.7,605.4,523.5,605.3,524.5,605.1z"/>
					<path id="XMLID_109_" class="st0" d="M516.2,605.3c0.1,0,0.2,0,0.3,0C516.4,605.3,516.3,605.3,516.2,605.3z"/>
					<path id="XMLID_110_" class="st0" d="M569.3,605.6C569.3,605.6,569.3,605.6,569.3,605.6C569.3,605.6,569.2,605.6,569.3,605.6
						L569.3,605.6z"/>
					<path id="XMLID_111_" class="st0" d="M558.8,605.7c-0.2,0-0.4-0.1-0.7-0.1C558.2,605.6,558.5,605.7,558.8,605.7z"/>
					<path id="XMLID_112_" class="st0" d="M490,605.8C490,605.8,490,605.8,490,605.8C490,605.8,490,605.8,490,605.8
						C490,605.8,490,605.8,490,605.8z"/>
					<path id="XMLID_113_" class="st0" d="M391,607.2c9.9-0.1,22.8-0.5,32.7-0.4c2.1-0.4,5.3-0.4,8.4-0.5l0.3,0.5l2.6-0.2
						c1.1,0.2-2,0.1-0.1,0.3l1-0.3c0.2,0.2,6.7,0.1,2.3,0.5l10.2,0c2.3,0,1.3-0.4,3.8-0.3c0.5,0.1-0.9,0.1-0.7,0.3
						c7.5,0.4,8.6-1,15.6-0.8l-0.6,0.1c1.2-0.1,3.4-0.1,3.5-0.2c-0.9-0.5-1.3,0.3-3.4,0c0.2-0.4,2.7-0.2,2.5-0.6
						c1.6,0.2,2.6-0.1,4-0.1c2.4,0.3,5.9,0.1,7.7,0.4c1.2-0.1,2.5-0.6,5.1-0.6c1.8,0.3-0.4,0.3,2.1,0.5l0.4-0.3c2,0,1.7,0.1,1.6,0.2
						c2.2,0,1.8-0.3,4.6-0.2l-1.5,0.2c2-0.1,2.9-0.1,5.7,0c-0.1,0.1-1.2,0.1-2,0.1c1.5,0.4,2.6-0.2,3.5-0.1
						c-0.2-0.1-2.2-0.2-1.2-0.4c1.4,0,3-0.3,4,0l-1.5,0.2c2.9-0.2,1.6-0.3,4.9-0.2c-0.2,0-0.1,0.1-0.2,0.1c2.1-0.3,4.9,0,8,0
						l-0.6,0.1c1.3-0.1,2-0.3,2.6-0.3c-1.8-0.1-1.3-0.2-1.5-0.5c2.4,0.4,3.6-0.5,7.5-0.2c-0.1,0.1-1,0.3-2.1,0.2
						c-1.3,0.4-1.5,0.8-3.8,1c1.5-0.1,3.2-0.2,2.8,0l0.5-0.4c0.9,0,1.6,0,2.3,0c0.4-0.3-1.8-0.4,0.3-0.6c2.3-0.1,1.2,0.4,1.6,0.2
						c3.2-0.2,1.3-0.4,4.4-0.3c-0.3,0-0.9,0.1-1.2,0.1c2.2,0.2,5.4-0.1,6,0.4c-0.3,0.1-0.4,0.2-1.2,0.2l0-0.1
						c-2.4,0.3,2-0.1,1.3,0.3c-0.2-0.3,2.9-0.2,4.3-0.2l-0.4-0.3c4.6-0.9-0.2,0.6,4.3,0.5c2.9-0.2-1.1-0.1,0.7-0.3
						c2,0.1,2.7,0.3,5.6,0.2c0.8,0.1,2.4,0.3,2.6,0.6c1.7-0.1,5.3,0.1,6.3-0.2c-3-0.3-3,0.3-6.5-0.1l1-0.3c2.4,0,5.5-0.1,7.2,0
						c-0.3-0.1-0.5-0.1-0.3-0.2c3.4-0.1,4.4-0.4,7.8-0.3c0.4,0.3-1.5,0.2-2.9,0.3c2.2,0.2,2.3,0,5.6,0.1c0.2,0.3-2.3,0-2.6,0.2
						l3.7-0.1c0,0,0,0,0,0.1c0.5-0.4,2.8,0,5.1-0.1c5.4,0,6.2-0.6,9.2-0.9c0.8,0.1,1,0.2,0.7,0.3c-1.3-0.2-1.1,0-1.5,0.1
						c1.8,0,4,0.4,3,0.6c2.9-0.1-1-0.2,0.7-0.4l3.9,0c-0.5-0.2-1.9-0.3,0.2-0.4c1.7-0.1,2.6,0,4.8,0c-0.3,0.1,0.7,0.3-1,0.3
						c1.1,0.1,2.8,0.1,3.4-0.1c-2.5-0.2,4-0.2,2.2-0.5l2.5,0.2c-0.6,0-0.6,0.1-1.5,0.1c0.7,0.3,2-0.1,2.9-0.1
						c0.9,0.1,3.1,0.1,3.3,0.2c0.8-0.1,2.7,0,3,0.2c1.2-0.1,0.1-0.2,0.4-0.3l3.9,0c0.2,0.2,0.5,0.7-0.1,0.8c1.5-0.2,0.5-0.5,2.8-0.5
						c-1.3,0.4,3,0.3,1.1,0.7c1.3,0.3,5,0.3,7,0.2c1.3-0.3-2.2-0.2-2.1-0.5c5.7-0.1,6-0.9,10.2-0.8l-1.1-0.1
						c2.6-0.2,2.3-0.1,3.8-0.4c-0.7,0.4,3,1,7.2,0.9c0.4-0.2-2.4-0.3-1.7-0.6l2.8-0.1c0.2,0-0.1,0.1-0.5,0.1c2.6-0.1,4.7,0.5,5.5,0
						l2.6,0.5l-1-0.2c0.4-0.2,3.2-0.2,3.8-0.3c2.9-0.2,4,0,5.6,0.2c-0.5-0.1-1.8-0.5,0.5-0.5c0,0.6,4.8,0.2,4.7,0.5
						c0.9,0,2.6,0.2,2.7-0.1l-0.2,0.4c0.2-0.5,3.6-0.5,6.2-0.6c-0.6,0.7,2.8-0.1,4,0.6c0.5-0.5,4.6-0.2,5.1-0.6c2,0,1.8,0.4,2.3,0.6
						l0.9-0.2c1,0.2,4.7,0.3,7,0.4l2.1-0.4l0.8,0.2c0.3-0.1,2.1-0.2,1-0.3l1.1,0c0.1-0.4,1.6-0.1,3.8-0.3c0.5,0.1,0.4,0.2-0.1,0.2
						c1.1,0,0.6,0.2,1.2,0.4c-0.8-0.1,4-0.8,1-1c-0.2-0.2,1.6-0.3,2.7-0.2l0.7,0.4l1.3-0.4c1.7-0.1,2.5,0.2,3.8,0.2
						c-1.4,0-3.2,0.8,0.5,0.8c-1.9,0.1-2.9,0.3-3.9,0.4c0.8,0,1.1,0.1,0,0.2c2.9-0.1,1-0.2,3.8-0.3c-0.2,0.4,0.6,0.5,3.1,0.6
						l-1.9-0.3c0.1,0,0.2-0.1,0.4-0.1c-0.7,0-0.9-0.1-1.1-0.2c0.6,0,3.3-0.4,3.8-0.2c-2.9-0.6,5-0.4,3.2-0.8
						c0.3-0.1,2.3-0.1,2.5,0.1c-2.4,0.3,1.8,0.4,1.4,0.7c0.9-0.1-1.9-0.3-0.7-0.4c1.4,0,2.5,0.2,3.2,0.3l-0.6,0.1l2.2,0.2
						c0.4-0.2-2.1-0.3-0.1-0.4c0.5,0.1,2.6,0,2.5,0.1c-1,0.2-0.3,0.6-2,0.6c1.4,0,6-0.1,4.1-0.4l1.7,0c-1.1-0.2-4.1-0.4-0.6-0.5
						l0,0.1l2.4-0.3l1,0.2c0-0.1,0.3-0.2,1.2-0.2c0.2,0.1,1.1,0.2,1,0.3c2.6,0,2.3-0.2,2.7-0.3c1.4,0,2,0.1,1.3,0.3
						c2,0,5.4,0,6.7,0.2c2.6-0.2-0.5-0.1,1-0.3c2.3,0.6,8.7,0.2,12.9,0.2c-1.2-0.6,1.2-0.1,2-0.6c-0.9,0.2,4.1,0.4,0.3,0.6l2.3-0.1
						c1.6,0.3-3.8,0.2-1.4,0.6c2.6,0,4.2-0.6,7.3-0.4c-1,0.4,2.3-0.1,1.6,0.3c-0.6,0.1-1.5,0.1-2.3,0.1l0.5,0.1
						c5.6,0.1,1.6-0.5,4.6-0.7c3.4,0,2.7,0.3,2.9,0.5c0.5,0.1,2.3,0,3.2-0.1c-2.1,0.2-3.9-0.2-2.9-0.5c1.5,0.4,5.1,0,6-0.1
						c-4.9-0.5-3.4,0-8-0.5c-0.6,0.1-0.5,0.5-3.3,0.4c1.7-0.2-0.1-0.2-0.6-0.3c0.5,0.2-1.9,0.1-2.7,0.2c-0.8-0.2,1.6-0.5-1.1-0.6
						l-0.5,0.5c-1.1-0.1,0.5-0.4-1.9-0.3c1.3-0.3-0.4-0.4,2.8-0.5c-3.7-0.5-5.8,0.2-8.7,0.4c0.3,0,0.3-0.1,0.6-0.1
						c-0.6,0.1-1.8,0.1-2.6,0.2c-1.9-0.1,1.5-0.2,1-0.4l-3.1,0c-0.1,0-0.1,0-0.1,0c-0.8,0.1-1.6,0.1-1.9,0c0.9-0.2,1.3-0.4,1.9-0.5
						l-3.3,0.4c0.4-0.2-2.7-0.3-0.4-0.4l-4.8,0.1l-0.4-0.4c-1.2,0.1-1.2,0.1,0.2,0.2c-1.7-0.1-7.3,0.6-6.5-0.1
						c-3.8,0.3-5.2,0.2-9.8,0.4c3.5-0.3-4.1-0.4-0.3-0.6c-2.2-0.2-2.7,0.2-4.4,0.3c-1.6-0.2-0.9-0.5,0.9-0.6l-2.1,0.2l0-0.1
						l-1.8,0.2c-1.9-0.2-0.4-0.4-2.4-0.4l-0.4,0.3l-1.3-0.2c0.5,0.1-0.7,0.2-2.1,0.2l0-0.1l-1.7,0.1c1.7-0.2-1.6-0.1-0.8-0.3
						c-1.5,0-1.5,0-4.2,0l0.5,0.2c-3.5,0.2-0.1-0.3-3-0.3l0.2,0.3c-4.1-0.4-6.9,0.2-9.9,0c1.7-0.1,1.3-0.4,1.3-0.3
						c-2.6,0.1-6.8,0-9.5,0.3c-1-0.4-1.2-0.5-4-0.6c-2,0-2.3,0.1-2.9,0.3c-1.9-0.1-5.6,0.1-5.7-0.2c-0.4,0.2-1.7,0-2.8,0.1l-0.2-0.1
						l0.2,0.3c-3.4-0.6-5.8,0.3-9.3-0.2l0.6-0.1l-1.5,0.1c-0.2-0.1,0.4-0.2,0.4-0.3l-6.8,0l1.3,0.2c-1.4,0-2.4,0.3-4,0.1
						c2.7-0.4-2.2,0-2.7-0.3l1.5-0.1c-2,0-2,0-1.8,0.3c-2.6,0.1-1.8-0.5-4.1-0.2l1.7,0c0.5,0.1-0.7,0.4-1.8,0.3
						c-0.3,0-1.1-0.2-0.2-0.2c-2,0.1-5.1,0-6,0.1c-1.1-0.1-0.7-0.3-0.1-0.3c-4.3,0.2-2,0-6.3,0.2l0.1-0.1l-1.5,0.2l-2.1-0.3l0.8,0.2
						c-1.4,0-2.3,0.1-4,0l0.7-0.2c-4,0.1-4.6-0.4-8.5-0.1c-0.3,0,0.3-0.1,0.6-0.1c-3.5,0.3-2.7-0.4-6.2,0c0.2-0.1-0.2-0.2,0-0.2
						l-1.6,0.1l0.1-0.3l-1.3,0.4l-1-0.3l-0.6,0.1c-1.7-0.6-4.2-0.1-6.5-0.6l0.4,0.4c-6,0.8-13.7-0.4-20.9-0.1l0.1-0.3l-3,0.3
						c-1.6-0.2,1-0.2,0.5-0.4c-3.2,0.2-1.3,0.4-5,0.5c-1.9-0.2,0.7-0.2,1.6-0.3c-3.5,0.1-8.6,0.3-11.1,0.1c-0.1,0-0.2,0.1-0.1,0.1
						c-2.3,0.1-5.4,0-7.9,0c0.1-0.1,0.7-0.2,1.3-0.2c-0.9,0-2.2-0.1-3,0l1-0.2c-2-0.1-5.7,0.2-6.2-0.1c0.2,0.1,0.1,0.3-1.6,0.3
						c-0.9-0.4-4.6,0.2-7.3-0.1c0.3-0.1,2.3-0.1,1.8-0.1c-1.4-0.1-2.6,0.1-3.8,0.2l0.4-0.2l-6.3,0.2c-0.9-0.4-6,0.1-5.5-0.3
						c-2.3,0,1.9,0.2-1,0.2c-0.8-0.2-2.6,0.1-2.5-0.2l0.3,0l-2,0l1.3-0.3c-1.7,0.1-3,0.3-3.1,0.6c-1.6-0.2-3.9,0-4.7-0.3l0.6-0.1
						c-4.6,0.1-7.6-0.8-11.2-0.3c-0.3,0-0.2-0.1,0.3-0.1l-2.8,0l0.7-0.2l-4.7,0.3l0.1-0.1c-3.1-0.1-7.9,0-11.9,0.1l0.6-0.1
						c-4.3,0.2-4.2-0.1-7.4,0c0.1,0,0.2-0.1,0.3-0.1l-2.9,0l0.6-0.1c-2.1,0.3-6-0.4-4.7-0.1c-1.2,0.1-3.3,0.3-3.6,0.5
						c-3.1,0-0.8-0.2-2.7-0.3c-2.3,0-2.7,0.2-5.7,0.1l0.1-0.1c-1.4,0-2.3,0.1-4.3,0.2l0.6-0.1c-3.2,0.3-4-0.4-6.6,0.2
						c-1.4-0.1-3.9,0-3.8-0.3c-4,0.2-7.2,0.3-11.2,0.4c-0.6-0.5-0.9,0-3.3-0.2l0.2,0.3c-5.7,0-12.2-0.6-18.4-0.5l-0.2-0.3l-1.3,0.3
						c-6.7-0.1-15.5-0.2-20.8-0.2c-1.8,0.1-4.4,0.4-7.2,0.3l0.3,0c-4.9,0.1-10,0.3-15.3,0.1c0.3-0.1-0.2-0.2,0.4-0.3
						c-1.3,0.3-3.1,0-4.3,0l1.3,0.2c-1.5,0.2-3.7,0-4.4-0.2l-2.4,0.3c-0.2,0-0.4-0.1-0.4-0.1l-0.4,0.1l-1.3-0.3
						c-0.6,0.1-3.7,0.2-4.7,0.5c-0.2-0.1-2.5-0.2-0.7-0.3l-8.7-0.1l1.4,0.1c0.2,0.3-2.5,0.4-3.8,0.3c1.8-0.2,0.1-0.4-0.6-0.5
						c-1.2,0.1,1,0.2,0.4,0.4c-1.5,0.2-4.6,0.3-5.4,0.1l0.9-0.1c-2,0.1-3-0.3-4.9-0.3c-1.8,0.2-3.1,0-2.7,0.5
						c-2.6,0.1-1-0.3-1.8-0.3c-1.2,0.2-4.8,0.1-5.3-0.1c-1.4,0.6-7-0.2-7.5,0.3l-2.1-0.3c-0.1,0.1-0.5,0.5-2.2,0.5
						c-1.6-0.2-1.2-0.4-1.7-0.6l-1.1,0.5c-9.4-0.6-21.7-0.2-31.9-0.7c-4.6,0.1-10.3,0.4-15.7,0.3l0.6-0.1l-5.3-0.1l3.9,0.2
						c-1.2,0.1-2.1,0.2-3.2,0.2c-5.8-0.2-13.6-0.5-20.8-0.2c-4.6,0.6-3.1-0.5-7.5-0.1c0.4-0.1,0.5-0.1,0.9-0.2
						c-4.8,0.2-7.4,0.3-12.2,0.7c0.6-0.6-3.1,0-2.7-0.3l-0.4,0.2c-1.1-0.2-3.6-0.2-3.2-0.4l-2.1,0.3l-0.2-0.3
						c-2.8,0-8.8,0.2-10.3-0.3c-7,0.4-17.9,0.3-26.7,0.2c-1.2,0.2-3.8,0.2-5.8,0.2l-2.1-0.3c-2,0.1-4.2,0.5-6.1,0.3
						c0,0,0.1-0.1,0.2-0.1c-2.1,0.1-4-0.1-5.9,0.2c-2.3,0-4.4-0.2-3.8-0.5c-0.2,0.5-4.8-0.1-4.8-0.1s-115.7-1.2-144,1.5
						c-0.9,0.2-3.6,0.4-2.6,0.7c-2,0.1-3-0.3-3.4-0.1c2.8,0.2-0.9,0.6,1.8,1l-1.7,0.1c-0.4,0.2,2.4-0.2,1.9,0.1l0.5-0.5
						c1.4,0.1,2.2,0.2,2.7,0.3c1.3-0.2,2.2-0.8,5.3-0.5l-0.9,0c2.6,0,1.6,0.3,2.1,0.4l-0.6,0l2.2,0.2c-1.6-0.2-4.3,0.2-2.9,0.2
						c3.1,0.1-0.8-0.1,1.5-0.2c1.4,0,1,0.2,1,0.4l2.6,0c-0.1,0.2-1.7,0-0.7,0.2l3.2-0.2c0.6,0.5,3.5-0.3,5,0.3
						c-2.3,0.1,0.2,0.2-0.2,0.4l5.7,0c0.5,0.1-1.5,0.2-0.6,0.1c1.1,0.2,1.8-0.1,2.3-0.1c0.5,0.2,4.2,0,4.1,0.4
						c3.8,0.2,1.6-0.5,5.2-0.3c0.5,0.2-2.8,0.1-1.3,0.3l3.7-0.1c-0.3,0.1-0.7,0.4-2.1,0.3c10,0.3,15.5,1.5,24.7,1.2
						c1.3,0.3-0.9,0.2-1.9,0.3c6.7-0.3,9.4,0.6,15,0.5l0.1-0.2c7.9,0.7,17.4,0.3,26.3,0.6l-1.1-0.2c1.2-0.2,3.2-0.2,4.7-0.3
						c0.2,0.1-1.1,0.5,1.5,0.4c-0.5-0.1-1.6-0.2-1.3-0.3c7.7,0.6,23.9,0.4,36.5,0.7c17-0.2,35.5,0.3,52.3,0.1
						c-2.6,0-1.5-0.5,0.5-0.4c5.3,0.9,9.1-0.2,14.5,0.5c9.8-0.3,18.5,0.5,27.5-0.2l0.2,0.3c1.4,0.1,1.7-0.1,3.1-0.1l0,0.1
						c3.4,0.1,7.4-0.2,9.4,0l0.1-0.3c2,0,1,0.2,3.1,0.1l-0.1,0.1l2.4-0.3c-0.2,0.5,5.6,0,7.2,0.3c2.6-0.1,7.5-0.3,11.4-0.2
						c0.7,0.3,5.5,0.3,8.6,0.4c6-0.1,14.5-0.1,22.1-0.1l-0.1-0.3l2,0c0,0.1,0.2,0.1-0.1,0.1c1.5,0.4,4.6-0.1,6.2,0.1
						c-1-0.3-1.4,0-2.5-0.1c-1.6-0.2-0.1-0.5,2.1-0.3l0,0.1l1.5-0.2c0.2,0.3,1.5,0.4,1.7,0.6c6.5-0.1,11-0.5,17.7-0.4
						c-0.7,0.3,4.8-0.1,3.5,0.4c4-0.2-0.7-0.4,1.2-0.8c1.1,0,2.3-0.1,2.5,0.1c-0.5,0.1,0.9,0.3,0,0.3l2.7,0c0.3,0-0.3,0.1-0.6,0.1
						c5.5-0.3,9.8,0.3,14.7,0c0.4-0.2-2-0.1-1.6-0.2c5-0.4,4.4,0.3,9,0.1l-1,0.2c1.5-0.2,2.2-0.4,4.6-0.2c0.4,0.3-2.1,0.2-3.3,0.4
						c1.7,0,6-0.1,4.7-0.3c2-0.1,2.8,0.2,3.9,0.2c0-0.1-1.9-0.2-0.7-0.3c2.8,0.2,7,0.2,10.4,0.2c0,0.1,0.2,0.2-0.1,0.2
						C387.5,606.6,387.3,607.3,391,607.2z"/>
					<path id="XMLID_114_" class="st0" d="M570.6,605.7l-1.4,0c0,0.1-0.1,0.1-0.7,0.2L570.6,605.7z"/>
					<path id="XMLID_115_" class="st0" d="M506.1,605.5c-0.2,0-0.3,0-0.5,0.1C506,605.6,506.1,605.5,506.1,605.5z"/>
					<path id="XMLID_116_" class="st0" d="M490.5,606c1.1-0.1,0.1-0.1-0.4-0.2C490,605.9,490,605.9,490.5,606z"/>
					<path id="XMLID_117_" class="st0" d="M607.2,604.9c-0.2,0-0.4,0.1-0.3,0.1C607.2,605,607.2,605,607.2,604.9z"/>
					<path id="XMLID_118_" class="st0" d="M708.2,605.1c-0.1,0-0.2,0-0.4,0C707.8,605.1,708,605.1,708.2,605.1z"/>
					<path id="XMLID_119_" class="st0" d="M702.6,604.7c-0.3,0-0.6,0-1.1,0C701.9,604.7,702.3,604.7,702.6,604.7z"/>
					<path id="XMLID_120_" class="st0" d="M582.7,605c-0.4,0-0.7,0-1.1,0.1C582.2,605.1,582.5,605.1,582.7,605z"/>
					<path id="XMLID_121_" class="st0" d="M700.3,604.8l-1.4,0c0,0,0,0,0,0.1L700.3,604.8z"/>
					<path id="XMLID_122_" class="st0" d="M709.9,605.2c-0.5,0-1.3,0-1.8,0C708.9,605.2,709.4,605.2,709.9,605.2z"/>
					<path id="XMLID_123_" class="st0" d="M644.2,604.6c0,0-0.1,0-0.2,0C643,604.7,643.7,604.6,644.2,604.6z"/>
					<path id="XMLID_128_" class="st0" d="M694.1,605.3c-0.1,0-0.1,0-0.2,0l-0.4,0.1L694.1,605.3z"/>
					<path id="XMLID_129_" class="st0" d="M716,605.3c-0.3,0-0.5,0-0.7,0.1C715.5,605.3,715.8,605.4,716,605.3
						C716.1,605.3,716,605.3,716,605.3z"/>
					<path id="XMLID_130_" class="st0" d="M665.4,605c0.4-0.1,0.5-0.2,0.6-0.2C665.5,604.8,665.2,604.8,665.4,605z"/>
				</g>
			</g>
		</g>
	</g>
</g>
</svg>
