<?xml version="1.0" encoding="utf-8"?>
<!-- Generator: Adobe Illustrator 19.0.0, SVG Export Plug-In . SVG Version: 6.00 Build 0)  -->
<svg version="1.1" id="Layer_1" xmlns="http://www.w3.org/2000/svg" xmlns:xlink="http://www.w3.org/1999/xlink" x="0px" y="0px"
	 viewBox="-379 231 200 100" style="enable-background:new -379 231 200 100;" xml:space="preserve">
<style type="text/css">
	.st0{fill:#106174;}
	.st1{fill:#6C979E;stroke:#6C979E;stroke-width:0.25;stroke-miterlimit:10;}
</style>
<g>
	<path class="st0" d="M-344.9,264.8c0-0.4-0.1-0.6-0.6-0.7c-0.1,0-0.3,0-0.5,0c-0.1,0-0.2,0-0.2-0.1c0-0.1,0.1-0.1,0.3-0.1
		c0.7,0,1.5,0,1.9,0c0.5,0,1.3,0,1.9,0c1.6,0,2.2,0.5,2.5,0.7c0.3,0.3,0.7,0.8,0.7,1.4c0,1.7-1.4,2.9-3.2,2.9c-0.1,0-0.2,0-0.3,0
		s-0.2,0-0.2-0.1c0-0.1,0.1-0.1,0.4-0.1c0.7,0,1.8-0.8,1.8-2c0-0.4,0-1.2-0.8-1.8c-0.5-0.4-1-0.5-1.3-0.5c-0.2,0-0.4,0-0.5,0
		c-0.1,0-0.1,0.1-0.1,0.2v4.8c0,1.1,0,2.1,0.1,2.6c0,0.3,0.1,0.6,0.5,0.6c0.2,0,0.5,0,0.7,0c0.1,0,0.2,0,0.2,0.1
		c0,0.1-0.1,0.1-0.3,0.1c-0.9,0-1.7,0-2,0c-0.3,0-1.1,0-1.7,0c-0.2,0-0.3,0-0.3-0.1c0-0.1,0.1-0.1,0.2-0.1c0.2,0,0.4,0,0.5,0
		c0.3,0,0.3-0.3,0.4-0.7"/>
	<path class="st0" d="M-336.3,269.8c-0.1,0-0.1,0-0.1,0.1l-0.7,1.7c-0.1,0.3-0.2,0.6-0.2,0.7c0,0.2,0.1,0.4,0.5,0.4h0.2
		c0.2,0,0.2,0,0.2,0.1c0,0.1-0.1,0.1-0.2,0.1c-0.4,0-1,0-1.4,0c-0.1,0-0.9,0-1.6,0c-0.2,0-0.3,0-0.3-0.1c0-0.1,0.1-0.1,0.2-0.1
		c0.1,0,0.3,0,0.4,0c0.6-0.1,0.9-0.5,1.1-1.1l3.3-7.5c0.2-0.3,0.2-0.5,0.4-0.5c0.1,0,0.2,0.1,0.3,0.4c0.3,0.7,2.4,5.6,3.3,7.4
		c0.5,1.1,0.9,1.2,1.2,1.3c0.2,0,0.4,0,0.6,0c0.1,0,0.2,0,0.2,0.1c0,0.1-0.1,0.1-0.6,0.1c-0.5,0-1.4,0-2.5,0c-0.2,0-0.4,0-0.4-0.1
		c0-0.1,0.1-0.1,0.2-0.1c0.1,0,0.2-0.1,0.1-0.3l-1.1-2.5c0-0.1-0.1-0.1-0.1-0.1H-336.3z M-333.6,269.2
		C-333.6,269.2-333.6,269.2-333.6,269.2l-1.1-3c0,0,0-0.1-0.1-0.1s-0.1,0.1-0.1,0.1l-1.2,3c0,0,0,0.1,0.1,0.1H-333.6z"/>
	<path class="st0" d="M-329.4,265.1c-0.2-0.4-0.3-0.7-0.5-0.9c-0.1-0.1-0.4-0.1-0.5-0.1c-0.1,0-0.2,0-0.2-0.1c0-0.1,0.1-0.1,0.3-0.1
		c0.7,0,1.4,0,1.5,0c0.1,0,0.7,0,1.5,0c0.2,0,0.3,0,0.3,0.1c0,0.1-0.1,0.1-0.2,0.1c-0.1,0-0.2,0-0.3,0c-0.1,0-0.1,0.1-0.1,0.3
		c0,0.2,0.1,0.6,0.3,1.1c0.2,0.8,1.5,4.4,1.7,5.1h0l2.6-6.2c0.1-0.3,0.2-0.4,0.3-0.4c0.1,0,0.2,0.2,0.4,0.6l2.7,6h0
		c0.2-0.8,1.3-4,1.8-5.4c0.1-0.3,0.1-0.5,0.1-0.7c0-0.2-0.1-0.4-0.6-0.4c-0.1,0-0.2,0-0.2-0.1c0-0.1,0.1-0.1,0.3-0.1
		c0.7,0,1.3,0,1.4,0c0.1,0,0.7,0,1.1,0c0.1,0,0.2,0,0.2,0.1c0,0.1-0.1,0.1-0.2,0.1c-0.1,0-0.3,0-0.5,0.1c-0.3,0.1-0.5,0.6-0.7,1.3
		c-0.6,1.5-2,5.3-2.6,7.1c-0.1,0.4-0.2,0.6-0.4,0.6c-0.1,0-0.2-0.1-0.4-0.6l-2.7-6h0c-0.3,0.6-2,4.9-2.6,6c-0.3,0.5-0.3,0.6-0.5,0.6
		c-0.1,0-0.2-0.1-0.3-0.4L-329.4,265.1z"/>
	<path class="st0" d="M-313.9,264.8c0-0.4-0.1-0.6-0.6-0.7c-0.1,0-0.3,0-0.5,0c-0.1,0-0.2,0-0.2-0.1c0-0.1,0.1-0.1,0.3-0.1
		c0.4,0,0.7,0,1.1,0c0.3,0,0.6,0,0.8,0c0.4,0,3,0,3.3,0c0.3,0,0.5,0,0.6-0.1c0.1,0,0.1,0,0.2,0s0.1,0,0.1,0.1c0,0.1-0.1,0.2-0.1,0.8
		c0,0.1,0,0.6-0.1,0.8c0,0.1,0,0.1-0.1,0.1c-0.1,0-0.1-0.1-0.1-0.2c0-0.1,0-0.3-0.1-0.4c-0.1-0.2-0.2-0.4-0.9-0.4
		c-0.2,0-1.6,0-1.9,0c-0.1,0-0.1,0-0.1,0.1v3c0,0.1,0,0.1,0.1,0.1c0.3,0,1.8,0,2.1,0c0.3,0,0.5-0.1,0.6-0.2c0.1-0.1,0.1-0.2,0.2-0.2
		c0.1,0,0.1,0,0.1,0.1s-0.1,0.3-0.1,0.9c0,0.2-0.1,0.7-0.1,0.8c0,0.1,0,0.2-0.1,0.2c-0.1,0-0.1,0-0.1-0.1c0-0.1,0-0.3-0.1-0.4
		c-0.1-0.2-0.3-0.4-0.7-0.5c-0.3,0-1.6,0-1.9,0c-0.1,0-0.1,0-0.1,0.1v0.9c0,0.4,0,1.5,0,1.9c0,0.8,0.2,1,1.6,1c0.3,0,0.9,0,1.2-0.1
		c0.3-0.1,0.5-0.4,0.6-0.9c0-0.1,0.1-0.2,0.1-0.2c0.1,0,0.1,0.1,0.1,0.2c0,0.3-0.1,1.1-0.2,1.3c-0.1,0.3-0.2,0.3-0.7,0.3
		c-1,0-1.7,0-2.3,0c-0.6,0-1,0-1.4,0c-0.1,0-0.4,0-0.8,0c-0.3,0-0.6,0-0.9,0c-0.2,0-0.3,0-0.3-0.1c0-0.1,0.1-0.1,0.2-0.1
		c0.2,0,0.4,0,0.5,0c0.3,0,0.3-0.3,0.4-0.7"/>
	<path class="st0" d="M-305.6,264.8c0-0.4-0.1-0.6-0.6-0.7c-0.1,0-0.3,0-0.5,0c-0.1,0-0.2,0-0.2-0.1c0-0.1,0.1-0.1,0.3-0.1
		c0.4,0,0.7,0,1.1,0c0.3,0,0.6,0,0.8,0c0.4,0,3,0,3.3,0c0.3,0,0.5,0,0.6-0.1c0.1,0,0.1,0,0.2,0s0.1,0,0.1,0.1c0,0.1-0.1,0.2-0.1,0.8
		c0,0.1,0,0.6-0.1,0.8c0,0.1,0,0.1-0.1,0.1s-0.1-0.1-0.1-0.2c0-0.1,0-0.3-0.1-0.4c-0.1-0.2-0.2-0.4-0.9-0.4c-0.2,0-1.6,0-1.9,0
		c-0.1,0-0.1,0-0.1,0.1v3c0,0.1,0,0.1,0.1,0.1c0.3,0,1.8,0,2.1,0c0.3,0,0.5-0.1,0.6-0.2c0.1-0.1,0.1-0.2,0.2-0.2
		c0.1,0,0.1,0,0.1,0.1s-0.1,0.3-0.1,0.9c0,0.2-0.1,0.7-0.1,0.8c0,0.1,0,0.2-0.1,0.2c-0.1,0-0.1,0-0.1-0.1c0-0.1,0-0.3-0.1-0.4
		c-0.1-0.2-0.3-0.4-0.7-0.5c-0.3,0-1.6,0-1.9,0c-0.1,0-0.1,0-0.1,0.1v0.9c0,0.4,0,1.5,0,1.9c0,0.8,0.2,1,1.6,1c0.3,0,0.9,0,1.2-0.1
		c0.3-0.1,0.5-0.4,0.6-0.9c0-0.1,0.1-0.2,0.1-0.2c0.1,0,0.1,0.1,0.1,0.2c0,0.3-0.1,1.1-0.2,1.3c-0.1,0.3-0.2,0.3-0.7,0.3
		c-1,0-1.7,0-2.3,0c-0.6,0-1,0-1.4,0c-0.1,0-0.4,0-0.8,0c-0.3,0-0.6,0-0.9,0c-0.2,0-0.3,0-0.3-0.1c0-0.1,0.1-0.1,0.2-0.1
		c0.2,0,0.4,0,0.5,0c0.3,0,0.3-0.3,0.4-0.7"/>
	<path class="st0" d="M-297.9,272.8c-0.2-0.1-0.3-0.1-0.3-0.4c0-0.7,0.1-1.4,0.1-1.6c0-0.2,0.1-0.3,0.2-0.3c0.1,0,0.1,0.1,0.1,0.2
		c0,0.2,0.1,0.4,0.1,0.6c0.3,0.9,1.1,1.2,1.9,1.2c1.2,0,1.8-0.7,1.8-1.4c0-0.6-0.2-1.1-1.3-1.9l-0.6-0.4c-1.5-1-2-1.9-2-2.8
		c0-1.3,1.2-2.3,3-2.3c0.9,0,1.4,0.1,1.8,0.2c0.1,0,0.2,0.1,0.2,0.1c0,0.2-0.1,0.5-0.1,1.4c0,0.3,0,0.4-0.1,0.4
		c-0.1,0-0.1-0.1-0.1-0.2c0-0.1-0.1-0.5-0.3-0.8c-0.2-0.2-0.6-0.6-1.4-0.6c-1,0-1.6,0.5-1.6,1.2c0,0.6,0.3,1,1.4,1.7l0.4,0.3
		c1.6,1.1,2.2,1.9,2.2,3.1c0,0.7-0.3,1.5-1.2,2.1c-0.7,0.4-1.4,0.5-2.1,0.5C-296.8,273.1-297.4,273-297.9,272.8z"/>
	<path class="st0" d="M-287,272.9c-0.1,0-0.2-0.1-0.2-0.2c0-0.1,0.1-0.2,0.3-0.3c1.8-1.5,4.5-3.3,4.5-5.9c0-1.9-1.1-2.3-1.8-2.3
		c-0.6,0-1,0.1-1.4,0.4c-0.3,0.3-0.6,0.8-0.6,1.2c0,0.1,0,0.2-0.2,0.2c-0.1,0-0.1-0.1-0.1-0.2c0-0.1-0.1-1.1-0.1-1.5
		c0-0.1,0-0.2,0.2-0.2c0.5-0.2,1.2-0.5,2.4-0.5c2.3,0,3.3,1.2,3.3,2.6c0,2.3-2.8,4.4-4.5,5.6c-0.1,0,0,0.1,0,0.1h0.9
		c0.2,0,1.8,0,2.3-0.1c0.9-0.1,1.3-0.5,1.5-1.1c0-0.1,0.1-0.2,0.2-0.2c0.1,0,0.1,0.1,0.1,0.2c0,0.2-0.3,1.3-0.4,1.7
		c-0.1,0.3-0.3,0.4-1.1,0.4H-287z"/>
	<path class="st0" d="M-276,273.1c-2.6,0-3.3-2.7-3.3-4.4c0-2.8,1.1-5,3.5-5c2.6,0,3.3,2.5,3.3,4.4
		C-272.4,271.1-273.7,273.1-276,273.1z M-276,264.3c-1,0-1.7,1.2-1.7,4c0,2.1,0.6,4.4,2,4.4c1.1,0,1.7-1.6,1.7-4
		C-274,266.5-274.6,264.3-276,264.3z"/>
	<path class="st0" d="M-268.5,267.4c0-0.6,0-1.2,0-1.6c0-0.3,0-0.4-0.2-0.4c-0.3,0-1.2,0.5-1.5,0.6c-0.1,0-0.1,0-0.2,0
		c0,0-0.1-0.1-0.1-0.1c0-0.1,0.1-0.1,0.1-0.2c0.1,0,2.6-1.5,3-1.8c0.1-0.1,0.2-0.2,0.3-0.2c0.1,0,0.2,0.1,0.2,0.3
		c0,0.1-0.1,1.3-0.1,3.1v2.2c0,1.2,0,2.2,0.1,2.7c0,0.4,0.1,0.6,0.5,0.6c0.2,0,0.8,0.1,0.9,0.1c0.1,0,0.1,0,0.1,0.1
		s-0.1,0.1-0.2,0.1c-1,0-1.8,0-2.2,0c-0.3,0-1.4,0-2.3,0c-0.1,0-0.2,0-0.2-0.1s0.1-0.1,0.1-0.1c0.1,0,0.8,0,1.1-0.1
		c0.4-0.1,0.5-0.3,0.5-0.6c0.1-0.5,0.1-1.5,0.1-2.7L-268.5,267.4z"/>
	<path class="st0" d="M-256.7,263.9c0.2,0,0.3,0,0.3,0.1c0,0.1-0.1,0.2-0.1,0.2c-1.1,1.4-3.2,6.2-3.4,7.7c0,0.2,0,0.3,0,0.4
		c0,0.2-1.1,0.7-1.7,0.7c-0.1,0-0.2,0-0.2-0.1c0-0.1,0-0.3,0.1-0.5c0.4-1.2,2.1-4.7,3.9-7.5h-3.4c-0.4,0-0.9,0-1.2,0.2
		c-0.2,0.1-0.4,0.5-0.4,0.7c0,0.1-0.1,0.2-0.1,0.2c-0.1,0-0.1-0.1-0.1-0.2c0-0.4,0.2-1.8,0.2-2c0-0.1,0.1-0.2,0.1-0.2
		s0.4,0.1,1.8,0.1H-256.7z"/>
</g>
<g>
	<path class="st1" d="M-343.9,286.3c0,1,0,1.7,0,2.2c0,0.3,0.1,0.5,0.4,0.5c0.1,0,0.4,0,0.5,0c0.1,0,0.1,0,0.1,0.1
		c0,0,0,0.1-0.2,0.1c-0.5,0-1.2,0-1.2,0s-0.7,0-1,0c-0.1,0-0.2,0-0.2-0.1c0,0,0-0.1,0.1-0.1c0.1,0,0.2,0,0.3,0
		c0.2,0,0.2-0.3,0.3-0.5c0-0.4,0-1.2,0-2.2v-1.8c0-1.6,0-1.8,0-2.2c0-0.3-0.1-0.5-0.3-0.6c-0.1,0-0.2,0-0.3,0c0,0-0.1,0-0.1-0.1
		c0-0.1,0.1-0.1,0.2-0.1c0.3,0,1,0,1,0s0.7,0,1,0c0.1,0,0.2,0,0.2,0.1c0,0,0,0.1-0.1,0.1c-0.1,0-0.1,0-0.2,0c-0.3,0-0.3,0.2-0.4,0.6
		C-343.9,282.7-343.9,284.7-343.9,286.3L-343.9,286.3z"/>
	<path class="st1" d="M-339.2,288c0,0.7,0.1,0.9,0.3,1c0.2,0,0.4,0,0.4,0c0,0,0.1,0,0.1,0.1c0,0-0.1,0.1-0.2,0.1c-0.5,0-0.8,0-0.9,0
		c-0.1,0-0.4,0-0.8,0c-0.1,0-0.1,0-0.1-0.1c0,0,0-0.1,0.1-0.1c0.1,0,0.2,0,0.4,0c0.2-0.1,0.2-0.3,0.2-1.1v-4.9
		c0-0.3,0.1-0.4,0.1-0.4c0.1,0,0.2,0.2,0.3,0.3c0.1,0.1,1.4,1.5,2.8,2.9c0.9,0.9,1.8,1.9,2.1,2.2l-0.1-4.3c0-0.5-0.1-0.7-0.3-0.8
		c-0.2,0-0.4,0-0.4,0c-0.1,0-0.1,0-0.1-0.1c0,0,0.1-0.1,0.2-0.1c0.4,0,0.8,0,0.9,0c0.1,0,0.4,0,0.7,0c0.1,0,0.2,0,0.2,0.1
		c0,0,0,0.1-0.1,0.1c0,0-0.1,0-0.2,0c-0.3,0.1-0.3,0.2-0.3,0.7l0,5c0,0.6,0,0.6-0.1,0.6c-0.1,0-0.2-0.1-0.7-0.5
		c-0.1-0.1-1.4-1.3-2.3-2.3c-1-1.1-2-2.1-2.3-2.4L-339.2,288z"/>
	<path class="st1" d="M-328.4,283.2c0,0.8,0,5.1,0,5.4c0,0.2,0.1,0.4,0.3,0.4c0.1,0,0.3,0,0.4,0c0.1,0,0.1,0,0.1,0.1
		c0,0,0,0.1-0.1,0.1c-0.5,0-1,0-1.1,0c0,0-0.6,0-0.9,0c-0.1,0-0.1,0-0.1-0.1c0,0,0-0.1,0.1-0.1c0.1,0,0.2,0,0.3,0
		c0.2,0,0.2-0.2,0.3-0.5c0-0.3,0-1,0-1.8v-3.6l-1.3,0c-0.5,0-0.8,0.1-0.9,0.3c-0.1,0.1-0.1,0.2-0.1,0.3c0,0.1,0,0.1-0.1,0.1
		c0,0-0.1,0-0.1-0.1c0-0.1,0.2-0.8,0.2-0.9c0,0,0.1-0.2,0.1-0.2c0.1,0,0.1,0.1,0.4,0.1c0.2,0,0.6,0,0.7,0h3.3c0.3,0,0.5,0,0.6,0
		c0.1,0,0.2,0,0.2,0s0,0,0,0.1c0,0.3,0,0.9,0,1c0,0.1,0,0.1-0.1,0.1s-0.1,0-0.1-0.1l0-0.1c0-0.3-0.2-0.5-1.1-0.5L-328.4,283.2
		L-328.4,283.2z"/>
	<path class="st1" d="M-323.2,285.2c0-1.3,0-1.6,0-1.8c0-0.3-0.1-0.4-0.4-0.5c-0.1,0-0.2,0-0.3,0c0,0-0.1,0-0.1-0.1
		c0-0.1,0-0.1,0.1-0.1c0.4,0,1,0,1,0c0.1,0,1.9,0,2.1,0c0.2,0,0.3,0,0.4,0c0,0,0.1,0,0.1,0c0,0,0,0,0,0.1c0,0.1-0.1,0.2-0.1,0.4
		c0,0.1,0,0.5,0,0.6c0,0,0,0.1-0.1,0.1c0,0-0.1,0-0.1-0.1c0-0.1,0-0.2,0-0.3c-0.1-0.1-0.1-0.2-0.6-0.3c-0.1,0-1.2,0-1.3,0
		c0,0,0,0,0,0.1v2.3c0,0.1,0,0.1,0,0.1c0.1,0,1.3,0,1.5,0c0.2,0,0.3,0,0.4-0.1c0.1-0.1,0.1-0.1,0.1-0.1c0,0,0,0,0,0.1
		c0,0,0,0.2-0.1,0.5c0,0.2,0,0.5,0,0.5c0,0.1,0,0.2-0.1,0.2c0,0-0.1,0-0.1-0.1c0-0.1,0-0.2,0-0.3c0-0.1-0.1-0.2-0.4-0.3
		c-0.2,0-1.2,0-1.3,0c0,0-0.1,0-0.1,0.1v0.7c0,0.3,0,1.3,0,1.4c0,0.6,0.2,0.7,1,0.7c0.2,0,0.6,0,0.9-0.1c0.2-0.1,0.3-0.2,0.4-0.6
		c0-0.1,0-0.1,0.1-0.1c0,0,0.1,0.1,0.1,0.1c0,0.1-0.1,0.6-0.1,0.8c-0.1,0.2-0.1,0.2-0.5,0.2c-0.7,0-1.2,0-1.5,0c-0.4,0-0.6,0-0.7,0
		c0,0-0.2,0-0.4,0c-0.2,0-0.4,0-0.5,0c-0.1,0-0.1,0-0.1-0.1c0,0,0-0.1,0.1-0.1c0.1,0,0.2,0,0.3,0c0.2,0,0.2-0.2,0.2-0.4
		c0.1-0.3,0.1-1,0.1-1.8V285.2z"/>
	<path class="st1" d="M-316.7,285.2c0-1.3,0-1.6,0-1.8c0-0.3-0.1-0.4-0.4-0.5c-0.1,0-0.2,0-0.3,0c0,0-0.1,0-0.1-0.1
		c0-0.1,0-0.1,0.1-0.1c0.4,0,1,0,1,0c0.1,0,0.8,0,1.1,0c0.6,0,1.2,0,1.6,0.4c0.2,0.2,0.6,0.6,0.6,1.2c0,0.6-0.3,1.2-1.1,1.9
		c0.7,0.9,1.3,1.7,1.8,2.2c0.5,0.5,0.8,0.6,1,0.6c0.2,0,0.3,0,0.3,0s0.1,0,0.1,0.1c0,0-0.1,0.1-0.2,0.1h-0.5c-0.5,0-0.7,0-0.9-0.2
		c-0.4-0.2-0.7-0.6-1.2-1.2c-0.4-0.5-0.8-1-0.9-1.2c0,0-0.1,0-0.1,0l-1.1,0c0,0-0.1,0-0.1,0.1v0.2c0,0.8,0,1.5,0,1.8
		c0,0.2,0.1,0.4,0.4,0.4c0.1,0,0.3,0,0.4,0c0.1,0,0.1,0,0.1,0.1c0,0,0,0.1-0.1,0.1c-0.5,0-1,0-1.1,0c0,0-0.6,0-0.9,0
		c-0.1,0-0.1,0-0.1-0.1c0,0,0-0.1,0.1-0.1c0.1,0,0.2,0,0.3,0c0.2,0,0.2-0.2,0.2-0.4c0.1-0.3,0.1-1,0.1-1.8V285.2z M-315.9,286
		c0,0,0,0.1,0.1,0.1c0.1,0.1,0.6,0.1,1,0.1c0.2,0,0.4,0,0.7-0.1c0.3-0.2,0.5-0.7,0.5-1.3c0-1.1-0.6-1.7-1.5-1.7c-0.3,0-0.5,0-0.6,0
		c0,0-0.1,0-0.1,0.1V286z"/>
	<path class="st1" d="M-308.6,288c0,0.7,0.1,0.9,0.3,1c0.2,0,0.4,0,0.4,0c0,0,0.1,0,0.1,0.1c0,0-0.1,0.1-0.2,0.1c-0.5,0-0.8,0-0.9,0
		s-0.4,0-0.8,0c-0.1,0-0.1,0-0.1-0.1c0,0,0-0.1,0.1-0.1c0.1,0,0.2,0,0.4,0c0.2-0.1,0.2-0.3,0.2-1.1v-4.9c0-0.3,0.1-0.4,0.1-0.4
		c0.1,0,0.2,0.2,0.3,0.3c0.1,0.1,1.4,1.5,2.8,2.9c0.9,0.9,1.8,1.9,2.1,2.2l-0.1-4.3c0-0.5-0.1-0.7-0.3-0.8c-0.2,0-0.4,0-0.4,0
		c-0.1,0-0.1,0-0.1-0.1c0,0,0.1-0.1,0.2-0.1c0.4,0,0.8,0,0.9,0c0.1,0,0.4,0,0.7,0c0.1,0,0.2,0,0.2,0.1c0,0,0,0.1-0.1,0.1
		c0,0-0.1,0-0.2,0c-0.3,0.1-0.3,0.2-0.3,0.7l0,5c0,0.6,0,0.6-0.1,0.6c-0.1,0-0.2-0.1-0.7-0.5c-0.1-0.1-1.4-1.3-2.3-2.3
		c-1-1.1-2-2.1-2.3-2.4L-308.6,288z"/>
	<path class="st1" d="M-298.3,282.9c0.1-0.3,0.2-0.3,0.2-0.3c0.1,0,0.1,0.1,0.2,0.3c0.2,0.4,1.6,3.9,2.1,5.2
		c0.3,0.8,0.6,0.9,0.7,0.9c0.1,0,0.3,0,0.4,0c0,0,0.1,0,0.1,0.1s-0.1,0.1-0.2,0.1c-0.1,0-0.8,0-1.4,0c-0.2,0-0.3,0-0.3-0.1
		c0,0,0,0,0.1-0.1c0,0,0.1-0.1,0.1-0.2l-0.8-1.9c0,0,0,0-0.1,0h-2c0,0-0.1,0-0.1,0.1l-0.5,1.4c-0.1,0.2-0.1,0.4-0.1,0.6
		c0,0.2,0.1,0.2,0.3,0.2h0.1c0.1,0,0.1,0,0.1,0.1c0,0-0.1,0.1-0.1,0.1c-0.2,0-0.7,0-0.8,0c-0.1,0-0.5,0-0.9,0c-0.1,0-0.2,0-0.2-0.1
		c0,0,0-0.1,0.1-0.1c0.1,0,0.2,0,0.3,0c0.4,0,0.6-0.3,0.7-0.8L-298.3,282.9z M-297.3,286.5C-297.3,286.5-297.3,286.5-297.3,286.5
		l-0.8-2.4c0-0.1-0.1-0.1-0.1,0l-0.8,2.3c0,0,0,0.1,0,0.1H-297.3z"/>
	<path class="st1" d="M-291.1,283.2c0,0.8,0,5.1,0,5.4c0,0.2,0.1,0.4,0.3,0.4c0.1,0,0.3,0,0.4,0c0.1,0,0.1,0,0.1,0.1
		c0,0,0,0.1-0.1,0.1c-0.5,0-1,0-1.1,0c0,0-0.6,0-0.9,0c-0.1,0-0.1,0-0.1-0.1c0,0,0-0.1,0.1-0.1c0.1,0,0.2,0,0.3,0
		c0.2,0,0.2-0.2,0.3-0.5c0-0.3,0-1,0-1.8v-3.6l-1.3,0c-0.5,0-0.8,0.1-0.9,0.3c-0.1,0.1-0.1,0.2-0.1,0.3c0,0.1,0,0.1-0.1,0.1
		c0,0-0.1,0-0.1-0.1c0-0.1,0.2-0.8,0.2-0.9c0,0,0.1-0.2,0.1-0.2c0.1,0,0.1,0.1,0.4,0.1c0.2,0,0.6,0,0.7,0h3.3c0.3,0,0.5,0,0.6,0
		c0.1,0,0.2,0,0.2,0s0,0,0,0.1c0,0.3,0,0.9,0,1c0,0.1,0,0.1-0.1,0.1s-0.1,0-0.1-0.1l0-0.1c0-0.3-0.2-0.5-1.1-0.5L-291.1,283.2
		L-291.1,283.2z"/>
	<path class="st1" d="M-285.1,283.4c0,0.8,0,4.8,0,5.2c0,0.2,0.1,0.4,0.3,0.4c0.1,0,0.3,0,0.4,0c0,0,0.1,0,0.1,0.1
		c0,0,0,0.1-0.1,0.1c-0.5,0-1.1,0-1.1,0c0,0-0.6,0-0.9,0c-0.1,0-0.1,0-0.1-0.1c0,0,0-0.1,0.1-0.1c0.1,0,0.2,0,0.3,0
		c0.2,0,0.2-0.2,0.2-0.4c0-0.3,0-1,0-1.8v-1.5c0-1.3,0-1.6,0-1.8c0-0.3-0.1-0.4-0.3-0.5c-0.1,0-0.2,0-0.3,0c0,0-0.1,0-0.1-0.1
		c0-0.1,0-0.1,0.1-0.1c0.3,0,0.8,0,0.9,0c0,0,0.6,0,0.9,0c0.1,0,0.1,0,0.1,0.1c0,0,0,0.1-0.1,0.1c-0.1,0-0.1,0-0.2,0
		C-285,283-285.1,283.1-285.1,283.4C-285.1,283.7-285.1,282.1-285.1,283.4L-285.1,283.4z"/>
	<path class="st1" d="M-278.7,282.7c2,0,3.5,1.2,3.5,3.2c0,1.9-1.4,3.5-3.5,3.5c-2.4,0-3.4-1.8-3.4-3.3
		C-282.2,284.6-281.1,282.7-278.7,282.7z M-278.5,289c0.8,0,2.4-0.4,2.4-2.9c0-2-1.2-3.1-2.6-3.1c-1.5,0-2.5,0.9-2.5,2.8
		C-281.3,287.7-280.1,289-278.5,289z"/>
	<path class="st1" d="M-272,288c0,0.7,0.1,0.9,0.3,1c0.2,0,0.4,0,0.4,0c0,0,0.1,0,0.1,0.1c0,0-0.1,0.1-0.2,0.1c-0.5,0-0.8,0-0.9,0
		c-0.1,0-0.4,0-0.8,0c-0.1,0-0.1,0-0.1-0.1c0,0,0-0.1,0.1-0.1c0.1,0,0.2,0,0.4,0c0.2-0.1,0.2-0.3,0.2-1.1v-4.9c0-0.3,0-0.4,0.1-0.4
		c0.1,0,0.2,0.2,0.3,0.3c0.1,0.1,1.4,1.5,2.8,2.9c0.9,0.9,1.8,1.9,2.1,2.2l-0.1-4.3c0-0.5-0.1-0.7-0.3-0.8c-0.2,0-0.4,0-0.4,0
		c-0.1,0-0.1,0-0.1-0.1c0,0,0.1-0.1,0.2-0.1c0.4,0,0.8,0,0.9,0c0.1,0,0.4,0,0.7,0c0.1,0,0.2,0,0.2,0.1c0,0,0,0.1-0.1,0.1
		c0,0-0.1,0-0.2,0c-0.3,0.1-0.3,0.2-0.3,0.7l0,5c0,0.6,0,0.6-0.1,0.6c-0.1,0-0.2-0.1-0.7-0.5c-0.1-0.1-1.4-1.3-2.3-2.3
		c-1-1.1-2-2.1-2.3-2.4L-272,288z"/>
	<path class="st1" d="M-261.7,282.9c0.1-0.3,0.1-0.3,0.2-0.3c0.1,0,0.1,0.1,0.2,0.3c0.2,0.4,1.6,3.9,2.1,5.2
		c0.3,0.8,0.6,0.9,0.8,0.9c0.1,0,0.3,0,0.3,0c0,0,0.1,0,0.1,0.1s-0.1,0.1-0.2,0.1c-0.1,0-0.8,0-1.4,0c-0.2,0-0.3,0-0.3-0.1
		c0,0,0,0,0.1-0.1c0,0,0.1-0.1,0.1-0.2l-0.8-1.9c0,0,0,0-0.1,0h-2c0,0-0.1,0-0.1,0.1l-0.5,1.4c-0.1,0.2-0.1,0.4-0.1,0.6
		c0,0.2,0.2,0.2,0.3,0.2h0.1c0.1,0,0.1,0,0.1,0.1c0,0,0,0.1-0.1,0.1c-0.2,0-0.7,0-0.8,0c-0.1,0-0.5,0-0.9,0c-0.1,0-0.2,0-0.2-0.1
		c0,0,0-0.1,0.1-0.1c0.1,0,0.2,0,0.3,0c0.4,0,0.6-0.3,0.7-0.8L-261.7,282.9z M-260.7,286.5C-260.7,286.5-260.7,286.5-260.7,286.5
		l-0.8-2.4c0-0.1-0.1-0.1-0.1,0l-0.8,2.3c0,0,0,0.1,0,0.1H-260.7z"/>
	<path class="st1" d="M-255,286.8c0,1.2,0,1.8,0.2,1.9c0.1,0.1,0.5,0.2,1.2,0.2c0.5,0,0.8,0,1.1-0.3c0.1-0.1,0.2-0.3,0.2-0.5
		c0-0.1,0-0.1,0.1-0.1c0,0,0.1,0,0.1,0.1s-0.1,0.6-0.1,0.8c-0.1,0.2-0.1,0.2-0.6,0.2c-0.6,0-1.1,0-1.5,0c-0.4,0-0.7,0-1,0
		c0,0-0.2,0-0.4,0c-0.2,0-0.4,0-0.5,0c-0.1,0-0.1,0-0.1-0.1c0,0,0-0.1,0.1-0.1c0.1,0,0.2,0,0.3,0c0.2,0,0.2-0.2,0.2-0.4
		c0-0.3,0-1,0-1.8v-1.5c0-1.3,0-1.6,0-1.8c0-0.3-0.1-0.4-0.4-0.5c-0.1,0-0.2,0-0.3,0c0,0-0.1,0-0.1-0.1c0-0.1,0-0.1,0.1-0.1
		c0.4,0,0.9,0,1,0c0,0,0.7,0,1,0c0.1,0,0.1,0,0.1,0.1c0,0,0,0.1-0.1,0.1c-0.1,0-0.2,0-0.3,0c-0.3,0-0.3,0.2-0.3,0.5
		c0,0.3,0,0.5,0,1.8V286.8z"/>
	<path class="st1" d="M-344.7,300.3c-1-0.9-1.2-2-1.2-3c0-0.7,0.2-1.8,1.1-2.7c0.6-0.6,1.5-1.1,3-1.1c0.4,0,1,0,1.4,0.1
		c0.4,0.1,0.7,0.1,1,0.2c0.1,0,0.1,0,0.1,0.1c0,0.1,0,0.2,0,0.6c0,0.3,0,0.9,0,1c0,0.2,0,0.2-0.1,0.2c-0.1,0-0.1-0.1-0.1-0.2
		c0-0.4-0.2-0.8-0.4-1c-0.3-0.3-1.1-0.6-2-0.6c-1.3,0-1.9,0.4-2.3,0.7c-0.7,0.7-0.9,1.6-0.9,2.6c0,1.9,1.5,3.7,3.6,3.7
		c0.8,0,1.3-0.1,1.7-0.5c0.2-0.2,0.3-0.7,0.4-0.8c0-0.1,0-0.2,0.1-0.2c0,0,0.1,0.1,0.1,0.2c0,0.1-0.1,0.9-0.2,1.3
		c-0.1,0.2-0.1,0.2-0.3,0.3c-0.4,0.2-1.2,0.2-1.8,0.2C-342.9,301.3-343.9,301-344.7,300.3z"/>
	<path class="st1" d="M-333.6,294.7c2,0,3.5,1.2,3.5,3.2c0,1.9-1.4,3.5-3.5,3.5c-2.4,0-3.4-1.8-3.4-3.3
		C-337.1,296.6-336,294.7-333.6,294.7z M-333.4,301c0.8,0,2.4-0.4,2.4-2.9c0-2-1.2-3.1-2.6-3.1c-1.5,0-2.5,0.9-2.5,2.8
		C-336.2,299.7-335,301-333.4,301z"/>
	<path class="st1" d="M-326.9,300c0,0.7,0.1,0.9,0.3,1c0.2,0,0.4,0,0.4,0c0,0,0.1,0,0.1,0.1c0,0-0.1,0.1-0.2,0.1c-0.5,0-0.8,0-0.9,0
		s-0.4,0-0.8,0c-0.1,0-0.1,0-0.1-0.1c0,0,0-0.1,0.1-0.1c0.1,0,0.2,0,0.4,0c0.2-0.1,0.2-0.3,0.2-1.1v-4.9c0-0.3,0.1-0.4,0.1-0.4
		c0.1,0,0.2,0.2,0.3,0.3c0.1,0.1,1.4,1.5,2.8,2.9c0.9,0.9,1.8,1.9,2.1,2.2l-0.1-4.3c0-0.5-0.1-0.7-0.3-0.8c-0.2,0-0.4,0-0.4,0
		c-0.1,0-0.1,0-0.1-0.1c0,0,0.1-0.1,0.2-0.1c0.4,0,0.8,0,0.9,0c0.1,0,0.4,0,0.7,0c0.1,0,0.2,0,0.2,0.1c0,0,0,0.1-0.1,0.1
		c0,0-0.1,0-0.2,0c-0.3,0.1-0.3,0.2-0.3,0.7l0,5c0,0.6,0,0.6-0.1,0.6c-0.1,0-0.2-0.1-0.7-0.5c-0.1-0.1-1.4-1.3-2.3-2.3
		c-1-1.1-2-2.1-2.3-2.4L-326.9,300z"/>
	<path class="st1" d="M-318.1,297.2c0-1.3,0-1.6,0-1.8c0-0.3-0.1-0.4-0.4-0.5c-0.1,0-0.2,0-0.3,0c0,0-0.1,0-0.1-0.1
		c0-0.1,0-0.1,0.1-0.1c0.4,0,0.9,0,1,0c0.2,0,2.1,0,2.3,0c0.2,0,0.3,0,0.4,0c0,0,0.1-0.1,0.1-0.1c0,0,0.1,0,0.1,0.1
		c0,0.1,0,0.2-0.1,0.4c0,0.1,0,0.5,0,0.6c0,0,0,0.1-0.1,0.1s-0.1,0-0.1-0.1c0-0.1,0-0.2-0.1-0.3s-0.3-0.2-0.6-0.2l-1.4,0
		c0,0-0.1,0-0.1,0.1v2.3c0,0,0,0.1,0.1,0.1l1.2,0c0.1,0,0.3,0,0.4,0c0.2,0,0.3-0.1,0.4-0.2c0,0,0.1-0.1,0.1-0.1c0,0,0.1,0,0.1,0.1
		c0,0-0.1,0.2-0.1,0.5c0,0.2,0,0.5,0,0.6c0,0.1,0,0.2-0.1,0.2c-0.1,0-0.1,0-0.1-0.1c0-0.1,0-0.2-0.1-0.3c0-0.1-0.2-0.2-0.4-0.3
		c-0.2,0-1.3,0-1.4,0c0,0-0.1,0-0.1,0.1v0.7c0,0.8,0,1.5,0,1.8c0,0.2,0.1,0.4,0.3,0.4c0.1,0,0.3,0,0.4,0c0,0,0.1,0,0.1,0.1
		c0,0,0,0.1-0.1,0.1c-0.5,0-1.1,0-1.1,0c0,0-0.6,0-0.9,0c-0.1,0-0.1,0-0.1-0.1c0,0,0-0.1,0.1-0.1c0.1,0,0.2,0,0.3,0
		c0.2,0,0.2-0.2,0.2-0.4c0.1-0.3,0.1-1,0.1-1.8V297.2z"/>
	<path class="st1" d="M-311.8,297.2c0-1.3,0-1.6,0-1.8c0-0.3-0.1-0.4-0.4-0.5c-0.1,0-0.2,0-0.3,0c0,0-0.1,0-0.1-0.1
		c0-0.1,0-0.1,0.1-0.1c0.4,0,1,0,1,0c0.1,0,1.9,0,2.1,0c0.2,0,0.3,0,0.4,0c0,0,0.1,0,0.1,0c0,0,0,0,0,0.1c0,0.1-0.1,0.2-0.1,0.4
		c0,0.1,0,0.5,0,0.6c0,0,0,0.1-0.1,0.1c0,0-0.1,0-0.1-0.1c0-0.1,0-0.2,0-0.3c-0.1-0.1-0.1-0.2-0.6-0.3c-0.1,0-1.2,0-1.3,0
		c0,0,0,0,0,0.1v2.3c0,0.1,0,0.1,0,0.1c0.1,0,1.3,0,1.5,0c0.2,0,0.3,0,0.4-0.1c0.1-0.1,0.1-0.1,0.1-0.1c0,0,0,0,0,0.1
		c0,0,0,0.2-0.1,0.5c0,0.2,0,0.5,0,0.5c0,0.1,0,0.2-0.1,0.2c0,0-0.1,0-0.1-0.1c0-0.1,0-0.2,0-0.3c0-0.1-0.1-0.2-0.4-0.3
		c-0.2,0-1.2,0-1.3,0c0,0-0.1,0-0.1,0.1v0.7c0,0.3,0,1.3,0,1.4c0,0.6,0.2,0.7,1,0.7c0.2,0,0.6,0,0.9-0.1c0.2-0.1,0.3-0.2,0.4-0.6
		c0-0.1,0-0.1,0.1-0.1c0,0,0.1,0.1,0.1,0.1c0,0.1-0.1,0.6-0.1,0.8c-0.1,0.2-0.1,0.2-0.5,0.2c-0.7,0-1.2,0-1.5,0c-0.4,0-0.6,0-0.7,0
		c0,0-0.2,0-0.4,0c-0.2,0-0.4,0-0.5,0c-0.1,0-0.1,0-0.1-0.1c0,0,0-0.1,0.1-0.1c0.1,0,0.2,0,0.3,0c0.2,0,0.2-0.2,0.2-0.4
		c0.1-0.3,0.1-1,0.1-1.8V297.2z"/>
	<path class="st1" d="M-305.3,297.2c0-1.3,0-1.6,0-1.8c0-0.3-0.1-0.4-0.4-0.5c-0.1,0-0.2,0-0.3,0c0,0-0.1,0-0.1-0.1
		c0-0.1,0-0.1,0.1-0.1c0.4,0,1,0,1,0c0.1,0,0.8,0,1.1,0c0.6,0,1.2,0,1.6,0.4c0.2,0.2,0.6,0.6,0.6,1.2c0,0.6-0.3,1.2-1.1,1.9
		c0.7,0.9,1.3,1.7,1.8,2.2c0.5,0.5,0.8,0.6,1,0.6c0.2,0,0.3,0,0.3,0s0.1,0,0.1,0.1c0,0-0.1,0.1-0.2,0.1h-0.5c-0.5,0-0.7,0-0.9-0.2
		c-0.4-0.2-0.7-0.6-1.2-1.2c-0.4-0.5-0.8-1-0.9-1.2c0,0-0.1,0-0.1,0l-1.1,0c0,0-0.1,0-0.1,0.1v0.2c0,0.8,0,1.5,0,1.8
		c0,0.2,0.1,0.4,0.4,0.4c0.1,0,0.3,0,0.4,0c0.1,0,0.1,0,0.1,0.1c0,0,0,0.1-0.1,0.1c-0.5,0-1,0-1.1,0c0,0-0.6,0-0.9,0
		c-0.1,0-0.1,0-0.1-0.1c0,0,0-0.1,0.1-0.1c0.1,0,0.2,0,0.3,0c0.2,0,0.2-0.2,0.2-0.4C-305.3,300.2-305.3,298.1-305.3,297.2
		L-305.3,297.2z M-304.5,298c0,0,0,0.1,0.1,0.1c0.1,0.1,0.6,0.1,1,0.1c0.2,0,0.4,0,0.7-0.1c0.3-0.2,0.5-0.7,0.5-1.3
		c0-1.1-0.6-1.7-1.5-1.7c-0.3,0-0.5,0-0.6,0c0,0-0.1,0-0.1,0.1V298z"/>
	<path class="st1" d="M-297.5,297.2c0-1.3,0-1.6,0-1.8c0-0.3-0.1-0.4-0.4-0.5c-0.1,0-0.2,0-0.3,0c0,0-0.1,0-0.1-0.1
		c0-0.1,0-0.1,0.1-0.1c0.4,0,1,0,1,0c0.1,0,1.9,0,2.1,0c0.2,0,0.3,0,0.4,0c0,0,0.1,0,0.1,0c0,0,0,0,0,0.1c0,0.1-0.1,0.2-0.1,0.4
		c0,0.1,0,0.5,0,0.6c0,0,0,0.1-0.1,0.1c0,0-0.1,0-0.1-0.1c0-0.1,0-0.2,0-0.3c-0.1-0.1-0.1-0.2-0.6-0.3c-0.1,0-1.2,0-1.3,0
		c0,0-0.1,0-0.1,0.1v2.3c0,0.1,0,0.1,0.1,0.1c0.1,0,1.3,0,1.5,0c0.2,0,0.3,0,0.4-0.1c0.1-0.1,0.1-0.1,0.1-0.1c0,0,0,0,0,0.1
		c0,0,0,0.2-0.1,0.5c0,0.2,0,0.5,0,0.5c0,0.1,0,0.2-0.1,0.2c0,0-0.1,0-0.1-0.1c0-0.1,0-0.2,0-0.3c0-0.1-0.1-0.2-0.4-0.3
		c-0.2,0-1.2,0-1.3,0c0,0-0.1,0-0.1,0.1v0.7c0,0.3,0,1.3,0,1.4c0,0.6,0.2,0.7,1,0.7c0.2,0,0.6,0,0.9-0.1c0.2-0.1,0.3-0.2,0.4-0.6
		c0-0.1,0-0.1,0.1-0.1c0,0,0.1,0.1,0.1,0.1c0,0.1-0.1,0.6-0.1,0.8c-0.1,0.2-0.1,0.2-0.5,0.2c-0.7,0-1.2,0-1.5,0c-0.4,0-0.6,0-0.7,0
		c0,0-0.2,0-0.4,0c-0.2,0-0.4,0-0.5,0c-0.1,0-0.1,0-0.1-0.1c0,0,0-0.1,0.1-0.1c0.1,0,0.2,0,0.3,0c0.2,0,0.2-0.2,0.2-0.4
		c0.1-0.3,0.1-1,0.1-1.8V297.2z"/>
	<path class="st1" d="M-290.7,300c0,0.7,0.1,0.9,0.3,1c0.2,0,0.4,0,0.4,0c0,0,0.1,0,0.1,0.1c0,0-0.1,0.1-0.2,0.1c-0.5,0-0.8,0-0.9,0
		s-0.4,0-0.8,0c-0.1,0-0.1,0-0.1-0.1c0,0,0-0.1,0.1-0.1c0.1,0,0.2,0,0.4,0c0.2-0.1,0.2-0.3,0.2-1.1v-4.9c0-0.3,0.1-0.4,0.1-0.4
		c0.1,0,0.2,0.2,0.3,0.3c0.1,0.1,1.4,1.5,2.8,2.9c0.9,0.9,1.8,1.9,2.1,2.2l-0.1-4.3c0-0.5-0.1-0.7-0.3-0.8c-0.2,0-0.4,0-0.4,0
		c-0.1,0-0.1,0-0.1-0.1c0,0,0.1-0.1,0.2-0.1c0.4,0,0.8,0,0.9,0c0.1,0,0.4,0,0.8,0c0.1,0,0.2,0,0.2,0.1c0,0,0,0.1-0.1,0.1
		c0,0-0.1,0-0.2,0c-0.3,0.1-0.3,0.2-0.3,0.7l0,5c0,0.6,0,0.6-0.1,0.6c-0.1,0-0.2-0.1-0.7-0.5c-0.1-0.1-1.4-1.3-2.3-2.3
		c-1-1.1-2-2.1-2.3-2.4L-290.7,300z"/>
	<path class="st1" d="M-281.8,300.4c-0.9-0.7-1.1-1.7-1.1-2.5c0-0.6,0.2-1.6,1-2.3c0.5-0.5,1.3-0.9,2.7-0.9c0.3,0,0.8,0,1.3,0.1
		c0.3,0.1,0.6,0.1,0.9,0.1c0.1,0,0.1,0,0.1,0.1c0,0.1,0,0.2,0,0.5c0,0.3,0,0.8,0,0.9c0,0.1,0,0.2-0.1,0.2c-0.1,0-0.1-0.1-0.1-0.2
		c0-0.3-0.1-0.7-0.4-0.8c-0.3-0.3-1-0.5-1.7-0.5c-1.1,0-1.7,0.3-2,0.6c-0.7,0.6-0.8,1.4-0.8,2.2c0,1.6,1.3,3.1,3.2,3.1
		c0.7,0,1.1,0,1.4-0.4c0.2-0.2,0.3-0.5,0.3-0.7c0-0.1,0-0.1,0.1-0.1c0,0,0.1,0.1,0.1,0.1c0,0.1-0.1,0.8-0.2,1.1
		c0,0.2-0.1,0.2-0.2,0.2c-0.4,0.1-1,0.2-1.6,0.2C-280.2,301.3-281.1,301-281.8,300.4z"/>
	<path class="st1" d="M-273.8,297.2c0-1.3,0-1.6,0-1.8c0-0.3-0.1-0.4-0.4-0.5c-0.1,0-0.2,0-0.3,0c0,0-0.1,0-0.1-0.1
		c0-0.1,0-0.1,0.1-0.1c0.4,0,1,0,1,0c0.1,0,1.9,0,2.1,0c0.2,0,0.3,0,0.4,0c0,0,0.1,0,0.1,0c0,0,0,0,0,0.1c0,0.1,0,0.2-0.1,0.4
		c0,0.1,0,0.5-0.1,0.6c0,0,0,0.1-0.1,0.1c-0.1,0-0.1,0-0.1-0.1c0-0.1,0-0.2,0-0.3c-0.1-0.1-0.2-0.2-0.6-0.3c-0.1,0-1.2,0-1.3,0
		c0,0,0,0,0,0.1v2.3c0,0.1,0,0.1,0,0.1c0.1,0,1.3,0,1.5,0c0.2,0,0.3,0,0.4-0.1c0.1-0.1,0.1-0.1,0.1-0.1s0,0,0,0.1c0,0,0,0.2-0.1,0.5
		c0,0.2,0,0.5,0,0.5c0,0.1,0,0.2-0.1,0.2c0,0-0.1,0-0.1-0.1c0-0.1,0-0.2,0-0.3c0-0.1-0.1-0.2-0.4-0.3c-0.2,0-1.2,0-1.3,0
		c0,0-0.1,0-0.1,0.1v0.7c0,0.3,0,1.3,0,1.4c0,0.6,0.2,0.7,1,0.7c0.2,0,0.6,0,0.9-0.1c0.2-0.1,0.4-0.2,0.4-0.6c0-0.1,0-0.1,0.1-0.1
		s0.1,0.1,0.1,0.1c0,0.1-0.1,0.6-0.1,0.8c-0.1,0.2-0.1,0.2-0.5,0.2c-0.7,0-1.2,0-1.5,0c-0.4,0-0.6,0-0.7,0c0,0-0.2,0-0.4,0
		c-0.2,0-0.4,0-0.5,0c-0.1,0-0.1,0-0.1-0.1c0,0,0-0.1,0.1-0.1c0.1,0,0.2,0,0.3,0c0.2,0,0.2-0.2,0.2-0.4
		C-273.8,300.2-273.8,298.1-273.8,297.2L-273.8,297.2z"/>
</g>
</svg>
