<?xml version="1.0" encoding="utf-8"?>
<!-- Generator: Adobe Illustrator 19.0.0, SVG Export Plug-In . SVG Version: 6.00 Build 0)  -->
<svg version="1.1" id="Layer_1" xmlns="http://www.w3.org/2000/svg" xmlns:xlink="http://www.w3.org/1999/xlink" x="0px" y="0px"
	 viewBox="0 0 200 100" style="enable-background:new 0 0 200 100;" xml:space="preserve">
<style type="text/css">
	.st0{fill:#2D2725;}
	.st1{fill:#F2F2F2;}
	.st2{fill:#106174;}
	.st3{fill:#BDCCD4;}
</style>
<path id="XMLID_1_" class="st0" d="M77.1,23.3c0,0-9.5-2.6-10.9-3.2c-0.8-0.7-5.9-3.1-5.9-3.1s-1.9-0.7-3.3-0.5
	c-1.4,0.2-4,1.8-4.5,3.9c-1.9,2-6,6.6-10.9,6.1c4.2,1.6,9.2-3.3,9.7-3.6c-0.7,0.7-4.5,6-7.2,6.7c3,0,6.9-5.7,8.1-6.1
	c-1.9,2.6-0.3,6.6-0.3,6.6s3,6.6-0.2,11.4c-0.4,2.3-1.2,5.6-5,6.1c-3.9,0.6-15.9,2.6-24.3,11c-3.4,0.2-3.3-0.7-3.3-0.7
	s0.8,1.7,2.3,1.7c-1.9,0.3-2.1,0.4-2.9-0.1c1,0.9,2.1,0.7,2.2,0.7c0.1,0-7.2,4.5-9.6,9.9c3.7,0.1,5.6,0.4,9.2,2.7
	c4.4,2.1,11.6,0.5,11.6,0.5s-5.5,12.2-6.5,13.4c1.2,1.5,4.8,13.3,4.8,13.3h1.5c0,0-3.1-12.7-4-14c1.1-1.1,7-13.8,7-13.8l3-0.4
	c0,0,0.8,8.4,0.6,10.8c1.3,2.1,5.6,17.4,5.6,17.4h2.1c0,0-4.6-15.4-6.2-17.5c0.8-1.7,0-11.5,0-11.5s10.4-6,12.5-14.8
	c4.4-5.6,6.2-14.7,5.3-23.5c-0.9-3.9-2.2-3.8-2.4-6.3c-0.1-1.6,0.6-2.7,1.7-3.5c3.4-1.2,6.7,0.2,8.9-0.5
	C71.1,23.3,77.1,23.3,77.1,23.3z"/>
<g id="XMLID_68_">
	<path id="XMLID_69_" class="st1" d="M45.8,62.4c0,0.9,0.2,1.2,0.4,1.3c0.2,0.1,0.4,0.1,0.6,0.1c0.1,0,0.2,0,0.2,0.1
		c0,0.1-0.1,0.1-0.3,0.1c-0.8,0-1.3,0-1.5,0c-0.1,0-0.7,0-1.3,0c-0.2,0-0.3,0-0.3-0.1c0-0.1,0.1-0.1,0.2-0.1c0.2,0,0.4,0,0.5-0.1
		c0.3-0.1,0.4-0.4,0.4-1.5l0.1-7.1c0-0.2,0-0.4,0.2-0.4c0.1,0,0.2,0.2,0.4,0.4c0.1,0.2,2,2.1,3.7,3.9c0.8,0.8,2.4,2.5,2.6,2.7H52
		l-0.1-5.4c0-0.7-0.1-1-0.4-1.1c-0.2-0.1-0.5-0.1-0.6-0.1c-0.1,0-0.2,0-0.2-0.1c0-0.1,0.1-0.1,0.3-0.1c0.6,0,1.2,0,1.5,0
		c0.1,0,0.6,0,1.2,0c0.2,0,0.3,0,0.3,0.1c0,0.1-0.1,0.1-0.2,0.1c-0.1,0-0.2,0-0.4,0c-0.3,0.1-0.4,0.3-0.4,1l-0.1,7.6
		c0,0.3,0,0.4-0.2,0.4c-0.1,0-0.3-0.1-0.4-0.3c-0.8-0.7-2.3-2.3-3.5-3.5c-1.3-1.3-2.6-2.8-2.9-3h0L45.8,62.4z"/>
	<path id="XMLID_71_" class="st1" d="M56.2,60.2c0-1.7,1.2-4,4.4-4c2.7,0,4.3,1.5,4.3,3.8s-1.7,4.2-4.4,4.2
		C57.4,64.2,56.2,62,56.2,60.2z M63.4,60.4c0-2.3-1.4-3.6-3.1-3.6c-1.2,0-2.6,0.6-2.6,3.1c0,2.1,1.2,3.8,3.2,3.8
		C61.7,63.6,63.4,63.3,63.4,60.4z"/>
	<path id="XMLID_74_" class="st1" d="M67.5,57.3c-0.2-0.6-0.4-0.7-0.8-0.8c-0.2,0-0.3,0-0.4,0c-0.1,0-0.1,0-0.1-0.1
		c0-0.1,0.1-0.1,0.3-0.1c0.6,0,1.2,0,1.5,0c0.3,0,0.8,0,1.3,0c0.1,0,0.3,0,0.3,0.1c0,0.1-0.1,0.1-0.2,0.1c-0.2,0-0.3,0-0.4,0.1
		c-0.1,0-0.1,0.1-0.1,0.2c0,0.1,0.1,0.4,0.2,0.8l1.8,4.6h0c0.5-1.1,1.8-4.3,2.1-5c0-0.1,0.1-0.3,0.1-0.4c0-0.1,0-0.1-0.1-0.2
		c-0.1,0-0.3,0-0.4,0c-0.1,0-0.2,0-0.2-0.1c0-0.1,0.1-0.1,0.3-0.1c0.5,0,1,0,1.1,0c0.2,0,0.7,0,1,0c0.1,0,0.2,0,0.2,0.1
		c0,0.1-0.1,0.1-0.2,0.1s-0.3,0-0.5,0.1c-0.1,0.1-0.3,0.3-0.6,0.9c-0.4,1-0.7,1.5-1.3,2.8c-0.7,1.5-1.2,2.6-1.4,3.1
		c-0.3,0.6-0.4,0.7-0.5,0.7c-0.1,0-0.2-0.1-0.4-0.6L67.5,57.3z"/>
	<path id="XMLID_76_" class="st1" d="M77.3,59.3c0-1.5,0-1.8,0-2.2c0-0.3-0.1-0.5-0.5-0.6c-0.1,0-0.3,0-0.4,0c-0.1,0-0.2,0-0.2-0.1
		c0-0.1,0.1-0.1,0.2-0.1c0.6,0,1.2,0,1.5,0c0.3,0,2.7,0,2.9,0c0.2,0,0.4,0,0.4-0.1c0.1,0,0.1,0,0.2,0c0.1,0,0.1,0,0.1,0.1
		c0,0.1-0.1,0.2-0.1,0.7c0,0.1,0,0.6-0.1,0.7c0,0,0,0.2-0.1,0.2c-0.1,0-0.1,0-0.1-0.1c0-0.1,0-0.3-0.1-0.4c-0.1-0.2-0.2-0.3-0.7-0.4
		c-0.2,0-1.4,0-1.7,0c0,0-0.1,0-0.1,0.1v2.5c0,0.1,0,0.1,0.1,0.1c0.2,0,1.6,0,1.8,0c0.3,0,0.4,0,0.5-0.2c0.1-0.1,0.1-0.1,0.2-0.1
		s0.1,0,0.1,0.1c0,0.1,0,0.2-0.1,0.7c0,0.2,0,0.6,0,0.7c0,0.1,0,0.2-0.1,0.2c-0.1,0-0.1,0-0.1-0.1c0-0.1,0-0.2,0-0.4
		c-0.1-0.2-0.2-0.4-0.6-0.4c-0.2,0-1.4,0-1.7,0c0,0-0.1,0-0.1,0.1v0.8c0,0.3,0,1.2,0,1.5c0,0.7,0.3,0.9,1.4,0.9c0.3,0,0.7,0,1-0.1
		c0.3-0.1,0.4-0.3,0.5-0.8c0-0.1,0-0.2,0.1-0.2c0.1,0,0.1,0.1,0.1,0.2c0,0.2-0.1,0.9-0.1,1.1C81.6,64,81.5,64,81.1,64
		c-0.8,0-1.4,0-1.9,0c-0.5,0-0.9,0-1.2,0c-0.1,0-0.3,0-0.6,0c-0.3,0-0.5,0-0.7,0c-0.1,0-0.2,0-0.2-0.1c0,0,0-0.1,0.2-0.1
		c0.2,0,0.3,0,0.4,0c0.2,0,0.3-0.2,0.3-0.5c0-0.4,0-1.2,0-2.2V59.3z"/>
	<path id="XMLID_78_" class="st1" d="M85.8,56.3c0-0.2,0.1-0.3,0.2-0.3c0.1,0,0.2,0,0.3,0.3l2.8,5.7l2.8-5.8
		c0.1-0.2,0.2-0.3,0.3-0.3c0.1,0,0.2,0.1,0.2,0.3l1,6.3c0.1,0.6,0.2,0.9,0.5,1c0.3,0.1,0.5,0.1,0.6,0.1c0.1,0,0.2,0,0.2,0.1
		c0,0.1-0.1,0.1-0.3,0.1c-0.3,0-1.8,0-2.2-0.1c-0.3,0-0.3-0.1-0.3-0.1c0,0,0-0.1,0.1-0.1c0.1,0,0.1-0.1,0-0.4l-0.6-4.4h0l-2.3,4.6
		C89,63.9,89,64,88.9,64c-0.1,0-0.3-0.2-0.4-0.5c-0.3-0.5-1.1-2-1.2-2.3c-0.1-0.2-0.7-1.5-1.1-2.2h0l-0.5,4c0,0.2,0,0.3,0,0.5
		c0,0.2,0.1,0.3,0.3,0.3c0.2,0,0.3,0,0.4,0c0.1,0,0.2,0,0.2,0.1c0,0.1-0.1,0.1-0.3,0.1c-0.4,0-0.9,0-1.1,0c-0.2,0-0.7,0-1,0
		c-0.1,0-0.2,0-0.2-0.1c0,0,0.1-0.1,0.2-0.1c0.1,0,0.2,0,0.3,0c0.3,0,0.4-0.4,0.4-0.8L85.8,56.3z"/>
	<path id="XMLID_80_" class="st1" d="M97.7,59.3c0-1.5,0-1.8,0-2.2c0-0.3-0.1-0.5-0.5-0.6c-0.1,0-0.3,0-0.4,0c-0.1,0-0.2,0-0.2-0.1
		c0-0.1,0.1-0.1,0.2-0.1c0.6,0,1.2,0,1.4,0c0.5,0,1.2,0,1.6,0c1.9,0,2.2,1,2.2,1.5c0,0.8-0.6,1.4-1.2,1.8c0.9,0.3,1.9,1,1.9,2.2
		c0,1.1-0.9,2.2-2.8,2.2c-0.1,0-0.5,0-0.8,0c-0.4,0-0.7,0-0.9,0c-0.1,0-0.3,0-0.6,0c-0.3,0-0.5,0-0.7,0c-0.1,0-0.2,0-0.2-0.1
		c0,0,0-0.1,0.2-0.1c0.2,0,0.3,0,0.4,0c0.2,0,0.3-0.2,0.3-0.5c0-0.4,0-1.2,0-2.2V59.3z M99.1,59.4c0,0.1,0,0.1,0.1,0.1
		c0.1,0,0.3,0,0.5,0c0.3,0,0.6,0,0.8-0.2c0.3-0.2,0.5-0.6,0.5-1.1c0-0.7-0.4-1.5-1.3-1.5c-0.1,0-0.3,0-0.5,0c-0.1,0-0.1,0.1-0.1,0.2
		V59.4z M99.1,62.4c0,0.7,0,0.9,0.4,1c0.3,0.1,0.5,0.1,0.8,0.1c0.6,0,1.3-0.3,1.3-1.4c0-0.5-0.2-1.3-1-1.8c-0.2-0.2-0.5-0.3-0.9-0.3
		h-0.5c0,0-0.1,0-0.1,0.1V62.4z"/>
	<path id="XMLID_84_" class="st1" d="M106.1,59.3c0-1.5,0-1.8,0-2.2c0-0.3-0.1-0.5-0.5-0.6c-0.1,0-0.3,0-0.4,0c-0.1,0-0.2,0-0.2-0.1
		c0-0.1,0.1-0.1,0.2-0.1c0.6,0,1.2,0,1.5,0c0.3,0,2.7,0,2.9,0c0.2,0,0.4,0,0.4-0.1c0.1,0,0.1,0,0.2,0c0.1,0,0.1,0,0.1,0.1
		c0,0.1-0.1,0.2-0.1,0.7c0,0.1,0,0.6-0.1,0.7c0,0,0,0.2-0.1,0.2c-0.1,0-0.1,0-0.1-0.1c0-0.1,0-0.3-0.1-0.4c-0.1-0.2-0.2-0.3-0.7-0.4
		c-0.2,0-1.4,0-1.7,0c0,0-0.1,0-0.1,0.1v2.5c0,0.1,0,0.1,0.1,0.1c0.2,0,1.6,0,1.8,0c0.3,0,0.4,0,0.5-0.2c0.1-0.1,0.1-0.1,0.2-0.1
		s0.1,0,0.1,0.1c0,0.1,0,0.2-0.1,0.7c0,0.2,0,0.6,0,0.7c0,0.1,0,0.2-0.1,0.2c-0.1,0-0.1,0-0.1-0.1c0-0.1,0-0.2,0-0.4
		c-0.1-0.2-0.2-0.4-0.6-0.4c-0.2,0-1.4,0-1.7,0c0,0-0.1,0-0.1,0.1v0.8c0,0.3,0,1.2,0,1.5c0,0.7,0.3,0.9,1.4,0.9c0.3,0,0.7,0,1-0.1
		c0.3-0.1,0.4-0.3,0.5-0.8c0-0.1,0-0.2,0.1-0.2c0.1,0,0.1,0.1,0.1,0.2c0,0.2-0.1,0.9-0.1,1.1c-0.1,0.3-0.2,0.3-0.6,0.3
		c-0.8,0-1.4,0-1.9,0c-0.5,0-0.9,0-1.2,0c-0.1,0-0.3,0-0.6,0c-0.3,0-0.5,0-0.7,0c-0.1,0-0.2,0-0.2-0.1c0,0,0-0.1,0.2-0.1
		c0.2,0,0.3,0,0.4,0c0.2,0,0.3-0.2,0.3-0.5c0-0.4,0-1.2,0-2.2V59.3z"/>
	<path id="XMLID_86_" class="st1" d="M114,59.3c0-1.5,0-1.8,0-2.2c0-0.3-0.1-0.5-0.5-0.6c-0.1,0-0.3,0-0.4,0c-0.1,0-0.2,0-0.2-0.1
		c0-0.1,0.1-0.1,0.2-0.1c0.6,0,1.2,0,1.4,0c0.4,0,1.3,0,1.6,0c0.7,0,1.4,0.1,2,0.4c0.3,0.2,0.7,0.7,0.7,1.4c0,0.8-0.4,1.4-1.5,2.3
		c0.9,1.2,1.7,2.1,2.3,2.7c0.6,0.6,1,0.6,1.1,0.7c0.1,0,0.2,0,0.3,0s0.1,0.1,0.1,0.1c0,0.1-0.1,0.1-0.2,0.1h-1
		c-0.6,0-0.9-0.1-1.2-0.2c-0.5-0.2-0.9-0.7-1.4-1.5c-0.4-0.6-0.9-1.2-1-1.4c-0.1-0.1-0.1-0.1-0.2-0.1l-0.9,0c0,0-0.1,0-0.1,0.1v0.1
		c0,0.9,0,1.7,0.1,2.2c0,0.3,0.1,0.5,0.4,0.5c0.2,0,0.4,0,0.5,0c0.1,0,0.1,0.1,0.1,0.1c0,0.1-0.1,0.1-0.2,0.1c-0.6,0-1.5,0-1.6,0
		c-0.2,0-0.9,0-1.3,0c-0.1,0-0.2,0-0.2-0.1c0,0,0-0.1,0.2-0.1c0.2,0,0.3,0,0.4,0c0.2,0,0.3-0.2,0.3-0.5c0-0.4,0-1.2,0-2.2V59.3z
		 M115.3,60.1c0,0.1,0,0.1,0.1,0.2c0.2,0.1,0.5,0.1,0.8,0.1c0.4,0,0.6,0,0.7-0.2c0.3-0.2,0.7-0.7,0.7-1.5c0-1.4-1-1.8-1.6-1.8
		c-0.3,0-0.5,0-0.6,0c-0.1,0-0.1,0.1-0.1,0.1V60.1z"/>
	<path id="XMLID_89_" class="st1" d="M133.1,58c0,3.4-2.9,5.5-4.4,6.2c-0.1,0-0.1,0-0.2,0c0,0-0.1-0.1-0.1-0.1
		c0-0.1,0.1-0.2,0.1-0.2c1.2-0.8,3.1-2.7,3.1-5.6c0-2.1-0.9-3.1-1.8-3.1c-0.9,0-1.4,0.8-1.4,1.8c0,1.8,1.2,2.3,1.6,2.3
		c0.4,0,0.7-0.1,0.8-0.1c0.1-0.1,0.2-0.1,0.2-0.1s0.1,0,0.1,0.1c0,0,0,0.1-0.1,0.1c-0.3,0.4-1,0.6-1.6,0.6c-1.7,0-2.4-1.3-2.4-2.3
		c0-1.6,1.2-2.8,3.1-2.8C132,54.8,133.1,56.2,133.1,58z"/>
	<path id="XMLID_91_" class="st1" d="M139.2,60.2c0.2,0,0.4,0,0.4,0.2c0,0.2-0.2,0.2-0.5,0.3c-0.5,0.1-2.7,0.5-3.1,0.6
		c-0.2,0.1-0.4,0.2-0.5,0.2c-0.1,0-0.1-0.1-0.1-0.2l0.2-0.8c0-0.1,0.1-0.2,0.3-0.2H139.2z"/>
	<path id="XMLID_93_" class="st1" d="M144.3,58.5c0-0.6,0-1.2,0-1.6c0-0.3,0-0.4-0.2-0.4c-0.2,0-1.1,0.5-1.4,0.6c-0.1,0-0.1,0-0.2,0
		c0,0-0.1-0.1-0.1-0.1c0-0.1,0.1-0.1,0.1-0.2c0,0,2.4-1.5,2.8-1.8c0.1-0.1,0.2-0.2,0.3-0.2c0.1,0,0.1,0.1,0.1,0.3
		c0,0.1-0.1,1.3-0.1,3.1v2.2c0,1.2,0,2.2,0,2.7c0,0.4,0.1,0.6,0.5,0.6c0.2,0,0.7,0.1,0.8,0.1c0,0,0.1,0,0.1,0.1s-0.1,0.1-0.2,0.1
		c-0.9,0-1.7,0-2,0c-0.3,0-1.3,0-2.1,0c-0.1,0-0.2,0-0.2-0.1s0-0.1,0.1-0.1c0.1,0,0.7,0,1-0.1c0.4-0.1,0.4-0.3,0.5-0.6
		c0-0.5,0.1-1.5,0.1-2.7L144.3,58.5z"/>
	<path id="XMLID_95_" class="st1" d="M153.1,64.2c-2.4,0-3-2.7-3-4.4c0-2.8,1-5,3.2-5c2.4,0,3,2.5,3,4.4
		C156.3,62.2,155.1,64.2,153.1,64.2z M153,55.3c-0.9,0-1.5,1.2-1.5,4c0,2.1,0.5,4.4,1.8,4.4c1,0,1.6-1.6,1.6-4
		C154.9,57.6,154.3,55.3,153,55.3z"/>
</g>
<g id="XMLID_8_">
	<rect id="XMLID_7_" x="143.2" y="37.4" class="st2" width="13.8" height="10.6"/>
	<path id="XMLID_2_" class="st1" d="M154.9,47.1c-1.1,0-13.6,0.2-14.6-0.3c1.7-1.5,2.3-10.1,2.3-10.1h13.8
		C156.3,36.6,156,46.8,154.9,47.1z"/>
	<rect id="XMLID_5_" x="142.5" y="34.7" class="st3" width="13.8" height="1.2"/>
</g>
<g id="XMLID_11_">
	<path id="XMLID_12_" class="st2" d="M107.5,39.3c0-0.3-0.1-0.4-0.3-0.5c-0.1,0-0.2,0-0.3,0c-0.1,0-0.1,0-0.1-0.1s0.1-0.1,0.2-0.1
		c0.4,0,0.9,0,1.2,0c0.2,0,0.8,0,1.2,0c1,0,2.3,0,3.2,0.9c0.4,0.4,0.8,1.1,0.8,2c0,1-0.4,1.8-0.9,2.2c-0.4,0.4-1.2,0.9-2.7,0.9
		c-0.3,0-0.6,0-0.9,0c-0.3,0-0.6,0-0.8,0c-0.1,0-0.3,0-0.5,0c-0.2,0-0.4,0-0.6,0c-0.1,0-0.2,0-0.2-0.1c0,0,0-0.1,0.1-0.1
		c0.1,0,0.2,0,0.3,0c0.2,0,0.2-0.2,0.2-0.4 M108.5,43.5c0,0.2,0,0.5,0.1,0.6c0.1,0.2,0.4,0.3,1,0.3c0.8,0,1.4-0.2,1.8-0.6
		c0.5-0.4,0.7-1.2,0.7-2c0-1-0.4-1.7-0.8-2c-0.7-0.7-1.6-0.8-2.3-0.8c-0.2,0-0.5,0-0.5,0.1c-0.1,0-0.1,0.1-0.1,0.2"/>
	<path id="XMLID_15_" class="st2" d="M115.9,43C115.9,43,115.9,43,115.9,43l-0.4,1c-0.1,0.2-0.1,0.3-0.1,0.4c0,0.1,0.1,0.2,0.3,0.2
		h0.1c0.1,0,0.1,0,0.1,0.1c0,0.1,0,0.1-0.1,0.1c-0.2,0-0.6,0-0.8,0c-0.1,0-0.4,0-0.8,0c-0.1,0-0.1,0-0.1-0.1c0,0,0-0.1,0.1-0.1
		c0.1,0,0.1,0,0.2,0c0.3,0,0.4-0.3,0.6-0.6l1.8-4.3c0.1-0.2,0.1-0.3,0.2-0.3c0.1,0,0.1,0.1,0.2,0.2c0.2,0.4,1.3,3.2,1.8,4.2
		c0.3,0.6,0.5,0.7,0.6,0.7c0.1,0,0.2,0,0.3,0c0.1,0,0.1,0,0.1,0.1c0,0.1,0,0.1-0.3,0.1c-0.2,0-0.8,0-1.4,0c-0.1,0-0.2,0-0.2-0.1
		c0,0,0-0.1,0.1-0.1c0,0,0.1-0.1,0.1-0.2l-0.5-1.4c0,0,0,0-0.1,0H115.9z M117.4,42.6C117.5,42.6,117.5,42.6,117.4,42.6l-0.6-1.8
		c0,0,0-0.1,0-0.1c0,0,0,0,0,0.1l-0.7,1.7c0,0,0,0,0,0H117.4z"/>
	<path id="XMLID_18_" class="st2" d="M121.9,40l-1,0c-0.4,0-0.6,0.1-0.7,0.2c-0.1,0.1-0.1,0.2-0.1,0.2c0,0.1,0,0.1-0.1,0.1
		c0,0-0.1,0-0.1-0.1c0-0.1,0.1-0.8,0.2-0.8c0-0.1,0-0.1,0.1-0.1c0.1,0,0.1,0.1,0.3,0.1c0.2,0,0.5,0,0.7,0h2.9c0.2,0,0.4,0,0.5,0
		c0.1,0,0.2,0,0.2,0c0,0,0.1,0,0.1,0.1c0,0.1,0,0.6,0,0.8c0,0.1,0,0.1-0.1,0.1c-0.1,0-0.1,0-0.1-0.1l0-0.1c0-0.2-0.2-0.4-0.8-0.4
		l-0.9,0v2.8c0,0.6,0,1.2,0,1.5c0,0.2,0.1,0.3,0.3,0.4c0.1,0,0.2,0,0.3,0c0.1,0,0.1,0,0.1,0.1c0,0-0.1,0.1-0.1,0.1c-0.5,0-0.8,0-1,0
		c-0.2,0-0.6,0-0.9,0c-0.1,0-0.1,0-0.1-0.1c0,0,0-0.1,0.1-0.1c0.1,0,0.2,0,0.2,0c0.1,0,0.2-0.2,0.2-0.4c0-0.3,0-0.8,0-1.4V40z"/>
	<path id="XMLID_20_" class="st2" d="M126.8,40.1c0-0.2-0.1-0.3-0.3-0.4c-0.1,0-0.2,0-0.3,0c-0.1,0-0.1,0-0.1-0.1s0.1-0.1,0.2-0.1
		c0.4,0,0.8,0,1,0c0.2,0,1.8,0,1.9,0c0.1,0,0.2,0,0.3,0c0,0,0.1,0,0.1,0c0,0,0,0,0,0.1c0,0,0,0.1-0.1,0.4c0,0.1,0,0.4,0,0.4
		c0,0,0,0.1-0.1,0.1c0,0-0.1,0-0.1-0.1c0,0,0-0.2,0-0.2c-0.1-0.1-0.1-0.2-0.5-0.2c-0.1,0-1,0-1.1,0c0,0,0,0,0,0.1v1.7
		c0,0,0,0.1,0,0.1c0.2,0,1.1,0,1.2,0c0.2,0,0.3,0,0.3-0.1c0.1,0,0.1-0.1,0.1-0.1c0,0,0.1,0,0.1,0.1s0,0.2-0.1,0.5c0,0.1,0,0.4,0,0.5
		c0,0.1,0,0.2-0.1,0.2c0,0-0.1,0-0.1-0.1c0-0.1,0-0.2,0-0.2c0-0.1-0.1-0.2-0.4-0.3c-0.1,0-0.9,0-1.1,0c0,0,0,0,0,0.1v0.5
		c0,0.2,0,0.8,0,1c0,0.5,0.2,0.6,1,0.6c0.2,0,0.5,0,0.7-0.1c0.2-0.1,0.3-0.2,0.3-0.5c0-0.1,0-0.1,0.1-0.1c0.1,0,0.1,0.1,0.1,0.2
		c0,0.2-0.1,0.6-0.1,0.8c0,0.2-0.1,0.2-0.4,0.2c-0.5,0-1,0-1.3,0c-0.3,0-0.6,0-0.8,0c-0.1,0-0.2,0-0.4,0c-0.2,0-0.3,0-0.5,0
		c-0.1,0-0.1,0-0.1-0.1c0,0,0-0.1,0.1-0.1c0.1,0,0.2,0,0.2,0c0.1,0,0.2-0.2,0.2-0.4"/>
	<path id="XMLID_22_" class="st2" d="M132,44.7c-0.1,0-0.3-0.2-0.3-0.4c0-0.4,0-0.8,0-0.9c0-0.1,0-0.2,0.1-0.2
		c0.1,0,0.1,0.1,0.1,0.1c0,0.1,0,0.2,0.1,0.4c0.2,0.5,0.7,0.7,1.1,0.7c0.6,0,1-0.4,1-0.9c0-0.3-0.1-0.6-0.7-1l-0.4-0.2
		c-0.8-0.5-1.1-0.9-1.1-1.5c0-0.8,0.8-1.4,1.8-1.4c0.5,0,0.8,0.1,1,0.1c0.1,0,0.1,0,0.1,0.1c0,0.1,0,0.3,0,0.8c0,0.1,0,0.2-0.1,0.2
		c0,0-0.1,0-0.1-0.1c0-0.1,0-0.3-0.2-0.4c-0.1-0.1-0.3-0.3-0.8-0.3c-0.5,0-1,0.3-1,0.7c0,0.3,0.1,0.5,0.7,0.9l0.3,0.2
		c0.9,0.5,1.3,1,1.3,1.7c0,0.5-0.2,1-0.7,1.4c-0.3,0.2-0.8,0.4-1.2,0.4C132.7,45,132.4,45,132,44.7z"/>
</g>
</svg>
