<?xml version="1.0" encoding="utf-8"?>
<!-- Generator: Adobe Illustrator 19.0.0, SVG Export Plug-In . SVG Version: 6.00 Build 0)  -->
<svg version="1.1" id="Layer_1" xmlns="http://www.w3.org/2000/svg" xmlns:xlink="http://www.w3.org/1999/xlink" x="0px" y="0px"
	 viewBox="-379 231 200 100" style="enable-background:new -379 231 200 100;" xml:space="preserve">
<style type="text/css">
	.st0{display:none;}
	.st1{display:inline;}
	.st2{display:inline;clip-path:url(#SVGID_1_);}
	.st3{fill:none;}
	.st4{fill:#201F0B;}
	.st5{fill:#F2F2F2;}
	.st6{fill:#6C979E;}
	.st7{fill:#BDCCD4;}
</style>
<g class="st0">
	<defs>
		<rect id="SVGID_3_" x="-374" y="231" width="190.9" height="190.9"/>
	</defs>
	<clipPath id="SVGID_1_" class="st1">
		<use xlink:href="#SVGID_3_"  style="overflow:visible;"/>
	</clipPath>
	<g class="st2">
		<path class="st3" d="M-255.6,345.2c0-0.2,0-0.4,0-0.6C-255.6,344.8-255.6,345-255.6,345.2C-255.6,345.2-255.6,345.2-255.6,345.2z"
			/>
		<path class="st3" d="M-193.9,243.3c0.3-0.6,0.6-1.2,1-1.7c-0.4,0-0.7,0.1-1.1,0.1C-193.9,242.2-193.9,242.8-193.9,243.3z"/>
		<path class="st4" d="M-259.3,228.6c0.1-0.4-0.7-0.5-0.8-0.1c-1.1,4.5-3.1,8.9-6.7,11.9c-0.9,0.7-1.8,1.2-2.8,1.6
			c-1.4,0.6-3.2,0.1-4.7,0.4c-0.1,0-0.2,0-0.2,0.1c0.8-1.5,1.4-3,1.8-4.6c1-3.5,1.3-7.3,2-10.9c0.1-0.4-0.5-0.6-0.7-0.2
			c-1,3.4-1.8,6.9-2.7,10.3c-0.1,0.2-0.1,0.4-0.2,0.5c-0.3-0.8-0.9-1.6-1.4-2.3c-1.4-1.7-2.7-3.2-1.9-5.6c0.1-0.3-0.4-0.4-0.5-0.1
			c-0.7,1.9-0.5,3.5,0.7,5.1c0.6,0.8,1.2,1.5,1.7,2.3c0.5,0.8,0.6,1.6,0.7,2.5c-0.8,1.9-1.8,3.7-3.1,5.3c-0.6,0.5-1.1,1.1-1.5,1.6
			c0,0,0,0,0,0.1c-2.4,2.4-5,4.6-6.7,7.6c-0.3,0.5-0.5,1-0.7,1.5c-0.4-5.1-1-10.1-1.6-15.2c-1.1,0.2-2.4,0.2-3.5,0.2
			c-0.5,0-0.4-0.7,0-0.7c1.1-0.1,2.3-0.2,3.5,0c-0.5-4.7-1-9.4-1.3-14.1c-0.1-1.4-2.2-1.4-2.2,0c-0.1,1.6-0.1,3.2-0.1,4.9
			c-0.3-1.9-0.8-3.8-1.8-5.6c-0.3-0.5-0.7-0.7-1.1-0.7c-0.2-0.4-0.4-0.8-0.6-1.3c-0.5-1.1-2.4-0.3-2,0.9c0.3,1,0.7,2,0.9,3.1
			c-0.3,0.1-0.5,0.4-0.5,0.9c-0.3,5.7-0.1,11.4,0.3,17c0,0,0,0,0.1,0c1.3-0.1,2.6-0.3,3.9-0.6c0.4-0.1,0.6,0.5,0.2,0.6
			c-1.1,0.4-2.6,0.8-4,0.9c0,0.4,0,0.8,0.1,1.1c1.2,0,2.4,0.1,3.5,0.1c0.3,0,0.3,0.5,0,0.5c-1.1,0-2.3,0.2-3.5,0.2
			c0.1,2,0.3,4,0.4,6c-0.6-0.5-1.3-0.9-2-1.1c-0.8-0.2-1.7,0.5-1.4,1.4c0.4,1.1,0.9,2.2,1.5,3.3c0.3,0,0.7,0,1,0
			c0.4,0,0.4,0.6,0,0.6c-0.2,0-0.4,0-0.7,0c0.3,0.6,0.6,1.3,0.9,1.9c0.5,1,0.9,2.1,1.4,3c0.2,3.4,0.4,6.8,0.5,10.2
			c0,0.1,0,0.2,0,0.4c-2.3-2.3-5.1-3.9-7.9-5.4c0,0.1-0.1,0.1-0.2,0.1c-0.7,0.2-1.9,0.8-2.7,0.4c-0.1-0.1-0.1-0.3,0-0.4
			c0.4-0.2,0.8-0.2,1.2-0.3c0.3-0.1,0.6-0.1,0.9-0.2c-0.7-0.4-1.5-0.8-2.2-1.3c-0.1-0.1-0.3-0.2-0.4-0.2c-0.8,0.3-1.6,0.7-2.4,0.6
			c-0.1,0-0.2-0.2-0.1-0.3c0.4-0.4,1-0.7,1.6-0.9c-1.6-1.1-3.1-2.3-4.5-3.6c-0.5-0.5-0.9-1-1.3-1.5c-1.2-1.8-1.9-3.8-2.4-5.8
			c-0.1-0.3-0.2-0.6-0.2-1c0.1-0.7,0.4-1.5,0.6-2.2c0.7-2.2,1.5-4.3,1.8-6.6c0-0.1-0.2-0.2-0.2,0c-0.4,2.6-1.7,5.1-2.4,7.6
			c-0.7-3.3-1.1-6.7-1.2-10.1c0-0.3-0.5-0.3-0.5,0c-0.4,4.3-0.2,8.8,0.8,13c0.1,0.4,0.2,0.8,0.3,1.2c0,0,0,0.1,0,0.1
			c-4.1-5.4-6.9-11.7-9.1-18.2c-0.6-1.6-1.2-3.2-1.8-4.8c-0.2-0.5-0.8-0.3-0.7,0.2c2,11.5,7,22.9,16,30.7c1.4,1.3,3,2.4,4.6,3.5
			c-0.8,0.1-1.5,0.2-2.3,0.4c-3.5,1-7.4,1.7-11,1.4c-0.3,0-0.4,0.5-0.1,0.6c1.6,0.3,3.3,0.5,5,0.4c1.7-0.1,3.4-0.4,5.1-0.6
			c1.6-0.2,3.4-0.1,5,0.1c0.7,0,1.3,0.1,2,0.2c1.3,0.9,2.7,1.9,4,2.9c0.7,0.6,1.5,1.2,2.1,1.9c0.1-0.1,0.2-0.2,0.2-0.2
			c0.3-0.2,0.6,0.1,0.4,0.4c-0.1,0.1-0.2,0.2-0.2,0.3c0.8,0.8,1.4,1.7,2,2.6c0.1,0.2,0.3,0.5,0.4,0.7c0,2.8-0.1,5.6-0.2,8.4
			c0.9,0,1.8,0,2.7,0c0.2,0,0.2,0.3,0,0.3c-0.9,0.3-1.8,0.4-2.8,0.4c0,0.5,0,1.1-0.1,1.6c1,0.1,2,0.1,3,0.4c0.1,0,0.1,0.2,0,0.3
			c-0.9,0.2-2,0.3-3,0.2c0,0.4,0,0.8-0.1,1.2c0.2,0,0.4,0,0.5,0c1,0,2-0.1,3,0.2c0.2,0.1,0.2,0.3,0,0.4c-1.1,0.4-2.4,0.3-3.6,0.2
			c-0.3,6.5-0.7,13.1-1.1,19.6c2.2-0.1,4.5-0.1,6.6,0.3c0.1,0,0.1,0.2,0,0.2c-2.1,0.4-4.5,0.2-6.7,0.1c-0.1,2.1-0.3,4.2-0.4,6.3
			c-0.3,6.3-0.7,12.6-1.1,18.9c1.2,0,2.4,0,3.5,0.4c0.2,0.1,0.2,0.4-0.1,0.4c-1.1,0.1-2.3,0.1-3.5,0c0,0.3,0,0.7-0.1,1
			c1.6,0.1,3.3,0.1,4.9,0.4c0.2,0,0.2,0.3,0,0.3c-1.6,0.3-3.3,0.3-4.9,0c-0.2,4.2-0.5,8.5-0.7,12.7c-0.2,4.2-0.3,8.4-0.4,12.6
			c1,0,2.1,0.1,3.1,0.3c0.3,0.1,0.3,0.5,0,0.5c-1,0.2-2,0.2-3.1,0.2c0,1,0,2,0,3c1.2,0,2.4,0.1,3.6,0.4c0.2,0.1,0.2,0.4,0,0.5
			c-1.1,0.4-2.4,0.4-3.6,0.3c0,2.8,0,5.6,0,8.3c0,3,0.2,5.8,0.9,8.7c0.3,1.2,2.2,1.2,2.4,0c0.3-1.3,0.5-2.5,0.6-3.8
			c0.1,0.6,0.2,1.3,0.3,1.9c0.1,0.6,0.8,0.7,1.2,0.4c0.2,1.1,0.4,2.3,0.8,3.4c0.2,0.7,0.7,1,1.3,1.1c0,0.9,0.1,1.8,0.1,2.7
			c0.1,2.1,2.9,1.9,3.1,0c1-7.6,0.2-15.3-0.3-22.9c-0.2-2.4-0.3-4.8-0.4-7.1c-2.4,0.3-5.1,0.2-7.4-0.4c-0.2-0.1-0.2-0.4,0.1-0.4
			c1.6-0.2,3.2,0.1,4.7,0.2c0.9,0,1.7,0.1,2.6,0c0-1.1-0.1-2.3-0.1-3.4c-1.9,0.3-4.2,0.7-6.1,0.2c-0.2,0-0.2-0.4,0-0.4
			c1-0.2,2.1-0.2,3.1-0.2c1,0,2-0.1,3-0.2c0-0.6,0-1.2,0-1.8c-1.6,0.3-3.4,0.7-5,0.5c-0.2,0-0.3-0.3-0.1-0.4c1.6-0.5,3.4-0.5,5-0.6
			c0-1.6,0.1-3.1,0.2-4.7c0.2-2.6,0.4-5.2,0.5-7.8c0-0.5,0-0.9,0.1-1.4c0.4-5.5,0.8-11.1,1.3-16.6c-1.1,0.3-2.4,0.1-3.5,0
			c-1.2-0.1-2.5-0.3-3.7-0.3c-0.2,0-0.2-0.2,0-0.3c1.4-0.1,2.8-0.1,4.1-0.1c1,0,2.1-0.1,3.1,0.3c0-0.6,0.1-1.1,0.1-1.7
			c-0.8,0-1.5,0.1-2.3,0.1c-1,0-1.9,0-2.8-0.4c-0.2-0.1,0-0.3,0.1-0.3c1.2,0.2,2.3,0.2,3.5,0.1c0.5,0,1-0.1,1.5-0.1
			c0.3-4.3,0.6-8.5,0.8-12.8c-2.3,0-4.7-0.1-7-0.2c-0.1,0-0.1-0.1,0-0.1c2.3-0.2,4.7-0.6,7-0.2c0.1-2.9,0.3-5.8,0.3-8.7
			c0.1-4.8,0.1-9.6,0-14.4c-1.5,0.2-3.2,0.2-4.5-0.4c-0.2-0.1-0.1-0.4,0.1-0.4c1.4-0.2,3,0,4.4,0c0-1.2,0-2.4-0.1-3.5
			c-1.9,0.4-3.8,0.5-5.7,0.1c-0.2,0-0.2-0.3,0-0.3c1.9-0.3,3.8-0.1,5.6-0.3c-0.1-3.8-0.1-7.6-0.1-11.5c-0.8,0-1.6,0-2.4,0
			c-0.4,0-0.4-0.6,0-0.6c0.8,0,1.6,0,2.4-0.1c0-0.9,0-1.8,0-2.6c-1.1,0-2.1-0.2-3.1-0.2c-0.4,0-0.4-0.6,0-0.6c1,0,2,0,3,0
			c0-1.2,0-2.4-0.1-3.6c0-0.4,0-0.7,0-1.1c0-0.1,0.1-0.2,0.1-0.3c-0.5-0.5-1-1-1.4-1.5c-0.3-0.3,0.2-0.8,0.5-0.5
			c0.4,0.3,0.8,0.7,1.2,1c0.1-0.7,0.2-1.4,0.4-1.9c0.4-1.5,0.9-3.1,1.6-4.5c0.7-1.5,1.7-2.8,2.8-4.1c1.2-1.5,2.8-2.7,4.1-4.1
			c0.4-0.5,0.8-0.9,1.2-1.4c1.3-1,2.5-1.5,4.1-1.7c2.4-0.3,4.6-1.2,6.5-2.7C-261.8,238-259.8,233.1-259.3,228.6z M-291.6,338.1
			c0.9-0.2,1.9-0.1,2.8-0.1c0.4,0,0.4,0.6,0,0.6c-0.9,0-1.9,0.1-2.8-0.1C-291.8,338.5-291.8,338.2-291.6,338.1z"/>
		<path class="st4" d="M-185.6,295.6c1.1-2.8,1.8-5.9,2.5-8.8c0.1-0.6-0.7-0.9-0.9-0.3c-1,3-1.9,6-3.2,8.8c-1.1,2.6-3.1,4.3-5.2,6
			c-0.4,0.1-0.8,0.4-1.1,0.8c0,0.1-0.1,0.2,0,0.2c0,0-0.1,0.1-0.1,0.1c0.1-0.7,0.2-1.5,0.3-2.2c0.2-1.5,0.4-3,0.5-4.5
			c-1.8-0.2-3.5-0.6-5.1-0.8c-0.3,0-0.4-0.6,0-0.6c1.6,0.1,3.3,0.3,4.9,0.5c0.1,0,0.2,0,0.3,0c0.1-0.6,0.1-1.2,0.2-1.8
			c-1.6-0.1-3.2-0.2-4.7-0.2c-0.3,0-0.3-0.5,0-0.5c1.6,0,3.2,0,4.8,0c0.1-0.6,0.1-1.3,0.2-1.9c-0.7,0-1.3,0-2,0
			c-0.3,0-0.3-0.4,0-0.4c0.7,0,1.3,0,2,0c0.6-8.2,0.7-16.4,0.5-24.7c0-0.8,0-1.5-0.1-2.3c-1.3,0-2.6,0-3.8,0c-0.3,0-0.3-0.5,0-0.5
			c1.3,0,2.5-0.1,3.8-0.1c0-0.6-0.1-1.2-0.1-1.8c-1.8,0-3.6,0-5.4,0c-0.4,0-0.4-0.7,0-0.7c1.8,0,3.6-0.1,5.3-0.2
			c-0.3-3.3-0.6-6.6-1-9.9c-1.3,0-2.6-0.1-3.9-0.2c-0.4,0-0.4-0.6,0-0.6c1.3,0,2.5,0,3.8,0c0-0.2,0-0.3-0.1-0.5c0-0.1,0-0.3,0-0.4
			c0.3-1.3,0.7-2.5,1.2-3.8c1.1-2.5,2.3-5,3.6-7.5c0.3-0.6-0.5-1.1-0.9-0.5c-1,1.6-2.1,3.1-3.1,4.7c0.2,0,0.4,0,0.6,0.1
			c0.2,0,0.2,0.3,0,0.4c-0.3,0-0.6,0.1-0.9,0.1c-0.3,0.6-0.7,1.1-1,1.7c0-0.5-0.1-1.1-0.1-1.6c-0.7,0-1.4,0.1-2.1,0.1
			c-0.4,0-0.4-0.6,0-0.6c0.7,0,1.4-0.1,2.1-0.1c-0.2-3.1-0.3-6.2-0.3-9.2c0-1.3-1.9-1.5-2.2-0.3c-0.2,0.8-0.4,1.6-0.5,2.4
			c-0.1-1.8-0.2-3.6-1-5.1c-0.4-0.7-1.4-0.6-1.8,0c-0.2,0.3-0.3,0.6-0.5,1c-0.6-0.2-1.3,0.2-1.4,1c-0.5,3.8-0.2,7.7-0.1,11.6
			c0.1,2.7,0.2,5.4,0.3,8.1c-1.9-1.5-4.2-2.6-6.2-4.1c-2.2-1.7-3.8-3.7-4.9-6.2c-1.3-2.8-1.5-6-1.6-9c0-0.5-0.7-0.5-0.7,0
			c-0.1,3-0.2,6,0.5,9c0.5,2.2,1.6,4.2,3.1,5.8c-2-0.7-4.1-1-6.2-1.7c-0.4-0.3-0.8-0.5-1.1-0.9c-0.9-1-1.3-2.3-1.3-3.6
			c0-0.3-0.4-0.3-0.4,0c-0.1,1.4,0.1,2.6,0.8,3.8c-2.1-1.1-4-2.8-4.3-5.2c0-0.4-0.6-0.4-0.6,0c0.2,3.1,2,5,4.7,6.4
			c1,0.5,2.2,0.9,3.3,1.3c1.7,0.8,3.6,1.2,5.3,2c2.1,1,4.3,2.5,5.9,4.2c1.2,1.3,2.3,2.5,3.1,4.1c0.5,1,0.7,2.1,1.1,3.1
			c0,1.5,0.1,3,0.1,4.5c-0.6-1-1.2-2-1.9-3c-0.8,0-1.5,0-2.3,0c-0.4,0-0.4-0.6,0-0.6c0.6,0,1.2,0,1.8,0c-0.9-1.2-1.9-2.2-3.2-3.1
			c-0.6-0.4-1.4,0.1-1.4,0.8c0,2.2,0.7,4.2,1.7,6.1c0.5,0,0.9,0,1.4,0c0.4,0,0.4,0.6,0,0.6c-0.3,0-0.6,0-1,0.1
			c0.4,0.8,0.9,1.5,1.3,2.3c0.3,0,0.6,0,0.9,0c0.4,0,0.4,0.6,0,0.6c-0.2,0-0.4,0-0.5,0c0.2,0.3,0.4,0.6,0.5,0.9
			c0.9,1.5,1.8,3.1,2.8,4.5c0,1.1,0,2.3,0,3.4c0,2.8,0,5.7-0.1,8.5c0.7,0,1.4,0.1,2.1,0.1c0.3,0,0.3,0.5,0,0.5c-0.7,0-1.4,0-2.1,0
			c-0.1,3.9-0.2,7.9-0.4,11.8c1.8,0.1,3.6,0.2,5.4,0.2c0.4,0,0.4,0.6,0,0.6c-1.8,0-3.6,0.1-5.5,0.1c-0.1,1.6-0.2,3.3-0.2,4.9
			c2.1,0.2,4.2,0.4,6.3,0.4c0.4,0,0.4,0.7,0,0.7c-2.1,0.1-4.3,0-6.4-0.2c-0.3,4.8-0.6,9.7-1.1,14.5c0.6,0,1.2,0.1,1.9,0.1
			c0.5,0,0.5,0.8,0,0.8c-0.6,0-1.3,0-1.9,0.1c-0.1,0.6-0.1,1.2-0.2,1.9c0.7,0,1.4,0.1,2.1,0.1c0.3,0,0.3,0.5,0,0.5
			c-0.7,0-1.5,0.1-2.2,0.1c0,0.2,0,0.4-0.1,0.6c-0.1,0.7-0.1,1.3-0.2,2c1,0.1,2,0.2,2.9,0.2c0.4,0,0.5,0.7,0,0.7c-0.9-0.1-2,0-3-0.1
			c-0.7,5.7-1.6,11.3-2.5,16.9c2.4,0.1,4.7,0.2,7.1,0.3c0.4,0,0.4,0.7,0,0.7c-2.4,0-4.8,0-7.2-0.1c-0.4,2.5-0.8,5-1.1,7.4
			c1.9,0.2,3.8,0.3,5.7,0.4c0.3,0,0.3,0.4,0,0.4c-1.9,0.1-3.9,0-5.8-0.1c-0.2,1.1-0.3,2.2-0.5,3.3c1,0.1,2.1,0.2,3.1,0.3
			c0.5,0,0.5,0.8,0,0.8c-1.1-0.1-2.1-0.1-3.2-0.2c0,0.2,0,0.3-0.1,0.5c-0.7,5.4-1.1,10.9-0.9,16.4c0.1,2.7,0.4,5.4,0.9,8.1
			c0.5,2.6,1.3,5.4,2.8,7.6c0.8,1.2,2.2,1,2.9,0.1c0.1,0.2,0.2,0.5,0.4,0.7c0.6,1.1,2.3,0.6,2.3-0.6c0-3.3-0.1-6.7-0.1-10
			c0-3.4,0.3-6.9,0.5-10.3c0,0,0,0,0-0.1c-1.8-0.2-3.6-0.4-5.3-0.5c-0.4,0-0.4-0.7,0-0.7c1.8,0.1,3.6,0.2,5.4,0.3
			c0.1-1.4,0.2-2.7,0.2-4.1c-2.2-0.1-4.4,0-6.6,0.2c-0.4,0-0.4-0.6,0-0.6c2.2-0.3,4.4-0.4,6.6-0.4c0.3-5.5,0.4-10.9,0.7-16.4
			c0.4-7.6,0.9-15.1,1.7-22.7c0.1-1.2,0.3-2.5,0.4-3.7c-0.8,0-1.7,0-2.5-0.1c-0.4,0-0.4-0.6,0-0.6c0.9,0,1.7-0.1,2.6-0.1
			c0.5-4.1,1.1-8.2,1.6-12.3c0.7-1.3,1.7-2.3,2.7-3.3c0.8,0,1.5,0.1,2.3,0.2c1.7,0.2,3.1-0.3,4.3-1.4c0.4-0.4-0.1-1-0.6-0.7
			c-1.5,0.9-2.8,0.8-4.4,0.5C-188,299.9-186.6,298-185.6,295.6z"/>
		<path class="st4" d="M-334,239.8c-1.4,2.8-3.7,3.8-6.3,5.3c-0.7,0.4-1.3,0.9-1.9,1.5c1.3-4.2,1.4-8.7,2.5-12.9
			c0.1-0.5-0.5-0.6-0.7-0.2c-1.6,4.5-2.1,9.3-3.7,13.8c-0.8,2.5-2.2,4.7-3.7,6.7c0.2-1.1,0.3-2.1,0.3-3.1c0.1-3.5-0.6-7-0.7-10.5
			c0-0.2-0.3-0.2-0.3,0c0,3.1,0.3,6.1,0.3,9.2c0,1.6-0.3,3.2-0.7,4.8c-0.3,0.9-0.6,1.6-1.1,2.4c-0.4,0.4-0.7,0.9-1.1,1.3
			c-1.3,1.5-2.3,3.1-3.5,4.7c-1.2,1.5-2.4,3.1-3.5,4.7c0-0.4,0-0.9,0-1.3c-0.1-7.4-0.2-14.8-0.2-22.2c-0.6,0-1.2-0.1-1.7-0.2
			c-0.4,0-0.4-0.5,0-0.6c0.6-0.1,1.1-0.1,1.7-0.2c0-0.8,0-1.5,0-2.3c-0.7,0-1.4-0.1-2.1-0.2c-0.3,0-0.3-0.5,0-0.5
			c0.7-0.1,1.4-0.2,2.1-0.2c0-5.5,0-10.9,0-16.4c0-1.3-1.9-1.3-2.1,0c-0.1,0.9-0.2,1.9-0.2,2.8c-0.4-0.8-1.7-0.7-1.8,0.4
			c-0.7,6.8-0.7,13.7-0.7,20.6c-1.1-1-2.4-1.8-3.8-2.3c-0.4-0.1-0.8-0.3-1.1-0.4c-0.1,0.2-0.2,0.4-0.3,0.6c-0.1,0.4-0.7,0.2-0.6-0.2
			c0.1-0.2,0.1-0.5,0.2-0.7c-0.1,0-0.3-0.1-0.4-0.1c-0.2-0.3-0.5-0.6-0.7-0.8c-0.7-0.9-1.3-2-1.5-3.2c0-0.3-0.5-0.3-0.5,0
			c-0.1,1.1,0.1,2,0.5,3c0,0.1,0.1,0.1,0.1,0.2c-0.9-0.4-1.8-1-2.7-1.7c-2-1.8-3.1-4.4-3.7-7c-0.1-0.4-0.8-0.3-0.8,0.1
			c0.3,2.4,1,4.7,2.4,6.7c1.4,1.9,3.4,3.4,5.5,4.4c0.8,0.4,1.7,0.7,2.5,1c0.1-0.1,0.2-0.2,0.3-0.4c0.2-0.3,0.6,0.1,0.5,0.4
			c0,0.1-0.1,0.2-0.2,0.3c1.1,0.5,2.1,1,2.9,1.9c0.5,0.6,0.9,1.3,1.2,2c0,2.1,0,4.3,0,6.4c-0.5-0.5-1.2-0.8-1.9-0.9
			c-2.5-0.3-4.9,0.4-6.4-2.2c-0.1-0.2-0.4,0-0.3,0.2c1.1,2.2,2.8,2.6,5.1,2.7c0.9,0,2,0.1,2.7,0.7c0.4,0.3,0.6,0.6,0.8,1
			c0,1,0,1.9,0,2.9c0.3,0,0.6,0.1,0.9,0.1c0.5,0,0.5,0.7,0,0.7c-0.3,0-0.6,0.1-0.9,0.1c0,3.6,0,7.1,0,10.7c0,7.8,0,15.7,0,23.5
			c0.3,0,0.6,0.1,0.9,0.1c0.4,0,0.4,0.6,0,0.6c-0.3,0-0.6,0.1-0.9,0.1c0,5.6,0,11.2,0,16.8c0.5,0,1,0.1,1.3,0.1c0.5,0,0.5,0.7,0,0.7
			c-0.4,0-0.9,0-1.3,0c0,1,0,1.9,0,2.9c0,0,0.1,0,0.1,0c0.3,0,0.3,0.5,0,0.5c0,0-0.1,0-0.1,0c0,0.5,0,1,0,1.4c0,5,0,10,0,15
			c0.4,0,0.7,0,1.1,0c0.6,0,1.2-0.1,1.7,0c0.2,0,0.2,0.3,0,0.4c-0.8,0.4-1.9,0.4-2.8,0.3c0,0.8,0,1.6,0,2.4c0.5,0,1,0,1.4,0
			c0.1,0,0.2,0.2,0,0.2c-0.5,0.1-1,0.2-1.5,0.2c0,5.2,0,10.4,0,15.6c0,0,0.1-0.1,0.2-0.1c0.7,0,1.4-0.1,2,0.1c0.1,0,0.1,0.2,0,0.3
			c-0.7,0.2-1.4,0.1-2,0.1c-0.1,0-0.1,0-0.2-0.1c0,0.1,0,0.1,0,0.2c0,5.3-0.1,10.7-0.1,16c1.5,0.1,3.1,0,4.5,0.3
			c0.2,0,0.2,0.4,0,0.4c-1.4,0.3-3,0.2-4.5,0c0,3.3,0.1,6.7,0.3,10c0.5,0,1,0,1.5,0.1c0.2,0,0.2,0.3,0,0.3c-0.5,0.1-1,0.1-1.5,0.1
			c0.1,2.7,0.3,5.3,0.6,8c0,0.1,0,0.2,0.1,0.3c0.1,1.7,0.1,3.5,0.4,5.2c0.3,1.7,1,3.3,1.9,4.7c0.9,1.4,3.1,0.5,2.7-1.1
			c-0.8-3.5-0.8-7.1-0.8-10.7c-0.1-3.1-0.1-6.2-0.1-9.3c-1,0-2-0.2-3-0.2c-0.3,0-0.3-0.4,0-0.4c1-0.1,2-0.1,3,0c0-0.5,0-1.1,0-1.6
			c0-3.3,0.1-6.7,0.1-10c-1,0.1-2.1,0-3.1-0.1c-0.2,0-0.2-0.4,0-0.4c1,0,2.1-0.1,3.1-0.2c0-0.8,0-1.6,0.1-2.4
			c-1.2-0.1-2.4-0.2-3.5-0.2c-0.2,0-0.2-0.3,0-0.3c1.2,0,2.4-0.1,3.5,0c0.1-3.1,0.2-6.3,0.3-9.4c0-0.4,0-0.8,0-1.2
			c-0.9,0-1.8-0.1-2.6-0.2c-0.2,0-0.2-0.3,0-0.3c0.8,0,1.7-0.1,2.6,0c0-1,0.1-2,0.1-3.1c-0.7,0-1.4,0-2.1,0c-0.3,0-0.3-0.5,0-0.5
			c0.7,0,1.4,0,2.1,0c0.2-5.9,0.3-11.8,0.3-17.7c0-0.1,0-0.1,0-0.2c-1.1,0-2.3,0-3.4-0.2c-0.2,0-0.2-0.2,0-0.2
			c1.1-0.1,2.3-0.2,3.4-0.2c0-1.7-0.1-3.4-0.2-5.1c-1,0-2-0.1-3-0.2c-0.3,0-0.3-0.5,0-0.5c0.9-0.1,1.9-0.2,2.9-0.2
			c-0.3-5.4-0.8-10.8-1-16.2c-0.1-1.7-0.1-3.4-0.1-5.2c-0.8-0.1-1.5-0.2-2.2-0.6c-0.2-0.1-0.1-0.3,0.1-0.4c0.7-0.1,1.4-0.1,2.1-0.1
			c0-2.7,0.1-5.3,0.2-8c0.1-0.5,0.3-0.9,0.5-1.4c0.6-1.5,1.5-2.8,2.4-4.1c0.4-0.6-0.2-1.4-0.9-1.1c-0.6,0.2-1.2,0.5-1.8,0.8
			c0-0.2,0-0.4,0-0.6c0.1-1.7,0.1-3.3,0.1-5c-0.7-0.1-1.5-0.2-2-0.2c-0.3,0-0.3-0.3-0.1-0.4c0.7-0.3,1.4-0.3,2.1-0.3
			c0-0.9,0-1.8,0-2.7c-0.5,0-0.9,0-1.4,0c-0.4,0-0.4-0.5,0-0.6c0.4,0,0.9-0.1,1.4-0.1c0-1.5,0-3.1,0-4.6c0-0.2,0.1-0.4,0.2-0.5
			c0.6-1.7,1.5-3.3,2.5-4.9c1-1.6,2-3.1,3-4.8c0.1-0.2,0.3-0.5,0.4-0.7c-0.1-0.1-0.1-0.2-0.2-0.3c-0.1-0.3,0.3-0.5,0.5-0.4
			c0,0,0,0,0.1,0c0.8-1.4,1.5-2.8,2.6-4.1c1.2-1.5,2.5-2.9,3.7-4.5c0.9-1.2,1.5-2.5,2.1-3.9c0.4-0.6,0.8-1.2,1.2-1.7
			c0.8-1.1,2-1.8,3.1-2.5c0.9-0.6,1.9-1.1,2.7-1.8c1.1-0.8,1.8-2,2.3-3.2C-333.7,239.8-334,239.7-334,239.8z M-360.6,332.6
			c0.9,0.1,1.8,0,2.7,0.2c0.1,0,0.1,0.2,0,0.3c-0.9,0.2-1.9,0.1-2.8-0.1C-360.8,332.9-360.8,332.6-360.6,332.6z"/>
		<path class="st4" d="M-223.1,259.2c-2.7-0.3-4.7-2.1-7-3.3c-0.1-0.1-0.3-0.1-0.5-0.2c0.2,0,0.4-0.1,0.7-0.1
			c2.3-0.4,4.3-1.1,6.1-2.7c0.3-0.2-0.1-0.7-0.4-0.5c-1.5,1-3.1,1.4-4.8,1.7c1.4-1.1,2.4-2.4,3.4-3.8c0.2-0.3-0.3-0.7-0.5-0.4
			c-1.1,1.1-2.3,2.2-3.5,3.2c-0.5,0.4-1.1,0.9-1.7,1.3c-1.8,0.2-3.7,0.3-5.4,0.8c2.4-2.7,5-5.1,6.7-8.4c2.2-4.2,2.4-8.6,1.7-13.2
			c-0.1-0.5-0.9-0.4-0.8,0.1c0.7,9.2-4,17.6-11.2,23.1c-0.2,0.1-4.6,3-7,8.6c-0.4-3.2-0.8-6.3-1.2-9.5c-1.7,0-3.5-0.3-5.2-0.5
			c-0.2,0-0.2-0.4,0-0.4c1.7,0.1,3.4,0.1,5.1,0.1c-0.2-1.2-0.3-2.4-0.4-3.7c-0.2,0-0.4,0-0.6,0c-0.3,0-0.3-0.4,0-0.4
			c0.2,0,0.4,0,0.6,0c0-0.2,0-0.3-0.1-0.5c-0.9,0-1.9,0-2.8,0c-0.2,0-0.2-0.4,0-0.4c0.9,0,1.8-0.1,2.7-0.2c0-0.3-0.1-0.5-0.1-0.8
			c-0.2-1.7-0.3-3.5-0.4-5.2c-0.9-0.1-1.7-0.2-2.6-0.3c-0.3,0-0.2-0.5,0.1-0.4c0.8,0.1,1.7,0.2,2.5,0.2c-0.1-1.5-0.1-3-0.1-4.5
			c0-3.5,0.3-6.9,0.1-10.4c-0.1-0.8-1.3-1.3-1.7-0.5c-0.1,0.1-0.1,0.3-0.2,0.4c-0.3,0-0.5,0.2-0.7,0.5c-1.6,3.2-1.9,6.8-2.3,10.4
			c-0.4,3.6-0.6,7.3-0.7,11c-0.1,3.3-0.1,6.6,0,9.9c0.9,0,1.8,0,2.7,0.3c0.2,0.1,0.2,0.4,0,0.5c-0.8,0.2-1.7,0.3-2.7,0.3
			c0.1,3.7,0.3,7.3,0.6,11c0.5,7.5,0.7,14.9,0.3,22.4c1.2,0.1,2.5,0.2,3.6,0.3c0.3,0,0.3,0.5,0,0.5c-1.2,0-2.5,0.1-3.7,0
			c0,0.8-0.1,1.7-0.1,2.5c0.9,0,1.7,0.1,2.6-0.1c0.4-0.1,0.6,0.5,0.2,0.6c-0.9,0.2-1.8,0.3-2.8,0.3c-0.4,6.1-1,12.3-1.7,18.4
			c-0.4,3.4-0.7,6.8-1.1,10.1c2.7,0,5.5,0.2,8.2,0.3c0.4-5.3,0.8-10.6,1.2-15.9c-0.9-0.1-1.8-0.3-2.6-0.5c-0.3-0.1-0.2-0.6,0.1-0.5
			c0.8,0.2,1.7,0.3,2.5,0.4c0.1-0.9,0.1-1.9,0.2-2.8c0-0.6,0.1-1.3,0.1-1.9c-0.5,0-0.9-0.1-1.4-0.1c-0.2,0-0.2-0.4,0-0.4
			c0.5,0,0.9,0,1.4,0c0.2-3.5,0.4-7.1,0.5-10.7c0.6-1.1,1-2.2,1.6-3.2c1-1.9,2-3.9,2.6-6c0.2-0.9-0.8-1.9-1.7-1.3
			c-0.7,0.5-1.3,1-1.9,1.6c0.2-2.7,0.3-5.5,0.2-8.2c-2,0.1-4,0.2-6,0.5c-0.4,0.1-0.6-0.6-0.2-0.7c2-0.5,4.1-0.7,6.2-0.9
			c0-0.4,0-0.8,0-1.1c0.3-1.1,0.6-2.1,0.9-3.2c-1,0-1.9-0.1-2.9,0c-0.3,0-0.3-0.5,0-0.5c1-0.1,2-0.1,3.1-0.1c0.3-1,0.6-2,0.9-2.9
			c0.7-2.2,1.5-4.4,2.6-6.4c0.2-0.3,0.3-0.6,0.5-0.9c2.7-4.5,7.7-5.6,8.9-5.4c1.1,0.2,2.2,0.7,3.2,1.2c2,0.9,3.9,2.1,6.2,2.2
			C-222.8,259.6-222.8,259.2-223.1,259.2z"/>
		<path class="st4" d="M-258.2,335.7c0,0.4-0.1,0.7-0.1,1.1c0.2,0,0.5,0,0.7,0c0.5,0,0.5,0.7,0,0.8c-0.3,0-0.5,0-0.8,0
			c0,0.2,0,0.3,0,0.5c1.2,0.1,2.3,0.1,3.4,0.2c0.3,0,0.3,0.5,0,0.5c-1.1,0-2.3,0.1-3.5,0.1c-0.3,2.4-0.6,4.9-0.9,7.3
			c0.4,0,0.9,0.1,1.3,0.1c0.9,0,0.9,1.4,0,1.4c-0.5,0-1,0-1.5,0.1c-0.2,1.3-0.4,2.6-0.6,3.9c0.2,0,0.3,0,0.5,0c1.1,0,1.1,1.7,0,1.7
			c-0.3,0-0.5,0-0.8,0c0,0.3-0.1,0.6-0.1,0.9c-0.3,1.9-0.5,3.7-0.7,5.6c0.8,0,1.7,0.1,2.4,0c0.4,0,0.5,0.6,0.1,0.7
			c-0.8,0.1-1.7,0.1-2.5,0.2c0,0,0,0-0.1,0c-0.5,4.1-0.8,8.1-0.9,12.2c-0.1,3.1,0,6.2,0.4,9.3c0.4,3,0.8,6.1,1.9,9
			c0.3,0.9,1.9,0.9,1.8-0.2c-0.2-3.7-0.6-7.3-0.7-10.9c0-1.2,0-2.3,0-3.5c0.1,2.3,0.4,4.6,0.9,6.8c0.1,1.1,0.1,2.3,0.2,3.4
			c0.3,3.8,0.9,7.8,2.6,11.3c0.5,0.9,1.8,0.4,1.9-0.5c0.1-1.5,0-2.9-0.1-4.4c0.1,0,0.2,0.1,0.3,0.1c0,0.2,0.1,0.4,0.1,0.6
			c0,0.6,0.2,1.1,0.5,1.7c0.2,0.5,0.6,0.7,1.1,0.8c0,0.2,0,0.4,0,0.6c-0.1,1.8,2.4,1.9,3,0.4c1.1-3.1,1.2-6.5,1.1-9.8
			c-0.1-3.5-0.6-6.9-1.1-10.3c-0.5-3.4-1.1-6.7-1.7-10.1c-0.2-1.5-0.4-2.9-0.6-4.4c-1.9-0.1-3.8-0.4-5.7-0.4c-0.2,0-0.2-0.4,0-0.4
			c1.8-0.1,3.7-0.1,5.6,0c-0.1-0.6-0.1-1.2-0.2-1.8c-1.8,0-3.6-0.1-5.3-0.2c-0.3,0-0.3-0.4,0-0.4c1.7,0,3.4-0.2,5.2-0.2
			c0-0.5-0.1-1.1-0.1-1.6c0.1-1.2,0.1-2.4,0.2-3.5c0-0.9,0.1-1.9,0.2-2.8c-0.8-0.1-1.6-0.3-2.3-0.4c-0.5-0.1-0.5-0.9,0-1
			c0.7-0.1,1.5-0.3,2.4-0.4c0.2-3.6,0.5-7.1,0.8-10.7c-0.8,0-1.6-0.1-2.4-0.1c-0.4,0-0.4-0.6,0-0.7c0.8-0.1,1.7-0.1,2.5-0.1
			c0.2-2.2,0.4-4.5,0.5-6.7c0.1-1,0.2-1.9,0.2-2.9c-2.7,0-5.5-0.1-8.2-0.1C-257.7,330.6-258,333.1-258.2,335.7z M-255.6,345.2
			C-255.6,345.2-255.6,345.2-255.6,345.2c-0.1-0.2,0-0.4,0-0.6C-255.6,344.7-255.6,345-255.6,345.2z"/>
	</g>
</g>
<g>
	<path class="st5" d="M-349.2,286.6l-1.8,0c-0.7,0-1,0.1-1.2,0.3c-0.1,0.2-0.2,0.3-0.2,0.4c0,0.1-0.1,0.1-0.1,0.1
		c-0.1,0-0.1-0.1-0.1-0.2c0-0.2,0.2-1.3,0.3-1.4c0-0.2,0.1-0.2,0.1-0.2c0.1,0,0.2,0.1,0.5,0.1c0.3,0,0.8,0.1,1.2,0.1h4.7
		c0.4,0,0.6,0,0.8-0.1c0.2,0,0.3-0.1,0.3-0.1c0.1,0,0.1,0.1,0.1,0.3c0,0.3,0,1.1,0,1.4c0,0.1,0,0.2-0.1,0.2c-0.1,0-0.1-0.1-0.1-0.2
		l0-0.1c0-0.3-0.3-0.6-1.4-0.7l-1.5,0v4.9c0,1.1,0,2.1,0.1,2.6c0,0.3,0.1,0.6,0.5,0.6c0.2,0,0.4,0,0.6,0c0.1,0,0.2,0,0.2,0.1
		c0,0.1-0.1,0.1-0.2,0.1c-0.8,0-1.5,0-1.9,0c-0.3,0-1,0-1.5,0c-0.2,0-0.2,0-0.2-0.1c0-0.1,0-0.1,0.2-0.1c0.2,0,0.3,0,0.4,0
		c0.2,0,0.3-0.3,0.3-0.7c0.1-0.5,0.1-1.5,0.1-2.6V286.6z"/>
	<path class="st5" d="M-341.8,292.4C-341.8,292.4-341.9,292.4-341.8,292.4l-0.7,1.4c-0.1,0.3-0.2,0.5-0.2,0.6c0,0.2,0.1,0.3,0.4,0.3
		h0.2c0.1,0,0.2,0,0.2,0.1c0,0.1-0.1,0.1-0.2,0.1c-0.3,0-0.8,0-1.2,0c-0.1,0-0.7,0-1.2,0c-0.1,0-0.2,0-0.2-0.1c0-0.1,0-0.1,0.1-0.1
		c0.1,0,0.2,0,0.3,0c0.5-0.1,0.7-0.4,0.9-0.9l2.8-6.4c0.1-0.3,0.2-0.4,0.3-0.4c0.2,0,0.2,0.1,0.3,0.3c0.3,0.6,2,4.7,2.7,6.3
		c0.4,0.9,0.7,1.1,0.9,1.1c0.2,0,0.3,0,0.4,0c0.1,0,0.1,0,0.1,0.1c0,0.1-0.1,0.1-0.5,0.1c-0.4,0-1.1,0-2,0c-0.2,0-0.3,0-0.3-0.1
		c0-0.1,0-0.1,0.1-0.1c0.1,0,0.1-0.1,0.1-0.2l-0.8-2.1c0-0.1-0.1-0.1-0.1-0.1H-341.8z M-339.5,291.9
		C-339.5,291.9-339.5,291.8-339.5,291.9l-0.9-2.7c0,0,0-0.1,0-0.1c0,0,0,0.1-0.1,0.1l-1,2.6c0,0,0,0.1,0,0.1H-339.5z"/>
	<path class="st5" d="M-333.5,290.2c0-1.5,0-1.8,0-2.2c0-0.3-0.1-0.5-0.4-0.5c-0.1,0-0.3,0-0.4,0c-0.1,0-0.2,0-0.2-0.1
		c0-0.1,0.1-0.1,0.3-0.1c0.4,0,1.1,0,1.4,0c0.3,0,0.9,0,1.4,0c0.1,0,0.2,0,0.2,0.1c0,0.1-0.1,0.1-0.2,0.1s-0.2,0-0.3,0
		c-0.3,0-0.4,0.2-0.4,0.6c0,0.3,0,0.6,0,2.2v1.8c0,1,0,1.8,0,2.2c0,0.3,0.1,0.4,0.4,0.5c0.1,0,0.4,0,0.5,0c0.1,0,0.2,0.1,0.2,0.1
		c0,0.1-0.1,0.1-0.2,0.1c-0.7,0-1.4,0-1.7,0c-0.2,0-1,0-1.4,0c-0.1,0-0.2,0-0.2-0.1c0,0,0-0.1,0.2-0.1c0.2,0,0.3,0,0.4,0
		c0.2,0,0.3-0.2,0.3-0.5c0-0.4,0-1.2,0-2.2V290.2z"/>
	<path class="st5" d="M-324.8,291.2c0.2,0,0.4,0,0.4,0.2c0,0.2-0.2,0.2-0.5,0.3c-0.5,0.1-2.7,0.5-3.1,0.6c-0.2,0.1-0.4,0.2-0.5,0.2
		c-0.1,0-0.1-0.1-0.1-0.2l0.2-0.8c0-0.1,0.1-0.2,0.3-0.2H-324.8z"/>
	<path class="st5" d="M-320.7,293.8c-1.2-1-1.5-2.4-1.5-3.5c0-0.8,0.3-2.2,1.4-3.3c0.9-0.8,2-1.3,3.8-1.3c0.7,0,1.2,0,1.7,0.1
		c0.5,0.1,0.8,0.2,1.2,0.2c0.1,0,0.2,0.1,0.2,0.1c0,0.1,0,0.2-0.1,0.7c0,0.4,0,1.1,0,1.3c0,0.2,0,0.3-0.1,0.3
		c-0.1,0-0.1-0.1-0.1-0.3c0-0.4-0.2-0.8-0.5-1.1c-0.4-0.4-1.3-0.7-2.4-0.7c-1,0-1.7,0.3-2.3,0.7c-0.9,0.8-1.1,1.9-1.1,3.1
		c0,2.9,2.2,4.3,3.8,4.3c1.1,0,1.7-0.1,2.2-0.7c0.2-0.2,0.4-0.6,0.4-0.8c0-0.2,0.1-0.2,0.2-0.2c0.1,0,0.1,0.1,0.1,0.2
		c0,0.1-0.1,1.2-0.3,1.6c-0.1,0.2-0.1,0.3-0.3,0.3c-0.5,0.2-1.4,0.3-2.2,0.3C-318.2,295.2-319.6,294.8-320.7,293.8z"/>
	<path class="st5" d="M-304.8,290.6C-304.8,290.6-304.7,290.6-304.8,290.6l0.1-0.3c0-1.5,0-1.9,0-2.2c0-0.3-0.1-0.5-0.5-0.6
		c-0.1,0-0.3,0-0.4,0c-0.1,0-0.2,0-0.2-0.1c0-0.1,0.1-0.1,0.2-0.1c0.6,0,1.3,0,1.6,0c0.3,0,0.9,0,1.4,0c0.2,0,0.2,0,0.2,0.1
		c0,0.1-0.1,0.1-0.2,0.1c-0.1,0-0.2,0-0.3,0c-0.3,0-0.4,0.2-0.4,0.6c0,0.3,0,0.6,0,2.2v1.8c0,0.9,0,1.7,0,2.2c0,0.3,0.1,0.5,0.4,0.5
		c0.1,0,0.4,0,0.5,0c0.1,0,0.2,0.1,0.2,0.1c0,0.1-0.1,0.1-0.2,0.1c-0.7,0-1.4,0-1.7,0c-0.2,0-1,0-1.4,0c-0.1,0-0.2,0-0.2-0.1
		c0,0,0-0.1,0.2-0.1c0.2,0,0.3,0,0.4,0c0.2,0,0.3-0.2,0.3-0.5c0-0.4,0-1.2,0-2.1v-0.8c0,0,0-0.1-0.1-0.1h-4c0,0-0.1,0-0.1,0.1v0.8
		c0,0.9,0,1.7,0.1,2.2c0,0.3,0.1,0.5,0.4,0.5c0.1,0,0.4,0,0.5,0c0.1,0,0.2,0.1,0.2,0.1c0,0.1-0.1,0.1-0.2,0.1c-0.7,0-1.4,0-1.7,0
		c-0.2,0-0.9,0-1.4,0c-0.1,0-0.2,0-0.2-0.1c0,0,0-0.1,0.2-0.1c0.2,0,0.3,0,0.4,0c0.2,0,0.3-0.2,0.3-0.5c0-0.4,0-1.2,0-2.2v-1.8
		c0-1.5,0-1.8,0-2.2c0-0.3-0.1-0.5-0.5-0.6c-0.1,0-0.3,0-0.4,0c-0.1,0-0.2,0-0.2-0.1c0-0.1,0.1-0.1,0.2-0.1c0.6,0,1.3,0,1.5,0
		c0.3,0,1,0,1.4,0c0.1,0,0.2,0,0.2,0.1c0,0.1-0.1,0.1-0.2,0.1c-0.1,0-0.2,0-0.3,0c-0.3,0-0.4,0.2-0.4,0.6c0,0.3,0,0.7,0,2.2v0.2
		c0,0.1,0,0.1,0.1,0.1H-304.8z"/>
	<path class="st5" d="M-299.1,290.2c0-1.5,0-1.8,0-2.2c0-0.4-0.1-0.5-0.5-0.6c-0.1,0-0.3,0-0.4,0c-0.1,0-0.2,0-0.2-0.1
		c0-0.1,0.1-0.1,0.2-0.1c0.6,0,1.3,0,1.6,0c0.3,0,1,0,1.4,0c0.2,0,0.2,0,0.2,0.1c0,0.1-0.1,0.1-0.2,0.1c-0.1,0-0.2,0-0.3,0
		c-0.3,0-0.4,0.2-0.4,0.6c0,0.3,0,0.6,0,2.2v1.4c0,1.5,0.3,2.1,0.8,2.5c0.5,0.4,1,0.4,1.3,0.4c0.5,0,1-0.1,1.4-0.5
		c0.6-0.6,0.6-1.4,0.6-2.5v-1.3c0-1.5,0-1.8,0-2.2c0-0.3-0.1-0.5-0.4-0.6c-0.1,0-0.3,0-0.4,0c-0.1,0-0.2,0-0.2-0.1
		c0-0.1,0.1-0.1,0.2-0.1c0.5,0,1.2,0,1.3,0c0.1,0,0.8,0,1.2,0c0.1,0,0.2,0,0.2,0.1c0,0.1-0.1,0.1-0.2,0.1c-0.1,0-0.2,0-0.3,0
		c-0.3,0-0.4,0.2-0.4,0.6c0,0.3,0,0.6,0,2.2v1.1c0,1.1-0.1,2.3-1,3.1c-0.7,0.6-1.5,0.7-2.2,0.7c-0.6,0-1.6,0-2.4-0.7
		c-0.5-0.5-1-1.2-1-2.7V290.2z"/>
	<path class="st5" d="M-287.9,293.6c0,0.8,0.2,1,0.4,1.1c0.2,0.1,0.4,0.1,0.6,0.1c0.1,0,0.2,0,0.2,0.1c0,0.1-0.1,0.1-0.2,0.1
		c-0.7,0-1.2,0-1.4,0c-0.1,0-0.6,0-1.1,0c-0.1,0-0.2,0-0.2-0.1c0-0.1,0.1-0.1,0.2-0.1c0.1,0,0.3,0,0.5,0c0.3-0.1,0.3-0.3,0.3-1.2
		l0.1-6c0-0.2,0.1-0.3,0.2-0.3c0.1,0,0.3,0.2,0.5,0.3c0.1,0.1,1.7,1.8,3.3,3.2c0.7,0.7,2.1,2.1,2.3,2.3h0l-0.1-4.5
		c0-0.6-0.1-0.8-0.4-0.9c-0.2-0.1-0.4-0.1-0.6-0.1c-0.1,0-0.2,0-0.2-0.1c0-0.1,0.1-0.1,0.3-0.1c0.6,0,1.1,0,1.3,0c0.1,0,0.5,0,1,0
		c0.1,0,0.2,0,0.2,0.1c0,0.1-0.1,0.1-0.2,0.1c-0.1,0-0.2,0-0.3,0c-0.3,0.1-0.4,0.3-0.4,0.8l-0.1,6.4c0,0.2-0.1,0.3-0.2,0.3
		c-0.2,0-0.3-0.1-0.4-0.2c-0.7-0.6-2-1.9-3.1-2.9c-1.2-1.1-2.3-2.3-2.5-2.5h0L-287.9,293.6z"/>
	<path class="st5" d="M-271,294.3c0,0.3,0,0.3-0.1,0.4c-0.7,0.3-1.8,0.5-2.6,0.5c-2.6,0-4.9-1.2-4.9-4c0-1.6,0.9-2.8,1.8-3.3
		c1-0.6,2-0.7,2.8-0.7c0.7,0,1.7,0.1,1.9,0.2c0.2,0,0.6,0.1,0.8,0.1c0.1,0,0.1,0,0.1,0.1c0,0.1-0.1,0.4-0.1,1.7
		c0,0.2-0.1,0.2-0.1,0.2c-0.1,0-0.1,0-0.1-0.1c0-0.2-0.1-0.6-0.4-0.8c-0.3-0.3-1.1-0.8-2.3-0.8c-0.6,0-1.3,0-2,0.6
		c-0.6,0.5-1,1.2-1,2.5c0,2.2,1.4,3.8,3.7,3.8c0.3,0,0.5,0,0.7-0.1c0.2-0.1,0.2-0.2,0.2-0.4v-0.9c0-0.5,0-0.9,0-1.2
		c0-0.3-0.1-0.5-0.5-0.6c-0.1,0-0.3,0-0.4,0c-0.1,0-0.2,0-0.2-0.1c0-0.1,0.1-0.1,0.2-0.1c0.6,0,1.3,0,1.6,0c0.3,0,0.9,0,1.2,0
		c0.1,0,0.2,0,0.2,0.1c0,0.1-0.1,0.1-0.1,0.1c-0.1,0-0.2,0-0.3,0c-0.3,0-0.4,0.2-0.4,0.6c0,0.3,0,0.7,0,1.2V294.3z"/>
	<path class="st5" d="M-266.9,293.3c0.1,0,0.1,0.1,0.3,0.3c0.2,0.3,0.3,0.5,0.3,0.6c0,0.1-0.1,0.4-0.2,0.6c-0.2,0.4-0.5,1.1-0.9,1.6
		c-0.1,0.1-0.1,0.1-0.2,0.1c0,0-0.1-0.1-0.1-0.1s0.1-0.1,0.1-0.2c0.3-0.4,0.3-0.8,0.3-1c0-0.7-0.5-0.9-0.5-1
		C-267.8,293.7-267.2,293.3-266.9,293.3z"/>
	<path class="st5" d="M-256,286.6l-1.8,0c-0.7,0-1,0.1-1.2,0.3c-0.1,0.2-0.2,0.3-0.2,0.4c0,0.1-0.1,0.1-0.1,0.1
		c-0.1,0-0.1-0.1-0.1-0.2c0-0.2,0.2-1.3,0.3-1.4c0-0.2,0.1-0.2,0.1-0.2c0.1,0,0.2,0.1,0.5,0.1c0.3,0,0.8,0.1,1.2,0.1h4.8
		c0.4,0,0.6,0,0.8-0.1c0.2,0,0.3-0.1,0.3-0.1c0.1,0,0.1,0.1,0.1,0.3c0,0.3,0,1.1,0,1.4c0,0.1,0,0.2-0.1,0.2c-0.1,0-0.1-0.1-0.1-0.2
		l0-0.1c0-0.3-0.3-0.6-1.4-0.7l-1.5,0v4.9c0,1.1,0,2.1,0.1,2.6c0,0.3,0.1,0.6,0.5,0.6c0.2,0,0.4,0,0.6,0c0.1,0,0.2,0,0.2,0.1
		c0,0.1-0.1,0.1-0.2,0.1c-0.8,0-1.5,0-1.9,0c-0.3,0-1,0-1.5,0c-0.2,0-0.2,0-0.2-0.1c0-0.1,0-0.1,0.2-0.1c0.2,0,0.3,0,0.4,0
		c0.2,0,0.3-0.3,0.3-0.7c0.1-0.5,0.1-1.5,0.1-2.6V286.6z"/>
	<path class="st5" d="M-248.6,292.4C-248.7,292.4-248.7,292.4-248.6,292.4l-0.7,1.4c-0.1,0.3-0.2,0.5-0.2,0.6c0,0.2,0.1,0.3,0.4,0.3
		h0.2c0.1,0,0.2,0,0.2,0.1c0,0.1-0.1,0.1-0.2,0.1c-0.3,0-0.8,0-1.2,0c-0.1,0-0.7,0-1.2,0c-0.1,0-0.2,0-0.2-0.1c0-0.1,0-0.1,0.1-0.1
		c0.1,0,0.2,0,0.3,0c0.5-0.1,0.7-0.4,0.9-0.9l2.8-6.4c0.1-0.3,0.2-0.4,0.3-0.4c0.2,0,0.2,0.1,0.3,0.3c0.3,0.6,2,4.7,2.7,6.3
		c0.4,0.9,0.7,1.1,0.9,1.1c0.2,0,0.3,0,0.4,0c0.1,0,0.1,0,0.1,0.1c0,0.1-0.1,0.1-0.5,0.1c-0.4,0-1.1,0-2,0c-0.2,0-0.3,0-0.3-0.1
		c0-0.1,0-0.1,0.1-0.1c0.1,0,0.1-0.1,0.1-0.2l-0.8-2.1c0-0.1-0.1-0.1-0.1-0.1H-248.6z M-246.4,291.9
		C-246.3,291.9-246.3,291.8-246.4,291.9l-0.9-2.7c0,0,0-0.1,0-0.1c0,0,0,0.1-0.1,0.1l-1,2.6c0,0,0,0.1,0,0.1H-246.4z"/>
	<path class="st5" d="M-240.3,290.2c0-1.5,0-1.8,0-2.2c0-0.3-0.1-0.5-0.4-0.5c-0.1,0-0.3,0-0.4,0c-0.1,0-0.2,0-0.2-0.1
		c0-0.1,0.1-0.1,0.3-0.1c0.4,0,1.1,0,1.4,0c0.3,0,0.9,0,1.4,0c0.1,0,0.2,0,0.2,0.1c0,0.1-0.1,0.1-0.2,0.1c-0.1,0-0.2,0-0.3,0
		c-0.3,0-0.4,0.2-0.4,0.6c0,0.3,0,0.6,0,2.2v1.8c0,1,0,1.8,0,2.2c0,0.3,0.1,0.4,0.4,0.5c0.1,0,0.4,0,0.5,0c0.1,0,0.2,0.1,0.2,0.1
		c0,0.1-0.1,0.1-0.2,0.1c-0.7,0-1.4,0-1.7,0c-0.2,0-1,0-1.4,0c-0.1,0-0.2,0-0.2-0.1c0,0,0-0.1,0.2-0.1c0.2,0,0.3,0,0.4,0
		c0.2,0,0.3-0.2,0.3-0.5c0-0.4,0-1.2,0-2.2V290.2z"/>
	<path class="st5" d="M-235.2,288.3c-0.1-0.4-0.2-0.6-0.4-0.7c-0.1-0.1-0.3-0.1-0.4-0.1c-0.1,0-0.2,0-0.2-0.1c0-0.1,0.1-0.1,0.2-0.1
		c0.5,0,1.1,0,1.2,0s0.6,0,1.2,0c0.2,0,0.2,0,0.2,0.1c0,0.1-0.1,0.1-0.2,0.1c-0.1,0-0.2,0-0.3,0c-0.1,0-0.1,0.1-0.1,0.2
		c0,0.1,0.1,0.5,0.2,0.9c0.2,0.7,1.1,3.8,1.3,4.2h0l2-5.2c0.1-0.3,0.2-0.4,0.3-0.4c0.1,0,0.2,0.2,0.3,0.5l2.1,5h0
		c0.2-0.6,1-3.3,1.4-4.5c0.1-0.2,0.1-0.4,0.1-0.6c0-0.2-0.1-0.3-0.5-0.3c-0.1,0-0.2,0-0.2-0.1c0-0.1,0.1-0.1,0.3-0.1
		c0.6,0,1,0,1.1,0c0.1,0,0.5,0,0.9,0c0.1,0,0.2,0,0.2,0.1c0,0.1,0,0.1-0.1,0.1c-0.1,0-0.3,0-0.4,0c-0.3,0.1-0.4,0.5-0.6,1.1
		c-0.5,1.3-1.6,4.5-2.1,6c-0.1,0.4-0.2,0.5-0.3,0.5c-0.1,0-0.2-0.1-0.4-0.5l-2.1-5h0c-0.2,0.4-1.6,4-2,5c-0.2,0.4-0.3,0.5-0.4,0.5
		c-0.1,0-0.2-0.1-0.3-0.4L-235.2,288.3z"/>
	<path class="st5" d="M-221.5,292.4C-221.6,292.4-221.6,292.4-221.5,292.4l-0.7,1.4c-0.1,0.3-0.2,0.5-0.2,0.6c0,0.2,0.1,0.3,0.4,0.3
		h0.2c0.1,0,0.2,0,0.2,0.1c0,0.1-0.1,0.1-0.2,0.1c-0.3,0-0.8,0-1.2,0c-0.1,0-0.7,0-1.2,0c-0.1,0-0.2,0-0.2-0.1c0-0.1,0-0.1,0.1-0.1
		c0.1,0,0.2,0,0.3,0c0.5-0.1,0.7-0.4,0.9-0.9l2.8-6.4c0.1-0.3,0.2-0.4,0.3-0.4c0.2,0,0.2,0.1,0.3,0.3c0.3,0.6,2,4.7,2.7,6.3
		c0.4,0.9,0.7,1.1,0.9,1.1c0.2,0,0.3,0,0.4,0c0.1,0,0.1,0,0.1,0.1c0,0.1-0.1,0.1-0.5,0.1c-0.4,0-1.1,0-2,0c-0.2,0-0.3,0-0.3-0.1
		c0-0.1,0-0.1,0.1-0.1c0.1,0,0.1-0.1,0.1-0.2l-0.8-2.1c0-0.1-0.1-0.1-0.1-0.1H-221.5z M-219.2,291.9
		C-219.2,291.9-219.2,291.8-219.2,291.9l-0.9-2.7c0,0,0-0.1,0-0.1c0,0,0,0.1-0.1,0.1l-1,2.6c0,0,0,0.1,0,0.1H-219.2z"/>
	<path class="st5" d="M-212.5,293.6c0,0.8,0.2,1,0.4,1.1c0.2,0.1,0.4,0.1,0.6,0.1c0.1,0,0.2,0,0.2,0.1c0,0.1-0.1,0.1-0.2,0.1
		c-0.7,0-1.2,0-1.4,0c-0.1,0-0.6,0-1.1,0c-0.1,0-0.2,0-0.2-0.1c0-0.1,0.1-0.1,0.2-0.1c0.1,0,0.3,0,0.5,0c0.3-0.1,0.3-0.3,0.3-1.2
		l0.1-6c0-0.2,0.1-0.3,0.2-0.3c0.1,0,0.3,0.2,0.5,0.3c0.1,0.1,1.7,1.8,3.3,3.2c0.7,0.7,2.1,2.1,2.3,2.3h0l-0.1-4.5
		c0-0.6-0.1-0.8-0.4-0.9c-0.2-0.1-0.4-0.1-0.6-0.1c-0.1,0-0.2,0-0.2-0.1c0-0.1,0.1-0.1,0.3-0.1c0.6,0,1.1,0,1.3,0c0.1,0,0.5,0,1,0
		c0.1,0,0.2,0,0.2,0.1c0,0.1-0.1,0.1-0.2,0.1c-0.1,0-0.2,0-0.3,0c-0.3,0.1-0.4,0.3-0.4,0.8l-0.1,6.4c0,0.2-0.1,0.3-0.2,0.3
		c-0.2,0-0.3-0.1-0.4-0.2c-0.7-0.6-2-1.9-3.1-2.9c-1.2-1.1-2.3-2.3-2.5-2.5h0L-212.5,293.6z"/>
</g>
<path class="st5" d="M-342.4,270.3c0,3.4-3,6.3-6.1,8.9c-3.2-2.6-6.1-5.6-6.1-8.9c0-3.4,2.7-6.1,6.1-6.1S-342.4,267-342.4,270.3z"/>
<circle class="st6" cx="-348.4" cy="270.2" r="3.9"/>
<g>
	<path class="st7" d="M-335,270.4c-0.2-0.4-0.3-0.5-0.6-0.6c-0.1,0-0.2,0-0.3,0c-0.1,0-0.1,0-0.1-0.1c0-0.1,0.1-0.1,0.2-0.1
		c0.4,0,0.9,0,1.2,0c0.2,0,0.6,0,1,0c0.1,0,0.2,0,0.2,0.1s0,0.1-0.1,0.1c-0.1,0-0.2,0-0.3,0.1c-0.1,0-0.1,0.1-0.1,0.2
		c0,0.1,0.1,0.3,0.2,0.6l1.4,3.6h0c0.3-0.9,1.4-3.5,1.6-4c0-0.1,0.1-0.2,0.1-0.3c0-0.1,0-0.1-0.1-0.2c-0.1,0-0.2,0-0.3,0
		c-0.1,0-0.1,0-0.1-0.1c0-0.1,0.1-0.1,0.2-0.1c0.4,0,0.7,0,0.8,0c0.1,0,0.5,0,0.8,0c0.1,0,0.2,0,0.2,0.1s0,0.1-0.1,0.1
		s-0.2,0-0.4,0.1c-0.1,0.1-0.2,0.2-0.4,0.7c-0.3,0.8-0.5,1.2-1,2.2c-0.5,1.2-0.9,2-1.1,2.4c-0.2,0.5-0.3,0.6-0.4,0.6
		c-0.1,0-0.2-0.1-0.3-0.5L-335,270.4z"/>
	<path class="st7" d="M-327.7,270.2c0-0.3-0.1-0.4-0.3-0.5c-0.1,0-0.2,0-0.3,0c-0.1,0-0.1,0-0.1-0.1s0.1-0.1,0.2-0.1
		c0.2,0,0.4,0,0.6,0c0.2,0,0.4,0,0.5,0c0.3,0,1.8,0,2,0c0.2,0,0.3,0,0.3,0c0,0,0.1,0,0.1,0s0,0,0,0.1c0,0.1,0,0.2-0.1,0.5
		c0,0.1,0,0.4,0,0.5c0,0,0,0.1-0.1,0.1c-0.1,0-0.1,0-0.1-0.1c0-0.1,0-0.2,0-0.3c-0.1-0.1-0.1-0.2-0.5-0.3c-0.1,0-1,0-1.1,0
		c0,0-0.1,0-0.1,0.1v2c0,0.1,0,0.1,0.1,0.1c0.2,0,1.1,0,1.3,0c0.2,0,0.3,0,0.4-0.1c0.1-0.1,0.1-0.1,0.1-0.1c0,0,0.1,0,0.1,0.1
		s0,0.2-0.1,0.6c0,0.2,0,0.5,0,0.5c0,0.1,0,0.2-0.1,0.2c-0.1,0-0.1,0-0.1-0.1c0-0.1,0-0.2,0-0.3c0-0.2-0.2-0.3-0.4-0.3
		c-0.2,0-0.9,0-1.1,0c0,0,0,0,0,0.1v0.6c0,0.3,0,1,0,1.2c0,0.6,0.1,0.7,1,0.7c0.2,0,0.5,0,0.8-0.1c0.2-0.1,0.3-0.3,0.4-0.6
		c0-0.1,0-0.1,0.1-0.1c0.1,0,0.1,0.1,0.1,0.1c0,0.2-0.1,0.7-0.1,0.9c-0.1,0.2-0.1,0.2-0.4,0.2c-0.6,0-1,0-1.4,0c-0.3,0-0.6,0-0.8,0
		c-0.1,0-0.3,0-0.5,0c-0.2,0-0.4,0-0.6,0c-0.1,0-0.2,0-0.2-0.1c0,0,0-0.1,0.1-0.1c0.1,0,0.2,0,0.3,0c0.2,0,0.2-0.2,0.2-0.4
		c0-0.3,0-1,0-1.7"/>
	<path class="st7" d="M-321.4,274.6c0,0.6,0.1,0.8,0.3,0.9c0.1,0,0.3,0.1,0.4,0.1c0.1,0,0.1,0,0.1,0.1c0,0.1-0.1,0.1-0.2,0.1
		c-0.5,0-0.8,0-1,0c-0.1,0-0.4,0-0.9,0c-0.1,0-0.2,0-0.2-0.1c0,0,0-0.1,0.1-0.1c0.1,0,0.2,0,0.4,0c0.2-0.1,0.2-0.3,0.2-1l0.1-4.7
		c0-0.2,0-0.3,0.1-0.3c0.1,0,0.2,0.1,0.3,0.2c0.1,0.1,1.3,1.4,2.5,2.6c0.5,0.5,1.6,1.7,1.8,1.8h0l-0.1-3.6c0-0.5-0.1-0.6-0.3-0.7
		c-0.1,0-0.3,0-0.4,0c-0.1,0-0.1,0-0.1-0.1c0-0.1,0.1-0.1,0.2-0.1c0.4,0,0.8,0,1,0c0.1,0,0.4,0,0.8,0c0.1,0,0.2,0,0.2,0.1
		c0,0,0,0.1-0.1,0.1c-0.1,0-0.1,0-0.2,0c-0.2,0.1-0.3,0.2-0.3,0.7l-0.1,5c0,0.2,0,0.2-0.1,0.2c-0.1,0-0.2-0.1-0.3-0.2
		c-0.5-0.5-1.5-1.5-2.4-2.4c-0.9-0.9-1.8-1.9-1.9-2h0L-321.4,274.6z"/>
	<path class="st7" d="M-313.8,270.2c0-0.3-0.1-0.4-0.3-0.5c-0.1,0-0.2,0-0.3,0c-0.1,0-0.1,0-0.1-0.1s0.1-0.1,0.2-0.1
		c0.4,0,0.9,0,1.2,0c0.2,0,0.7,0,1,0c0.1,0,0.2,0,0.2,0.1s0,0.1-0.1,0.1c-0.1,0-0.1,0-0.2,0c-0.2,0-0.3,0.2-0.3,0.5
		c0,0.3,0,0.5,0,1.7v1.1c0,1.2,0.2,1.6,0.6,2c0.4,0.3,0.7,0.3,1,0.3c0.4,0,0.8-0.1,1.1-0.4c0.4-0.4,0.5-1.2,0.5-2v-1
		c0-1.2,0-1.4,0-1.7c0-0.3-0.1-0.4-0.3-0.5c-0.1,0-0.2,0-0.3,0s-0.1,0-0.1-0.1s0.1-0.1,0.2-0.1c0.4,0,0.9,0,0.9,0c0.1,0,0.6,0,0.9,0
		c0.1,0,0.2,0,0.2,0.1s0,0.1-0.1,0.1c-0.1,0-0.1,0-0.2,0c-0.2,0-0.3,0.2-0.3,0.5c0,0.3,0,0.5,0,1.7v0.9c0,0.9-0.1,1.8-0.8,2.4
		c-0.6,0.5-1.1,0.6-1.7,0.6c-0.4,0-1.2,0-1.8-0.6c-0.4-0.4-1-1-1-2.2"/>
	<path class="st7" d="M-305.8,270.2c0-0.3-0.1-0.4-0.3-0.5c-0.1,0-0.2,0-0.3,0c-0.1,0-0.1,0-0.1-0.1s0.1-0.1,0.2-0.1
		c0.2,0,0.4,0,0.6,0c0.2,0,0.4,0,0.5,0c0.3,0,1.8,0,2,0c0.2,0,0.3,0,0.3,0c0,0,0.1,0,0.1,0s0,0,0,0.1c0,0.1,0,0.2-0.1,0.5
		c0,0.1,0,0.4,0,0.5c0,0,0,0.1-0.1,0.1c-0.1,0-0.1,0-0.1-0.1c0-0.1,0-0.2,0-0.3c-0.1-0.1-0.1-0.2-0.5-0.3c-0.1,0-1,0-1.1,0
		c0,0-0.1,0-0.1,0.1v2c0,0.1,0,0.1,0.1,0.1c0.2,0,1.1,0,1.3,0c0.2,0,0.3,0,0.4-0.1c0.1-0.1,0.1-0.1,0.1-0.1c0,0,0.1,0,0.1,0.1
		s0,0.2-0.1,0.6c0,0.2,0,0.5,0,0.5c0,0.1,0,0.2-0.1,0.2c-0.1,0-0.1,0-0.1-0.1c0-0.1,0-0.2,0-0.3c0-0.2-0.2-0.3-0.4-0.3
		c-0.2,0-0.9,0-1.1,0c0,0,0,0,0,0.1v0.6c0,0.3,0,1,0,1.2c0,0.6,0.1,0.7,1,0.7c0.2,0,0.5,0,0.8-0.1c0.2-0.1,0.3-0.3,0.4-0.6
		c0-0.1,0-0.1,0.1-0.1c0.1,0,0.1,0.1,0.1,0.1c0,0.2-0.1,0.7-0.1,0.9c-0.1,0.2-0.1,0.2-0.4,0.2c-0.6,0-1,0-1.4,0c-0.3,0-0.6,0-0.8,0
		c-0.1,0-0.3,0-0.5,0c-0.2,0-0.4,0-0.6,0c-0.1,0-0.2,0-0.2-0.1c0,0,0-0.1,0.1-0.1c0.1,0,0.2,0,0.3,0c0.2,0,0.2-0.2,0.2-0.4
		c0-0.3,0-1,0-1.7"/>
</g>
</svg>
